<?xml version="1.0" encoding="utf-8"?>
<!-- Generator: Adobe Illustrator 27.5.0, SVG Export Plug-In . SVG Version: 6.00 Build 0)  -->
<svg version="1.1" xmlns="http://www.w3.org/2000/svg" xmlns:xlink="http://www.w3.org/1999/xlink" x="0px" y="0px"
	 viewBox="0 0 1920 1080" style="enable-background:new 0 0 1920 1080;" xml:space="preserve">
<style type="text/css">
	.st0{fill:#42C09E;}
	.st1{fill:#FFFFFF;stroke:#000000;stroke-miterlimit:10;}
	.st2{fill:#FFFFFF;stroke:#FFFFFF;stroke-miterlimit:10;}
</style>
<g id="Layer_1">
	<g>
		<path class="st0" d="M717,1080H0V0h717c-0.2,36.5-0.5,93.9-0.5,164.5c0,93,0.4,161.7,0.5,179.2C717.5,432.3,717.8,627.1,717,1080z
			"/>
	</g>
	<path class="st1" d="M809.5,124.5"/>
	<path class="st1" d="M961.5-0.5"/>
	<path class="st0" d="M917-0.5c-30.6,15.5-53.9,32.8-70.2,46.8C818,71,800.5,94.1,795.7,100.5c-15.1,20.4-23.9,37.4-30.8,50.8
		c-18.9,36.9-27.5,67.3-30.4,78.2c-0.8,3.1-4.7,17.9-8,38c-4.9,29.9-5.6,52.8-6,70c-2,84.6-2,102-2,102c0.1,60.6-0.1,104.6,0,148
		c0.1,47.2,0,30.3,0,123c0.1,135.3,0.3,134.6,0,174c-0.4,41.6-0.8,59-1,110c-0.3,82.6,0.6,84.9,0,85c-12.2,1.5-260.1-927.8-1-1080
		C782.3-39.1,865.4-18.7,917-0.5z"/>
	<rect x="916.5" y="-0.5" class="st2" width="1004" height="1079"/>
	<path class="st0" d="M882,0c-50.7,0-101.3,0-152,0"/>
	<path class="st1" d="M965.5,303.5"/>
</g>
<g id="Layer_2">
</g>
</svg>
