<?xml version="1.0" encoding="utf-8"?>
<!-- Generator: Adobe Illustrator 27.5.0, SVG Export Plug-In . SVG Version: 6.00 Build 0)  -->
<svg version="1.1" id="Layer_1" xmlns="http://www.w3.org/2000/svg" xmlns:xlink="http://www.w3.org/1999/xlink" x="0px" y="0px"
	 viewBox="0 0 32.1 32" style="enable-background:new 0 0 32.1 32;" xml:space="preserve">
<style type="text/css">
	.st0{fill:#69DDED;}
	.st1{fill:#B2EEF6;}
	.st2{fill:#A7EBF4;}
	.st3{fill:#75DFEE;}
	.st4{fill:#626262;}
	.st5{fill:#909090;}
	.st6{fill:#6E6E6E;}
	.st7{fill:#AAECF5;}
	.st8{fill:#C0F1F8;}
</style>
<g>
	<g>
		<path d="M21.9,9.6c0.3,0.5,0.6,0.9,0.7,1.4c0.2,0.7,0.4,1.4,0.6,2c0.1,0.6,0.1,1.3,0.1,1.9c-0.1,0.7-0.2,1.3-0.4,1.9
			c-0.2,0.5-0.5,1-0.7,1.5c0,0,0,0.1,0,0.1c0,0,0,0.1,0,0.1c0,0,0,0,0,0.1c0,0,0,0,0,0c-0.1,0.1-0.2,0.1-0.3,0.2
			c-0.2,0.2-0.4,0.5-0.6,0.6c-0.3,0.3-0.7,0.6-1.1,0.9c-0.5,0.2-0.9,0.5-1.4,0.7c-0.5,0.2-1,0.3-1.4,0.3c-0.6,0-1.2,0-1.8-0.1
			c-0.4-0.1-0.8-0.2-1.2-0.4c-0.4-0.1-0.8-0.3-1.2-0.5c0,0,0-0.1,0-0.1c-0.4-0.4-0.8-0.8-1.3-1.1c-0.1-0.1-0.3-0.3-0.4-0.4
			c-0.3-0.5-0.6-1-0.8-1.5c-0.4-0.7-0.5-1.5-0.6-2.3c0-0.5,0-1,0-1.5c0.1-1.1,0.3-2.1,0.8-3c0.1-0.2,0.3-0.4,0.4-0.7
			c0.5-0.9,1.4-1.5,2.1-2.1c0.6-0.2,1.2-0.4,1.8-0.6c0,0,0,0,0.1,0c0,0,0-0.1,0.1-0.1c0.2,0,0.3,0,0.5,0c0.7-0.1,1.4,0,2.1,0.1
			c0,0,0,0,0.1,0.1c0.7,0.1,1.3,0.4,1.9,0.7c0.5,0.4,1,0.8,1.5,1.2C21.7,9.2,21.8,9.4,21.9,9.6z M17.4,8.3c-0.1,0-0.3,0.1-0.4,0.1
			c-0.4,0-0.8,0-1.2,0c-0.1,0-0.2,0-0.2,0c-0.4,0.2-0.8,0.4-1.1,0.6c-0.3,0.2-0.6,0.3-0.6,0.7c-0.1,0-0.1,0.1-0.2,0.1
			c-0.2,0.4-0.5,0.8-0.7,1.2c-0.2,0.5-0.3,1-0.4,1.6c0,0.3-0.1,0.5-0.1,0.8c0,0.8,0.1,1.6,0.1,2.5c0,0.3,0.2,0.6,0.2,0.9
			c0.1,0.6,0.3,1.2,0.8,1.6c0,0.1,0,0.2,0,0.2c0.4,0.4,0.8,0.8,1.2,1c0.6,0.4,1.3,0.5,2,0.4c0.9-0.1,1.6-0.3,2.3-1
			c0.5-0.4,0.8-0.9,1-1.4c0.2-0.5,0.3-0.9,0.5-1.4c0.1-0.6,0.2-1.2,0.2-1.9c0-0.5,0-1-0.1-1.5c0-0.4-0.2-0.8-0.2-1.2
			c-0.2-0.6-0.4-1.2-0.8-1.8c-0.2-0.2-0.4-0.5-0.6-0.7C18.7,8.8,18.1,8.5,17.4,8.3C17.5,8.3,17.5,8.3,17.4,8.3z"/>
		<path class="st0" d="M20.2,20.4c0.4-0.3,0.7-0.6,1.1-0.9c0.2-0.2,0.4-0.4,0.6-0.6c0.1-0.1,0.2-0.1,0.3-0.2
			c0.1,0.4,0.3,0.8,0.4,1.2c0.2,0.9,0.1,1.9-0.2,2.8c-0.2,0.6-0.5,1.2-1,1.7c-0.4,0.4-0.7,0.8-1.1,1.1c-0.8,0.6-1.7,0.9-2.8,1
			c-0.5,0-0.9,0.1-1.4-0.1c-0.1-0.1-0.4,0-0.6,0c-0.5-0.1-1-0.3-1.5-0.5c-0.7-0.3-1.1-0.8-1.6-1.2c-0.8-0.8-1.2-1.7-1.3-2.9
			c0-0.5,0-1.1,0-1.7c0-0.3,0.1-0.6,0.2-0.9c0-0.1,0.1-0.2,0.2-0.3c0.1,0.1,0.3,0.3,0.4,0.4c0.4,0.4,0.8,0.8,1.3,1.1
			c0,0,0,0.1,0,0.1c0,1.3,0.1,2.5,1,3.6c0.5,0.6,1,1,1.7,1.2c0.7,0.3,1.5,0.2,2.2,0c0.8-0.3,1.4-0.7,1.9-1.5
			c0.3-0.5,0.5-1.1,0.5-1.7C20.4,21.6,20.3,21,20.2,20.4z"/>
		<path class="st0" d="M21.9,9.6c-0.1-0.2-0.3-0.3-0.4-0.5c-0.5-0.4-1-0.8-1.5-1.2C20,7.6,20,7.3,19.9,7c-0.2-1-0.7-1.7-1.7-2.1
			c-0.2-0.1-0.4-0.2-0.6-0.2c0,0,0,0-0.1,0c-0.5,0-1.1,0-1.6,0c0,0,0,0-0.1,0c-0.1,0-0.1,0.1-0.2,0.1C15,4.9,14.4,5.3,14,5.8
			c-0.4,0.5-0.7,1-0.7,1.7c0,0.1,0.1,0.2,0.1,0.2c-0.8,0.6-1.6,1.2-2.1,2.1c0,0,0,0,0,0c0,0,0,0,0-0.1c0-0.3-0.2-0.7-0.1-1
			c0.1-0.6,0.2-1.2,0.4-1.8c0.1-0.4,0.4-0.9,0.7-1.2c0.3-0.4,0.7-0.8,1.1-1.2c0.1-0.1,0.2-0.2,0.4-0.2c0.8-0.4,1.6-0.7,2.6-0.7
			c0.7,0,1.4,0,2.1,0.2c0.8,0.2,1.5,0.5,2.1,1.1c0.9,0.8,1.5,1.7,1.6,2.9C22.2,8.3,22.2,9,21.9,9.6z"/>
		<path class="st1" d="M22.1,18.6c0,0,0-0.1,0-0.1C22.2,18.5,22.2,18.6,22.1,18.6C22.2,18.6,22.2,18.6,22.1,18.6z"/>
		<path class="st2" d="M11.3,9.8C11.3,9.8,11.3,9.8,11.3,9.8C11.3,9.8,11.3,9.8,11.3,9.8z"/>
		<path class="st3" d="M22.1,18.6C22.2,18.6,22.2,18.6,22.1,18.6C22.2,18.6,22.1,18.6,22.1,18.6C22.1,18.6,22.1,18.6,22.1,18.6z"/>
		<path class="st0" d="M12.6,12.6c0.1-0.5,0.2-1.1,0.4-1.6c0.2-0.4,0.4-0.8,0.7-1.2c0-0.1,0.1-0.1,0.2-0.1c0.1,0.1,0.1,0.2,0.2,0.3
			c0,0.1-0.1,0.3-0.1,0.3c0,0.1,0.2,0.1,0.3,0.1c0.2,0.2,0.4,0.4,0.6,0.5c0.2,0.2,0.3,0.3,0.5,0.5c0.6,0.6,1.3,1.2,2,1.8
			c0.3-0.3,0.6-0.7,0.9-1c0.3-0.3,0.6-0.7,0.8-1.1c0.3-0.4,0.5-0.8,0.7-1.2c0.4,0.5,0.6,1.1,0.8,1.8c-0.1,0.1-0.2,0.3-0.3,0.4
			c-0.4-0.2-0.7,0.1-0.5,0.4c-0.6,0.4-1.1,0.9-1.7,1.3c0.5,0.4,0.9,0.8,1.4,1.2c0,0.1-0.1,0.4,0,0.4c0.1,0.1,0.3,0,0.5,0.1
			c0.2,0.2,0.4,0.4,0.6,0.6c0.1,0.1,0.1,0.1,0.2,0.1c-0.2,0.5-0.3,0.9-0.5,1.4c-0.2,0.5-0.5,1-1,1.4c-0.5-0.6-1-1.1-1.5-1.7
			c-0.5-0.5-1-0.9-1.5-1.4c-0.6-0.5-0.7-0.5-1.1,0.1c-0.1,0-0.3,0-0.4,0.1c-0.1,0.1,0,0.3,0,0.4c-0.3,0.6-0.7,1.2-1,1.8
			c-0.4-0.5-0.6-1-0.8-1.6c0.1-0.1,0.1-0.1,0.2-0.2c0.1,0,0.3,0.1,0.4,0.1c0.2-0.1,0.2-0.3,0.1-0.5c0.1-0.1,0.2-0.2,0.2-0.3
			c0.4-0.3,0.7-0.6,1.2-1c-0.1-0.1-0.3-0.2-0.4-0.3c-0.3-0.3-0.7-0.6-1-0.9C13.3,13.3,13,13,12.6,12.6z"/>
		<path class="st4" d="M15.4,7C15.4,7,15.4,7,15.4,7c0,0,0,0.1,0,0.1C15.4,7.1,15.4,7.1,15.4,7z"/>
		<path class="st5" d="M15.4,7c0,0,0,0.1,0,0.1c0,0,0,0-0.1,0C15.3,7.1,15.3,7.1,15.4,7z"/>
		<path class="st6" d="M18,7.1C18,7.1,18,7.1,18,7.1C18.1,7.1,18.1,7.1,18,7.1C18.1,7.1,18,7.1,18,7.1z"/>
		<path d="M17.5,8.3C17.5,8.3,17.5,8.3,17.5,8.3C17.5,8.3,17.5,8.3,17.5,8.3z"/>
		<path class="st7" d="M15.9,4.6C15.9,4.6,15.9,4.6,15.9,4.6C15.9,4.6,15.9,4.6,15.9,4.6z"/>
		<path class="st8" d="M17.6,4.6C17.6,4.6,17.6,4.6,17.6,4.6C17.6,4.6,17.6,4.6,17.6,4.6z"/>
		<path class="st0" d="M19.4,15.1c0.2,0.2,0.3,0.3,0.5,0.5c-0.2,0-0.3,0-0.5-0.1C19.3,15.4,19.4,15.2,19.4,15.1z"/>
		<path class="st0" d="M13.1,16.6c0.2-0.1,0.3-0.3,0.5-0.4c0.1,0.2,0.1,0.4-0.1,0.5C13.3,16.7,13.2,16.6,13.1,16.6z"/>
		<path class="st0" d="M15.1,16.1c-0.2,0.2-0.3,0.3-0.5,0.5c0-0.1,0-0.3,0-0.4C14.8,16.1,15,16.1,15.1,16.1z"/>
		<path class="st0" d="M20.2,12.1c-0.2,0.1-0.3,0.3-0.5,0.4C19.6,12.2,19.8,11.9,20.2,12.1z"/>
		<path class="st0" d="M14.1,10c0.1,0.2,0.2,0.3,0.3,0.5c-0.1,0-0.3,0-0.3-0.1C13.9,10.3,14,10.1,14.1,10z"/>
	</g>
</g>
</svg>
