<?xml version="1.0" encoding="utf-8"?>
<!-- Generator: Adobe Illustrator 27.5.0, SVG Export Plug-In . SVG Version: 6.00 Build 0)  -->
<svg version="1.1" id="Layer_1" xmlns="http://www.w3.org/2000/svg" xmlns:xlink="http://www.w3.org/1999/xlink" x="0px" y="0px"
	 viewBox="0 0 1920 1080" style="enable-background:new 0 0 1920 1080;" xml:space="preserve">
<style type="text/css">
	.st0{fill:none;}
	.st1{fill:#00AA77;}
	.st2{fill:#FFE5D8;stroke:#000000;stroke-miterlimit:10;}
</style>
<g>
	<rect class="st0" width="1920" height="1089"/>
</g>
<g>
	<path class="st1" d="M106.8,369.5c10.9,11.1,82.3,86.2,72.5,197.5c-7.5,84.6-57.3,138.3-72.5,153.5C91.6,733.8,26.7,787.9-71.7,787
		c-95.3-0.9-157.9-52.7-173.5-66.5c-13.2-13.1-69.7-71.9-73.5-165.5c-4.3-106,62.4-174.5,73.5-185.5c14.7-12.9,84.7-71.4,188.5-66.5
		C31.5,307.1,89.7,354.5,106.8,369.5z"/>
</g>
<path class="st2" d="M-245.5,811.5"/>
<path class="st2" d="M-526.5,721.5"/>
<g>
	<path class="st1" d="M2138.4,250.2c13.6,13.8,102.1,106.6,89.9,244.2c-9.3,104.7-71.1,171-89.9,189.8
		c-18.8,16.5-99.3,83.3-221.3,82.2c-118.1-1.1-195.8-65.2-215.1-82.2c-16.3-16.1-86.5-88.8-91.1-204.7
		c-5.3-131,77.3-215.7,91.1-229.3c18.2-16,105-88.3,233.7-82.2C2045.1,173.1,2117.2,231.7,2138.4,250.2z"/>
</g>
</svg>
