<?xml version="1.0" encoding="utf-8"?>
<!-- Generator: Adobe Illustrator 27.5.0, SVG Export Plug-In . SVG Version: 6.00 Build 0)  -->
<svg version="1.1" id="Layer_1" xmlns="http://www.w3.org/2000/svg" xmlns:xlink="http://www.w3.org/1999/xlink" x="0px" y="0px"
	 viewBox="0 0 330 138.5" style="enable-background:new 0 0 330 138.5;" xml:space="preserve">
<style type="text/css">
	.st0{fill:#00FFFF;}
	.st1{fill:#00FEFF;}
	.st2{fill:#DEFFFF;}
	.st3{fill:#838382;}
	.st4{fill:#343636;}
	.st5{fill:#DCDAD6;}
	.st6{fill:#636363;}
	.st7{fill:#3C3B3B;}
	.st8{fill:#646464;}
	.st9{fill:#42403F;}
	.st10{fill:#757374;}
	.st11{fill:#FBFEFC;}
	.st12{fill:#FDFDFB;}
	.st13{fill:#27FFFF;}
	.st14{fill:#10CCC7;}
	.st15{fill:#00EAE6;}
	.st16{fill:#636262;}
	.st17{fill:#171617;}
	.st18{fill:#38393B;}
	.st19{fill:#686767;}
	.st20{fill:#8D8D8D;}
	.st21{fill:#ADAEAD;}
	.st22{fill:#C3C5C6;}
	.st23{fill:#4C4B4A;}
	.st24{fill:#0C0C0D;}
	.st25{fill:#3E3D3D;}
	.st26{fill:#7E7E7D;}
	.st27{fill:#C6C7C9;}
	.st28{fill:#565659;}
	.st29{fill:#424141;}
	.st30{fill:#0F0F0F;}
	.st31{fill:#3DFFFF;}
	.st32{fill:#ECFFFA;}
	.st33{fill:#D2FFE8;}
	.st34{fill:#2CFFFF;}
	.st35{fill:#18F2FF;}
	.st36{fill:#F4FFFB;}
	.st37{fill:#1EFFFF;}
	.st38{fill:#43FFF6;}
	.st39{fill:#626261;}
	.st40{fill:#D4E8E1;}
	.st41{fill:#418E85;}
	.st42{fill:#B2FFFF;}
	.st43{fill:#82FFFF;}
	.st44{fill:#989899;}
	.st45{fill:#676768;}
	.st46{fill:#6D6D6D;}
	.st47{fill:#626161;}
	.st48{fill:#99999A;}
	.st49{fill:#64F5FE;}
	.st50{fill:#DBFFF9;}
	.st51{fill:#9EFFFF;}
	.st52{fill:#BCFCF7;}
	.st53{fill:#C2FFFF;}
	.st54{fill:#BDFDFB;}
	.st55{fill:#6AFFFF;}
	.st56{fill:#C7FFFF;}
	.st57{fill:#5AFFFF;}
	.st58{fill:#63EDFF;}
	.st59{fill:#7CFFFF;}
	.st60{fill:#39FFFF;}
	.st61{fill:#FCFCFA;}
	.st62{fill:#04F9FB;}
	.st63{fill:#14FAFD;}
	.st64{fill:#C0F2F6;}
	.st65{fill:#E3F7F5;}
	.st66{fill:#EFFFFD;}
	.st67{fill:#BEFFFD;}
	.st68{fill:#41F5FF;}
	.st69{fill:#DBD3CD;}
	.st70{fill:#483A3B;}
	.st71{fill:#AAE2DE;}
	.st72{fill:#6ED2BD;}
	.st73{fill:#9BC2C0;}
	.st74{fill:#57FBF7;}
	.st75{fill:#34F3FC;}
	.st76{fill:#20BDC2;}
	.st77{fill:#A4F3F6;}
	.st78{fill:#72FFFF;}
	.st79{fill:#26A0B1;}
	.st80{fill:#5FFFFF;}
	.st81{fill:#84FFFF;}
	.st82{fill:#18D0F8;}
	.st83{fill:#9CFFFF;}
	.st84{fill:#BFECE6;}
	.st85{fill:#D0FAFA;}
	.st86{fill:#A0F9EC;}
	.st87{fill:#69FFFA;}
	.st88{fill:#48FFFF;}
	.st89{fill:#CEFFFF;}
	.st90{fill:#A7FFFF;}
	.st91{fill:#10FBFD;}
	.st92{fill:#DBF9FD;}
	.st93{fill:#36FFFF;}
	.st94{fill:#49FFFF;}
	.st95{fill:#2CF8FF;}
	.st96{fill:#85FFFF;}
	.st97{fill:#29E1FB;}
	.st98{fill:#8AF6FF;}
	.st99{fill:#05FCFB;}
	.st100{fill:#F3FDFD;}
	.st101{fill:#19FBFD;}
	.st102{fill:#4DDBF7;}
	.st103{fill:#B3FFFF;}
	.st104{fill:#D2FFF5;}
	.st105{fill:#D4F7FF;}
	.st106{fill:#84EDEB;}
	.st107{fill:#EAFAF3;}
	.st108{fill:#7D8275;}
	.st109{fill:#C3FFFF;}
	.st110{fill:#55FFFF;}
	.st111{fill:#30FFFF;}
	.st112{fill:#D8FFFF;}
	.st113{fill:#ECEBEB;}
	.st114{fill:#C3FCFB;}
	.st115{fill:#40F6FF;}
	.st116{fill:#77E8EE;}
	.st117{fill:#01F1FC;}
	.st118{fill:#0DEDF7;}
	.st119{fill:#00ADB3;}
	.st120{fill:#0AB5C2;}
	.st121{fill:#03CADA;}
	.st122{fill:#436A64;}
	.st123{fill:#06FFFE;}
	.st124{fill:#19B5AD;}
	.st125{fill:#70FCFA;}
	.st126{fill:#11DAFB;}
	.st127{fill:#006261;}
	.st128{fill:#6AD9DE;}
	.st129{fill:#ACF1F8;}
	.st130{fill:#9BFFFF;}
	.st131{fill:#3EF5FF;}
	.st132{fill:#79FFFF;}
	.st133{fill:#68FFFF;}
	.st134{fill:#DAFBFF;}
	.st135{fill:#B0F2EF;}
	.st136{fill:#17FFFF;}
	.st137{fill:#1DFFFE;}
	.st138{fill:#38F8FF;}
	.st139{fill:#B1FFFF;}
	.st140{fill:#5FFFFD;}
	.st141{fill:#73FFFF;}
</style>
<g>
	<g>
		<path d="M301.5,84c0.1-0.7,0.3-1.4,0.3-2c0-4.2,0-8.5,0-12.7c0-4.7,0-9.4,0-14c0-1.2-0.5-1.6-1.6-1.6c-1,0-2,0-3,0
			c-0.9,0.1-1.2-0.4-1.2-1.1c0-0.7,0-1.5,0-2.3c10.3,0,20.5,0,30.7,0c0,3.6,0,7.1,0.1,10.7c-1.2,0.9-2.5,0.5-3.8,0.2
			c-0.1-1-0.1-2-0.3-3c-0.4-2.8-1.7-4.3-4-4.4c-3.3-0.1-6.6,0-9.8,0c-0.3,0-0.8,0.3-0.8,0.5c0,1,0.1,1.9,0.2,2.9
			c-0.1,1-0.2,1.9-0.2,2.9c0,1.7,0.1,3.4,0.2,5.1c-0.1,1.4-0.2,2.8-0.2,4.2c0,0.2,0.6,0.5,0.9,0.5c1.3,0.1,2.7,0,4,0
			c2.6,0,3.9-1.1,4.3-3.6c0.1-0.6,0.1-1.3,0.5-1.6c0.5-0.3,1.2-0.3,1.9-0.3c0.2,0,0.4,0.5,0.6,0.7c0,0.6,0,1.2,0,1.7
			c0,0.1,0,0.2,0,0.2c0,1,0,2,0,3c0,2.5,0,5,0,7.5c0,0.2,0,0.3,0,0.5c-0.7,0.1-1.5,0.2-2.2,0.2c-0.2,0-0.4-0.3-0.6-0.5
			c-0.1-0.4-0.2-0.8-0.2-1.2c-0.1-1.9-1.1-3.1-3-3.5c-0.4,0-0.9,0.1-1.3,0.1c-1.1,0-2.1-0.1-3.2-0.1c-0.6,0.1-1.6,0.2-1.7,0.5
			c-0.3,0.9-0.3,2-0.3,3c0,1,0.1,2,0.2,3c-1.1,1.6-1.1,3.3-0.7,5.1c0.1,0.3,0.3,0.5,0.5,0.8c0.3-0.2,0.5-0.4,0.8-0.7
			c0.8,0,1.5,0,2.3,0c1.7,1.6,3.5,0.9,5.3,0.5c0.8,0.2,1.5,0.3,2.3,0.3c0.9,0,2-0.6,2.6-0.3c1.1,0.6,1.6-0.5,2.3-0.7
			c0.7-0.2,1.3-1.1,1.8-1.7c0.1-0.1-0.1-0.6-0.3-0.8c-0.2-0.2-0.5-0.4-0.8-0.6c0-0.1,0-0.2,0-0.3c1.4-0.3,0.8-1.4,1-2.2
			c0.7-0.5,1.2-1.2,2.2-1.1c0.3,0,0.6-0.4,1-0.7c0,2.7,0,5.3,0,8c-0.3,0.1-0.9,0.3-0.9,0.4c0.2,1-0.7,1.5-1.1,2.3
			c-9.6,0-19.1,0-28.7,0c0-0.4-0.1-0.7-0.1-1.1c0-0.4,0-0.8,0-1.2c0.4,0,0.8,0,1.2,0c0.6,0,1.1,0,1.7-0.1c0.4-0.1,0.8-0.2,1.1-0.3
			c0.4-0.1,0.7-0.3,1-0.5C302.2,84.5,301.9,84.3,301.5,84L301.5,84z"/>
		<path d="M296.1,88c0-1,0-2,0-3.1c1.8-0.4,3.9,0.5,5.5-0.9c0.3,0.3,0.6,0.5,0.9,0.8c-0.3,0.2-0.7,0.3-1,0.5
			c-0.4,0.1-0.8,0.3-1.1,0.3c-0.6,0.1-1.1,0.1-1.7,0.1c-0.4,0-0.8,0-1.2,0c0,0.4,0,0.8,0,1.2c0,0.4,0.1,0.7,0.1,1.1
			C297.1,88,296.6,88,296.1,88z"/>
		<path d="M288.3,53.7c0.1,0.2,0.2,0.3,0.3,0.5c-1,0.5-1.9,0.1-2.3-0.8c-0.4-0.7-1-0.9-1.7-1c-0.7-0.1-1.4-0.2-2.1-0.3
			c-0.6-0.2-1.5-0.3-1.1-1.4c1.1,0.2,2.2,0.5,3.2,0.7C285.8,52.2,287.1,52.9,288.3,53.7z"/>
		<path d="M326.2,87.9c0.3-0.8,1.2-1.2,1.1-2.3c0-0.1,0.6-0.3,0.9-0.4c0,0.9,0,1.8,0,2.7C327.5,87.9,326.9,87.9,326.2,87.9z"/>
		<path d="M327.5,77.1c0.2,0,0.5,0,0.7,0c0,0.1,0,0.2,0,0.2c-0.3,0.2-0.7,0.7-1,0.7c-1-0.1-1.6,0.5-2.2,1.1c0-1.7,0-1.7,1.7-1.7
			C327,77.3,327.2,77.2,327.5,77.1z"/>
		<path class="st0" d="M72.8,119.3c-0.2,0.3-0.3,0.7-0.5,1c0,0,0,0,0,0c-0.5,0.8-1,1.7-1.5,2.5c-0.2,0.2-0.3,0.5-0.5,0.7
			c-0.4,0.5-0.8,1-1.2,1.5c-0.3,0.3-0.6,0.5-0.9,0.8c-1.2,1.2-2.4,2.4-3.6,3.6c-0.5,0.3-1.1,0.6-1.5,1c-2.7,2.5-6.1,3.9-9.4,5.2
			c-5,2-10.5,2.3-15.9,2.6c-2.2,0.1-4.5-0.1-6.7-0.5c-2.6-0.4-5.3-0.8-7.8-1.8c-2.8-1-5.5-2.3-7.9-4c-2.6-1.8-4.9-4.1-7.3-6.2
			c-0.5-0.7-1-1.3-1.5-2c-0.3-0.4-0.7-0.8-1-1.2c-0.2-0.2-0.3-0.5-0.5-0.7c0-0.1,0-0.1-0.1-0.2c-0.5-0.8-1-1.7-1.4-2.5
			c-0.1-0.2-0.2-0.3-0.3-0.5c-0.3-0.7-0.7-1.3-0.9-2.1c-0.3-1-0.6-2.1-0.8-3.1c0.5-0.6,1-1.3,1.5-1.9c0-0.1-0.1-0.2-0.1-0.4
			c-0.4,0.1-0.8,0.1-1.1,0.2c-0.3,0.1-0.7,0.2-1,0.3c-0.2-1.4-0.4-2.8-0.6-4.2c0-1.4,0-2.8,0-4.2c0.6-2.5,0.9-5.1,1.9-7.4
			c1.3-2.9,3.1-5.6,4.7-8.3c0.3,0.8,0.6,1.5,0.7,2c0.6,0.3,1.1,0.4,1.3,0.7c0.5,0.8,0.8,1.7,1.3,2.5c0.2,0.3,0.9,0.7,1.3,0.6
			c0.4-0.1,0.5-0.7,0-1c0.1-0.1,0.2-0.1,0.4-0.2c0.4,0.3,0.8,0.7,1.2,1c-0.2,0.1-0.5,0.2-0.6,0.3c-0.2,0.2-0.3,0.5-0.3,0.7
			c0,0.3,0.2,0.5,0.4,1.1c0.1-0.7,0.1-1,0.1-1.5c0.3,0.7,0.6,1.3,0.8,1.9c0.3-0.1,0.7-0.3,1.3-0.5c-0.1,1.3-0.2,2.5-0.3,3.6
			c0.4,0,0.7,0,1,0c-0.2,1.2-0.3,2.3-0.5,3.5c-0.1-0.1-0.3-0.1-0.3-0.3c-0.3-0.5,0.1-1.4-0.8-1.5c0,1.8,0,3.5,0,5.1
			c0.4,0.3,0.7,0.6,1.1,0.9c0.1,0.7,0.2,1.3,0.2,2c-0.2,0-0.4,0.1-0.3,0c-0.3-0.5-0.6-0.8-0.8-1.2c-0.1,0.4-0.1,0.8-0.2,1.2
			c0,0.1,0.2,0.3,0.2,0.4c-0.1,0.6,0,1.5-0.3,1.6c-1.1,0.3-0.8,1.1-0.7,1.8c0,0.5,0,1.1,0,1.7c-0.5-0.4-0.8-0.7-1.1-1
			c0.2-0.1,0.7-0.3,0.7-0.4c0.1-1,0.1-1.9,0.1-2.9c0-2-0.1-4-0.2-6c0-0.1-0.1-0.3-0.3-0.4c-0.8-0.6-0.5-1.1,0-1.5
			c-0.2-0.4-0.4-0.8-0.6-1.4c-0.1,0-0.4-0.1-0.8-0.1c0-0.1,0-0.1,0-0.2c0.8,0,1.5,0,2.3,0c0.1-0.5,0.3-0.9,0.3-1.3
			c0.1-1.1,0.5-2.2-0.9-2.9c-0.6-0.3-1.2-0.7-1.6-1.2c-0.6-0.6-1.1-1.4-1.7-2.2c-0.2,0.5-0.4,0.9-0.6,1.3c0.2,0.2,0.5,0.4,0.9,0.7
			c-1.1,0-2,0-2.6,0c-0.1,0.5-0.1,0.7-0.2,1c-0.2,0.5-1.2,0.6-0.7,1.6c0.2,0.4,0.1,1.6-1.2,1.4c0,0-0.1,0,0.1-0.1
			c-0.2,0.6-0.3,1-0.4,1.4c-0.1,0-0.2,0-0.3-0.1c0-0.3-0.1-0.6-0.1-0.5c-0.8-0.4-1.4-0.7-2.2-1c0.1,0.8,0.2,1.6,0.3,2.5
			c0.4-0.4,0.7-0.8,1-1.2c0.1,0.1,0.2,0.2,0.3,0.3c-0.2,0.3-0.3,0.7-0.5,1.1c0.2,0.3,0.5,0.6,0.6,0.7c0.5-0.4,0.9-0.7,1.3-0.9
			c-0.3,0.8,0.3,2.2-1.1,1.8c0,2.4,0,4.8,0,7.3c0.5,0.1,1.3,0.3,2,0.4c0,0,0,0.1,0,0.1c-0.7,0-1.5,0.1-2.2,0.1c0,0.1,0,0.1,0,0.2
			c0.5,0,1,0.1,1.4,0.1c-0.1,0.7-0.2,1.3-0.3,1.9c0.6,0.1,1.4,0.3,2.1,0.4c0,0.1,0,0.1,0,0.2c-0.8,0.1-1.5,0.1-2.3,0.2
			c0,0.1,0,0.1,0,0.2c0.8,0.1,1.6,0.2,2.5,0.3c-0.9,0.9-2.1,0.2-3,0.7c0.7,0.1,1.3,0.1,2.1,0.2c-0.3,0.4-0.5,0.6-0.7,0.9
			c0.9,0.1,1.7,0.1,2.5,0.2c0,0.1,0.1,0.1,0.1,0.2c-0.5,0.1-1,0.3-1.6,0.4c0,0.1,0,0.1,0,0.2c0.8,0.1,1.6,0.3,2.5,0.4
			c0,0.1,0,0.2,0,0.3c-0.8,0-1.6,0-2.4,0c0,0.1,0,0.2,0,0.3c0.8,0.1,1.6,0.1,2.4,0.2c0,0.1,0.1,0.1,0.1,0.2
			c-0.5,0.1-1.1,0.3-1.6,0.4c0,0.1,0,0.2,0,0.2c0.8,0,1.6,0.1,2.6,0.2c-0.7,0.9-1.9,0-2.6,0.7c1.2,0.2,2.4,0.3,3.5,0.5
			c0,0.1,0,0.2,0,0.3c-0.8,0-1.6,0-2.4,0c0,0.1,0,0.1,0,0.2c0.8,0.1,1.6,0.2,2.8,0.4c-0.8,0.2-1.3,0.4-2.2,0.7
			c1.1,0.2,2,0.3,2.8,0.4c0,0.1,0,0.1,0,0.2c-0.5,0.1-1,0.1-1.5,0.2c0,0.1,0,0.2,0,0.2c0.8,0.1,1.6,0.3,2.5,0.4c0,0.1,0,0.1,0,0.2
			c-0.8,0-1.6,0.1-2.4,0.1c0,0.1,0,0.1,0,0.2c1.1,0.2,2.3,0.3,3.4,0.5c0,0.1,0,0.2,0,0.3c-0.8,0-1.6,0-2.4,0c0,0.1,0,0.1,0,0.2
			c1.1,0.2,2.3,0.3,3.4,0.5c0,0.1,0,0.1,0,0.2c-0.5,0.1-1,0.1-1.1,0.1c-0.1,0.5-0.1,0.9-0.2,1.2c1,0.1,2.1,0.3,3.3,0.4
			c0,0.1,0,0.2,0,0.2c-0.8,0-1.6,0.1-2.4,0.1c0,0.1,0,0.1,0,0.2c1.1,0.2,2.3,0.3,3.4,0.5c0,0.1,0,0.2,0,0.3c-0.8,0-1.6,0-2.4,0
			c0,0.1,0,0.2,0,0.3c1.1,0.1,2.3,0.2,3.4,0.3c0,0,0.1,0.1,0.1,0.1c-0.5,0.1-1,0.3-1.5,0.4c0.3,0.4,0.7,0.8,1.1,1.2
			c0-0.4,0-0.7,0-0.8c0.5,0,0.9-0.1,1.3-0.1c-0.1,0.6-0.3,1.2-0.4,1.8c0.5-0.1,1.2,0.4,1.3-0.6c0-0.1,1.1-0.2,1.6-0.2
			c0.2,0,0.5,0.2,0.7,0.4c0.2,0.2,0.3,0.5,0.5,0.8c0.1,0,0.2-0.1,0.4-0.1c-0.2,0.2-0.4,0.5-0.6,0.8c1.2,0,0.8,0.8,0.7,1.4
			c0.1,0,0.2,0,0.4,0c0.1-0.8,0.2-1.6,0.3-2.4c0.1,0,0.1,0,0.2,0c0.2,0.7,0.3,1.3,0.5,2c0.1,0,0.1,0,0.2,0c0-0.3,0-0.6,0.1-1.3
			c0.7,1,1.3,1.8,1.8,2.7c1.7,0.3,0.9-1.1,1.1-1.7c-1.1-0.5-2-1-3.1-1.5c0-0.2-0.1-0.6-0.1-1c-0.7,0-1.2,0.1-2,0.1
			c0.3-0.4,0.5-0.7,0.6-0.8c-1-1.1-1.9-2.2-2.9-3.4c1,0.5,1.9,0.8,2.7,1.3c0.4,0.3,0.6,1,1.1,1.7c0.1-0.6,0.2-1,0.3-1.3
			c0.2,0.1,0.5,0.2,0.6,0.3c5.4,4.3,11.7,4.6,18.1,4.1c3.9-0.4,7.5-2,10.7-4.4c0.2-0.2,0.3-0.3,0.5-0.5l0,0c1.9-1.3,3.4-2.9,4.6-4.9
			c2-3.1,2.9-6.5,3.1-10c0.2,0.1,0.6,0.2,0.7,0.4c0.2,1,0.3,1.9,0.5,3.1c0.7-1.1,0.6-7.4,0.1-8c-0.4,0.6-0.4,1.7-1.6,1.5
			c-0.5-2.1-0.9-4.3-1.6-6.4c-0.4-1.3-1.3-2.6-2-3.8c-0.1-0.3-0.3-0.5-0.4-0.8c-0.1-0.2-0.2-0.3-0.3-0.5c0-0.1,0-0.1,0-0.2
			c0.1,0,0.1,0,0.2-0.1c0.1-0.1,0.2-0.1,0.3-0.2c2.3-1.8,4.7-3.5,6.9-5.4c1.7-1.5,3.2-3.4,4.8-5.1c0.1,0.5,0.1,1,0.2,1.4
			c0.4,1.1,0,3.3-0.9,4c-0.7,0.6-1.6,1-2.2,1.6c-0.9,1-1.6,2.1-2.6,3.3c-0.4-0.7-0.5-1.1-0.6-1.3c-1,0.4-1.9,0.7-2.9,1.1
			c1,1.6,2.7,1,4,1.4c-0.7,0-1.4,0-2.6,0c0.8,0.6,0,1.5,1,1.6c0.5,0.1,1.1,0.1,1.6,0.1c0,0.1,0,0.2,0,0.2c-0.4,0-0.8,0.1-1,0.1
			c0,1.1,0,2.1,0,3.1c0.3,0.1,0.7,0.2,1.2,0.4c-0.9,0.7,0.6,2-0.8,2.6c0.3,0.1,0.6,0.2,0.9,0.3c-0.1,0.3-0.3,0.5-0.5,0.9
			c0.8,0.2,1.6,0.3,2.1,0.4c-0.5,0.3-1.2,0.7-1.8,1c0.1,0,0.1,0.1,0.2,0.1c0.6-0.1,1.2-0.2,1.9-0.3c0,0.1,0,0.2,0,0.2
			c-0.4,0.1-0.8,0.1-1.2,0.2c0,0.1,0,0.2-0.1,0.3c0.4,0.2,0.9,0.3,1.4,0.5c-0.5,0.1-0.9,0.2-1.3,0.3c0,0.1,0,0.2,0,0.3
			c0.4,0.1,0.8,0.3,1.5,0.5c-0.7,0.1-1.1,0.1-1.8,0.2c0.7,0.3,1.2,0.5,1.7,0.8c-0.5,0.1-0.9,0.2-1.4,0.2c0,0.1,0,0.2-0.1,0.3
			c0.4,0.2,0.8,0.3,1.3,0.5c-0.5,0.1-0.9,0.2-1.3,0.3c0,0.1,0,0.2,0,0.3c0.4,0.1,0.8,0.3,1.4,0.4c-0.6,0.1-1,0.2-1.4,0.3
			c0,0.1,0,0.2,0,0.3c0.4,0.1,0.8,0.3,1.5,0.5c-1,0.1-1.7,0.2-2.5,0.3c0.1,1.5,0.2,3.1,0.2,4.7c-0.5,0-0.9,0-1.5,0
			c0.3-0.4,0.5-0.6,0.9-1.1c-0.7,0.2-1.2,0.3-1.8,0.5c0.5,0.6,0.9,1,1.2,1.5c0.1-0.1,0.2-0.1,0.3-0.2c-0.2,0.7-0.3,1.3-0.5,2.1
			c0.7-0.1,1.5-0.3,2.2-0.4c0-0.1,0-0.1,0-0.2c-0.3-0.1-0.6-0.1-1-0.2c0,0,0-0.1,0-0.1c0.7-0.1,1.3-0.2,2-0.3c0-0.1,0-0.2,0-0.4
			c-0.3-0.1-0.6-0.2-1-0.3c0.1-0.1,0.1-0.2,0.2-0.3c0.6,0.2,1.1,0.5,1.7,0.7c0.4-1.3-0.8-1.2-1.9-1.4c0.9-0.1,1.5-0.2,2.1-0.3
			c0-0.1,0-0.2,0-0.3c-0.3-0.1-0.6-0.3-1-0.5c0.6,0,1,0,1.3-0.1c0.1,0.4,0.1,0.7,0.2,1.1c0.1,0,0.3,0,0.4-0.1c0-0.6-0.1-1.3-0.1-2
			c0.1,0,0.5,0,0.9,0c0.1-0.5,0.2-1,0.3-1.9C71.2,118.2,71.5,119.3,72.8,119.3z M6.3,90.9c-0.9,2-1.6,3.7-2.5,5.6
			c-0.3-0.5-0.4-0.7-0.5-0.9c-0.1,0-0.2,0.1-0.3,0.1c0.1,0.3,0.2,0.7,0.4,0.8c0.2,0.1,0.6-0.1,0.8-0.2c0.4-0.3,1.1-1.9,1.4-2.5
			c0.3-0.6,0.9-1.2,1.6-2C7,91.6,6.6,91.2,6.3,90.9z M62.5,125.2c0,0.1,0,0.3,0,0.4c0.7,0,1.4,0,2.1,0c-0.1-0.1-0.1-0.1-0.2-0.2
			c0.4-0.3,0.7-0.7,1.2-1.2c-0.8,0-1.4,0-2.1,0C64.2,125.6,63,124.9,62.5,125.2z M61.6,122.9c-0.1,0-0.2,0-0.2,0.1
			c-0.3,0.8-0.6,1.7-1,2.9c1-0.7,1.8-1.2,2.8-1.8c-0.5,0-0.9-0.1-1.3-0.1C61.8,123.6,61.7,123.3,61.6,122.9z"/>
		<path d="M94.6,53.6c-1.3,0-2.6,0-4,0.1c-0.2-0.3-0.3-0.7-0.6-0.7c-0.3-0.1-0.8,0-1.1,0c0.2,0.7,0.5,1.5,0.7,2.2c0,1,0,2,0,2.9
			c-0.1,1-0.8,2-0.1,3c-0.2,0.3-0.5,0.5-0.7,0.9c-0.1,0.2,0,0.6,0,0.9c0,3.1,0.1,6.2,0,9.3c-0.1,1.4-0.4,2.8,0.7,3.9
			c0.1,0.2,0.2,0.5,0.3,0.7c0,0.1,0,0.2,0,0.3c0,0.1,0,0.2,0,0.2c0,0.1,0,0.2,0,0.2c0,0.1,0,0.2,0,0.2c0,0.1,0,0.2,0,0.3l0,0
			c-0.3,0-0.6,0-1.2-0.1c0.7,0.4,1.1,0.6,1.4,0.8l0,0c0,0.1,0,0.2,0,0.2c0.6,1.1,1.2,2.1,1.8,3.2c0.7,1.3,2.2,1.4,3.2,2.1
			c-0.5,0.7,0.2,1.1,0.6,1.3c0.7,0.4,1.3,0.1,1.6-0.6c0.4,0,0.8,0,1.3,0c0.8,0.9,2.7,1.4,3.5,0.7c0.8-0.7,1.6-0.8,2.6-0.9
			c1.7-0.2,2.4-1.2,1.9-2.6c0.3-0.6,0.5-1.1,0.8-1.7c0.8-0.2,1.8-0.3,1.7-1.5c-0.2-1.2-0.5-2.5-0.7-3.7c0-6.4,0-12.9,0-19.3
			c0-2-0.4-2.4-2.4-2.3c-0.7,0-1.4-0.1-2.1,0c-0.9,0.1-1.3-0.3-1.3-1.2c0-0.6-0.1-1.2,0-1.7c0-0.3,0.5-0.4,0.7-0.6
			c4.3,0,8.5,0,12.8,0.1c0.4,0,0.8,0.2,1.2,0.2c0,1.1,0,2.1,0,3.1c-0.2,0.1-0.2,0.1-0.3,0.1c-1,0-2.1,0-3.1,0
			c-1.8,0.1-2,0.4-2.1,2.1c-0.1,1.8,0,3.6,0,5.3c0,3.5,0,7,0,10.5c0,1.2,0,2.3,0,3.5c0,0.2,0,0.3,0,0.5c0,0.2-0.1,0.3-0.1,0.5
			c-1.2,0.7-1.3,2.8-0.2,3.5c-0.9,1.7-1.8,3.5-2.7,5.2c-1.5,0.9-3,1.9-4.5,2.6c-1.2,0.5-2.5,0.8-3.7,1.1c-1.6-0.1-3.3-0.2-4.9-0.3
			c0-0.1,0-0.1,0-0.2c0.2-0.1,0.3-0.3,0.5-0.4c-0.5-0.2-1-0.3-1.5-0.4c0,0.2,0.1,0.4,0.1,0.6c-0.1,0-0.2,0-0.3,0c-0.1,0-0.2,0-0.3,0
			c-0.1,0-0.2,0-0.2,0c-0.1,0-0.2,0-0.2,0c-0.1,0-0.2-0.1-0.2-0.1c-0.1-0.1-0.2-0.1-0.3-0.2c-0.9-0.3-1.8-0.7-2.7-1
			c-0.2-0.4-0.4-0.9-0.8-1.3c-0.5-0.6-1.3-1.2-1.7-1.9c-0.5-0.8-1-0.9-1.5-0.1c-0.4-0.6-0.8-1.2-1.2-1.8c-0.4-1.2-0.8-2.5-1.2-3.7
			c0.1-0.1,0.1-0.2,0.2-0.3c-0.2-0.5-0.4-1-0.5-1.5c0,0,0.1,0,0.1,0c0.4-0.2,1-0.3,1.1-0.6c0.2-0.7,0.3-1.4,0.3-2.2c0-3-0.1-6-0.3-9
			c-0.2-3.4,0.8-6.9-0.5-10.3c-0.1-0.3-0.3-0.6-0.4-0.9c-0.2,0.3-0.4,0.6-0.6,0.9c-0.7,0-1.2-1-2-0.2c-0.5,0-1,0-1.5,0
			c-0.7-0.4-1.8-0.3-1.5-1.5c0-0.2,0.1-0.5,0.1-0.7c0.3-0.3,0.6-0.5,1-0.8c0.7,0.6,1.3,0.6,1.7-0.4c3.7,0,7.5,0,11.2,0
			c0.6,0.5,1.1,0.9,1.7,1.4c0.1-0.1,0.1-0.1,0.2-0.2C94.3,52.1,94.4,52.9,94.6,53.6z"/>
		<path class="st1" d="M72.8,119.3c-1.4,0-1.6-1.1-2.2-2.4c-0.1,0.8-0.2,1.4-0.3,1.9c-0.4,0-0.8,0-0.9,0c0,0.7,0.1,1.3,0.1,2
			c-0.1,0-0.3,0-0.4,0.1c-0.1-0.3-0.1-0.7-0.2-1.1c-0.4,0-0.8,0-1.3,0.1c0.4,0.2,0.7,0.4,1,0.5c0,0.1,0,0.2,0,0.3
			c-0.6,0.1-1.2,0.2-2.1,0.3c1.1,0.3,2.3,0.2,1.9,1.4c-0.5-0.2-1.1-0.5-1.7-0.7c-0.1,0.1-0.1,0.2-0.2,0.3c0.3,0.1,0.6,0.2,1,0.3
			c0,0.1,0,0.2,0,0.4c-0.7,0.1-1.3,0.2-2,0.3c0,0,0,0.1,0,0.1c0.3,0.1,0.6,0.1,1,0.2c0,0.1,0,0.1,0,0.2c-0.8,0.1-1.6,0.3-2.2,0.4
			c0.2-0.7,0.3-1.4,0.5-2.1c-0.1,0.1-0.2,0.1-0.3,0.2c-0.4-0.4-0.7-0.9-1.2-1.5c0.7-0.2,1.1-0.3,1.8-0.5c-0.4,0.5-0.6,0.7-0.9,1.1
			c0.6,0,1.1,0,1.5,0c-0.1-1.6-0.2-3.2-0.2-4.7c0.8-0.1,1.5-0.2,2.5-0.3c-0.7-0.2-1.1-0.3-1.5-0.5c0-0.1,0-0.2,0-0.3
			c0.4-0.1,0.9-0.2,1.4-0.3c-0.6-0.2-1-0.3-1.4-0.4c0-0.1,0-0.2,0-0.3c0.4-0.1,0.8-0.2,1.3-0.3c-0.5-0.2-0.9-0.3-1.3-0.5
			c0-0.1,0-0.2,0.1-0.3c0.4-0.1,0.8-0.1,1.4-0.2c-0.5-0.2-1-0.4-1.7-0.8c0.7-0.1,1.1-0.1,1.8-0.2c-0.7-0.2-1.1-0.4-1.5-0.5
			c0-0.1,0-0.2,0-0.3c0.4-0.1,0.8-0.2,1.3-0.3c-0.5-0.2-0.9-0.3-1.4-0.5c0-0.1,0-0.2,0.1-0.3c0.4-0.1,0.8-0.1,1.2-0.2
			c0-0.1,0-0.2,0-0.2c-0.6,0.1-1.2,0.2-1.9,0.3c-0.1,0-0.1-0.1-0.2-0.1c0.6-0.4,1.3-0.7,1.8-1c-0.5-0.1-1.3-0.2-2.1-0.4
			c0.2-0.3,0.3-0.6,0.5-0.9c-0.3-0.1-0.6-0.2-0.9-0.3c1.4-0.6,0-1.8,0.8-2.6c-0.5-0.2-0.9-0.3-1.2-0.4c0-1,0-2,0-3.1
			c0.3,0,0.7-0.1,1-0.1c0-0.1,0-0.2,0-0.2c-0.5,0-1.1,0-1.6-0.1c-1-0.2-0.2-1.1-1-1.6c1.1,0,1.8,0,2.6,0c-1.4-0.4-3,0.1-4-1.4
			c1-0.4,1.9-0.7,2.9-1.1c0.1,0.2,0.3,0.6,0.6,1.3c0.9-1.2,1.6-2.3,2.6-3.3c0.6-0.7,1.5-1.1,2.2-1.6c0.9-0.7,1.3-3,0.9-4
			c-0.2-0.4-0.2-1-0.2-1.4c0.1-0.2,0.2-0.3,0.3-0.5c0.1,0,0.2,0,0.2,0c0.3,0.3,0.7,0.7,1,1c0.3,0.7,0.7,1.3,1,2c0.7,1.7,1.3,3.3,2,5
			c0.2,0.7,0.3,1.3,0.5,2c0.2,0.7,0.3,1.3,0.5,2c0.2,1.7,0.3,3.3,0.5,5c0,1.6,0.1,3.3-0.2,4.9c-0.3,2-0.9,3.9-1.6,5.8
			C74.3,116.3,73.5,117.8,72.8,119.3z"/>
		<path class="st0" d="M30.2,1.1c2.4-0.2,4.9-0.5,7.3-0.6c1.2-0.1,2.5,0.1,3.8,0.1C42.2,0.8,43,0.9,43.9,1c-0.4,0.3-0.8,0.6-1.2,0.9
			c-0.2-0.3-0.3-0.5-0.5-0.7c-0.1,0-0.1,0.1-0.2,0.1c0.1,0.5,0.2,1,0.3,1.4c0.3-0.1,0.6-0.2,0.8-0.2c0.5,0,0.9,0,1.4,0.1
			c1.1,0.1,2.3,0.2,3.4,0.3c0.4,0,0.7,0.2,1.1,0.4c0.7,0.4,1.9-0.3,2,1.2c-0.2,0-0.3,0-0.4,0.1c-0.3,0.1-0.5,0.3-0.8,0.4
			c0.2,0.4,0.5,0.7,0.8,1.2c0.1-0.5,0.2-0.8,0.2-1.2c0.6,0.7,1.1,1.3,1.7,2c0.1-0.3,0.2-0.5,0.3-0.9c0.3,0.3,0.5,0.6,0.7,0.8
			c0.1-0.5,0.1-1,0.2-1.4C56,5.3,56,5.3,55.9,6.4c-0.6,0-1.3,0.1-2,0.1c0,0.3,0.1,0.6,0.2,1c0.4-0.2,0.6-0.3,0.7-0.4
			c0.9,0.8,1.7,1.5,2.6,2.3c0.2-0.5,0.3-0.9,0.6-1.7C58,8.5,58,8.9,58.1,9.5c0.4-0.3,0.6-0.4,1.1-0.8c-0.2,0.9-0.4,1.6-0.5,2.2
			c0.3,0.1,0.7,0.3,1.3,0.6c-0.6,0.1-1,0.1-1.4,0.2c0.3,0.3,0.6,0.4,0.9,0.5c0.2,0.1,0.4,0.1,0.7,0.1c-0.2,0.2-0.4,0.4-0.5,0.6
			c0.1,0,0.2,0,0.3,0c0,0.3-0.1,0.6-0.1,0.9c0.4,0.1,0.9,0.1,1.5,0.2c-0.3,0.4-0.4,0.6-0.7,1c0.8,0.2,1.6,0.3,2.3,0.4
			c0,0.1,0,0.1,0,0.2c-0.7,0-1.4,0-2.1,0c0,0.1,0,0.1,0,0.2c0.7,0.2,1.4,0.4,2.3,0.7c-0.7,0.1-1.1,0.2-1.5,0.3
			c0.2,0.2,0.5,0.4,0.4,0.6c-0.1,0.6-0.4,1.2-0.6,1.8c-0.3,0.2-0.7,0.5-1,0.7c-0.4,0.3-0.8,0.7-1.3,1c-0.6-1.3-1.2-2.5-1.7-3.8
			c-2-4.6-5.5-7.6-10.2-9.1C42,6.2,36.8,5.8,31.5,7.2c-4.2,1.1-7.9,3.1-10.8,6.4c-0.8,1.2-1.7,2.3-2.5,3.5c-0.3,0.5-0.8,0.9-1,1.4
			c-0.5,1.2-0.9,2.4-1.3,3.6c-0.3-0.4-0.7-0.7-1-1.1c0.7,1-1.4,2.2,0.1,3.3c-0.8,1.2-0.7,3.1,0.3,4.9c0.2-0.1,0.4-0.3,0.6-0.4
			c0.1,0.2,0.2,0.5,0.3,0.7c0.1,0.5,0.1,1,0.2,1.5c-0.4-0.2-0.8-0.5-1.3-0.8c-0.1,0.1-0.3,0.4-0.4,0.5c-1.5-1.4-1.3-3.1-1.1-4.8
			c0.1-1.5-0.5-2.2-1.9-2.7c1.4-0.1,1.6-0.4,1.3-1.6c-0.1-0.5-0.2-1.1-0.3-1.6c0.3-0.1,0.8-0.2,0.9-0.4c0.1-0.4-0.1-0.9-0.1-1.4
			c0.2-0.1,0.3-0.2,0.5-0.2c0.1,0,0.3,0.1,0.4,0.1c0.1-0.6,0.1-1.2,0.2-1.8c0.1,0,0.2-0.1,0.2-0.1c0.2,0.4,0.3,0.8,0.5,1.2
			c0.1,0,0.2-0.1,0.4-0.1c-0.2-0.7-0.4-1.4-0.6-1.9c0.2-0.3,0.4-0.7,0.7-1.2c0.2,0.4,0.4,0.7,0.6,1.2c0.1-0.9,0.2-1.6,0.3-2.4
			c0.3,0.2,0.5,0.4,0.7,0.5c0.1-0.1,0.2-0.1,0.2-0.2c-0.2-0.4-0.5-0.7-0.7-1.1c0.2-0.1,0.5-0.3,1-0.5c-0.6-0.2-1-0.3-1.5-0.4
			c0.9-0.1,1.6-0.2,2.3-0.3c0-0.1,0-0.2,0-0.3c-0.3-0.1-0.6-0.2-1.2-0.5c1,0,1.5,0,2.2,0c0-0.4,0-0.7,0-1.1c2,0.8,0.7-1.1,1.5-1.5
			c-0.5,0-0.8,0-1.2,0c0-0.1,0-0.2,0-0.3c1-0.1,2.2,0.2,2.5-1.3c0,0,0.5,0,0.7,0.1c0.7,0.4,1.3,0.9,2.2,1.5
			c-0.3-0.7-0.7-1.1-0.6-1.4c0.2-0.4,0.6-0.8,1.1-1.3c0,0.6-0.1,0.9,0,1.2c0,0.1,0.6,0.2,0.6,0.1c0.1-0.3,0.2-0.7,0.3-1.1
			c0,0.1,0.1,0.1,0.1,0.2c0.4-0.3,0.8-0.6,1.5-1.1c0.5,0,1.5,0,2.4,0c0.9,0,1.9,0,2.8-0.2c0.7-0.2,1.4-0.6,2.3-1
			c-4-0.2-6.9,0.1-7.5,1c0-0.6,0.1-1,0-1.3c-0.1-0.4-0.3-0.7-0.4-1.1C28.7,1.6,29.5,1.4,30.2,1.1z"/>
		<path class="st0" d="M59.1,20.9c0.4-0.3,0.8-0.7,1.3-1c0.3-0.3,0.7-0.5,1-0.7c0.5-0.1,1.1-0.1,1.6-0.2c0,0.1,0.1,0.3,0.1,0.4
			c-0.4,0.1-0.8,0.3-1.3,0.4c0.5,0.1,0.8,0.2,1.4,0.3c-0.3,0.3-0.5,0.5-0.7,0.8c0,0-0.4,1.1-0.7,1.2c1.2,0.1,2.2,0.2,3.2,0.2
			c0,0.1,0,0.2,0,0.3c-0.9,0-1.9,0-2.8,0c0,0.1,0,0.2,0,0.3c0.4,0,0.7,0.1,1.4,0.1c-0.5,0.4-0.8,0.6-1,0.9c0.1,0,0.2,0,0.3,0
			c0,0.3-0.1,0.7-0.1,1.2c0.6,0,1.5,0.1,2.3,0.1c0,0.1,0.1,0.1,0.1,0.2c-0.5,0.1-1,0.2-1.6,0.4c0,0.1,0,0.1,0,0.2
			c0.5,0.1,1,0.1,1.5,0.2c0,0.1,0.1,0.1,0.1,0.2c-0.5,0.1-1,0.3-1.9,0.5c0.8,0.2,1.3,0.3,2.1,0.4c-0.7,0.2-1.2,0.3-2.1,0.6
			c1.1,0.2,1.9,0.4,2.8,0.5c0,0.1,0,0.2,0,0.3c-0.8,0-1.6,0-2.4,0c0,0.1,0,0.2,0,0.3c1.2,0.1,2.3,0.2,3.5,0.4c0,0.1,0,0.2,0,0.3
			c-1.1,0-2.3,0-3.4,0c0,0.1,0,0.2,0,0.3c1.2,0.1,2.4,0.3,3.6,0.4c-3.2,0.4-3.2,0.4-2.5,2.8c0-0.7,0-1.4,0-2.1
			c0.4,0,0.7-0.1,1.1-0.1c0.3,0,0.6,0.1,0.9,0.1c0.2,0.1,0.4,0.2,0.8,0.4c-0.9,0-1.4,0.1-1.9,0.1c0,0.1,0,0.2,0,0.2
			c0.9,0.1,1.8,0.2,2.6,0.4c0,0.1,0,0.2-0.1,0.3c-0.5,0-1.1,0.1-1.9,0.1c0.8,0.3,1.3,0.5,1.8,0.7c0,0.1,0,0.2,0,0.3
			c-0.8,0.1-1.7,0.2-2.5,0.4c0,0.1,0,0.2,0,0.3c0.9,0,1.7-0.1,2.7-0.1c0,0.1,0.1,0.4,0.2,0.6c-0.8,0.1-1.5,0.1-2.3,0.2
			c0,0.1,0,0.3,0,0.4c0.9,0,2-0.6,2.6,0.6c0-0.6,0-1.2,0-1.9c0.5,0,1,0,1.5,0c0-0.1,0-0.2,0.1-0.3c-0.5-0.2-1-0.4-1.7-0.6
			c0.8-0.1,1.3-0.1,1.9-0.1c-0.9-0.6,0.1-0.9,0.2-1.4c-0.2-0.1-0.3-0.1-0.5-0.2c-0.1-0.1-0.3-0.1-0.5-0.3c1.7-0.2,0.9,1.2,1.6,1.8
			c0-2.2,0-4.4,0-6.7c0.1,0,0.3,0,0.4,0c0.1,1.3,0.3,2.6,0.5,4.1c0.3-0.2,0.7-0.4,0.7-0.6c0-0.8-0.1-1.5,0-2.3
			c0-0.2,0.3-0.4,0.4-0.5c0.1,0.9,0.3,1.7,0.3,2.6c0.2,2.2-0.5,4.3-1.2,6.4c-0.1,0.3-0.1,0.6-0.1,1c-0.2,0.5-0.5,1-0.7,1.5
			c0,0.1-0.1,0.2-0.1,0.2c0,0,0,0,0,0c-0.1,0.1-0.1,0.2-0.2,0.3c-0.2,0.2-0.3,0.5-0.5,0.7c-0.3,0.3-0.5,0.7-0.8,1
			c-0.1,0.1-0.2,0.2-0.3,0.3c-0.9-0.9-1.7-1.9-2.6-2.7c-2.5-2.1-5-4.2-7.5-6.2c0-0.2,0-0.5,0-0.7c0-0.2,0-0.5,0-0.7
			c0.6,0.2,1.2,0.4,2,0.6c0-2.5,0-5.1,0-7.6c0,0-0.1,0-0.1,0c-0.3,1.2-0.6,2.4-0.9,3.5c-0.4-0.3-0.7-0.5-1-0.7c0-0.7-0.1-1.3-0.1-2
			c-0.2-0.7-0.3-1.5-0.5-2.2C59.1,21.7,59.1,21.3,59.1,20.9z"/>
		<path class="st1" d="M23,3.1C23.2,3.1,23.5,3,23.7,3c0.2,0.2,0.3,0.5,0.5,0.7c0.2,0.3,0.2,0.7,0.1,1.2c-0.1,0.3-0.2,0.5-0.2,0.8
			c0.1,0,0.2,0.1,0.4,0.1c0.2-0.5,0.3-0.9,0.5-1.3c0.7,0,1.3,0,1.9,0c0.7,0,0.9-0.4,0.5-1c-0.3-0.4-0.6-0.8-0.9-1.1
			c0.4-0.1,0.8-0.2,1.2-0.3c0.1,0,0.2,0,0.2,0c0.1,0.4,0.3,0.7,0.4,1.1c0.1,0.3,0,0.7,0,1.3c0.6-0.9,3.5-1.2,7.5-1
			c-0.9,0.4-1.6,0.9-2.3,1c-0.9,0.2-1.9,0.1-2.8,0.2c-0.9,0-1.9,0-2.4,0c-0.7,0.5-1.1,0.8-1.5,1.1c0-0.1-0.1-0.1-0.1-0.2
			c-0.1,0.4-0.1,0.7-0.3,1.1c0,0-0.6,0-0.6-0.1c-0.1-0.2,0-0.5,0-1.2c-0.5,0.6-0.9,0.9-1.1,1.3c-0.1,0.2,0.2,0.6,0.6,1.4
			c-0.9-0.6-1.5-1.1-2.2-1.5c-0.2-0.1-0.7-0.1-0.7-0.1c-0.2,1.5-1.5,1.2-2.5,1.3c0,0.1,0,0.2,0,0.3c0.3,0,0.7,0,1.2,0
			c-0.7,0.4,0.6,2.2-1.5,1.5c0,0.4,0,0.7,0,1.1c-0.6,0-1.2,0-2.2,0c0.6,0.3,0.9,0.4,1.2,0.5c0,0.1,0,0.2,0,0.3
			c-0.7,0.1-1.3,0.2-2.3,0.3c0.6,0.2,0.9,0.3,1.5,0.4c-0.5,0.3-0.8,0.4-1,0.5c0.2,0.3,0.5,0.7,0.7,1.1c-0.1,0.1-0.2,0.1-0.2,0.2
			c-0.2-0.1-0.4-0.3-0.7-0.5c-0.1,0.8-0.2,1.5-0.3,2.4c-0.3-0.5-0.4-0.9-0.6-1.2c-0.3,0.5-0.5,0.8-0.7,1.2c0.2,0.5,0.4,1.2,0.6,1.9
			c-0.1,0-0.2,0.1-0.4,0.1c-0.2-0.4-0.3-0.8-0.5-1.2c-0.1,0-0.2,0.1-0.2,0.1c-0.1,0.6-0.1,1.2-0.2,1.8c-0.1,0-0.3-0.1-0.4-0.1
			c-0.1-1.3-0.2-2.7-0.4-4c-0.1,0-0.2,0-0.3,0c0,0.8-0.1,1.6-0.1,2.4c-0.1,0-0.1,0-0.2,0c-0.1-0.3-0.3-0.6-0.4-0.8
			c-0.1,0-0.2,0-0.2,0c0,0.6-0.1,1.2-0.1,1.8c-1.8-0.2-0.6,1.3-1.1,2c-1.8-0.2-0.5,1.3-1,2c-1.7,0-0.5,1.4-0.9,1.8
			c-0.4,0.2-0.7,0.4-1.3,0.8c0.7,0.1,1.1,0.1,1.7,0.2c-2.4,0.5-0.7,2.2-1.6,3.2c-0.8,0.1-0.8,0.1-0.7,1.8c-0.4,0.2-0.8,0.4-1.2,0.6
			c0,0.1,0.1,0.1,0.1,0.2c0.4,0,0.7,0.1,1.2,0.1c-0.5,0.3-0.9,0.5-1.2,0.7c0,0.1,0.1,0.1,0.1,0.2c0.3,0,0.7,0,1.1,0.1
			c-0.5,0.3-0.9,0.5-1.6,0.8c0.8,0.1,1.1,0.1,1.5,0.2c-0.5,0.3-0.9,0.5-1.5,0.8c0.7,0.1,1.1,0.1,1.5,0.2c-0.5,0.3-0.9,0.5-1.5,0.8
			c0.7,0.1,1,0.1,1.4,0.2C6.8,34.6,6.4,34.8,6,35c-0.2-0.2-0.3-0.3-0.5-0.5c-0.3-0.3-0.5-0.7-0.8-1c0-0.4,0-1,0-1.5
			c0.1-1,0.2-2,0.2-3c0.3-0.3,0.8-0.5,0.8-0.8c0.1-0.9-0.1-1.8-0.1-2.6c0.4,0,0.8,0,1.2-0.1c-0.4-1.8-0.4-3.3,1.2-4.4
			c0.4-0.3,0.5-0.9,0.9-1.5c0.1,0,0.5-0.1,0.7-0.1c0-0.7-0.3-1.5,0-1.8c1.1-1.1,1.8-2.3,2.6-3.6c0.3-0.6,0.9-1,1.4-1.4
			c0.1-0.1,0.1-0.2,0.2-0.3c-0.4,0-0.7,0-1,0c0.1,0.1,0.2,0.1,0.2,0.2c-1,1-2,2-3,3c-0.2,0.2-0.6,0.3-1,0.4
			c-0.1,0.6-0.2,1.2-0.3,2.2c-0.2,0-0.7,0.1-1.2,0.1c-0.1-0.1-0.1-0.3-0.2-0.4c0.4-0.4,1.1-0.8,1.1-1.3c0.2-1.5,1.6-2.1,2.3-3.2
			c0.9-1.5,2.6-2.6,4-3.7c0.3-0.3,1-0.9,1.4,0.2c-0.4,0-0.8,0.1-1.3,0.1c0.1,0.4,0.3,0.8,0.4,1.1c0.2-0.1,0.5-0.3,0.7-0.3
			c0.6,0,0.5,0.1,0.5-0.5c0-0.2,0.2-0.4,0.4-0.5c0.3-0.1,0.6,0,0.8,0c-0.3-0.5-0.8-1.1-0.7-1.3c0.4-0.6,1-1,1.6-1.4
			c0.1,0,0.4,0.3,0.7,0.5c0.3-0.5,0.5-1,0.7-1.4c1.3,0.6,1.5,0.5,1.7-1.3C22,4.8,22.2,4.9,22.5,5c0.3,0,0.5,0,0.8,0
			c0-0.2,0-0.5,0-0.7C23.2,3.9,23.1,3.5,23,3.1z"/>
		<path d="M70.9,87c-0.1,0.2-0.2,0.3-0.3,0.5c-1.6,1.7-3,3.6-4.8,5.1c-2.2,1.9-4.6,3.6-6.9,5.4c-0.1,0.1-0.2,0.1-0.3,0.2
			c-0.1,0-0.1,0-0.2,0.1c-0.1,0-0.2,0-0.3,0c-0.1,0.1-0.2,0.1-0.3,0.2c-0.1,0.1-0.2,0.2-0.3,0.3c-0.5,0.2-1,0.4-1.5,0.6
			c-0.1,0-0.2,0-0.2,0c-0.4-0.8-0.5-1.5,0.5-2c1.3-0.7,2.7-1.3,3.9-2.2c1.2-0.8,2.2-1.8,3.3-2.7c1.1-0.9,2.2-1.8,3.2-2.8
			c0.6-0.5,1.1-1.1,1.5-1.8c0.5-0.9,0.7-2,1.2-2.9c0.2-0.4,0.8-0.7,1.3-0.8c0.4-0.1,0.8-0.1,1.2-0.1c0-1,0.1-1.9,1.3-1.9
			c-0.5,1-1,2-1.5,3c-0.2,0.5-0.4,1-0.6,1.5c-0.1,0.1-0.2,0.2-0.3,0.2C71,86.8,71,86.9,70.9,87z"/>
		<path class="st0" d="M26,2.1c0.2,0,0.3,0.1,0.5,0.1c0.3,0.4,0.6,0.8,0.9,1.1c0.4,0.6,0.2,1-0.5,1c-0.6,0-1.2,0-1.9,0
			c-0.2,0.4-0.3,0.9-0.5,1.3c-0.1,0-0.2-0.1-0.4-0.1c0.1-0.3,0.2-0.5,0.2-0.8c0.1-0.4,0.2-0.9-0.1-1.2c-0.2-0.2-0.3-0.5-0.5-0.7
			c0.3-0.1,0.5-0.2,0.8-0.3C25,2.5,25.5,2.3,26,2.1z"/>
		<path d="M86.3,83.3c0.6-0.8,1-0.7,1.5,0.1c0.4,0.7,1.2,1.2,1.7,1.9c0.3,0.4,0.5,0.8,0.8,1.3c-0.2-0.1-0.5-0.2-0.7-0.3
			c-1-0.7-2-1.5-3-2.2C86.5,83.8,86.4,83.5,86.3,83.3z"/>
		<path class="st2" d="M71.6,39c-0.1,0-0.1,0-0.2,0c0.1-0.1,0.1-0.2,0.2-0.3C71.6,38.8,71.6,38.9,71.6,39z"/>
		<path d="M281.4,50.7c-0.4,1.1,0.5,1.2,1.1,1.4c0.7,0.2,1.4,0.3,2.1,0.3c0.7,0.1,1.3,0.2,1.7,1c0.5,0.8,1.3,1.2,2.3,0.8
			c0.2,0.2,0.3,0.3,0.5,0.5c-0.6,0.7-0.8,1.4,0.4,1.6c-0.3,1.8-0.1,2.3,1.3,2.6c-0.1,0.7-0.2,1.5-0.2,2.2c-1.6,0.2-2.3,1.5-1.7,3.5
			c-1.9,1.9-4.2,2.9-6.7,3.5c-0.1,0.1-0.1,0.1-0.2,0.2c0.4,0.2,0.8,0.4,1.2,0.5c0.2,1,1,1.6,1.8,1.4c0.5-0.1,1-0.3,1.5-0.4
			c0.1,0,0.1,0,0.2,0.1c0.2,0.5,0.3,0.9,0.5,1.4c0.5,1.1,1.1,1.2,2,0.3c0.6,0.6,1.1,1.2,1.7,1.8c0.4,1.3,1.1,2.6,1.2,3.9
			c0.3,3.1-1,5.6-3.2,7.7c-0.6,0.3-1.1,0.7-1.7,1c-1.1,0.5-2.2,0.9-3.3,1.3c-1.2,0.2-2.5,0.5-3.7,0.7c-0.5,0-1,0-1.5,0
			c-5.8,0-11.6,0-17.5,0c-0.5-0.3-1.5,0.5-1.8-0.5c0-0.5,0.1-1.1,0-1.6c-0.1-0.9,0.3-1.2,1.1-1.1c0.8,0.1,1.7,0.1,2.5,0
			c1.7-0.3,2.2-0.4,2.1-2.2c0-0.8,0-1.7,0-2.5c0-0.6,0.1-1.2,0.1-1.7c0.9-0.1,1-0.7,1-1.4c0-5.9,0-11.8,0-17.7
			c0-1.1-0.1-2.3-0.1-3.4c0-0.7-0.3-0.9-0.9-0.9c0-0.9-0.4-1.3-1.4-1.3c-1.1,0.1-2.3,0.1-3.5,0c-0.3,0-0.8-0.3-0.9-0.6
			c-0.1-0.6,0.1-1.3,0.2-1.9c0-0.3,0-0.6,0.1-1C266.9,50.4,274.1,49.8,281.4,50.7z M272.6,53.6c-0.2-0.5-0.4-0.9-0.6-1.4
			c-0.4,0.2-0.8,0.4-1.1,0.7c-0.8,0.6-1.4,1.3-0.6,2.4c0.1,0.1-0.1,0.4-0.1,0.6c0,3.2-0.1,6.4,0,9.7c0,0.9,0.2,2.1,1.4,2.2
			c1.6,0.1,3.3,0.1,4.9,0c0.3,0,0.6-0.6,0.9-0.9c0.3-0.1,0.5-0.2,0.8-0.3c0.3,0.3,0.6,0.6,0.9,0.9c0.3-0.4,0.6-0.8,0.9-1.3
			c1.4-1,3-1.6,3.8-3.2c1.2,0.2,2-0.2,2-1.6c0-0.8,0.1-1.6,0.2-2.5c0-1.6,0-1.6-1.7-1.7c-1.3-2.7-3.7-3.6-6.5-3.7
			C275.9,53.6,274.3,53.6,272.6,53.6z M278.1,69.9c-1.1,0.1-2.2,0.2-3.2,0.2c-1.1,0-2.1,0-3.2,0c-0.3-0.3-0.5-0.7-0.8-1.1
			c-0.2,1.6-0.6,3.2-0.7,4.8c-0.1,3-0.1,6,0,9.1c0,0.7,0.4,1.4,0.6,2.3c0.4-0.5,0.6-0.7,0.8-0.9c0.3,0.2,0.7,0.5,1,0.5
			c2.3,0,4.7,0,7-0.3c1.9-0.2,3.6-1.1,4.7-2.7c2-2.8,1.7-5.6,0-8.4c-0.1-0.1-0.2-0.3-0.3-0.4c-0.3-0.3-0.6-0.5-0.8-0.8
			C281.9,70.5,279.9,70.4,278.1,69.9z"/>
		<path d="M250,81.8c-0.4,0.6-0.7,1.2-1.1,1.7c-1.1,0.1-2.4,1.3-2.4,2.3c-1.8,1.6-4,2-6.2,2.5c-0.3,0.1-0.7,0.2-1,0.3
			c-1.2,0-2.3,0-3.5,0c-1.4-0.4-2.8-0.7-4.2-1.1c-0.2-0.4-0.3-1-0.7-1.3c-0.7-0.6-1.9-0.3-2.3-1.4c-0.3,0.2-0.7,0.3-1,0.5
			c-0.8-0.8-1.7-1.7-2.5-2.5c0.8-1.3,0.2-2.3-0.6-3.3c-0.2-0.3-0.6-0.7-0.6-1c0.3-1.1-0.4-1-1-1c0-2.2,0-4.4,0-6.6
			c0-0.3,0.1-0.5,0.2-0.8c0-2.9,0-5.8,0-8.7c0-0.3-0.1-0.5-0.2-0.8c0-1.8,0-3.6,0-5.3c0-1.1-0.5-1.6-1.6-1.6c-0.9,0-1.8,0-2.7,0
			c-0.7,0-0.9-0.3-0.9-1c0.1-3-0.3-2.5,2.5-2.5c4.6,0,9.2,0,13.8,0c0.4,0,0.8,0.2,1.3,0.2c0,1,0,2,0,3.2c-1.4,0-3,0-4.5,0
			c-1,0-1.6,0.4-1.6,1.5c0,7.7,0,15.4,0,23.1c-0.2,0.2-0.5,0.3-0.6,0.5c-0.3,1.3,1.1,3.1,2.6,3.2l0,0c-0.3,0.9,0.2,2.2,1.3,2.6
			c1.2,0.5,2.5,0.9,3.7,1.1c1.8,0.2,3.6,0.1,5.4,0c1.5,0,2.7-1.2,2.8-2.5c0.4-0.3,0.7-0.6,1.1-1c0.2,0,0.3,0.1,0.5,0
			c0.5-0.1,1.1-0.2,1.4-0.5c0.2-0.2,0-0.9-0.1-1.4c0-0.3-0.1-0.6-0.2-0.9c0-0.1,0-0.2,0.1-0.2c0.4,0,0.8,0.1,1.1-0.1
			c0.3-0.2,0.4-0.7,0.5-1.1c-0.8-0.2-0.5-1.1-0.8-1.6c0-0.1,0-0.2,0-0.3c0.4-0.7,1-1.5,1.1-2.2c0.1-1.1,0-2.2-0.2-3.3
			c0-0.4-0.3-0.8-0.5-1.2c-0.1-0.3-0.3-0.7-0.3-1c0-3.3,0-6.5,0-9.8c0-0.3,0-0.6,0.1-0.9c0.1-0.6,0.2-1.3,0.3-1.9
			c-0.1,0-0.3-0.1-0.4-0.1c1.1-0.7,1.2-1.4,0.4-2.5c-0.4-0.5-0.4-1.3-1.2-1c-0.5,0.2-0.8,0.8-1.2,1.2c-1.3,0-2.7,0-4,0l0,0
			c-0.1-0.9-0.2-1.8-0.3-2.7c0.5-0.2,1-0.7,1.4-0.7c3.4,0,6.7,0,10.1,0c0.6,0.3,1.2,0.7,1.7,1c0.2,0.8,0.4,1.6,0.5,2.4
			c-1.1,0-2.2,0-3.2,0.1c-0.1-0.6-0.4-1.3-1-1c-0.5,0.2-0.8,0.9-0.9,1.5c0,0.2,0.6,0.6,0.9,0.9c0,0.7,0,1.3,0,2
			c-0.1,0.2-0.2,0.4-0.2,0.7c0,5.8,0,11.7,0,17.5c-0.1,1.3-0.2,2.6-0.3,3.9c0,0.1,0,0.2,0,0.2c-0.1,0.2-0.3,0.4-0.4,0.5
			C250.1,80.6,250.1,81.2,250,81.8z"/>
		<path d="M180.8,62.4c0-0.4,0-0.8,0-1.2c0-3.6,0-7.2,0-10.9c11.1,0,22.1,0,33.1,0c0,4.2,0,8.5,0,12.9c-0.9,0-1.8,0-2.7,0
			c-1.1,0-0.9-1-1-1.5c-0.3-1.3-0.3-2.7-0.5-4.1c-0.6-3-1.8-4.1-5-4c-1.4,0-2.9,0-4.5,0c0,1,0,1.9,0,2.9c0,1.1,0,2.2-0.1,3.3
			c-0.2,0.3-0.7,0.6-0.7,1c0,5.5,0,11.1,0,16.6c0,0.3,0.5,0.5,0.7,0.8c0.1,0,0.1,0,0.2,0c-0.6,1.1-0.1,2.3-0.2,3.5
			c-0.2,0.1-0.6,0.1-0.7,0.3c-0.2,0.6-0.7,1.3-0.5,1.8c0.3,0.8,0.9,1.8,1.5,2c1.7,0.4,3.5,0.9,4.9-0.8c0.6,0.1,1.1,0.1,1.7,0.2
			c-0.4,0-0.8,0.1-1.1,0.1c-0.2,2-0.1,2.1,1.1,1.9c0,0.2,0.1,0.5,0.1,0.7c-0.8,0.1-1.5,0.2-2.3,0.3c-5.7,0-11.3,0-17,0
			c-0.2-0.1-0.5-0.2-0.7-0.3c-0.1-0.2-0.2-0.5-0.3-0.7c0-0.2,0.1-0.3,0.1-0.5c1.7-0.3,3.3-0.5,5-0.8c0.8-0.1,1.5-0.6,2.2-0.6
			c1,0,1.3-0.5,1.2-1.4c0-1.3,0-2.6,0-3.9c0-6.7,0-13.4,0-20.1c0-0.9-0.3-1.3-1.2-1.2c0-0.5,0-1,0-1.5c-0.1-1.1-0.1-2.2-0.2-3.3
			c-1.6-0.1-3.1-0.3-4.7-0.2c-0.9,0-1.7,0.4-2.6,0.7c-1.9,1.3-2.2,3.3-2.5,5.3c-0.2,1.2-0.2,2.4-0.3,3.6c-0.8,0-1.7,0-2.5,0
			C180.9,63.2,180.8,62.9,180.8,62.4z"/>
		<path d="M163.1,75.1c-0.2,0-0.3-0.1-0.5-0.1c0.1-1.3,0.2-2.6,0.2-3.9c4.2,0,8.4,0,12.6,0c0.2,0,0.4,0.2,0.6,0.2
			c0,1.2,0,2.5-0.1,3.7c-1,0-2,0-3,0.1c-2.9,0-5.8,0-8.7,0C164,75.1,163.6,75.1,163.1,75.1z"/>
		<path d="M256.4,50.4c0.1,0.9,0.2,1.8,0.1,2.7c0,0.2-0.7,0.3-1.1,0.5c-0.2-0.8-0.4-1.6-0.5-2.4c-0.5-0.3-1.1-0.6-1.7-1
			C254.2,50.3,255.3,50.4,256.4,50.4z"/>
		<path d="M224,81.5c-0.4-1.2-0.7-2.3-1.1-3.5c-0.1-0.2-0.1-0.3-0.2-0.5c0.6,0,1.3-0.1,1,1c-0.1,0.3,0.3,0.7,0.6,1
			c0.8,1,1.4,2,0.6,3.3C224.7,82.4,224.3,81.9,224,81.5z"/>
		<path d="M162.9,71.1c-0.1,1.3-0.2,2.6-0.2,3.9c-0.4,0-0.7,0-1.3,0.1c0.1-1.4,0.2-2.7,0.3-4C162.1,71.1,162.5,71.1,162.9,71.1z"/>
		<path d="M227.5,85.3c0.3-0.2,0.7-0.3,1-0.5c0.4,1,1.6,0.8,2.3,1.4c0.3,0.3,0.5,0.8,0.7,1.3C230.1,86.7,228.8,86,227.5,85.3z"/>
		<path class="st3" d="M222.8,60.6c0.1,0.3,0.2,0.5,0.2,0.8c0,2.9,0,5.8,0,8.7c-0.1-0.2-0.2-0.4-0.2-0.7
			C222.8,66.5,222.8,63.6,222.8,60.6z"/>
		<path d="M246.5,85.8c0.1-1,1.3-2.2,2.4-2.3c-0.6,0.7-1.1,1.3-1.7,2C246.9,85.6,246.7,85.7,246.5,85.8z"/>
		<path d="M290.8,58.9c-1.4-0.3-1.6-0.8-1.3-2.6c-1.2-0.2-1-0.9-0.4-1.6C290.1,55.9,290.7,57.3,290.8,58.9z"/>
		<path d="M288.8,64.6c-0.6-2,0.1-3.4,1.7-3.5C290,62.3,289.4,63.5,288.8,64.6z"/>
		<path d="M289.1,71.5c-0.9,0.8-1.5,0.8-2-0.3c-0.2-0.4-0.3-0.9-0.5-1.4C287.4,70.4,288.3,71,289.1,71.5z"/>
		<path d="M286.4,69.8c-0.5,0.1-1,0.3-1.5,0.4c-0.8,0.2-1.6-0.3-1.8-1.4C284.2,69.2,285.3,69.5,286.4,69.8z"/>
		<path class="st4" d="M250.5,80c0.1,0.1,0.1,0.1,0.2,0.2c-0.1,0-0.1,0-0.2,0C250.4,80.2,250.4,80.1,250.5,80z"/>
		<path class="st5" d="M281.9,68.3c0.1-0.1,0.1-0.1,0.2-0.2C282,68.2,282,68.3,281.9,68.3z"/>
		<path d="M310.8,84.8c2.5,0,5.1-0.1,7.6,0c2.6,0,4.6-0.7,5.7-3.2c0.3,0.2,0.6,0.3,0.8,0.6c0.2,0.2,0.4,0.7,0.3,0.8
			c-0.6,0.6-1.1,1.6-1.8,1.7c-0.8,0.2-1.2,1.3-2.3,0.7c-0.6-0.3-1.7,0.3-2.6,0.3c-0.8,0-1.5-0.1-2.3-0.3
			C314.3,85.7,312.5,86.4,310.8,84.8z"/>
		<path d="M308,79.5c0,1.4,0,2.8,0.1,4.1c0,0.4,0.3,0.7,0.5,1.1c-0.3,0.2-0.5,0.4-0.8,0.7c-0.2-0.3-0.4-0.5-0.5-0.8
			C306.9,82.9,306.9,81.1,308,79.5z"/>
		<path d="M327.5,77.1c-0.3,0.1-0.5,0.2-0.8,0.2c-1.7,0.1-1.7,0.1-1.7,1.7c-0.2,0.8,0.5,2-1,2.2c0.2-0.9,0.4-1.9,0.4-2.8
			c0.1-1.4,0.8-2,2.2-1.6C327,76.9,327.2,77,327.5,77.1z"/>
		<path class="st6" d="M308.3,57.1c0,2.7,0,5.3,0,8c-0.1-1.7-0.2-3.4-0.2-5.1C308,59.1,308.2,58.1,308.3,57.1z"/>
		<path class="st7" d="M320.6,75.6c-0.1,0.7-0.2,1.3-0.3,2c0-2.5,0-5,0-7.5c0.1,1.1,0.2,2.3,0.2,3.4
			C320.5,74.2,320.5,74.9,320.6,75.6z"/>
		<path d="M187.1,84.8c1.5,0,3.1,0.1,4.6,0c1.9-0.1,2.7-0.5,2.6-2.6c0-0.5,0-0.9,0-1.4c0-1.1,0.1-2.1,0.1-3.2
			c0.1-0.3,0.2-0.5,0.2-0.8c0-5.5,0-11,0-16.5c0-0.3-0.2-0.6-0.3-0.9c0-0.3,0-0.7,0.1-1c0.9-0.1,1.2,0.3,1.2,1.2
			c0,6.7,0,13.4,0,20.1c0,1.3,0,2.6,0,3.9c0,0.9-0.2,1.4-1.2,1.4c-0.7,0-1.5,0.5-2.2,0.6c-1.7,0.3-3.3,0.6-5,0.8
			C187.1,85.9,187.1,85.3,187.1,84.8z"/>
		<path d="M205.5,84.8c-1.4,1.7-3.2,1.3-4.9,0.8c-0.7-0.2-1.3-1.2-1.5-2c-0.2-0.5,0.2-1.2,0.5-1.8c0.1-0.2,0.5-0.2,0.7-0.3
			c0,0.4,0,0.9,0,1.3c0,1,0.8,1.7,1.8,1.7C203.3,84.7,204.4,84.7,205.5,84.8z"/>
		<path class="st8" d="M200.5,78.1c-0.1,0-0.1,0-0.2,0c0-0.6,0-1.2,0-1.9c0-5.5,0-11,0-16.5c0-1.1,0-2.2,0.1-3.3
			c0.1,0.2,0.2,0.4,0.2,0.7C200.5,64,200.5,71,200.5,78.1z"/>
		<path d="M207.2,87c-1.2,0.3-1.3,0.1-1.1-1.9c0.4,0,0.7-0.1,1.1-0.1C207.2,85.7,207.2,86.3,207.2,87z"/>
		<path d="M138.7,50.4c2.8,0.1,5.5,0.5,8,1.5c4.1,1.7,7.1,5,6.7,9.8c-0.2,1.8-0.9,3.5-2.1,4.9c-0.5,0.6-1.1,1.2-1.6,1.8
			c-1.6,1.4-3.4,2.4-5.5,3c-0.7,0.2-1.5,0.4-2.6,0.7c1.2,0.4,2,0.7,2.9,1c0.2,0.1,0.3,0.2,0.5,0.3c0.5,0.3,1,0.7,1.5,1
			c0.2,0.2,0.5,0.5,0.7,0.7c0.9,1.5,1.8,3,2.8,4.5c0.1,0.2,0.2,0.5,0.2,0.7c0.2,0.3,0.4,0.7,0.6,1c0.3,0.6,0.6,1.2,0.9,1.8
			c0.6,0.5,1.2,1,1.8,1.5c0.4,1.2,2.2,1.3,3.2,0.3c0.2,0,0.3,0,0.5,0c1.1,1,1,2,0.2,3.2c-3.3,0-6.6,0-9.9,0c-0.3,0-0.5-0.2-0.8-0.2
			c-0.3-0.3-0.5-0.7-0.8-1c-0.2-0.6-0.5-1.2-0.7-1.7c-0.2-0.4-0.3-0.8-0.5-1.2c-0.2-0.5-0.5-1-0.7-1.5c-0.3-0.8-0.7-1.7-1-2.5
			c-0.2-0.5-0.3-1-0.5-1.4c-0.9-1.6-1.3-3.7-3.2-4.5c-2.2-1.1-4.6-0.6-7-0.7c0,3.6,0,7,0,10.4c-0.2,0.8-0.7,2,0.5,2.1
			c1.4,0.2,3,0.3,4.2-0.8c0.1,0,0.2,0,0.3,0c0,1,0,2.1,0,3.1c-5.3,0-10.5,0-15.8,0c-0.3,0-0.6-0.2-0.9-0.3l0,0
			c-0.1-0.3-0.2-0.7-0.2-1c0.6-0.8,1.4-1.1,2.5-1c0.7,0.1,1.4,0,2.1,0c1.7-0.1,1.7-0.1,0.9-1.5c0.1-0.1,0.2-0.2,0.3-0.2
			c0.1,0.1,0.3,0.2,0.4,0.3c0.1-0.4,0.3-0.7,0.4-1.1c0-0.4-0.2-0.8-0.2-1.1c0.1-0.6,0.4-1.3,0.3-1.9c0-1.6-0.2-3.1-0.2-4.7
			c0-3.9,0-7.8,0-11.7c0-1.1,0.2-2.1,0.1-3.2c0-1.6-0.2-3.3-0.3-4.9c0-0.1,0.1-0.1,0.1-0.2c0.3-1-0.2-2.2-1.3-2.9
			c-0.1,0.4-0.1,0.7-0.1,1c-1.7-0.1-3.3-0.2-5-0.2c0-0.1,0-0.2-0.1-0.2c0-0.1,0-0.2,0-0.2c0-0.9,0-1.7,0-2.7c0.4,0,0.7-0.1,1-0.1
			c5.3,0,10.6,0,15.9,0C137.7,50.2,138.2,50.3,138.7,50.4z M132.3,55.4c0,2.7,0,5.3,0,8c0,1.7,0,3.5,0,5.2c0,0.9,0.4,1.3,1.3,1.2
			c1.9-0.1,3.8-0.1,5.7-0.3c3.4-0.3,5.8-2,7.1-5.2c1.8-4.3,0.2-8.9-4.6-10.2c-3-0.8-6.2-0.6-9.4-0.8
			C132.3,54.3,132.3,54.9,132.3,55.4z"/>
		<path d="M157.2,84.8c0.6,0.1,1.2,0.2,1.7,0.2c-0.1,0.8-0.1,1.6-0.2,2.5c-0.4,0.2-0.9,0.3-1.3,0.5
			C158.1,86.8,158.2,85.8,157.2,84.8z"/>
		<path class="st9" d="M95.5,88c0,0.1,0,0.1,0,0.2c-0.1,0-0.2,0-0.2,0c0-0.1,0-0.1,0-0.2C95.4,88,95.5,88,95.5,88z"/>
		<path class="st10" d="M95.3,88c0,0.1,0,0.1,0,0.2c-0.1,0-0.2,0-0.3,0c0-0.1,0-0.1,0-0.2C95.1,88,95.2,88,95.3,88z"/>
		<path class="st1" d="M15.2,108.4c0.4,6.3,2.5,12,6.7,16.7c0.8,0.9,1.7,1.6,2.5,2.4c0.3,0.2,0.5,0.5,0.8,0.7
			c-0.1,0.4-0.2,0.8-0.3,1.3c-0.4-0.7-0.6-1.4-1.1-1.7c-0.8-0.5-1.7-0.9-2.7-1.3c1.1,1.2,2,2.3,2.9,3.4c-0.1,0.1-0.3,0.4-0.6,0.8
			c0.7,0,1.3-0.1,2-0.1c0,0.4,0.1,0.7,0.1,1c1,0.5,2,0.9,3.1,1.5c-0.2,0.5,0.7,1.9-1.1,1.7c-0.6-0.9-1.1-1.7-1.8-2.7
			c-0.1,0.6-0.1,1-0.1,1.3c-0.1,0-0.1,0-0.2,0c-0.2-0.7-0.3-1.3-0.5-2c-0.1,0-0.1,0-0.2,0c-0.1,0.8-0.2,1.6-0.3,2.4
			c-0.1,0-0.2,0-0.4,0c0.1-0.6,0.6-1.4-0.7-1.4c0.2-0.3,0.4-0.5,0.6-0.8c-0.1,0-0.2,0.1-0.4,0.1c-0.2-0.3-0.3-0.5-0.5-0.8
			c-0.2-0.2-0.4-0.4-0.7-0.4c-0.6,0-1.6,0-1.6,0.2c-0.2,1-0.9,0.5-1.3,0.6c0.1-0.6,0.3-1.3,0.4-1.8c-0.4,0-0.8,0-1.3,0.1
			c0,0.2,0,0.5,0,0.8c-0.4-0.5-0.8-0.9-1.1-1.2c0.5-0.1,1-0.3,1.5-0.4c0,0-0.1-0.1-0.1-0.1c-1.1-0.1-2.3-0.2-3.4-0.3
			c0-0.1,0-0.2,0-0.3c0.8,0,1.6,0,2.4,0c0-0.1,0-0.2,0-0.3c-1.1-0.2-2.3-0.3-3.4-0.5c0-0.1,0-0.1,0-0.2c0.8,0,1.6-0.1,2.4-0.1
			c0-0.1,0-0.2,0-0.2c-1.2-0.2-2.3-0.3-3.3-0.4c0-0.3,0.1-0.7,0.2-1.2c0.1,0,0.6-0.1,1.1-0.1c0-0.1,0-0.1,0-0.2
			c-1.1-0.2-2.3-0.3-3.4-0.5c0-0.1,0-0.1,0-0.2c0.8,0,1.6,0,2.4,0c0-0.1,0-0.2,0-0.3c-1.1-0.2-2.3-0.3-3.4-0.5c0-0.1,0-0.1,0-0.2
			c0.8,0,1.6-0.1,2.4-0.1c0-0.1,0-0.1,0-0.2c-0.8-0.1-1.6-0.3-2.5-0.4c0-0.1,0-0.2,0-0.2c0.5-0.1,1-0.1,1.5-0.2c0-0.1,0-0.1,0-0.2
			c-0.8-0.1-1.6-0.3-2.8-0.4c0.8-0.3,1.4-0.4,2.2-0.7c-1.2-0.2-2-0.3-2.8-0.4c0-0.1,0-0.1,0-0.2c0.8,0,1.6,0,2.4,0
			c0-0.1,0-0.2,0-0.3c-1.1-0.2-2.3-0.3-3.5-0.5c0.8-0.6,2,0.3,2.6-0.7c-1-0.1-1.8-0.1-2.6-0.2c0-0.1,0-0.2,0-0.2
			c0.5-0.1,1.1-0.3,1.6-0.4c0-0.1-0.1-0.1-0.1-0.2c-0.8-0.1-1.6-0.1-2.4-0.2c0-0.1,0-0.2,0-0.3c0.8,0,1.6,0,2.4,0c0-0.1,0-0.2,0-0.3
			c-0.8-0.1-1.6-0.3-2.5-0.4c0-0.1,0-0.1,0-0.2c0.5-0.1,1-0.3,1.6-0.4c0-0.1-0.1-0.1-0.1-0.2c-0.8-0.1-1.6-0.1-2.5-0.2
			c0.2-0.3,0.4-0.6,0.7-0.9c-0.8-0.1-1.5-0.1-2.1-0.2c1-0.5,2.1,0.2,3-0.7c-0.9-0.1-1.7-0.2-2.5-0.3c0-0.1,0-0.1,0-0.2
			c0.8-0.1,1.5-0.1,2.3-0.2c0-0.1,0-0.1,0-0.2c-0.8-0.1-1.5-0.3-2.1-0.4c0.1-0.6,0.2-1.3,0.3-1.9c-0.5,0-1-0.1-1.4-0.1
			c0-0.1,0-0.1,0-0.2c0.7,0,1.5-0.1,2.2-0.1c0,0,0-0.1,0-0.1c-0.7-0.2-1.5-0.3-2-0.4c0-2.5,0-4.9,0-7.3c1.5,0.4,0.8-1,1.1-1.8
			c-0.4,0.3-0.8,0.6-1.3,0.9c-0.1-0.1-0.4-0.5-0.6-0.7c0.2-0.4,0.4-0.8,0.5-1.1c-0.1-0.1-0.2-0.2-0.3-0.3c-0.3,0.4-0.7,0.8-1,1.2
			C2.1,99.7,2,98.8,1.9,98c0.7,0.3,1.3,0.6,2.2,1c0-0.1,0,0.2,0.1,0.5c0.1,0,0.2,0,0.3,0.1c0.1-0.4,0.3-0.8,0.4-1.4
			c-0.2,0.1-0.1,0.1-0.1,0.1c1.2,0.2,1.3-1,1.2-1.4c-0.5-1,0.5-1.1,0.7-1.6c0.1-0.2,0.1-0.5,0.2-1c0.6,0,1.5,0,2.6,0
			c-0.4-0.3-0.6-0.5-0.9-0.7c0.2-0.4,0.3-0.8,0.6-1.3c0.6,0.8,1.1,1.5,1.7,2.2c0.5,0.5,1,0.9,1.6,1.2c1.4,0.7,1.1,1.8,0.9,2.9
			c-0.1,0.4-0.2,0.9-0.3,1.3c-0.7,0-1.5,0-2.3,0c0,0.1,0,0.1,0,0.2c0.4,0.1,0.8,0.1,0.8,0.1c0.3,0.6,0.4,1,0.6,1.4
			c-0.5,0.4-0.8,0.9,0,1.5c0.1,0.1,0.3,0.3,0.3,0.4c0.1,2,0.2,4,0.2,6c0,1,0,1.9-0.1,2.9c0,0.2-0.5,0.3-0.7,0.4
			c0.3,0.3,0.6,0.6,1.1,1c0-0.6,0-1.1,0-1.7c0-0.7-0.4-1.5,0.7-1.8c0.2-0.1,0.2-1,0.3-1.6c0-0.1-0.2-0.3-0.2-0.4
			c0-0.4,0.1-0.8,0.2-1.2c0.2,0.4,0.5,0.7,0.8,1.2C14.8,108.4,15,108.4,15.2,108.4z"/>
		<path d="M18.7,97.2c-0.8-0.4-1.6-0.9-2.5-1.3c-0.1-0.1-0.2-0.2-0.2-0.2c-1-0.9-2-1.8-3-2.7c-0.4-0.3-0.8-0.7-1.2-1
			c-1.4-1.7-2.8-3.3-4.3-5c0-0.1,0-0.1,0-0.2c-0.1-0.1-0.1-0.2-0.2-0.3c0-0.1,0-0.1,0-0.2c1.3-0.9,2.7-0.1,3.2,1.6
			c0.1,0.4,0.3,0.9,0.6,1.1c1.3,1,2.6,1.8,3.8,2.8c1,0.9,2,2,2.7,3.1C18.1,95.5,19.2,96.1,18.7,97.2z"/>
		<path class="st1" d="M7.5,87c1.4,1.7,2.8,3.3,4.3,5c-0.1,0.1-0.2,0.1-0.4,0.2c0.5,0.3,0.4,0.9,0,1c-0.4,0.1-1-0.2-1.3-0.6
			c-0.5-0.8-0.8-1.7-1.3-2.5c-0.2-0.3-0.7-0.4-1.3-0.7c-0.2-0.5-0.5-1.2-0.7-2c0-0.1,0-0.1,0-0.2c0-0.1,0.1-0.2,0.1-0.2l0,0
			C6.9,87,6.9,87,7,87c0,0,0.1,0,0.1,0s0.1,0,0.1,0C7.4,87,7.4,87,7.5,87z"/>
		<path class="st1" d="M62.9,112.9c-0.1-1-0.2-2-0.2-3c1.2,0.2,1.2-0.9,1.6-1.5c0.5,0.6,0.6,6.9-0.1,8c-0.2-1.2-0.3-2.2-0.5-3.1
			C63.6,113.1,63.2,113,62.9,112.9z"/>
		<path class="st1" d="M13,93c1,0.9,2,1.8,3,2.7c0,0.1,0,0.2,0,0.3c-0.2,0.9-0.4,1.8-0.6,2.7c-0.3,0-0.6,0-1,0
			c0.1-1.1,0.2-2.3,0.3-3.6c-0.6,0.2-0.9,0.4-1.3,0.5c-0.3-0.6-0.5-1.2-0.8-1.9c0,0.5-0.1,0.8-0.1,1.5c-0.2-0.5-0.4-0.8-0.4-1.1
			c0-0.3,0.1-0.5,0.3-0.7C12.5,93.2,12.8,93.1,13,93z"/>
		<path class="st1" d="M15,102.2c0,1.4,0,2.8,0,4.2c-0.4-0.3-0.7-0.6-1.1-0.9c0-1.6,0-3.3,0-5.1c0.8,0.1,0.5,1,0.8,1.5
			C14.7,102,14.8,102.1,15,102.2z"/>
		<path class="st1" d="M6.3,90.9c0.3,0.3,0.8,0.7,0.9,0.9c-0.7,0.9-1.2,1.4-1.6,2c-0.3,0.6-1,2.2-1.4,2.5c-0.2,0.2-0.7,0.4-0.8,0.2
			C3.2,96.4,3.1,96,3,95.7c0.1,0,0.2-0.1,0.3-0.1c0.1,0.2,0.3,0.5,0.5,0.9C4.6,94.6,5.4,92.9,6.3,90.9z"/>
		<path class="st1" d="M62.5,125.2c0.4-0.2,1.7,0.4,1-1c0.7,0,1.4,0,2.1,0c-0.5,0.5-0.9,0.8-1.2,1.2c0.1,0.1,0.1,0.1,0.2,0.2
			c-0.7,0-1.4,0-2.1,0C62.5,125.4,62.5,125.3,62.5,125.2z"/>
		<path class="st1" d="M1.5,113.4c-0.2-0.6-0.5-1.2-0.7-1.8c0.3-0.1,0.7-0.2,1-0.3c0.4-0.1,0.8-0.1,1.1-0.2c0,0.1,0.1,0.2,0.1,0.4
			C2.5,112.1,2,112.7,1.5,113.4z"/>
		<path class="st1" d="M61.6,122.9c0.1,0.3,0.2,0.7,0.2,1.1c0.3,0,0.7,0.1,1.3,0.1c-0.9,0.6-1.7,1.1-2.8,1.8c0.4-1.2,0.7-2.1,1-2.9
			C61.4,123,61.5,123,61.6,122.9z"/>
		<path class="st11" d="M59.1,99.7c-1.2,1-2-0.1-2.9-0.5c0.5-0.2,1-0.4,1.5-0.6c0.1,0,0.2,0,0.3,0c0.2,0.1,0.4,0.2,0.5,0.2
			c0,0,0.1,0,0.1,0l0.1,0C58.8,99.2,59,99.4,59.1,99.7z"/>
		<path class="st12" d="M0.2,107.4c-0.9-1.1-0.9-3.3,0-4.2C0.2,104.6,0.2,106,0.2,107.4z"/>
		<path class="st13" d="M58.7,98.9l-0.1,0c0,0-0.1,0-0.1,0c0-0.1,0-0.1-0.1-0.2c0-0.1,0-0.2,0-0.3l0,0
			C58.5,98.6,58.6,98.7,58.7,98.9z"/>
		<path class="st14" d="M58.2,98.2c0.1,0,0.2,0,0.3,0c0,0.1,0,0.1,0,0.2c0,0,0,0,0,0c-0.1,0-0.2,0-0.2,0l0-0.1
			C58.1,98.3,58.2,98.3,58.2,98.2z"/>
		<path class="st15" d="M58.6,98.2c0.1-0.1,0.2-0.1,0.3-0.2C58.8,98,58.7,98.1,58.6,98.2z"/>
		<path d="M89.5,76c-1.1-1.1-0.8-2.5-0.7-3.9c0.1-3.1,0-6.2,0-9.3c0-0.3-0.1-0.6,0-0.9c0.1-0.3,0.4-0.6,0.7-0.9c0,4,0,7.9,0,11.9
			c0,0.4,0.1,0.9,0.2,1.3C89.7,74.9,89.6,75.5,89.5,76z"/>
		<path d="M92.3,50.2c1.2,0.1,2.3,0.1,3.5,0.2c0,1,0,2.1,0,3.2c-0.4,0-0.8,0-1.2,0c-0.1-0.8-0.2-1.5-0.4-2.3
			c-0.1,0.1-0.1,0.1-0.2,0.2C93.5,51.1,92.9,50.7,92.3,50.2z"/>
		<path class="st16" d="M89.8,74.3c-0.1-0.4-0.2-0.9-0.2-1.3c0-4,0-7.9,0-11.9c-0.7-1-0.1-2,0.1-3c0.1,0.2,0.2,0.4,0.2,0.6
			C89.8,64,89.8,69.1,89.8,74.3z"/>
		<path d="M107.3,80.5c0.2-0.6,0.3-1.2,0.5-1.7c0.2-1.2,0.3-2.3,0.5-3.5c0.2,1.2,0.5,2.5,0.7,3.7C109.2,80.2,108.1,80.3,107.3,80.5z
			"/>
		<path d="M89.6,55.2c-0.2-0.7-0.5-1.5-0.7-2.2c0.4,0,0.8-0.1,1.1,0c0.2,0.1,0.4,0.5,0.6,0.7C90.3,54.2,89.9,54.7,89.6,55.2z"/>
		<path d="M90.1,78.5c0,0.1,0,0.2,0,0.2c-0.4-0.2-0.8-0.4-1.4-0.8c0.6,0,0.9,0,1.2,0.1c0.1,0.1,0.2,0.2,0.2,0.3
			C90.1,78.4,90.1,78.5,90.1,78.5z"/>
		<path class="st17" d="M90,78.3c-0.1-0.1-0.2-0.2-0.2-0.3c0,0,0,0,0,0c0.1,0,0.1,0,0.2,0C90,78.1,90,78.2,90,78.3z"/>
		<path class="st18" d="M90,78c-0.1,0-0.1,0-0.2,0c0-0.1,0-0.2,0-0.3c0.1,0,0.1,0,0.2,0C90,77.9,90,78,90,78z"/>
		<path class="st19" d="M90,77.8c-0.1,0-0.1,0-0.2,0c0-0.1,0-0.2,0-0.2c0.1,0,0.1,0,0.2,0C90,77.6,90,77.7,90,77.8z"/>
		<path class="st20" d="M90,77.6c-0.1,0-0.1,0-0.2,0c0-0.1,0-0.2,0-0.2c0.1,0,0.1,0,0.2,0C90,77.4,90,77.5,90,77.6z"/>
		<path class="st21" d="M90,77.3c-0.1,0-0.1,0-0.2,0c0-0.1,0-0.2,0-0.2c0.1,0,0.1,0,0.2,0C90,77.1,90,77.2,90,77.3z"/>
		<path class="st22" d="M90,77.1c-0.1,0-0.1,0-0.2,0c0-0.1,0-0.2,0-0.3C89.9,76.9,90,77,90,77.1z"/>
		<path d="M83.5,56.2c0-0.5,0-1,0-1.5c-0.1-0.2-0.1-0.5-0.2-0.7c0.2-0.3,0.4-0.6,0.6-0.9c0.2,0.3,0.3,0.6,0.4,0.9
			c1.3,3.4,0.3,6.9,0.5,10.3c0.2,3,0.2,6,0.3,9c0,0.7-0.1,1.5-0.3,2.2c-0.1,0.3-0.7,0.4-1.1,0.6c0-1.8,0-3.6,0-5.5
			c0.1-0.4,0.2-0.8,0.2-1.2c0-2,0-3.9,0-5.9c0-0.6-0.1-1.1-0.2-1.7C83.6,60,83.6,58.1,83.5,56.2z"/>
		<path d="M98.6,85c2.6,0,5.1-0.6,7.1-2.5c0.2-0.2,0.6-0.2,0.9-0.3c0.5,1.4-0.2,2.4-1.9,2.6c-0.9,0.1-1.8,0.2-2.6,0.9
			C101.3,86.5,99.4,86,98.6,85z"/>
		<path d="M111.7,76c-0.1,1.2-0.2,2.3-0.2,3.5C110.4,78.9,110.6,76.8,111.7,76z"/>
		<path class="st23" d="M111.8,61.1c0.1,0.1,0.2,0.1,0.2,0.2c0,3.4,0,6.8,0,10.2c0,0.1-0.1,0.1-0.2,0.2
			C111.8,68.1,111.8,64.6,111.8,61.1z"/>
		<path d="M95.1,84.3c0.7,0.2,1.5,0.5,2.2,0.7c-0.4,0.7-1,0.9-1.6,0.6C95.2,85.4,94.6,85,95.1,84.3z"/>
		<path d="M78.4,51.4c0-0.4,0-0.7-0.1-1.2c0.9,0,1.8,0,2.8,0c-0.4,1-1,1-1.7,0.4C79,50.9,78.7,51.2,78.4,51.4z"/>
		<path d="M95.3,88c-0.1,0-0.2,0-0.3,0c-0.2,0-0.3,0-0.5-0.1c0-0.1,0-0.1,0-0.2c0-0.2-0.1-0.4-0.1-0.6c0.5,0.1,1,0.3,1.5,0.4
			c-0.1,0.1-0.3,0.3-0.5,0.4C95.5,88,95.4,88,95.3,88z"/>
		<path class="st24" d="M94.6,87.7c0,0.1,0,0.1,0,0.2c-0.1,0-0.2,0-0.2,0c0-0.1,0-0.1,0-0.2C94.4,87.7,94.5,87.7,94.6,87.7z"/>
		<path class="st25" d="M94.3,87.7c0,0.1,0,0.1,0,0.2c-0.1,0-0.2,0-0.2,0c0-0.1,0-0.1,0-0.2C94.1,87.8,94.2,87.8,94.3,87.7z"/>
		<path class="st26" d="M94,87.8c0,0.1,0,0.1,0,0.2c0,0-0.1,0-0.1,0s-0.1,0-0.1,0c0-0.1,0-0.1,0-0.2C93.9,87.8,94,87.8,94,87.8z"/>
		<path class="st27" d="M93.8,87.8c0,0.1,0,0.1,0,0.2c-0.1-0.1-0.2-0.1-0.3-0.2C93.6,87.7,93.7,87.7,93.8,87.8z"/>
		<path class="st28" d="M93.3,87.7c-0.1-0.1-0.2-0.1-0.3-0.2C93.1,87.6,93.2,87.6,93.3,87.7z"/>
		<path class="st29" d="M90.1,78.8c0.1,0.1,0.1,0.1,0.2,0.2c-0.1,0-0.1,0-0.2,0C90.1,78.9,90.1,78.8,90.1,78.8z"/>
		<path class="st30" d="M83.9,77.8c0.1-0.1,0.1-0.2,0.2-0.3C84,77.6,83.9,77.7,83.9,77.8z"/>
		<path class="st31" d="M71.1,86.7c0,0.1,0,0.2,0.1,0.2c-0.1,0-0.2,0-0.2,0C71,86.9,71,86.8,71.1,86.7z"/>
		<path class="st1" d="M73.3,27c-0.1,0.2-0.4,0.4-0.4,0.5c0,0.8,0.1,1.5,0,2.3c0,0.2-0.4,0.4-0.7,0.6c-0.2-1.5-0.3-2.8-0.5-4.1
			c-0.1,0-0.3,0-0.4,0c0,2.2,0,4.4,0,6.7c-0.7-0.6,0.1-2-1.6-1.8c0.2,0.1,0.3,0.2,0.5,0.3c0.1,0.1,0.3,0.1,0.5,0.2
			c-0.1,0.5-1.1,0.8-0.2,1.4c-0.5,0-1.1,0.1-1.9,0.1c0.7,0.2,1.2,0.4,1.7,0.6c0,0.1,0,0.2-0.1,0.3c-0.5,0-1,0-1.5,0
			c0,0.7,0,1.3,0,1.9c-0.6-1.3-1.7-0.7-2.6-0.6c0-0.1,0-0.3,0-0.4c0.7-0.1,1.5-0.1,2.3-0.2c-0.1-0.2-0.2-0.5-0.2-0.6
			c-1,0.1-1.8,0.1-2.7,0.1c0-0.1,0-0.2,0-0.3c0.8-0.1,1.7-0.2,2.5-0.4c0-0.1,0-0.2,0-0.3c-0.5-0.2-1-0.4-1.8-0.7
			c0.9-0.1,1.4-0.1,1.9-0.1c0-0.1,0-0.2,0.1-0.3c-0.9-0.1-1.8-0.2-2.6-0.4c0-0.1,0-0.2,0-0.2c0.5,0,1-0.1,1.9-0.1
			c-0.4-0.2-0.6-0.4-0.8-0.4c-0.3-0.1-0.6-0.1-0.9-0.1c-0.3,0-0.6,0.1-1.1,0.1c0,0.7,0,1.4,0,2.1c-0.7-2.3-0.7-2.3,2.5-2.8
			c-1.2-0.1-2.4-0.3-3.6-0.4c0-0.1,0-0.2,0-0.3c1.1,0,2.3,0,3.4,0c0-0.1,0-0.2,0-0.3c-1.2-0.1-2.3-0.2-3.5-0.4c0-0.1,0-0.2,0-0.3
			c0.8,0,1.6,0,2.4,0c0-0.1,0-0.2,0-0.3c-0.8-0.2-1.6-0.3-2.8-0.5c0.9-0.2,1.4-0.4,2.1-0.6C64.5,27,64,27,63.2,26.8
			c0.8-0.2,1.4-0.3,1.9-0.5c0-0.1-0.1-0.1-0.1-0.2c-0.5-0.1-1-0.1-1.5-0.2c0-0.1,0-0.1,0-0.2c0.5-0.1,1-0.2,1.6-0.4
			c0-0.1-0.1-0.1-0.1-0.2c-0.8,0-1.7-0.1-2.3-0.1c0.1-0.5,0.1-0.9,0.1-1.2c-0.1,0-0.2,0-0.3,0c0.3-0.2,0.6-0.5,1-0.9
			c-0.7-0.1-1-0.1-1.4-0.1c0-0.1,0-0.2,0-0.3c0.9,0,1.9,0,2.8,0c0-0.1,0-0.2,0-0.3c-1-0.1-1.9-0.1-3.2-0.2c0.3-0.2,0.7-1.2,0.7-1.2
			c0.2-0.2,0.4-0.5,0.7-0.8c-0.6-0.1-0.9-0.2-1.4-0.3c0.5-0.2,0.9-0.3,1.3-0.4c0-0.1-0.1-0.3-0.1-0.4c-0.5,0.1-1.1,0.1-1.6,0.2
			c0.2-0.6,0.4-1.2,0.6-1.8c0-0.1-0.2-0.3-0.4-0.6c0.4-0.1,0.8-0.1,1.5-0.3c-0.9-0.3-1.6-0.5-2.3-0.7c0-0.1,0-0.1,0-0.2
			c0.7,0,1.4,0,2.1,0c0-0.1,0-0.1,0-0.2c-0.7-0.1-1.5-0.3-2.3-0.4c0.2-0.3,0.4-0.6,0.7-1c-0.6-0.1-1-0.1-1.5-0.2
			c0-0.3,0.1-0.6,0.1-0.9c-0.1,0-0.2,0-0.3,0c0.2-0.2,0.4-0.4,0.5-0.6c-0.2,0-0.4-0.1-0.7-0.1c-0.3-0.1-0.6-0.2-0.9-0.5
			c0.4-0.1,0.9-0.1,1.4-0.2c-0.6-0.2-1-0.4-1.3-0.6c0.2-0.6,0.3-1.3,0.5-2.2c-0.5,0.3-0.7,0.5-1.1,0.8c0-0.6-0.1-1-0.1-1.8
			c-0.3,0.7-0.4,1.2-0.6,1.7c-0.9-0.8-1.7-1.5-2.6-2.3c-0.1,0.1-0.3,0.2-0.7,0.4c-0.1-0.4-0.1-0.6-0.2-1c0.7-0.1,1.3-0.1,2-0.1
			c0-1.1,0-1.1-2.2-0.9c-0.1,0.4-0.1,0.9-0.2,1.4c-0.2-0.2-0.4-0.5-0.7-0.8c-0.1,0.3-0.2,0.5-0.3,0.9c-0.6-0.7-1.1-1.3-1.7-2
			c-0.1,0.4-0.1,0.6-0.2,1.2c-0.3-0.5-0.6-0.9-0.8-1.2c0.3-0.1,0.5-0.3,0.8-0.4c0.1-0.1,0.2-0.1,0.4-0.1c-0.1-1.5-1.3-0.8-2-1.2
			c-0.3-0.2-0.7-0.4-1.1-0.4c-1.1-0.1-2.3-0.2-3.4-0.3c-0.5,0-0.9-0.1-1.4-0.1c-0.3,0-0.5,0.2-0.8,0.2c-0.1-0.4-0.2-0.9-0.3-1.4
			c0.1,0,0.1-0.1,0.2-0.1c0.1,0.2,0.3,0.4,0.5,0.7c0.4-0.3,0.8-0.6,1.2-0.9c3,0.7,6,1.4,9,2.1c0.3,0.1,0.5,0.2,0.7,0.3
			c-0.7,0.5-1.4,1.1-2.2,1.8c0.7,0.1,1.1,0.3,1.4,0.2c0.7-0.5,1.2-1.1,1.9-1.6c0.9,0.4,1.8,0.8,2.7,1.2c1.4,1.8-0.9,1.3-1.4,2.3
			c0.9,0,1.6,0.1,2.4,0.1c0.1,0.3,0.2,0.6,0.4,1c0.6-0.6,1.2-1.1,1.7-1.6c0.8,0.5,1.7,1,2.5,1.6c-0.3,0.4-0.5,0.8-0.9,1.5
			c-0.6-0.4-1.3-0.9-2.1-1.5c-0.1,0.3-0.2,0.6-0.3,0.8c0.6,0.4,1.2,0.9,1.7,1c0.6,0.1,1.3-0.3,2.2-0.6c0.6,0.7,1.3,1.7,2.2,2.6
			c0.5,0.5,1.3,0.6,1.9,0.9c2.8,3.5,4.8,7.3,5.5,11.8C73.2,25.6,73.3,26.3,73.3,27z M69.8,29.3c0.3,0.3,0.5,0.5,0.8,0.7
			c-0.3,0.1-0.5,0.3-0.8,0.4c0.4,0.2,0.8,0.3,1.2,0.5c0-1.7,0-3.3,0-4.9c-0.4,0.1-0.8,0.3-1.2,0.4c0.3,0.2,0.6,0.4,1.1,0.7
			c-0.5,0.2-0.8,0.3-1.1,0.3c0.4,0.2,0.6,0.3,1.2,0.7c-0.6,0.2-0.9,0.2-1.2,0.3c0.3,0.2,0.6,0.4,1.2,0.7
			C70.3,29.2,70,29.2,69.8,29.3z M65.2,13.9c-0.7,0.2-1.1,0.4-1.6,0.6c0.4,0.5,0.8,1,1.3,1.5c0,0-0.1,0.2-0.2,0.5
			c0.5,0,1-0.1,1.4-0.1c0-0.1,0-0.2,0-0.3c-0.2-0.1-0.4-0.2-0.6-0.3c0.1-0.3,0.3-0.6,0.4-0.7c-0.5-0.1-1-0.1-1.5-0.2
			C64.7,14.6,64.9,14.3,65.2,13.9z M60.8,11.5c0,0.1,0,0.1,0,0.2c0.7-0.1,1.4-0.3,2.2-0.4c0-0.3,0.1-0.6,0.2-1
			C62.3,10.7,61.5,11.1,60.8,11.5z"/>
		<path class="st0" d="M67.6,13.1c-0.6-0.3-1.4-0.4-1.9-0.9c-0.9-0.8-1.6-1.9-2.2-2.6c-0.9,0.3-1.6,0.7-2.2,0.6
			c-0.6-0.1-1.1-0.6-1.7-1c0.1-0.2,0.2-0.5,0.3-0.8c0.7,0.5,1.4,1,2.1,1.5c0.4-0.6,0.6-1,0.9-1.5C64.5,10,66.1,11.5,67.6,13.1z"/>
		<path class="st0" d="M60.4,6.9c-0.5,0.5-1.1,1-1.7,1.6c-0.1-0.4-0.3-0.7-0.4-1c-0.8,0-1.5-0.1-2.4-0.1c0.5-1,2.8-0.5,1.4-2.3
			C58.4,5.6,59.4,6.2,60.4,6.9z"/>
		<path class="st0" d="M54.7,3.7c-0.6,0.6-1.2,1.2-1.9,1.6c-0.2,0.1-0.7-0.1-1.4-0.2c0.9-0.7,1.6-1.2,2.2-1.8
			C54,3.5,54.3,3.6,54.7,3.7z"/>
		<path class="st1" d="M6,35c0.4-0.2,0.8-0.4,1.3-0.7c-0.4,0-0.8-0.1-1.4-0.2c0.6-0.3,1-0.5,1.5-0.8c-0.4-0.1-0.8-0.1-1.5-0.2
			c0.7-0.3,1-0.5,1.5-0.8c-0.4,0-0.8-0.1-1.5-0.2c0.7-0.4,1.1-0.6,1.6-0.8c-0.5,0-0.8,0-1.1-0.1c0-0.1-0.1-0.1-0.1-0.2
			c0.4-0.2,0.8-0.4,1.2-0.7c-0.4,0-0.8-0.1-1.2-0.1c0-0.1-0.1-0.1-0.1-0.2c0.4-0.2,0.8-0.4,1.2-0.6c0-1.7,0-1.7,0.7-1.8
			c0.9-0.9-0.8-2.6,1.6-3.2c-0.6-0.1-1-0.1-1.7-0.2c0.6-0.4,1-0.6,1.3-0.8c0.4-0.5-0.7-1.9,0.9-1.8c0.5-0.7-0.8-2.2,1-2
			c0.5-0.7-0.8-2.1,1.1-2c0-0.6,0.1-1.2,0.1-1.8c0.1,0,0.2,0,0.2,0c0.1,0.3,0.3,0.6,0.4,0.8c0.1,0,0.1,0,0.2,0
			c0-0.8,0.1-1.6,0.1-2.4c0.1,0,0.2,0,0.3,0c0.1,1.3,0.2,2.7,0.4,4c-0.2,0.1-0.3,0.2-0.5,0.2c-0.2,0-0.4-0.1-0.6-0.1
			c0,0.6-0.1,1.2-0.1,1.8c0.1,0.5,0.1,1.1,0.3,1.6c0.3,1.2,0.1,1.5-1.3,1.6c1.4,0.5,2,1.2,1.9,2.7c-0.2,1.6-0.3,3.4,1.1,4.8
			c0.2-0.2,0.4-0.4,0.4-0.5c0.5,0.3,0.9,0.5,1.3,0.8l0.1,0c0.1,0.4,0.3,0.8,0.4,1.3c0,0-0.1,0-0.1,0.1c0,0.1,0,0.1,0.1,0.2
			c0,0.1,0,0.2,0.1,0.3c0,0.1,0,0.2,0,0.3c-0.2,0.2-0.3,0.3-0.5,0.5c-0.2-0.5-0.4-1-0.8-1.4c-0.3-0.3-0.7-0.6-1-0.8
			c-0.1,0.1-0.2,0.2-0.2,0.3c0.1,0.2,0.2,0.5,0.2,0.6c-0.6-0.3-1.3-0.6-2-0.8c-1.1,0.2-0.1-0.8-0.6-1c-0.4,0-0.8,0-1.4,0
			c1.2,0.6,1.4,1.2,0.5,2c0-0.3-0.1-0.7-0.2-1.4c-0.6,1.3,0,1.8,0.7,2.2c-0.5,1.5-1.8,1.1-2.9,1.2c0.3,0.3,0.5,0.6,0.9,1
			c-0.5,0-0.7-0.1-1-0.1c-0.3,0-0.6,0-0.8,0c-0.1,1-0.1,1-1.8,0.9C6.1,35.7,6,35.4,6,35z M12.8,27.8c0,0.1,0,0.2,0,0.3
			c-0.3,0.1-0.6,0.1-0.8,0.2c0.4,0.3,0.7,0.6,1.1,1c0-1.3,0-2.7,0-4c-0.4,0-0.8,0-1.2,0c0.4,0.2,0.7,0.4,1.2,0.8
			c-0.6,0.1-0.9,0.2-1.1,0.3c0.3,0.2,0.6,0.4,0.9,0.6c0,0.1-0.1,0.2-0.1,0.2c-0.3,0-0.6,0-1.2,0C12.1,27.5,12.4,27.7,12.8,27.8z"/>
		<path class="st1" d="M15.8,25.3c0.1,1.2,0.1,2.3,0.2,3.5c-0.2,0.1-0.4,0.3-0.6,0.4c-1.1-1.8-1.1-3.7-0.3-4.9
			c-1.5-1.1,0.6-2.2-0.1-3.3c0.3,0.4,0.7,0.7,1,1.1C15.9,23.2,15.8,24.2,15.8,25.3z"/>
		<path class="st1" d="M12.8,20.1c0-0.6,0.1-1.2,0.1-1.8c0.2,0,0.4,0.1,0.6,0.1c0.1,0.5,0.2,0.9,0.1,1.4
			C13.6,19.9,13.1,20,12.8,20.1z"/>
		<path d="M16.5,33.5c0.2-0.2,0.3-0.3,0.5-0.5c0.1,0,0.2,0,0.2-0.1c0.1-0.1,0.2-0.1,0.3-0.2c0.1,0,0.2,0,0.2-0.1
			c0.3-0.2,0.7-0.3,1-0.5c0.6,0,1.2,0.2,1.7,0.1c0.7-0.2,1.3-0.6,2.2-0.9c0-0.7,0.3-1.3,1.5-1c0.3,0.1,0.7-0.1,0.9-0.3
			c0.9-0.8,2.5,0.2,3.3-1.2c0,0,0.1,0,0.2,0c0.9,0.1,0.9-0.4,0.7-1.1c0.4-0.1,0.8-0.2,1.2-0.2c0,0.7,0.3,1.7,1,1
			c0.6-0.6,1.3-0.7,2-1c0.4-0.2,0.7-0.5,1-0.8c0.4,0,0.8,0,1.2,0c0.2,1.2,1.2,0.5,1.8,0.7c0.9,0.3,1.2-0.1,0.7-0.9
			c0.8,0,1.7,0,2.5,0c0.1,1.2,1,1.2,1.9,1.1c0.8,0,1.6,0.3,2.3,0.2c0.8-0.1,1.5-0.4,2.3-0.6c0.2,0.1,0.3,0.1,0.5,0.2
			c0.3,1.3,1.5,1.3,2.5,1.5c0.6,0.1,1.3-0.1,2-0.2c0.9,0.3,1.8,0.6,2.7,0.9c1.4,0.7,2.8,1.3,4.2,2c0.1,0,0.2,0,0.2,0
			c0.1,0,0.2,0,0.2,0.1c0,0.1,0,0.1,0.1,0.2c2.5,2.1,5.1,4.1,7.5,6.2c1,0.8,1.8,1.8,2.6,2.7c0,0,0,0,0,0c0.1,0.1,0.2,0.2,0.2,0.2
			l0.1,0c0,0.1,0,0.2,0,0.2c0.9,1.5,1.8,3,2.7,4.5c0.4,0.8,0.7,1.6,1.1,2.4c1.5,2.7,2.2,5.7,2.7,8.7c0,0.1,0.1,0.1,0.2,0.1
			c0.1,0.7,0.2,1.3,0.3,2c0.1,2.8,0.4,5.6,0.1,8.3c-0.2,2.8-1,5.6-1.5,8.3c-1.6,0.1-2,1.1-0.9,2.8c0,0.1,0,0.2,0,0.2
			c-0.2,0.3-0.3,0.7-0.5,1c-1.6,0.1-1.9,0.8-1,2.2l0,0c-1.2,0-1.3,0.9-1.3,1.9c-0.5,0-0.9,0-1.2,0.1c-0.5,0.2-1.1,0.4-1.3,0.8
			c-0.5,0.9-0.7,2-1.2,2.9c-0.4,0.7-0.9,1.2-1.5,1.8c-1,1-2.1,1.9-3.2,2.8c-1.1,0.9-2.1,1.9-3.3,2.7c-1.2,0.8-2.6,1.5-3.9,2.2
			c-0.9,0.5-0.9,1.2-0.5,2c-0.1,0.1-0.2,0.1-0.3,0.2c-0.4-0.5-0.8-1.2-1.7-0.8c-0.8,0.4-0.5,1-0.3,1.6c-1.5,0.6-2.8,1.4-4.6,1.4
			c-1,0-1.9,0.6-2.9,0.9c-0.2-0.3-0.5-0.8-0.7-0.8c-0.9,0.1-1.8,0.3-2.7,0.5c-0.2,0-0.4,0-0.6-0.1c-1.2-0.8-1.2,0-1.3,0.9
			c-0.7,0-1.5,0-2.2,0c-0.4-1-0.6-2.1-2.1-1.2c-0.1,0.1-0.3-0.1-0.5-0.1c-1-0.3-1.5,0-1.4,1.1c-1.7-0.2-3.3-0.5-5-0.7
			c-0.8-1.8-1.2-2-2.5-1.6c-1.3-0.6-2.3-1.2-3.3-1.6c-0.2-0.1-0.6,0.5-0.9,0.7c-0.2-0.1-0.3-0.2-0.5-0.2c0.3-1.4,0.2-1.6-1.4-1.6
			c-0.2,0-0.4-0.3-0.6-0.2c-0.3,0-0.7,0.2-1,0.4c-0.2-0.2-0.5-0.3-0.7-0.5c0.4-1.1-0.6-1.7-1.1-2.4c-0.7-1.1-1.7-2.2-2.7-3.1
			c-1.2-1-2.6-1.8-3.8-2.8c-0.3-0.2-0.5-0.7-0.6-1.1c-0.5-1.7-1.9-2.4-3.2-1.6C7.2,86.2,7.1,86.1,7,86c-0.1-0.1-0.2-0.2-0.2-0.2
			c-0.7-1.4-1.5-2.8-2.2-4.2c-0.1-0.2-0.2-0.3-0.2-0.5c-0.4-1-0.8-2-1.3-3c-0.5-2.3-1.1-4.5-1.5-6.8c-0.3-1.9-0.4-3.9-0.5-5.8
			c-0.3-5.2,0.8-10.2,2.5-15.1c0.4-1,0.8-2.1,1.3-3.1l0,0c0.1-0.2,0.2-0.3,0.3-0.5c0.1-0.1,0.1-0.2,0.2-0.3c0-0.1,0.1-0.2,0.1-0.2
			C5.4,46.1,5.5,46,5.5,46l0,0c0.1-0.1,0.1-0.2,0.2-0.3c0-0.1,0-0.1,0.1-0.2c0.7-1.1,1.3-2.1,2-3.2c0.6-0.7,1.1-1.3,1.7-2
			C11.8,38,14.2,35.8,16.5,33.5z M56.9,42c-0.1-0.1-0.1-0.2-0.2-0.3c-0.1-0.1-0.2-0.2-0.2-0.2c0-0.1,0-0.3-0.1-0.4
			c-2.5-2.8-5.3-5.1-8.9-6.3c-4.7-1.6-9.5-1.7-14.3-0.7C28.7,35,25,37.3,22.3,41c0,0.1-0.1,0.1-0.1,0.2c-0.2,0.3-0.3,0.5-0.5,0.8
			c-0.7,0.9-1.5,1.8-2.1,2.8c-1.9,3.2-3.1,6.8-3.8,10.4c-0.3,1.3-0.3,2.6-0.5,4c0,0.1,0,0.2,0,0.3c0,0.1,0,0.2,0,0.3l-0.1,0
			c0,0.1,0,0.2,0,0.3c0,0.1,0,0.1,0,0.2c-0.2,1.6-0.4,3.2-0.4,4.8c0,1.3,0.1,2.7,0.2,4c0.3,2.2,0.7,4.4,1,6.6
			c-0.1,0.7-0.1,1.4-0.2,2.1c-0.3,1.2-0.3,2.3,0.4,3.3c0.3,0.4,0.4,0.9,0.6,1.3c0.6,1.4,1.2,2.8,1.9,4.2c0.1,0.2,0.8,0.2,1.2,0.2
			c0.2,0,0.4-0.1,0.6-0.2c0.1,0.1,0.2,0.2,0.2,0.2c-0.5,1.8-0.5,1.8,1.3,1.8c0.4,0.4,0.8,0.8,1.2,1.2c-0.3,1.7,0.3,2.2,2.2,2
			c0.8,0.6,1.7,1.2,2.5,1.7c-0.3,1.3,0.8,1.8,1.6,2c0.8,0.3,1.8-0.2,2.7-0.3c0.2,0,0.5,0,0.7,0.1c-0.1,1.1,0.4,1.8,1.6,1.7
			c2-0.2,3.9,0.8,6-0.1c1-0.4,2.4,0.1,3.5-0.2c2.2-0.5,4.6-0.2,6.4-2c0.2-0.2,0.6-0.1,0.8-0.2c1.1-0.4,2.1-0.7,2.9-1.8
			c0.9-1.3,1.7-2.8,3.3-3.5c1.2-0.6,1.5-1.5,1-2.8c1.9-0.5,2.9-2.3,2.2-3.7c0.6-0.7,1.1-1.3,1.7-1.8c-0.4-0.2-0.8-0.5-1.2-0.7
			c0-0.1,0-0.2,0.1-0.2c0.5-0.2,1.2-0.2,1.4-0.5c0.7-0.9,0.5-2.2,1.5-3c0.1,0,0-0.3,0-0.5c0-1.5,0-3.1-0.1-4.6
			c0-0.5-0.4-1.3-0.1-1.6c0.9-1.3,0.3-2.1-0.5-3c-0.1-2.6-0.1-5.2-0.3-7.8c-0.2-1.7-0.7-3.4-1-5.2c-0.1-0.5-0.2-1-0.2-1.5
			c0-0.2,0-0.3,0-0.5c-0.1-0.1-0.1-0.2-0.2-0.3c0-0.1,0-0.2-0.1-0.2c0-0.1,0-0.2,0-0.2c-0.1-0.1-0.1-0.2-0.2-0.3
			c-1.2-2.4-2.3-4.8-3.5-7.2c-0.3-0.4-0.7-0.8-1-1.3C56.9,42.1,56.9,42,56.9,42z"/>
		<path class="st32" d="M6.8,85.7C6.9,85.8,7,85.9,7,86c-0.1,0.3-0.2,0.7-0.3,1c0,0,0,0,0,0c-0.1,0-0.2,0-0.3,0
			C6.6,86.6,6.7,86.1,6.8,85.7z"/>
		<path class="st33" d="M6.5,87c0.1,0,0.2,0,0.3,0c0,0.1,0,0.2-0.1,0.2C6.7,87.2,6.6,87.1,6.5,87z"/>
		<path class="st0" d="M7.8,42.2c-0.7,1.1-1.3,2.1-2,3.2c-0.4-0.1-0.9-0.2-1.3-0.3c-0.8-2.6-1.6-5.1-2.4-7.7
			c0.4,0.2,0.8,0.4,1.4,0.7C3.7,36.9,3.8,35.5,4,34c-0.8,1-1.4,1.7-1.9,2.5c-0.1-2.3-0.4-4.7-0.3-7c0.1-2.1,0.7-4.1,1.1-6.2
			C3,23,3.1,22.6,3.3,22.3c0.4-1,0.8-1.9,1.3-2.9c0.2-0.6,0.5-1.2,0.7-1.7c0.8-1.1,1.5-2.1,2.3-3.2c1.9-2.6,4.3-4.7,6.7-6.7
			c2.4-2,5.2-3,7.9-4.4c0.2-0.1,0.5-0.1,0.7-0.1c0.1,0.4,0.3,0.8,0.4,1.2c0.1,0.2,0,0.5,0,0.7c-0.3,0-0.6,0-0.8,0
			c-0.3-0.1-0.6-0.2-0.8-0.3C21.5,6.5,21.3,6.6,20,6c-0.2,0.5-0.5,0.9-0.7,1.4C19,7.3,18.6,6.9,18.6,7C18,7.4,17.4,7.8,17,8.3
			c-0.1,0.2,0.4,0.8,0.7,1.3c-0.2,0-0.5-0.1-0.8,0c-0.2,0.1-0.4,0.3-0.4,0.5c0,0.6,0.1,0.5-0.5,0.5c-0.2,0-0.4,0.2-0.7,0.3
			c-0.1-0.3-0.2-0.7-0.4-1.1c0.5,0,0.8-0.1,1.3-0.1c-0.4-1.1-1-0.5-1.4-0.2c-1.4,1.2-3,2.3-4,3.7c-0.7,1.1-2.1,1.7-2.3,3.2
			c-0.1,0.5-0.7,0.9-1.1,1.3c0.1,0.1,0.1,0.3,0.2,0.4c0.5-0.1,1-0.1,1.2-0.1c0.1-0.9,0.2-1.6,0.3-2.2c0.4-0.1,0.8-0.2,1-0.4
			c1-1,2-2,3-3c-0.1-0.1-0.2-0.1-0.2-0.2c0.3,0,0.6,0,1,0c-0.1,0.1-0.1,0.2-0.2,0.3c-0.5,0.5-1.1,0.9-1.4,1.4
			c-0.7,1.3-1.5,2.6-2.6,3.6c-0.3,0.3,0,1.1,0,1.8c-0.3,0-0.6,0.1-0.7,0.1c-0.3,0.6-0.5,1.2-0.9,1.5c-1.6,1.1-1.6,2.7-1.2,4.4
			c-0.4,0-0.8,0-1.2,0.1c0.1,0.9,0.2,1.7,0.1,2.6c0,0.3-0.5,0.5-0.8,0.8c0-0.5,0-0.9,0-1.5c-0.6,0.4-0.9,0.7-1.2,0.9
			c0-0.4,0-0.9-0.1-1.3c-0.1-0.5-0.2-1-0.3-1.5c-0.1,0-0.3,0.1-0.4,0.1c0.1,1.2,0.2,2.4,0.3,3.6c0.4-0.1,0.7-0.2,0.9-0.2
			c0,0.1,0,0.3,0.1,0.4c0,0.1,0,0.3,0,0.4c0.1,0.7,0.2,1.5,0.4,2.2c0,0,0.1-0.1,0.3-0.2c0,0.6,0,1.1,0,1.5c0.2,0.3,0.5,0.7,0.8,1
			C5.7,34.7,5.9,34.9,6,35c0,0.4,0,0.7,0.1,1.1c1.7,0.1,1.7,0.1,1.8-0.9c0.3,0,0.6,0,0.8,0c0.3,0,0.5,0,1,0.1
			c-0.4-0.4-0.7-0.7-0.9-1c1.1-0.2,2.4,0.3,2.9-1.2c0.5-0.1,0.9-0.8,1-1.7c0.7,0.3,1.3,0.6,2,0.8c-0.1-0.1-0.1-0.4-0.2-0.6
			c0.1-0.1,0.2-0.2,0.2-0.3c0.3,0.3,0.8,0.5,1,0.8c0.3,0.4,0.5,1,0.8,1.4c-2.3,2.2-4.7,4.5-7,6.7c-0.5,0.1-0.9,0.3-1.4,0.4
			C6.8,40.9,7.2,41.6,7.8,42.2z"/>
		<path class="st1" d="M59.7,30.5c0.1-0.6,0.1-1.2,0.2-1.7c-0.1-0.8-0.1-1.7-0.2-2.5c0.3,0.2,0.6,0.4,1,0.7c0.3-1.1,0.6-2.3,0.9-3.5
			c0,0,0.1,0,0.1,0c0,2.5,0,5.1,0,7.6C60.9,30.9,60.3,30.7,59.7,30.5z"/>
		<path class="st34" d="M59.7,32c0-0.1-0.1-0.1-0.1-0.2c0-0.2,0-0.4,0-0.5c0,0,0,0,0,0C59.7,31.5,59.7,31.8,59.7,32z"/>
		<path class="st35" d="M70.2,40.7c0,0.1,0,0.2,0,0.2c0,0-0.1,0-0.1,0c-0.1,0-0.1,0-0.2,0c0,0,0,0,0,0C70,40.9,70.1,40.8,70.2,40.7z
			"/>
		<path class="st1" d="M4.8,32c-0.1,0.1-0.2,0.2-0.3,0.2c-0.1-0.7-0.2-1.5-0.4-2.2c0-0.1,0-0.3,0-0.4c0-0.1,0-0.3-0.1-0.4
			c-0.2,0.1-0.4,0.1-0.9,0.2C3.1,28.2,3.1,27,3,25.8c0.1,0,0.3-0.1,0.4-0.1c0.1,0.5,0.3,1,0.3,1.5c0.1,0.4,0.1,0.9,0.1,1.3
			C4.1,28.2,4.5,28,5,27.6c0,0.6,0,1,0,1.5C4.9,30,4.9,31,4.8,32z"/>
		<path class="st36" d="M4.8,47.2c-0.1,0-0.2,0-0.3,0c0-0.1,0-0.2,0-0.2c0,0,0,0,0,0C4.6,47,4.7,47.1,4.8,47.2L4.8,47.2z"/>
		<path class="st1" d="M2.1,36.5C2.7,35.7,3.3,35,4,34c-0.2,1.5-0.4,2.9-0.5,4.2c-0.6-0.3-1-0.5-1.4-0.7C2.1,37.2,2.1,36.8,2.1,36.5
			z"/>
		<path class="st37" d="M4.5,45.2c0.4,0.1,0.9,0.2,1.3,0.3c0,0.1,0,0.2-0.1,0.2c-0.1,0.1-0.1,0.2-0.2,0.3c0,0,0,0,0,0
			c-0.2,0-0.3,0-0.5,0c-0.1-0.1-0.2-0.2-0.3-0.2l0,0c-0.1-0.1-0.1-0.2-0.2-0.2C4.5,45.4,4.5,45.3,4.5,45.2z"/>
		<path class="st38" d="M4.6,45.5c0.1,0.1,0.1,0.2,0.2,0.2c-0.1,0-0.1,0-0.2,0c0,0-0.1,0-0.1,0C4.5,45.6,4.5,45.5,4.6,45.5z"/>
		<path class="st39" d="M83.6,61.9c0.1,0.6,0.2,1.1,0.2,1.7c0,2,0,3.9,0,5.9c0,0.4-0.1,0.8-0.2,1.2C83.6,67.7,83.6,64.8,83.6,61.9z"
			/>
		<path class="st40" d="M57.9,98.7c-0.1,0-0.2,0-0.3,0c0.1-0.1,0.2-0.2,0.3-0.3c0,0,0,0.1,0,0.1l0,0.1
			C57.9,98.6,57.9,98.6,57.9,98.7z"/>
		<path class="st41" d="M58.2,98.2c0,0.1,0,0.1,0,0.2c-0.1,0-0.2,0.1-0.2,0.1l0-0.1c0,0,0-0.1,0-0.1C58,98.3,58.1,98.3,58.2,98.2z"
			/>
		<path d="M74.9,78.6c-1-1.6-0.7-2.6,0.9-2.8C75.5,76.7,75.2,77.6,74.9,78.6z"/>
		<path class="st42" d="M70.2,41.5c0-0.1-0.1-0.1,0-0.2c0.1,0,0.1,0,0.2,0C70.3,41.3,70.2,41.4,70.2,41.5z"/>
		<path class="st43" d="M70.3,41.2c-0.1,0-0.2,0-0.2,0c0,0-0.1,0-0.1,0c0-0.1,0-0.2,0-0.3c0,0,0.1,0,0.1,0
			C70.2,41.1,70.3,41.1,70.3,41.2z"/>
		<path d="M73.4,82c-0.9-1.4-0.6-2.2,1-2.2C74.1,80.5,73.7,81.3,73.4,82z"/>
		<path d="M272.6,53.6c-0.9-0.1-1.3,0.3-1.3,1.3c0.1,3.4,0,6.9,0,10.3c0,1.4,0.3,1.6,1.6,1.7c1.5,0,2.9,0,4.4,0
			c-0.3,0.3-0.6,0.9-0.9,0.9c-1.6,0.1-3.3,0.1-4.9,0c-1.2-0.1-1.4-1.3-1.4-2.2c-0.1-3.2,0-6.4,0-9.7c0-0.2,0.2-0.5,0.1-0.6
			c-0.8-1.1-0.2-1.8,0.6-2.4c0.3-0.3,0.8-0.5,1.1-0.7C272.2,52.7,272.4,53.2,272.6,53.6z"/>
		<path d="M271.7,70.1c-0.1,0.4-0.3,0.8-0.3,1.3c0,1.9,0.2,3.7,0.2,5.6c0,2-0.2,4-0.2,6c0,0.4,0.1,0.9,0.2,1.3
			c-0.2,0.2-0.4,0.5-0.8,0.9c-0.2-0.9-0.6-1.6-0.6-2.3c-0.1-3-0.1-6,0-9.1c0.1-1.6,0.4-3.2,0.7-4.8
			C271.1,69.4,271.4,69.8,271.7,70.1z"/>
		<path d="M265.1,60.4c0-1.8,0.1-3.7,0.1-5.5c0.6,0,0.9,0.1,0.9,0.9c-0.1,1.1,0,2.3,0.1,3.4c0,5.9,0,11.8,0,17.7
			c0,0.7-0.1,1.3-1,1.4c0-0.1,0-0.2,0-0.2c0.1-0.3,0.2-0.6,0.2-0.9c0-4.8,0-9.6,0-14.4c0-0.3-0.1-0.6-0.2-0.9
			C265.2,61.4,265.1,60.9,265.1,60.4z"/>
		<path d="M283.6,63.1c0.8-1.9,0.9-3.8,0.5-5.7c1.7,0,1.7,0.1,1.7,1.7c0,0.8-0.2,1.6-0.2,2.5C285.7,62.9,284.9,63.3,283.6,63.1z"/>
		<path d="M278.1,66.6c0.6-0.1,1.2-0.2,1.7-0.3c-0.3,0.4-0.6,0.8-0.9,1.3C278.7,67.3,278.4,67,278.1,66.6z"/>
		<path d="M247.5,56.4c0-0.4,0-0.8,0-1.2c0-1-0.4-1.6-1.5-1.5c0.4-0.4,0.7-1,1.2-1.2c0.8-0.3,0.8,0.5,1.2,1c0.8,1,0.6,1.8-0.4,2.5
			c0.1,0,0.3,0.1,0.4,0.1c-0.1,0.6-0.2,1.3-0.3,1.9c0,0.3-0.1,0.6-0.1,0.9c0,3.3,0,6.5,0,9.8c0,0.3,0.1,0.7,0.3,1
			c0.1,0.4,0.4,0.8,0.5,1.2c0.1,1.1,0.3,2.2,0.2,3.3c-0.1,0.8-0.7,1.5-1.1,2.2c-0.1-0.4-0.2-0.8-0.3-1.2c0.1-0.3,0.2-0.6,0.2-0.9
			c0-5.6,0-11.2,0-16.9C247.7,57,247.5,56.7,247.5,56.4z"/>
		<path d="M231,82c0.1,0,0.1,0,0.2,0.1c0.1,0.1,0.2,0.2,0.3,0.2c0.8,0.6,1.7,1.2,2.5,1.7c3.6,1.7,6.9,1.1,10.2-0.8
			c0,1.3-1.3,2.5-2.8,2.5c-1.8,0-3.6,0.1-5.4,0c-1.3-0.1-2.5-0.6-3.7-1.1C231.2,84.2,230.7,82.9,231,82z"/>
		<path class="st44" d="M251.2,57.1c0,5.8,0,11.6,0,17.4c0,0.3-0.1,0.5-0.2,0.8c0-5.8,0-11.7,0-17.5
			C250.9,57.6,251.1,57.3,251.2,57.1z"/>
		<path d="M231,81.8c0,0.1,0,0.1,0,0.2c-1.5-0.1-2.9-1.9-2.6-3.2c0.1-0.2,0.4-0.3,0.6-0.5C229.7,79.5,230.3,80.6,231,81.8z"/>
		<path d="M252.2,53.7c-0.3,0.5-0.7,1-1,1.5c-0.3-0.3-0.9-0.7-0.9-0.9c0.1-0.6,0.4-1.3,0.9-1.5C251.8,52.4,252.1,53.1,252.2,53.7z"
			/>
		<path d="M245.2,82.3c0.6-0.9,1.1-1.8,1.7-2.8c0.1,0.3,0.1,0.6,0.2,0.9c0.1,0.5,0.3,1.1,0.1,1.4c-0.3,0.3-0.9,0.4-1.4,0.5
			C245.6,82.3,245.4,82.3,245.2,82.3z"/>
		<path d="M247,79.3c0.2-0.9,0.5-1.8,0.7-2.7c0.3,0.5,0,1.3,0.8,1.6c-0.2,0.4-0.2,0.9-0.5,1.1C247.8,79.4,247.3,79.3,247,79.3z"/>
		<path class="st45" d="M250.7,79.3c0,0.1,0.1,0.1,0.1,0.2c-0.1,0-0.1,0-0.2,0C250.7,79.4,250.7,79.3,250.7,79.3z"/>
		<path d="M200.3,59.6c0,5.5,0,11,0,16.5c0,0.6,0,1.2,0,1.9c-0.3-0.3-0.7-0.5-0.7-0.8c0-5.5,0-11.1,0-16.6
			C199.6,60.3,200,60,200.3,59.6z"/>
		<path class="st46" d="M247.5,56.4c0.1,0.3,0.2,0.6,0.2,0.9c0,5.6,0,11.2,0,16.9c0,0.3-0.1,0.6-0.2,0.9
			C247.5,68.8,247.5,62.6,247.5,56.4z"/>
		<path class="st47" d="M194.4,77.6c0-4.9,0-9.7,0-14.6c0-0.5,0-1.1,0-1.6c0-0.7,0-1.3,0-2c0.1,0.3,0.2,0.6,0.3,0.9
			c0,5.5,0,11,0,16.5C194.6,77,194.4,77.3,194.4,77.6z"/>
		<path d="M126,84c0-1.5,0-3.1,0-4.6c0-0.4,0.1-0.9,0.2-1.3c0-5.5,0-11,0-16.4c0-0.3-0.1-0.5-0.2-0.8c0-1.8,0-3.6-0.1-5.4
			c0.1-0.7,0.1-1.4-0.7-1.8c0-0.3,0.1-0.6,0.1-1c1.1,0.7,1.6,1.9,1.3,2.9c0,0.1-0.1,0.1-0.1,0.2c0.1,1.6,0.2,3.3,0.3,4.9
			c0,1.1-0.1,2.1-0.1,3.2c0,3.9,0,7.8,0,11.7c0,1.6,0.2,3.1,0.2,4.7c0,0.6-0.3,1.3-0.3,1.9c0,0.4,0.2,0.8,0.2,1.1
			c0,0.4-0.2,0.7-0.4,1.1C126.3,84.2,126.1,84.1,126,84z"/>
		<path d="M120.3,86.7c0-0.6,0-1.2,0-1.7c1.8-0.3,3.6-0.5,5.4-0.8c0.8,1.5,0.8,1.5-0.9,1.5c-0.7,0-1.4,0.1-2.1,0
			C121.7,85.6,120.9,85.9,120.3,86.7z"/>
		<path d="M132.2,83.5c0.6,1,1.3,1.5,2.5,1.3c0.7-0.1,1.5,0,2.2,0c-1.2,1.2-2.8,1-4.2,0.8C131.5,85.5,132,84.3,132.2,83.5z"/>
		<path d="M138.2,88c-0.3,0-0.7,0-1,0c0-1,0-2.1,0-3.1c0.4,0,0.8,0,1,0C138.2,85.9,138.2,86.9,138.2,88z"/>
		<path d="M153.4,84.5c1.1,0.1,2.2,0.2,3.2,0.3C155.6,85.9,153.8,85.7,153.4,84.5z"/>
		<path class="st48" d="M132.3,55.4c0.1,1.4,0.2,2.8,0.2,4.2c0,1.2-0.1,2.5-0.2,3.7C132.3,60.7,132.3,58.1,132.3,55.4z"/>
		<path class="st3" d="M126,60.9c0.1,0.3,0.2,0.5,0.2,0.8c0,5.5,0,11,0,16.4c-0.1-0.3-0.2-0.5-0.2-0.8C126,71.8,126,66.3,126,60.9z"
			/>
		<path d="M23,99.5c0.3-0.3,0.7-0.8,0.9-0.7c1,0.4,2,0.9,3.3,1.6c1.3-0.4,1.7-0.2,2.5,1.6C27.5,101.1,25.2,100.3,23,99.5z"/>
		<path d="M34.7,102.6c-0.1-1.1,0.5-1.4,1.4-1.1c0.2,0,0.4,0.2,0.5,0.1c1.5-0.8,1.7,0.3,2.1,1.2C37.4,102.8,36,102.7,34.7,102.6z"/>
		<path d="M40.9,102.9c0-0.9,0.1-1.6,1.3-0.9c0.1,0.1,0.4,0.1,0.6,0.1c0.9-0.2,1.8-0.4,2.7-0.5c0.2,0,0.5,0.5,0.7,0.8
			C44.4,102.5,42.7,102.7,40.9,102.9z"/>
		<path d="M19.5,97.7c0.3-0.1,0.6-0.3,1-0.4c0.2,0,0.4,0.2,0.6,0.2c1.5,0,1.7,0.2,1.4,1.6C21.5,98.7,20.5,98.2,19.5,97.7z"/>
		<path d="M53.7,100.1c-0.2-0.6-0.4-1.2,0.3-1.6c0.9-0.4,1.2,0.3,1.7,0.8C55,99.6,54.3,99.9,53.7,100.1z"/>
		<path class="st49" d="M16,96c0-0.1,0-0.2,0-0.3c0.1,0.1,0.2,0.2,0.2,0.2C16.2,95.9,16.1,96,16,96z"/>
		<path class="st50" d="M6.8,87C6.9,86.7,7,86.3,7,86c0.1,0.1,0.2,0.2,0.3,0.3c0,0.1,0,0.1,0,0.2c0,0.1,0,0.2,0,0.3l0,0
			C7.2,86.8,7.1,86.9,7,87C6.9,87,6.9,87,6.8,87z"/>
		<path class="st51" d="M7.5,87c-0.1,0-0.2,0-0.3,0c0-0.1,0-0.1,0-0.2c0,0,0,0,0,0c0,0,0.1,0,0.1,0l0.1,0C7.5,86.8,7.5,86.9,7.5,87z
			"/>
		<path class="st52" d="M7.5,86.7l-0.1,0c0,0-0.1,0-0.1,0c0-0.1,0-0.2,0-0.3C7.4,86.6,7.4,86.7,7.5,86.7z"/>
		<path class="st53" d="M7.3,86.7c0,0.1,0,0.1,0,0.2c0,0-0.1,0-0.1,0S7,87,7,87C7.1,86.9,7.2,86.8,7.3,86.7z"/>
		<path class="st54" d="M57.9,98.5c0.1,0,0.2-0.1,0.2-0.1c0,0,0,0.1,0,0.1c0.1,0.1,0.1,0.2,0.2,0.2c0,0.1,0,0.1,0.1,0.2
			c-0.2-0.1-0.4-0.2-0.5-0.2C57.9,98.6,57.9,98.6,57.9,98.5z"/>
		<path class="st55" d="M58.4,98.7c-0.1-0.1-0.1-0.2-0.2-0.2c0.1,0,0.1,0,0.2,0C58.4,98.5,58.4,98.6,58.4,98.7z"/>
		<path class="st0" d="M69.8,29.3c0.2-0.1,0.5-0.1,1.1-0.3c-0.5-0.3-0.8-0.5-1.2-0.7c0.3-0.1,0.6-0.1,1.2-0.3
			c-0.6-0.3-0.9-0.5-1.2-0.7c0.3-0.1,0.6-0.2,1.1-0.3c-0.5-0.3-0.8-0.5-1.1-0.7c0.4-0.1,0.8-0.3,1.2-0.4c0,1.6,0,3.3,0,4.9
			c-0.5-0.2-0.8-0.4-1.2-0.5c0.3-0.1,0.6-0.3,0.8-0.4C70.3,29.8,70.1,29.5,69.8,29.3z"/>
		<path class="st0" d="M65.2,13.9c-0.4,0.5-0.5,0.8-0.8,1.1c0.5,0.1,1,0.1,1.5,0.2c-0.1,0.2-0.2,0.4-0.4,0.7
			c0.2,0.1,0.4,0.2,0.6,0.3c0,0.1,0,0.2,0,0.3c-0.4,0-0.9,0-1.4,0.1c0.1-0.3,0.2-0.5,0.2-0.5c-0.5-0.5-0.8-1-1.3-1.5
			C64.1,14.2,64.5,14.1,65.2,13.9z"/>
		<path class="st0" d="M60.8,11.5c0.8-0.4,1.5-0.8,2.4-1.2c-0.1,0.5-0.1,0.8-0.2,1c-0.8,0.1-1.5,0.3-2.2,0.4
			C60.8,11.6,60.8,11.5,60.8,11.5z"/>
		<path class="st56" d="M59.4,31.7c-0.1,0-0.2,0-0.2,0c0.1-0.1,0.2-0.3,0.3-0.4C59.4,31.4,59.4,31.6,59.4,31.7z"/>
		<path class="st57" d="M59.4,31.7c0-0.1,0-0.3,0-0.4c0.1,0,0.1,0,0.2,0c0,0.2,0,0.4,0,0.5C59.6,31.8,59.5,31.8,59.4,31.7z"/>
		<path class="st1" d="M12.8,31.3c-0.1,0.9-0.5,1.6-1,1.7c-0.7-0.4-1.3-0.9-0.7-2.2c0.1,0.7,0.2,1,0.2,1.4c0.8-0.8,0.7-1.3-0.5-2
			c0.6,0,1,0,1.4,0C12.7,30.4,11.6,31.5,12.8,31.3z"/>
		<path class="st1" d="M12.8,27.8c-0.3-0.2-0.7-0.4-1.3-0.7c0.6,0,0.9,0,1.2,0c0-0.1,0.1-0.2,0.1-0.2c-0.3-0.2-0.6-0.4-0.9-0.6
			c0.3-0.1,0.6-0.1,1.1-0.3c-0.5-0.3-0.8-0.5-1.2-0.8c0.5,0,0.8,0,1.2,0c0,1.3,0,2.6,0,4c-0.4-0.3-0.7-0.6-1.1-1
			c0.2-0.1,0.5-0.1,0.8-0.2C12.7,28,12.7,27.9,12.8,27.8z"/>
		<path class="st58" d="M17.3,33C17.2,33,17.1,33,17,33c0-0.1,0-0.2,0-0.3c0.1,0,0.1,0,0.2,0C17.2,32.8,17.3,32.9,17.3,33z"/>
		<path class="st59" d="M17.2,32.8c-0.1,0-0.1,0-0.2,0c0-0.1,0-0.2-0.1-0.3c0,0,0.1,0,0.1,0c0.1,0,0.1,0,0.2,0
			C17.2,32.6,17.3,32.7,17.2,32.8L17.2,32.8z"/>
		<path class="st60" d="M16.9,32.5c0-0.1,0-0.1-0.1-0.2c0,0,0.1,0,0.1-0.1c0,0,0.1,0,0.1,0c0,0.1,0,0.2,0,0.3L16.9,32.5z"/>
		<path class="st1" d="M57.9,43.5c1.2,2.4,2.3,4.8,3.5,7.2c0,0.1,0,0.2,0,0.3c0,0.1,0,0.2,0,0.3c0,0.1,0,0.2,0,0.2
			c-0.1,0.1-0.2,0.2-0.3,0.2C61,51.8,61,51.9,60.9,52c-0.6,0.5-1.1,1-1.7,1.5c-3,2.2-6.1,4.4-9.1,6.6c-0.9,0.7-1.8,1.4-2.7,2
			c0,0.3,0,0.5,0,0.8c1.1,0.9,2.2,1.8,3.3,2.7c2.3,1.9,4.7,3.9,6.9,5.8c1.1,1,2.2,2.1,3.3,3.1c-0.3,0.4-0.7,0.7-1,1.1
			c-0.3,0.4-0.1,1.3-1.1,0.9c-0.2-0.1-0.7,0.4-1,0.7c-0.3,0.3-0.5,0.6-0.8,1c0.1,0,0.4,0.2,0.9,0.5C57.4,78.9,57.1,79,57,79
			c0.3,0.4,0.7,0.9,0.9,1.2c-0.6,0.6-1,1.1-1.4,1.6c-0.5,0.1-1.1,0.2-1.6,0.2c0,0.1,0,0.1,0,0.2c0.6,0.1,1.2,0.2,1.8,0.2
			c0,0.1,0,0.1,0,0.2c-0.6,0.2-1.2,0.3-1.9,0.6c0.5,0.1,0.8,0.2,1.2,0.3c-0.1,0.4-0.2,0.8-0.3,1.3c-1.7,0-3.3,0-5,0
			c0-0.1,0-0.2,0-0.4c0.5-0.1,1-0.1,1.5-0.2c0-0.1,0-0.1,0-0.2c-1.1-0.2-2.2-0.4-3.3-0.5c0-0.1,0-0.2,0-0.3c0.7,0,1.5,0,2.2,0
			c0-0.1,0-0.1,0-0.2c-0.8-0.1-1.6-0.3-2.5-0.4c0-0.1,0-0.2,0-0.2c0.8,0,1.5-0.1,2.3-0.1c0,0,0-0.1,0-0.1c-1.1-0.2-2.2-0.3-3.3-0.5
			c0-0.1,0-0.2,0-0.3c0.7,0,1.5-0.1,2.2-0.1c0,0,0-0.1,0-0.1c-1.3-0.2-2.6-0.4-3.9-0.5c0-0.1,0-0.2,0-0.4c0.9,0,1.9,0,2.8,0
			c0,0,0-0.1,0-0.1c-1.1-0.2-2.3-0.3-3.4-0.5c0-0.1,0-0.2,0-0.3c0.5,0,1.1,0,1.6,0c0-0.1,0-0.2,0-0.3c-1.1-0.2-2.3-0.3-3.4-0.5
			c0-0.1,0-0.2,0-0.2c0.8,0,1.6,0,2.4,0c0-0.1,0-0.2,0-0.3c-1.1-0.2-2.3-0.3-3.4-0.5c0-0.1,0-0.2,0-0.3c0.8,0,1.6,0,2.4,0
			c0-0.1,0-0.1,0-0.2c-1.1-0.1-2.3-0.2-3.4-0.3c0-0.1,0-0.3,0.1-0.4c0.8,0,1.6,0,2.4,0c0-0.1,0-0.1,0-0.2c-1.1-0.1-2.3-0.3-3.4-0.4
			c0-0.1,0-0.3,0-0.4c0.8,0,1.6,0,2.4,0c0-0.1,0-0.1,0-0.2c-1.5-0.2-2.9-0.4-4.4-0.5c0-0.1,0-0.2,0-0.3c1.1,0,2.3,0,3.4,0
			c0-0.1,0-0.1,0-0.2c-1.5-0.2-2.9-0.3-4.4-0.5c0-0.1,0-0.2,0-0.3c0.8,0,1.6,0,2.4,0c0-0.1,0-0.2,0-0.3c-1.1-0.1-2.3-0.3-3.4-0.4
			c0-0.1,0-0.2,0-0.3c0.8,0,1.6-0.1,2.4-0.1c0-0.1,0-0.1,0-0.2c-1.1-0.2-2.3-0.3-3.4-0.5c0-0.1,0-0.2,0-0.2c0.8,0,1.6-0.1,2.4-0.1
			c0-0.1,0-0.1,0-0.2c-1.5-0.2-2.9-0.3-4.4-0.5c0-0.1,0-0.2,0-0.3c0.8,0,1.6,0,2.4,0c0-0.1,0-0.2,0-0.2c-1.1,0-2.1,0-3.2,0
			c-0.1,0.3-0.2,0.6-0.3,0.9c0.1-1.1-0.7-1-1.3-1.1c-0.6-0.1-1.1-0.1-1.7-0.1c0-0.2,0-0.3,0-0.5c1.8,0,3.6,0,5.4,0
			c-2.1-0.5-4.3,0-6.4-0.5c0-0.1,0-0.3,0-0.4c0.7-0.1,1.5-0.1,2.2-0.2c-1.2-0.1-2.2-0.3-2.2-1.8c0.4-0.1,0.8-0.2,1.2-0.2
			c-0.5-0.2-0.9-0.3-1.3-0.4c0.2-0.4,0.4-0.7,0.5-0.9c-0.9-0.1-1.7-0.2-2.5-0.2c0-0.1,0-0.2,0-0.2c0.8,0,1.6-0.1,2.4-0.1
			c0-0.1,0-0.2,0-0.3c-1.1-0.1-2.3-0.3-3.4-0.4c0-0.1,0-0.1,0-0.2c0.8,0,1.6-0.1,2.5-0.1c0-0.1,0-0.1,0-0.2
			c-1.1-0.1-2.3-0.2-3.4-0.3c0-0.1,0-0.3,0-0.4c0.8,0,1.6,0,2.4,0c0-0.1,0-0.1,0-0.2c-1.1-0.1-2.3-0.3-3.4-0.4c0-0.1,0-0.2,0-0.4
			c0.8,0,1.6,0,2.4,0c0-0.1,0-0.1,0-0.2c-1.3-0.2-2.7-0.3-4-0.5c0-0.1,0-0.2,0-0.3c1,0,2,0,3,0c0-0.1,0-0.1,0-0.2
			c-1.2-0.1-2.4-0.3-3.6-0.4c0-0.1,0-0.2,0-0.4c0.8,0,1.6,0,2.4,0c0-0.1,0-0.1,0-0.2c-1.1-0.2-2.2-0.3-3.3-0.5c0-0.1,0-0.2,0-0.3
			c0.8,0,1.5-0.1,2.3-0.1c0,0,0-0.1,0-0.1c-1.1-0.2-2.2-0.3-3.3-0.5c0-0.1,0-0.2,0-0.3c0.7,0,1.5-0.1,2.2-0.1
			c-0.5-0.2-1.1-0.2-1.6-0.3c-0.6,0-1.1-0.1-1.7-0.2c0-0.2,0-0.3,0-0.5c1.1,0,2.1,0,3.2,0c0-0.1,0-0.1,0-0.2
			c-0.8-0.1-1.5-0.2-2.5-0.3c0.4-0.4,0.6-0.5,0.8-0.8c-0.5,0-0.7,0-1,0c0-0.1,0-0.2,0-0.4c0.9-0.1,1.8-0.3,2.9-0.5
			c-1-0.1-1.7-0.3-2.5-0.4c0-0.1,0-0.2,0-0.4c0.7-0.1,1.5-0.1,2.5-0.2c-0.7-0.2-1.2-0.4-1.6-0.5c0.1-0.1,0.2-0.2,0.3-0.3
			c0-0.4-0.1-0.7-0.2-1.2c0.7,0,1.4,0,2.2,0c0,0,0-0.1,0-0.1c-0.7-0.1-1.5-0.2-2.2-0.3c0-0.1,0-0.2,0-0.4c0.7-0.1,1.5-0.1,2.2-0.2
			c-0.6-0.2-1.6,0-1-1.2c-0.2,0-0.5,0-0.7,0c0-0.1,0-0.2-0.1-0.3c0.6-0.2,1.2-0.3,1.5-0.4c0.1-0.5,0.1-0.8,0.1-0.9
			c-0.4-0.6-0.8-1.2-1.1-1.7c1.2-1.2,2,0.5,2.9,0.4c0.1,0.3,0.1,0.7,0.2,1.1c0.5-0.3,0.9-0.4,0.9-0.5c0.1-0.7,0.1-1.2,0.2-1.6
			c5.4,4.4,10.8,8.8,16.2,13.2c2.4-2.3,4.8-4.5,7-6.7c1.3-1.3,2.4-2.7,3.6-4.1c1.2-1.5,2.4-3,3.6-4.5c0.2,0,0.4,0,0.5,0
			C57.1,43.3,57.5,43.4,57.9,43.5z"/>
		<path class="st0" d="M22.7,42c1,1.1,2,2.2,3,3.3c0,0.4-0.1,0.9-0.2,1.6c0,0-0.4,0.2-0.9,0.5c-0.1-0.5-0.1-0.8-0.2-1.1
			c-1,0.1-1.7-1.6-2.9-0.4c0.3,0.5,0.7,1,1.1,1.7c0,0.1-0.1,0.5-0.1,0.9c-0.3,0.1-0.9,0.3-1.5,0.4c0,0.1,0,0.2,0.1,0.3
			c0.2,0,0.4,0,0.7,0c-0.6,1.2,0.4,1,1,1.2c-0.7,0.1-1.5,0.1-2.2,0.2c0,0.1,0,0.2,0,0.4c0.7,0.1,1.5,0.2,2.2,0.3c0,0,0,0.1,0,0.1
			c-0.7,0-1.4,0-2.2,0c0.1,0.5,0.1,0.8,0.2,1.2c-0.1,0.1-0.2,0.2-0.3,0.3c0.4,0.1,0.9,0.3,1.6,0.5c-1,0.1-1.8,0.1-2.5,0.2
			c0,0.1,0,0.2,0,0.4c0.7,0.1,1.5,0.2,2.5,0.4c-1.1,0.2-2,0.3-2.9,0.5c0,0.1,0,0.2,0,0.4c0.3,0,0.5,0,1,0c-0.3,0.3-0.5,0.4-0.8,0.8
			c1,0.1,1.7,0.2,2.5,0.3c0,0.1,0,0.1,0,0.2c-1.1,0-2.1,0-3.2,0c0,0.2,0,0.3,0,0.5c0.6,0.1,1.1,0.2,1.7,0.2c0.5,0,1,0,1.6,0.3
			c-0.7,0-1.5,0.1-2.2,0.1c0,0.1,0,0.2,0,0.3c1.1,0.2,2.2,0.3,3.3,0.5c0,0,0,0.1,0,0.1c-0.8,0-1.5,0.1-2.3,0.1c0,0.1,0,0.2,0,0.3
			c1.1,0.2,2.2,0.3,3.3,0.5c0,0.1,0,0.1,0,0.2c-0.8,0-1.6,0-2.4,0c0,0.1,0,0.2,0,0.4c1.2,0.1,2.4,0.3,3.6,0.4c0,0.1,0,0.1,0,0.2
			c-1,0-2,0-3,0c0,0.1,0,0.2,0,0.3c1.3,0.2,2.7,0.3,4,0.5c0,0.1,0,0.1,0,0.2c-0.8,0-1.6,0-2.4,0c0,0.1,0,0.2,0,0.4
			c1.1,0.1,2.3,0.3,3.4,0.4c0,0.1,0,0.1,0,0.2c-0.8,0-1.6,0-2.4,0c0,0.1,0,0.3,0,0.4c1.1,0.1,2.3,0.2,3.4,0.3c0,0.1,0,0.1,0,0.2
			c-0.8,0-1.6,0.1-2.5,0.1c0,0.1,0,0.1,0,0.2c1.1,0.1,2.3,0.3,3.4,0.4c0,0.1,0,0.2,0,0.3c-0.8,0-1.6,0.1-2.4,0.1c0,0.1,0,0.2,0,0.2
			c0.8,0.1,1.6,0.1,2.5,0.2c-0.1,0.2-0.2,0.4-0.5,0.9c0.4,0.1,0.8,0.3,1.3,0.4c-0.4,0.1-0.8,0.2-1.2,0.2c0,1.5,1,1.8,2.2,1.8
			c-0.7,0.1-1.5,0.1-2.2,0.2c0,0.1,0,0.3,0,0.4c2.1,0.5,4.3,0,6.4,0.5c-1.8,0-3.6,0-5.4,0c0,0.2,0,0.3,0,0.5c0.6,0,1.1,0.1,1.7,0.1
			c0.6,0.1,1.4,0,1.3,1.1c0.1-0.3,0.2-0.6,0.3-0.9c1,0,2.1,0,3.2,0c0,0.1,0,0.2,0,0.2c-0.8,0-1.6,0-2.4,0c0,0.1,0,0.2,0,0.3
			c1.5,0.2,2.9,0.3,4.4,0.5c0,0.1,0,0.1,0,0.2c-0.8,0-1.6,0.1-2.4,0.1c0,0.1,0,0.2,0,0.2c1.1,0.2,2.3,0.3,3.4,0.5c0,0.1,0,0.1,0,0.2
			c-0.8,0-1.6,0.1-2.4,0.1c0,0.1,0,0.2,0,0.3c1.1,0.1,2.3,0.3,3.4,0.4c0,0.1,0,0.2,0,0.3c-0.8,0-1.6,0-2.4,0c0,0.1,0,0.2,0,0.3
			c1.5,0.2,2.9,0.3,4.4,0.5c0,0.1,0,0.1,0,0.2c-1.1,0-2.3,0-3.4,0c0,0.1,0,0.2,0,0.3c1.5,0.2,2.9,0.4,4.4,0.5c0,0.1,0,0.1,0,0.2
			c-0.8,0-1.6,0-2.4,0c0,0.1,0,0.3,0,0.4c1.1,0.1,2.3,0.3,3.4,0.4c0,0.1,0,0.1,0,0.2c-0.8,0-1.6,0-2.4,0c0,0.1,0,0.3-0.1,0.4
			c1.1,0.1,2.3,0.2,3.4,0.3c0,0.1,0,0.1,0,0.2c-0.8,0-1.6,0-2.4,0c0,0.1,0,0.2,0,0.3c1.1,0.2,2.3,0.3,3.4,0.5c0,0.1,0,0.2,0,0.3
			c-0.8,0-1.6,0-2.4,0c0,0.1,0,0.2,0,0.2c1.1,0.2,2.3,0.3,3.4,0.5c0,0.1,0,0.2,0,0.3c-0.5,0-1.1,0-1.6,0c0,0.1,0,0.2,0,0.3
			c1.1,0.2,2.3,0.3,3.4,0.5c0,0,0,0.1,0,0.1c-0.9,0-1.9,0-2.8,0c0,0.1,0,0.2,0,0.4c1.3,0.2,2.6,0.4,3.9,0.5c0,0,0,0.1,0,0.1
			c-0.7,0-1.5,0.1-2.2,0.1c0,0.1,0,0.2,0,0.3c1.1,0.2,2.2,0.3,3.3,0.5c0,0,0,0.1,0,0.1c-0.8,0-1.5,0.1-2.3,0.1c0,0.1,0,0.2,0,0.2
			c0.8,0.1,1.6,0.3,2.5,0.4c0,0.1,0,0.1,0,0.2c-0.7,0-1.5,0-2.2,0c0,0.1,0,0.2,0,0.3c1.1,0.2,2.2,0.4,3.3,0.5c0,0.1,0,0.1,0,0.2
			c-0.5,0.1-1,0.1-1.5,0.2c0,0.1,0,0.2,0,0.4c1.7,0,3.3,0,5,0c0.1-0.5,0.2-0.9,0.3-1.3c-0.4-0.1-0.7-0.2-1.2-0.3
			c0.7-0.2,1.3-0.4,1.9-0.6c0-0.1,0-0.1,0-0.2c-0.6-0.1-1.2-0.2-1.8-0.2c0-0.1,0-0.1,0-0.2c0.6-0.1,1.1-0.2,1.6-0.2
			c0.4-0.5,0.9-1,1.4-1.6c-0.2-0.2-0.6-0.7-0.9-1.2c0.1,0,0.4-0.1,0.9-0.3c-0.5-0.3-0.8-0.4-0.9-0.5c0.2-0.3,0.5-0.7,0.8-1
			c0.3-0.3,0.8-0.8,1-0.7c1.1,0.4,0.9-0.5,1.1-0.9c0.3-0.4,0.7-0.7,1-1.1c0,0,0,0,0,0c0.1,0.5,0.2,1,0.2,1.5c-0.4,0.8-0.1,1.4,0.5,2
			c-0.1,0.6-0.3,1.2-0.4,1.7c0,0.1,0,0.2-0.1,0.2c-0.7,1.4-1.5,2.8-2.2,4.2c-1.4,2.9-3.5,5.2-6,7.2c-0.2-0.2-0.3-0.3-0.5-0.5
			c-0.1,0-0.2,0-0.3,0c-0.1,0-0.2,0-0.2,0c-0.1,0-0.1,0-0.2,0c-4.8-4.4-9.7-8.8-14.5-13.2c-1.8-1.5-3.5-3-5.3-4.4
			c-0.5-0.4-1.2-0.5-1.7,0.2c-0.3,0.4-0.6,0.7-0.9,1c-1,0.9-2,1.8-2.9,2.8c0,0.1,0,0.2-0.1,0.2l0,0c-0.1,0.1-0.2,0.2-0.3,0.2
			c-0.5,0.4-1,0.8-1.4,1.3c-0.2-0.4-0.6-1.1-0.4-1.2c0.8-0.9,1.7-1.7,2.5-2.6c0.4-0.5,0.6-1.1,0.7-1.7c0-0.1-0.7-0.3-1-0.5
			c-0.5-0.2-1.1-0.4-1.6-0.6c-0.9,0.8-1.4,2-2.7,2.2c-0.4-1,0.1-1.2,0.6-1.1c0.9-1,1.7-1.9,2.6-2.9c0.2,0.1,0.6,0.2,1,0.3
			c0.2,0.4,0.4,0.8,0.6,1.2c0.7-0.9,1.7-1.5,0.8-2.9c-0.2-0.4,0.2-1.5,0.1-2.4c0,0,0.3-0.1,0.4-0.1c-0.1-0.1-0.2-0.2-0.3-0.4
			c-0.3,0.3-0.8,0.5-0.9,0.8c-0.1,0.6,0,1.3,0,2c-0.3-0.1-0.6-0.2-1-0.2c-0.3-0.3-0.5-0.6-0.8-0.9c-3-2.7-6.1-5.4-9.2-8.1
			c-0.1-0.1-0.2-0.2-0.3-0.3c-0.1-0.1-0.2-0.1-0.3-0.2l0,0c-0.1-0.1-0.1-0.2-0.2-0.2c0.2-1.3,0.2-2.7,0.5-4
			c0.7-3.7,1.9-7.2,3.8-10.4c0.6-1,1.4-1.9,2.1-2.8c0.3,0,0.5,0,0.8,0C22.6,42,22.6,42,22.7,42z"/>
		<path d="M33,95.2c1.6,0.2,3.2,0.5,4.8,0.7c3.5,0.4,6.9-0.1,10.1-1.5c1.2-0.5,2.2-1.2,3.3-1.9c0.2-0.1,0.5-0.3,0.7-0.4
			c0.2-0.1,0.3-0.3,0.5-0.4c0.1-0.1,0.2-0.2,0.3-0.3c0.1,0,0.2,0,0.2-0.1c2.5-2,4.6-4.3,6-7.2c0.7-1.4,1.5-2.8,2.2-4.2
			c0.4,0.2,0.8,0.5,1.2,0.7c-0.5,0.6-1.1,1.2-1.7,1.8c0.7,1.4-0.3,3.3-2.2,3.7c0.5,1.3,0.2,2.2-1,2.8c-1.5,0.8-2.4,2.2-3.3,3.5
			c-0.7,1.1-1.8,1.5-2.9,1.8c-0.3,0.1-0.7,0-0.8,0.2c-1.8,1.8-4.2,1.5-6.4,2c-1.1,0.2-2.5-0.2-3.5,0.2c-2,0.9-4-0.1-6,0.1
			C33.4,97,32.9,96.4,33,95.2z"/>
		<path d="M62.4,75.3c0.4-2.9,0.7-5.8,1.1-8.7c0.8,0.9,1.4,1.8,0.5,3C63.7,70,64,70.7,64,71.2c0,1.5,0,3.1,0.1,4.6
			c0,0.2,0.1,0.4,0,0.5c-1.1,0.7-0.9,2.1-1.5,3c-0.2,0.3-0.9,0.3-1.4,0.5c0.1-0.6,0.3-1.2,0.4-1.7c0-0.1,0.1-0.1,0.1-0.2
			c0.1-0.1,0.1-0.2,0.2-0.3c0-0.2,0-0.5,0-0.7c0,0,0,0,0,0c0.1-0.1,0.1-0.2,0.2-0.3c0-0.1,0-0.2,0-0.2c0-0.2,0.1-0.3,0.1-0.5
			c0.1-0.1,0.1-0.2,0.2-0.3C62.4,75.5,62.4,75.4,62.4,75.3z"/>
		<path d="M20.3,85.5c0.1,0.3,0.2,0.7,0.2,1c-0.2,0.1-0.4,0.2-0.6,0.2c-0.4,0-1.1,0-1.2-0.2c-0.7-1.4-1.3-2.8-1.9-4.2
			c-0.2-0.4-0.3-0.9-0.6-1.3c-0.7-1-0.7-2.1-0.4-3.3c0.2-0.7,0.2-1.4,0.2-2.1c0.3,0.2,0.5,0.3,0.8,0.5c0,0.1-0.1,0.2-0.1,0.2
			c-0.1,0.1-0.1,0.2-0.2,0.3c0,0.1,0,0.2,0,0.2c0,0.2,0,0.3,0,0.5c0.1,0.1,0.1,0.2,0.2,0.3c0,0.1,0,0.2,0.1,0.2
			c0.1,0.4,0.1,0.8,0.2,1.2c0.9,1.9,1.8,3.9,2.7,5.8c0.1,0.1,0.2,0.2,0.3,0.3c0,0,0,0,0,0c0.1,0.1,0.2,0.2,0.2,0.3
			C20.2,85.4,20.2,85.4,20.3,85.5z"/>
		<path d="M18.7,32.2c2.7-1.2,5.3-2.5,8-3.7c0.8-0.2,1.7-0.4,2.5-0.7c0.2,0.6,0.2,1.2-0.7,1.1c-0.1,0-0.2-0.1-0.2,0
			c-0.7,1.4-2.3,0.4-3.3,1.2c-0.2,0.2-0.6,0.4-0.9,0.3c-1.1-0.3-1.5,0.3-1.5,1c-0.8,0.4-1.5,0.8-2.2,0.9
			C19.9,32.5,19.3,32.3,18.7,32.2z"/>
		<path d="M40.7,26.6c2.2,0.2,4.3,0.5,6.5,0.7c-0.8,0.2-1.5,0.5-2.3,0.6c-0.8,0.1-1.5-0.2-2.3-0.2C41.6,27.8,40.8,27.8,40.7,26.6z"
			/>
		<path d="M28,93.4c1.4,0.6,2.8,1.2,4.2,1.7c-0.9,0.1-1.9,0.6-2.7,0.3C28.8,95.2,27.7,94.7,28,93.4z"/>
		<path d="M47.7,27.5c1.5,0.4,3,0.9,4.5,1.3c-0.7,0.1-1.4,0.3-2,0.2C49.2,28.8,48,28.8,47.7,27.5z"/>
		<path d="M30.5,27.6c1.3-0.2,2.7-0.5,4-0.7c-0.3,0.3-0.6,0.6-1,0.8c-0.7,0.3-1.3,0.4-2,1C30.7,29.2,30.5,28.3,30.5,27.6z"/>
		<path class="st61" d="M62.1,53.7c-0.1,0-0.3,0.1-0.3,0.1c-0.7-1.1-1.7-0.3-2.6-0.3c0.6-0.5,1.1-1,1.7-1.5c0.1,0,0.1,0,0.2-0.1
			c0.1,0,0.2,0,0.3,0c0.2,0.1,0.3,0.2,0.5,0.3C61.9,52.7,62,53.2,62.1,53.7z"/>
		<path d="M35.7,26.8c0.8-0.1,1.7-0.2,2.5-0.2c0.4,0.8,0.2,1.2-0.7,0.9C36.9,27.3,35.9,28.1,35.7,26.8z"/>
		<path d="M23.2,89.7c0.7,0.7,1.5,1.3,2.2,2C23.6,91.9,23,91.4,23.2,89.7z"/>
		<path class="st1" d="M7.8,42.2c-0.6-0.7-1-1.3,0.3-1.6c0.5-0.1,0.9-0.3,1.4-0.4C8.9,40.9,8.3,41.6,7.8,42.2z"/>
		<path d="M20.8,86.7c0.2,0.1,0.3,0.2,0.5,0.3c0.3,0.5,0.5,1,0.8,1.5C20.3,88.5,20.3,88.5,20.8,86.7z"/>
		<path class="st62" d="M57.9,43.5c-0.4-0.1-0.8-0.2-1.3-0.2c0.1-0.3,0.1-0.7,0.2-1l0.1,0C57.3,42.6,57.6,43,57.9,43.5z"/>
		<path class="st63" d="M22.5,42c-0.3,0-0.5,0-0.8,0c0.2-0.3,0.3-0.5,0.5-0.8c0,0,0,0,0,0c0.1,0.2,0.2,0.3,0.2,0.5l0,0
			C22.5,41.8,22.5,41.9,22.5,42z"/>
		<path class="st64" d="M61.8,52.2c-0.2-0.1-0.3-0.2-0.5-0.3c0-0.1,0-0.2,0-0.2c0,0,0,0,0,0c0.1,0,0.2,0,0.3,0c0.1,0,0.1,0,0.2,0
			C61.8,51.8,61.8,52,61.8,52.2z"/>
		<path class="st65" d="M4.8,47.2c-0.1-0.1-0.2-0.2-0.3-0.3c0-0.1,0-0.2,0-0.3c0.1,0,0.3,0,0.4,0l0.1,0C5,46.9,4.9,47.1,4.8,47.2z"
			/>
		<path class="st66" d="M17.5,32.3c0.1,0.2,0.2,0.3,0.3,0.5c-0.1,0-0.2,0-0.2,0.1c0,0,0-0.1,0-0.1C17.5,32.6,17.5,32.4,17.5,32.3z"
			/>
		<path class="st67" d="M56.4,42c0-0.2,0-0.4,0-0.5c0.1,0.1,0.2,0.2,0.2,0.2c0,0.1,0,0.2,0,0.3c0,0,0,0,0,0C56.6,42,56.5,42,56.4,42
			z"/>
		<path class="st68" d="M5,45.9c0.2,0,0.3,0,0.5,0c-0.1,0.1-0.1,0.2-0.2,0.3c-0.1,0-0.2,0-0.3,0C5,46.1,5,46,5,45.9L5,45.9z"/>
		<path class="st69" d="M15.5,60.1c-0.1,0-0.2,0-0.3,0c0-0.1,0-0.1,0-0.2c0-0.1,0-0.2,0-0.3c0,0,0.1,0,0.1,0c0.1,0,0.1,0,0.2,0
			c0,0,0,0,0,0c0,0.1,0,0.2,0,0.2C15.5,60,15.5,60,15.5,60.1z"/>
		<path class="st70" d="M15.2,59.6c0,0.1,0,0.2,0,0.3C15.2,59.8,15.2,59.7,15.2,59.6z"/>
		<path class="st71" d="M15.5,59.6c-0.1,0-0.1,0-0.2,0c0-0.1,0-0.2,0-0.3c0.1,0,0.1,0,0.2,0c0,0,0,0,0,0
			C15.5,59.5,15.5,59.5,15.5,59.6z"/>
		<path class="st72" d="M15.5,59.4c-0.1,0-0.1,0-0.2,0c0-0.1,0-0.2,0-0.3C15.4,59.2,15.4,59.3,15.5,59.4z"/>
		<path class="st73" d="M61.8,51.7c-0.1,0-0.1,0-0.2,0c0-0.1,0-0.2-0.1-0.2l0.1,0C61.7,51.5,61.8,51.6,61.8,51.7z"/>
		<path class="st74" d="M61.4,51.4c0-0.1,0-0.2,0-0.2c0,0,0.1,0,0.1,0l0.1,0c0,0.1,0.1,0.2,0.1,0.2c0,0-0.1,0-0.1,0
			C61.5,51.4,61.5,51.4,61.4,51.4L61.4,51.4z"/>
		<path class="st75" d="M61.6,51.2l-0.1,0c0,0-0.1,0-0.1,0c0-0.1,0-0.2,0-0.3c0.1,0,0.1,0,0.2,0C61.6,51,61.6,51.1,61.6,51.2z"/>
		<path class="st76" d="M61.6,50.9c-0.1,0-0.1,0-0.2,0c0-0.1,0-0.2,0-0.3C61.5,50.7,61.5,50.8,61.6,50.9z"/>
		<path class="st77" d="M5.2,46.5c-0.1,0.1-0.1,0.2-0.2,0.3c0,0-0.1,0-0.1,0C5,46.6,5,46.5,5,46.4C5.1,46.4,5.2,46.5,5.2,46.5z"/>
		<path class="st78" d="M5.2,46.5c-0.1,0-0.1,0-0.2,0c0,0,0,0,0,0c0-0.1,0-0.2,0-0.2c0,0,0,0,0,0c0.1,0,0.2,0,0.3,0
			C5.3,46.3,5.3,46.4,5.2,46.5z"/>
		<path class="st79" d="M5.6,46c0.1-0.1,0.1-0.2,0.2-0.3C5.7,45.8,5.6,45.9,5.6,46z"/>
		<path class="st80" d="M56.9,42c0,0.1,0.1,0.1,0.1,0.2c0,0-0.1,0-0.1,0c-0.1,0-0.2,0-0.2,0c0-0.1,0-0.2,0-0.2c0,0,0,0,0,0
			c0,0,0.1,0,0.1,0L56.9,42z"/>
		<path class="st81" d="M56.9,42l-0.1,0c0,0-0.1,0-0.1,0c0-0.1,0-0.2,0-0.3C56.7,41.8,56.8,41.9,56.9,42z"/>
		<path class="st82" d="M70.1,41c0,0.1,0,0.2,0,0.3c-0.1-0.1-0.2-0.2-0.2-0.2C69.9,41,70,41,70.1,41z"/>
		<path class="st83" d="M22.3,41c0.1,0.1,0.2,0.2,0.3,0.3c0,0-0.1,0-0.1,0c-0.1,0-0.1,0-0.2,0c0,0,0,0,0,0
			C22.2,41.1,22.2,41,22.3,41z"/>
		<path class="st84" d="M17.3,33c0-0.1,0-0.1,0-0.2c0,0,0.1,0,0.1,0c0.1,0,0.1,0,0.2-0.1c0,0,0,0.1,0,0.1
			C17.4,32.9,17.3,32.9,17.3,33z"/>
		<path class="st85" d="M5,46.4c0,0.1,0,0.2-0.1,0.2c-0.1,0-0.3,0-0.4,0c0-0.2,0-0.3,0-0.5c0.1,0,0.2,0,0.2,0c0,0,0,0,0,0
			C4.9,46.3,4.9,46.4,5,46.4L5,46.4z"/>
		<path class="st86" d="M4.8,46.2c-0.1,0-0.2,0-0.2,0c0-0.1,0-0.2,0-0.3c0.1,0,0.1,0,0.2,0l0,0C4.8,46,4.8,46.1,4.8,46.2z"/>
		<path class="st87" d="M4.8,46c-0.1,0-0.1,0-0.2,0c0-0.1,0-0.2,0-0.3c0.1,0,0.1,0,0.2,0c0,0,0,0,0,0C4.8,45.8,4.8,45.9,4.8,46z"/>
		<path class="st88" d="M4.8,46c0-0.1,0-0.2,0-0.3C4.9,45.8,5,45.9,5,45.9c0,0,0,0,0,0C4.9,46,4.9,46,4.8,46L4.8,46z"/>
		<path class="st47" d="M265.2,78.1c0-5.4,0-10.8,0-16.2c0.1,0.3,0.2,0.6,0.2,0.9c0,4.8,0,9.6,0,14.4
			C265.4,77.4,265.3,77.8,265.2,78.1z"/>
		<path class="st89" d="M17.5,32.7c-0.1,0-0.1,0.1-0.2,0.1c0-0.1,0-0.2,0-0.2c0-0.1,0-0.2,0-0.2c0.1,0,0.2,0,0.3,0
			C17.5,32.4,17.5,32.6,17.5,32.7z"/>
		<path class="st90" d="M17.2,32.3c0,0.1,0,0.2,0,0.2c-0.1,0-0.1,0-0.2,0c0-0.1,0-0.2,0-0.3C17.1,32.3,17.2,32.3,17.2,32.3z"/>
		<path class="st91" d="M56.6,42.2c0.1,0,0.2,0,0.2,0c-0.1,0.3-0.1,0.7-0.2,1c-0.2,0-0.4,0-0.5,0c0-0.1,0-0.2,0.1-0.2
			c0.1-0.1,0.1-0.2,0.2-0.3c0-0.1,0-0.3,0-0.4C56.5,42.2,56.6,42.2,56.6,42.2z"/>
		<path class="st92" d="M47.4,62.1c0,0.3,0,0.5,0,0.8C47.4,62.6,47.4,62.4,47.4,62.1z"/>
		<path class="st93" d="M61.1,51.9c-0.1,0-0.1,0-0.2,0.1c0.1-0.1,0.1-0.2,0.2-0.3l0.1,0C61.1,51.8,61.1,51.8,61.1,51.9z"/>
		<path class="st94" d="M61.1,51.7c0.1-0.1,0.2-0.2,0.3-0.2c0,0,0,0,0,0c0,0.1,0,0.2,0,0.2c0,0,0,0,0,0
			C61.3,51.7,61.2,51.7,61.1,51.7L61.1,51.7z"/>
		<path class="st95" d="M56.4,42.7c-0.1,0.1-0.1,0.2-0.2,0.3C56.3,42.9,56.3,42.8,56.4,42.7z"/>
		<path class="st96" d="M56.6,42.2c-0.1,0-0.1,0-0.2,0c0-0.1,0-0.2,0-0.3c0.1,0,0.2,0,0.2,0C56.7,42.1,56.7,42.1,56.6,42.2z"/>
		<path class="st97" d="M22.5,42c0-0.1,0-0.2,0-0.2c0.1,0,0.2,0,0.2,0c0,0.1,0,0.2,0,0.2C22.6,42,22.6,42,22.5,42z"/>
		<path class="st98" d="M22.7,41.7c-0.1,0-0.2,0-0.2,0c0,0,0,0,0,0c0-0.1,0-0.2,0-0.3c0.1,0,0.1,0,0.2,0
			C22.7,41.6,22.7,41.7,22.7,41.7z"/>
		<path class="st89" d="M22.7,41.5c-0.1,0-0.1,0-0.2,0c0-0.1,0-0.1-0.1-0.2c0,0,0.1,0,0.1,0C22.6,41.3,22.7,41.4,22.7,41.5z"/>
		<path class="st0" d="M19.7,84.8c-0.9-1.9-1.8-3.9-2.7-5.8c-0.2-0.4-0.2-0.8-0.2-1.2c0.2-0.3,0.5-0.7,0.7-1c0-0.2,0-0.3,0-0.5
			c0-0.1,0-0.2,0-0.3c2.2-1.8,4.5-3.6,6.7-5.4c0.4-0.3,0.8-0.6,1.3-0.9c0.2,0,0.4-0.1,0.5-0.1c-0.1-0.1-0.2-0.2-0.2-0.3
			c0.1-0.2,0.2-0.3,0.3-0.5c0.3,0.1,0.6,0.2,1,0.2c0.3,0.8,0.2,1.4-0.7,1.7c-0.4-0.1-0.8-0.2-1-0.3c-0.9,1-1.7,1.8-2.6,2.9
			c-0.5-0.1-1.1,0.1-0.6,1.1c-0.2,0.1-0.4,0.1-0.7,0.2c0.5,0.8,0.9,1,1.8,0.5c0.7-0.4,0.8-1.2,0.8-1.2c1.4-0.1,0.7-1.1,0.8-1.7
			c0.5,0.2,1.1,0.4,1.6,0.6c0.4,0.2,1,0.4,1,0.5c-0.2,0.6-0.3,1.3-0.7,1.7c-0.8,0.9-1.8,1.7-2.5,2.6c-0.1,0.2,0.3,0.8,0.4,1.2
			c-0.4,0.6-0.8,1.2-1.2,1.7c-0.4,0.7-0.9,1.3-1.3,2c-0.5,0.7-1,1.3-1.5,2c-0.1,0.1-0.1,0.2-0.2,0.2l0,0c-0.1,0-0.2,0-0.3,0
			c0,0,0,0,0,0C19.9,84.9,19.8,84.9,19.7,84.8z"/>
		<path class="st1" d="M26.2,70.8c0.9-0.3,1-0.9,0.7-1.7c0-0.7-0.1-1.4,0-2c0.1-0.3,0.6-0.5,0.9-0.8c0.1,0.1,0.2,0.2,0.3,0.4
			c-0.1,0-0.4,0.1-0.4,0.1c0.1,0.8-0.4,2-0.1,2.4c0.9,1.4,0,2-0.8,2.9C26.6,71.6,26.4,71.2,26.2,70.8z"/>
		<path class="st1" d="M24.7,72.3c-0.1,0.6,0.6,1.7-0.8,1.7c0,0-0.1,0.9-0.8,1.2c-0.9,0.5-1.3,0.2-1.8-0.5c0.3-0.1,0.5-0.1,0.7-0.2
			C23.3,74.3,23.9,73.1,24.7,72.3z"/>
		<path class="st1" d="M61.7,77.8c0,0.1,0,0.1-0.1,0.2c-0.6-0.6-0.8-1.2-0.5-2c0.2,0.2,0.5,0.3,0.7,0.5c0,0.1,0,0.2,0,0.3l0,0
			c-0.1,0.3-0.2,0.5-0.3,0.8C61.7,77.6,61.7,77.7,61.7,77.8z"/>
		<path class="st99" d="M61.9,76.5c-0.2-0.2-0.5-0.3-0.7-0.5c-0.1-0.5-0.2-1-0.2-1.5c0.2,0.2,0.3,0.4,0.5,0.6c0,0.1,0,0.1,0,0.2
			c0.2,0.2,0.3,0.3,0.5,0.5c0,0.2,0,0.3,0,0.5C61.9,76.4,61.9,76.5,61.9,76.5C61.9,76.6,61.9,76.5,61.9,76.5z"/>
		<path class="st100" d="M51.9,91.7c-0.1-0.3-0.2-0.5-0.2-0.8c0.1,0,0.1,0,0.2,0c0,0.1,0,0.1,0,0.2C51.9,91.4,51.9,91.6,51.9,91.7z"
			/>
		<path class="st101" d="M52.9,91.4c-0.1,0-0.2,0.1-0.2,0.1c0,0-0.1-0.1-0.1-0.1c-0.1-0.1-0.1-0.1-0.2-0.2c0-0.1,0-0.2,0-0.2
			C52.6,91.1,52.7,91.3,52.9,91.4z"/>
		<path class="st102" d="M52.4,91c0,0.1,0,0.2,0,0.2c0,0-0.1,0-0.1,0c-0.1,0-0.1,0-0.2,0l0,0c0-0.1,0-0.2,0-0.2
			C52.2,91,52.3,91,52.4,91z"/>
		<path class="st103" d="M52.1,91c0,0.1,0,0.1,0,0.2c-0.1,0-0.2,0-0.3,0c0-0.1,0-0.1,0-0.2C52,91,52.1,91,52.1,91z"/>
		<path class="st104" d="M26.2,77.5c0,0.1,0,0.2,0,0.3c-0.1,0-0.2,0-0.3,0C26,77.7,26.1,77.6,26.2,77.5z"/>
		<path class="st105" d="M26.3,77.3c0,0.1,0,0.2-0.1,0.2C26.2,77.5,26.2,77.4,26.3,77.3z"/>
		<path class="st103" d="M16,59.9c-0.1,0-0.2,0-0.3,0c0,0,0,0,0,0c0-0.1,0-0.1,0-0.2l0-0.1C15.9,59.7,15.9,59.8,16,59.9z"/>
		<path class="st106" d="M15.5,59.6c0-0.1,0-0.2,0-0.2c0.1,0.1,0.2,0.1,0.3,0.2c0,0,0,0.1,0,0.1C15.7,59.7,15.6,59.6,15.5,59.6
			L15.5,59.6z"/>
		<path class="st107" d="M51.9,91.2c0.1,0,0.2,0,0.3,0c0,0,0,0,0,0c0.1,0.1,0.1,0.2,0.2,0.3c0,0,0,0,0,0c0,0.1,0,0.2,0,0.3
			c-0.2,0.1-0.3,0.3-0.5,0.4c0-0.2,0-0.3,0-0.5C51.9,91.6,51.9,91.4,51.9,91.2z"/>
		<path class="st108" d="M62.4,75.3c0,0.1,0,0.2,0,0.3c-0.1,0-0.1,0-0.2,0l-0.1,0c0-0.1,0-0.1,0-0.2l0-0.1
			C62.2,75.3,62.3,75.3,62.4,75.3z"/>
		<path class="st109" d="M61.9,75.1c0.1,0.1,0.2,0.1,0.3,0.2c0,0,0,0.1,0,0.1c-0.1,0-0.2,0-0.2-0.1l0,0
			C61.9,75.2,61.9,75.1,61.9,75.1z"/>
		<path class="st110" d="M61.9,75.1c0,0.1,0,0.2,0,0.2c-0.1,0-0.2,0-0.2,0c0-0.1,0-0.1,0-0.2C61.7,75.1,61.8,75.1,61.9,75.1z"/>
		<path class="st93" d="M61.6,75.1c0,0.1,0,0.1,0,0.2c-0.1,0-0.2,0-0.2,0c0-0.1,0-0.1,0-0.2C61.5,75.1,61.6,75.1,61.6,75.1z"/>
		<path class="st0" d="M25.8,69.3c0.1,0.1,0.2,0.2,0.2,0.3c-0.2,0-0.4,0.1-0.5,0.1C25.6,69.6,25.7,69.5,25.8,69.3z"/>
		<path class="st111" d="M17.5,76c0,0.1,0,0.2,0,0.3c-0.1,0-0.2,0-0.2,0c0-0.1,0-0.1,0-0.2C17.3,76.1,17.4,76,17.5,76z"/>
		<path class="st43" d="M17.3,76.1c0,0.1,0,0.1,0,0.2c0,0,0,0,0,0c-0.1,0-0.2,0-0.3,0c0-0.1,0-0.2,0-0.2
			C17.1,76.1,17.2,76.1,17.3,76.1z"/>
		<path class="st112" d="M17,76.1c0,0.1,0,0.2,0,0.2c0,0,0,0,0,0c-0.1,0-0.2,0-0.2,0l0,0c0-0.1,0-0.2,0.1-0.2
			C16.9,76,16.9,76.1,17,76.1z"/>
		<path class="st113" d="M15.5,60.1c0-0.1,0-0.2,0-0.2c0,0,0.1,0,0.1,0l0.1,0c0,0,0,0,0,0C15.7,60,15.6,60,15.5,60.1z"/>
		<path class="st114" d="M20.3,85.5c0-0.1-0.1-0.1-0.1-0.2c0-0.1,0-0.2,0-0.3c0,0,0,0,0,0c0,0,0.1,0,0.1,0l0.1,0
			C20.4,85.2,20.3,85.3,20.3,85.5z"/>
		<path class="st115" d="M20.5,85l-0.1,0c0,0-0.1,0-0.1,0c0.1-0.1,0.1-0.2,0.2-0.2C20.5,84.8,20.5,84.9,20.5,85z"/>
		<path class="st116" d="M52.4,91.7c0-0.1,0-0.2,0-0.3c0.1,0,0.1,0,0.2,0c0,0,0.1,0.1,0.1,0.1C52.6,91.6,52.5,91.7,52.4,91.7z"/>
		<path class="st117" d="M61.6,77.5c0.1-0.3,0.2-0.5,0.3-0.8c0,0.2,0,0.5,0,0.7C61.8,77.5,61.7,77.5,61.6,77.5z"/>
		<path class="st118" d="M61.9,76.3c0-0.2,0-0.3,0-0.5c0.1,0,0.1,0,0.2,0l0.1,0c0,0.2-0.1,0.3-0.1,0.5C62,76.3,62,76.3,61.9,76.3z"
			/>
		<path class="st119" d="M61.6,77.5c0.1,0,0.1,0,0.2,0c-0.1,0.1-0.1,0.2-0.2,0.3C61.7,77.7,61.7,77.6,61.6,77.5z"/>
		<path class="st120" d="M61.9,76.8c0-0.1,0-0.2,0-0.3c0,0,0,0,0,0c0.1,0,0.1,0,0.2,0C62,76.6,62,76.7,61.9,76.8z"/>
		<path class="st121" d="M62.1,76.5c-0.1,0-0.1,0-0.2,0c0-0.1,0-0.2,0-0.3c0.1,0,0.1,0,0.2,0C62.1,76.4,62.1,76.5,62.1,76.5z"/>
		<path class="st122" d="M62.2,75.6c0.1,0,0.1,0,0.2,0c-0.1,0.1-0.1,0.2-0.2,0.3c0,0-0.1,0-0.1,0C62.1,75.7,62.1,75.6,62.2,75.6z"/>
		<path class="st123" d="M17.5,76.8c-0.2,0.3-0.5,0.7-0.7,1c0-0.1-0.1-0.2-0.1-0.2c0-0.1,0-0.2,0-0.2c0-0.1,0-0.2,0-0.3
			c0.1,0,0.2,0,0.2,0C17.2,77,17.3,76.9,17.5,76.8z"/>
		<path class="st124" d="M16.8,77c0,0.1,0,0.2,0,0.3c-0.1,0-0.1,0-0.2,0c0-0.2,0-0.3,0-0.5c0.1,0,0.1,0,0.2,0
			C16.7,76.9,16.8,77,16.8,77z"/>
		<path class="st125" d="M20.2,85c0,0.1,0,0.2,0,0.3c-0.1-0.1-0.2-0.2-0.2-0.3C20.1,85,20.2,85,20.2,85z"/>
		<path class="st126" d="M19.7,84.8c0.1,0.1,0.2,0.2,0.3,0.3C19.9,84.9,19.8,84.9,19.7,84.8z"/>
		<path class="st127" d="M16.5,77.3c0.1,0,0.1,0,0.2,0c0,0.1,0,0.2,0,0.2C16.7,77.5,16.6,77.4,16.5,77.3z"/>
		<path class="st128" d="M16.7,76.8c-0.1,0-0.1,0-0.2,0c0-0.1,0-0.2,0-0.2c0,0,0.1,0,0.1,0s0.1,0,0.1,0s0,0,0,0
			C16.8,76.6,16.7,76.7,16.7,76.8z"/>
		<path class="st129" d="M16.7,76.5l-0.1,0c0,0-0.1,0-0.1,0c0.1-0.1,0.1-0.2,0.2-0.3c0,0,0,0,0,0C16.8,76.4,16.7,76.5,16.7,76.5z"/>
		<path class="st130" d="M61.2,51.7c0.1,0,0.2,0,0.2,0c0,0.1,0,0.2,0,0.2c-0.1,0-0.2,0-0.3,0C61.1,51.8,61.1,51.8,61.2,51.7z"/>
		<path class="st131" d="M22.4,41.2c0,0.1,0.1,0.1,0.1,0.2c0,0.1,0,0.2,0,0.3c-0.1-0.2-0.2-0.3-0.2-0.5
			C22.3,41.2,22.4,41.2,22.4,41.2z"/>
		<path class="st132" d="M61.4,51.7c0-0.1,0-0.2,0-0.2c0.1,0,0.1,0,0.2,0c0,0.1,0.1,0.1,0.1,0.2C61.6,51.7,61.5,51.7,61.4,51.7z"/>
		<path class="st133" d="M4.8,46c0.1,0,0.2,0,0.2,0c0,0.1,0,0.2,0,0.2c0,0,0,0,0,0c-0.1,0-0.2,0-0.2,0c0,0,0,0,0,0
			C4.8,46.1,4.8,46,4.8,46z"/>
		<path class="st134" d="M15.8,59.9l-0.1,0c0,0-0.1,0-0.1,0c0-0.1,0-0.2,0-0.2c0.1,0,0.2,0,0.2,0C15.8,59.8,15.8,59.8,15.8,59.9z"/>
		<path class="st135" d="M4.8,46.2c0.1,0,0.2,0,0.2,0c0,0.1,0,0.2,0,0.2C4.9,46.4,4.9,46.3,4.8,46.2z"/>
		<path class="st136" d="M17.5,76.8C17.3,76.9,17.2,77,17,77c0-0.2,0-0.3,0-0.5c0,0,0,0,0,0c0.1-0.1,0.2-0.2,0.2-0.3c0,0,0,0,0,0
			c0.1,0,0.2,0,0.2,0C17.5,76.5,17.5,76.6,17.5,76.8z"/>
		<path class="st137" d="M62.2,75.6c0,0.1-0.1,0.2-0.1,0.2c-0.1,0-0.1,0-0.2,0c-0.2-0.2-0.3-0.3-0.5-0.5c0.1,0,0.2,0,0.2,0
			c0.1,0,0.2,0,0.2,0c0,0,0,0,0,0C62,75.4,62,75.5,62.2,75.6L62.2,75.6z"/>
		<path class="st138" d="M52.6,91.4c-0.1,0-0.1,0-0.2,0c0,0,0,0,0,0c0-0.1,0-0.2,0-0.2c0,0,0.1,0,0.1,0
			C52.5,91.3,52.6,91.4,52.6,91.4z"/>
		<path class="st139" d="M52.4,91.2c0,0.1,0,0.2,0,0.2c-0.1-0.1-0.1-0.2-0.2-0.3C52.2,91.2,52.3,91.2,52.4,91.2z"/>
		<path class="st140" d="M62.1,75.5c-0.1-0.1-0.1-0.2-0.2-0.2c0.1,0,0.2,0,0.2,0.1C62.1,75.4,62.1,75.5,62.1,75.5z"/>
		<path class="st88" d="M17.2,76.3c-0.1,0.1-0.2,0.2-0.2,0.3c0-0.1,0-0.2,0-0.2c0,0,0,0,0,0C17.1,76.3,17.2,76.3,17.2,76.3z"/>
		<path class="st141" d="M17,76.3c0,0.1,0,0.2,0,0.2c0,0,0,0,0,0c-0.1,0-0.2,0-0.2,0c0,0,0,0,0,0c0-0.1,0-0.2,0-0.2
			C16.8,76.3,16.9,76.3,17,76.3z"/>
		<path class="st111" d="M16.8,76.6c0.1,0,0.2,0,0.2,0c0,0.2,0,0.3,0,0.5c-0.1,0-0.2,0-0.2,0c0-0.1,0-0.2,0-0.2
			C16.7,76.7,16.8,76.6,16.8,76.6z"/>
	</g>
</g>
</svg>
