<?xml version="1.0" encoding="utf-8"?>
<!-- Generator: Adobe Illustrator 27.5.0, SVG Export Plug-In . SVG Version: 6.00 Build 0)  -->
<svg version="1.1" id="Layer_1" xmlns="http://www.w3.org/2000/svg" xmlns:xlink="http://www.w3.org/1999/xlink" x="0px" y="0px"
	 viewBox="0 0 386.94 171.88" style="enable-background:new 0 0 386.94 171.88;" xml:space="preserve">
<style type="text/css">
	.st0{fill:#73CCE4;}
	.st1{fill:#71CCE4;}
	.st2{fill:#020303;}
	.st3{fill:#313030;}
	.st4{fill:#666665;}
	.st5{fill:#555555;}
	.st6{fill:#949596;}
</style>
<g>
	<g>
		<path d="M0.66,80.87c-0.02-0.28-0.04-0.56-0.06-0.84c0-0.19,0-0.37,0-0.56c0.19-6.36,1.13-12.58,3.49-18.53
			c0.07-0.1,0.14-0.19,0.2-0.29c-0.01-0.24-0.47-0.55-0.13-0.68c1-0.39,0.99-1.32,1.28-2.1c0.26-0.07,0.28-0.29,0.33-0.5
			c0.19-0.08,0.22-0.22,0.15-0.4c0.03-0.06,0.04-0.12,0.03-0.18c0.72-0.6-0.15-1.81,0.88-2.3c0.6-0.04,0.56-0.47,0.54-0.89
			c0.54-0.87,1.04-1.77,1.63-2.59c2.65-3.7,5.53-7.18,9.41-9.69c0.6-0.07,1.46,0.21,1.3-0.93c0.12-0.13,0.23-0.25,0.35-0.38
			c3.27-2.16,6.7-4.06,10.4-5.3c3.87-1.3,7.78-2.58,11.99-2.41c2.61,0.1,5.23,0.07,7.85,0c1.82-0.05,3.56,0.34,5.31,0.71
			c5.04,1.09,9.83,2.86,14.36,5.31c0.13,0.14,0.26,0.28,0.39,0.42l0.08,0.05c3.96,2.33,7.57,5.08,10.4,8.75
			c0.68,0.88,1.3,1.82,2.2,2.51c0.01,0.06-0.02,0.1-0.09,0.1c0.09,0.14,0.18,0.28,0.26,0.41c0.96,1.13,1.32,2.68,2.51,3.66
			c0.08,0.29-0.17,0.67,0.26,0.85c0.22,1.31,0.64,2.55,1.38,3.66c0.23,0.57,0.45,1.14,0.68,1.71c0.64,1.67,1.29,3.34,1.93,5.01
			c-0.21,0.54,0.23,0.93,0.32,1.4c-0.26,0.46,0.3,0.72,0.27,1.12c-0.01,1.45,0.51,2.81,0.72,4.23c0.46,3.66,0.48,7.34,0.29,11
			c-0.18,3.44-0.88,6.84-1.87,10.18c-0.94,3.16-2.26,6.14-3.79,9.04c-0.1,0.19-0.15,0.42-0.22,0.63c-0.24,0.1-0.29,0.32-0.34,0.54
			c-0.51,0.46-0.87,1.01-1.06,1.67c-0.22,0.3-0.44,0.6-0.66,0.9c-0.05,0.01-0.09,0.04-0.13,0.08c-0.31,0.28-0.33,0.66-0.35,1.04
			c-0.33,0.27-0.23,0.62-0.2,0.96c-0.06,0.35-0.29,0.59-0.57,0.78l0.01-0.01c-3.8,5.26-8.77,9.14-14.4,12.24
			c-0.26,0.07-0.56,0.07-0.79,0.2c-2.03,1.16-4.24,1.89-6.42,2.67c-3.38,1.2-6.89,1.63-10.45,2.01c-4.46,0.48-8.92,0.45-13.26-0.43
			c-6.48-1.33-12.52-3.91-17.9-7.85c-0.43-0.34-0.85-0.69-1.29-1.02c-3.42-2.54-6.3-5.59-8.68-9.12c0.3-0.81-0.03-1.39-0.68-1.85
			c-0.36-0.92-0.89-1.74-1.49-2.52c-0.29-0.84-0.84-1.53-1.32-2.26c-0.05-0.54-0.4-0.94-0.64-1.39c-0.25-0.35-0.12-0.86-0.51-1.14
			c-1.2-2.81-1.97-5.76-2.81-8.69c-0.09-0.38,0.25-0.85-0.26-1.13c0.1-1.81-0.8-3.5-0.64-5.32C0.81,82.56,1.38,81.66,0.66,80.87z
			 M22.8,103.1c0,0-0.02-0.02-0.02-0.02c-0.01,0.09,0.01,0.18,0.05,0.26c-0.01,0.37,0.16,0.64,0.48,0.83
			c0.26,0.35,0.63,0.64,0.66,1.13c-0.45,0.47-0.07,0.51,0.29,0.56c0.55,0.44,0.59,1.04,0.54,1.67c-0.36,0.62-0.2,0.92,0.53,0.87
			c1.6,1.67,3.13,3.4,4.99,4.81c4.24,3.2,9.02,4.86,14.32,5.01c3,0.08,6-0.09,8.9-0.88c2.7-0.73,5.38-1.6,7.49-3.6
			c0.34,0.03,0.6-0.11,0.81-0.36c1.76-1.17,3.23-2.65,4.54-4.29c0.27-0.23,0.55-0.45,0.82-0.68c0.64,0.06,0.95-0.31,1.04-0.86
			c0.09-0.57-0.37-0.52-0.73-0.55c-0.2-0.47,0.3-0.7,0.35-1.08c0.14-0.22,0.28-0.45,0.43-0.67c0.1-0.02,0.16-0.08,0.16-0.19
			c0.67-0.75,1.23-1.57,1.54-2.55c0.31-0.32,0.49-0.7,0.56-1.13c0.64-0.87,0.95-1.9,1.35-2.89c0.02-0.13,0.04-0.26,0.06-0.4
			c0.27-0.77,0.55-1.55,0.82-2.32c0.12-0.19,0.23-0.38,0.35-0.57c0.58-0.76,1.07-1.54,0.48-2.53c-0.06-0.49,0.5-0.87,0.26-1.39
			c0.35-0.71,0.35-1.47,0.33-2.23c0.46-0.41,0.28-0.93,0.24-1.42c0.09-0.56,0.18-1.12,0.27-1.68c0.01-0.19,0.01-0.37,0.02-0.56
			c-0.01-2.15-0.01-4.3-0.02-6.46c0-1.78,0-3.56,0-5.33c0-0.28,0.01-0.56,0.01-0.84c0.01-0.31,0.18-0.67-0.23-0.87
			c-0.02-0.65-0.04-1.29-0.06-1.94c0.05-0.24,0.08-0.46-0.21-0.57c0.13-0.78-0.26-1.49-0.34-2.24c0.1-0.9-0.45-1.66-0.51-2.53
			c1.16-0.57,0.38-0.83-0.18-1.12c-0.04-0.09-0.07-0.17-0.11-0.26c-1-2.38-2.01-4.8-2.86-7.2c-0.64-1.81-1.4-3.42-2.45-4.96
			c-0.1-0.21-0.17-0.44-0.3-0.62c-5.38-7-12.59-10.2-21.33-10.3c-4.9-0.05-9.48,0.99-13.7,3.48c-2.84,1.68-5.18,3.92-7.11,6.59
			c-0.09,0.02-0.18,0.03-0.26,0.06c-0.09,0.11-0.18,0.23-0.26,0.34c-0.16,0.33-0.33,0.67-0.49,1c-0.06,0.11-0.11,0.21-0.17,0.32
			c-0.11,0.18-0.22,0.36-0.33,0.54c-0.16,0.26-0.32,0.53-0.48,0.79c-0.19,0.22-0.39,0.44-0.58,0.66c-0.07,0.11-0.14,0.22-0.2,0.33
			c0,0.22-0.03,0.43-0.28,0.51c-1.31,0.63-1.39,1.13-0.33,1.95c-0.35,0.84-0.71,1.69-1.06,2.53c-0.08,0.06-0.1,0.13-0.07,0.22
			c-0.29,0.67-0.58,1.35-0.87,2.02c-1.23,0.03-0.64,0.71-0.45,1.25c-0.8,3.1-1.59,6.19-1.69,9.41c-0.04,0.1-0.07,0.19-0.11,0.29
			c-0.94,0.54-1.32,1.16-0.24,1.96c0.3,1.22-0.35,2.37-0.26,3.57c0.22,2.81,0.25,5.62,0.53,8.43c0.3,2.99,0.71,5.95,1.68,8.8
			c0.16,0.47,0.32,0.94,0.49,1.41c0.41,1.27,0.84,2.52,1.52,3.68c0.06,0.07,0.13,0.14,0.19,0.21c0.14,0.19,0.28,0.38,0.42,0.58
			c0.01,0.09,0.02,0.19,0.04,0.28c-0.06-0.01-0.12-0.02-0.17-0.04c-1.01,0.76-0.28,0.94,0.38,1.14c0.11,0.1,0.21,0.2,0.32,0.29
			C22.66,102.89,22.73,103,22.8,103.1z"/>
		<path class="st0" d="M83.04,50.04c-0.9-0.69-1.52-1.63-2.2-2.51c-2.84-3.67-6.44-6.42-10.4-8.75c0,0-0.02-0.07-0.02-0.07
			l-0.06,0.02c-0.13-0.14-0.26-0.28-0.39-0.42c0.52-0.12,0.56-0.5,0.63-0.95c0.25-1.8-0.17-3.59-0.04-5.39
			c0.15-2.11-0.07-4.2-0.57-6.25c-1.76-7.14-5.67-12.51-12.66-15.34c-6.54-2.65-13.26-2.85-20.07-1.44
			c-6.81,1.41-12.1,5.13-15.69,11.04c-2.93,4.82-3.39,10.22-2.75,15.71c0.17,1.48,0.05,3.12,1.26,4.32
			c-0.12,0.13-0.23,0.25-0.35,0.38c-0.5,0.22-0.94,0.52-1.3,0.93c-3.88,2.5-6.76,5.99-9.41,9.69C8.4,51.84,7.9,52.74,7.36,53.6
			c-0.29,0.23-0.48,0.52-0.54,0.89c-1.02,0.49-0.15,1.69-0.88,2.3c-0.25-0.03-0.49-0.06-0.74-0.09c-0.07-0.56-0.15-1.12-0.22-1.68
			c-0.04-0.08-0.09-0.15-0.13-0.23c-1.14-2.73-2.04-5.53-2.57-8.44c-0.07-0.13-0.14-0.27-0.2-0.4c-0.13-2.39-0.27-4.79-0.4-7.18
			c0.04-0.08,0.05-0.16,0.01-0.25c-0.03-2.56,0.56-5.04,0.93-7.55c0.05-0.1,0.1-0.2,0.16-0.3c0.05-0.54,0.09-1.09,0.14-1.63
			c0.06-0.12,0.12-0.23,0.18-0.35c1.05-3.39,2.55-6.55,4.5-9.54c2.1-3.21,4.61-6.1,7.53-8.49c2.29-1.87,4.86-3.5,7.62-4.73
			c0.31-0.14,1.61-0.09,0.58-1.15c-0.3-0.31,0.26-0.49,0.54-0.59c4.62-1.7,9.31-3.18,14.25-3.61c2.21-0.19,4.41-0.39,6.62-0.58
			c0.28,0,0.56,0,0.84,0c0.35,0.1,0.71,0.3,1.06,0.29c3.89-0.03,7.74,0.36,11.54,1.23c0.2,0.05,0.4,0.11,0.6,0.16
			c2.63,0.83,5.26,1.67,7.89,2.51c-0.81,1.25-0.29,1.83,1.02,2.03c0.31,0.05,0.61,0.18,0.92,0.27c6.07,3.74,11.34,8.3,14.91,14.59
			c0.08,0.12,0.16,0.23,0.24,0.35c0.51,1.25,1.07,2.48,1.52,3.75c2.26,6.23,2.58,12.54,0.77,18.95c-0.52,1.86-1.5,3.51-2.15,5.31
			C83.75,49.8,83.5,50.1,83.04,50.04z"/>
		<path class="st1" d="M27.81,169.06c-0.35-0.03-0.71-0.06-1.06-0.09c-0.04-0.74,0.26-1.69-0.88-1.87c-1.7-0.27-3.22-0.96-4.68-1.8
			c-0.55-0.32-0.74,0.05-0.94,0.43c-0.19-0.11-0.39-0.22-0.58-0.33c0.64-1.05,0.09-1.53-0.89-1.7c-0.5-0.09-0.9-0.17-1.01-0.75
			c-0.06-0.32,0.1-0.95-0.44-0.8c-0.53,0.15-1.43-0.24-1.56,0.76c-0.59-0.21-1.02-0.63-1.41-1.1c0.16-0.92-0.14-1.39-1.14-1.16
			c0.31-0.88-0.31-1.55-0.67-2.19c-0.44-0.79-0.49-1.25,0.39-1.64c0.73-0.32,0.69-0.62,0.09-1.19c-0.73-0.71-1.29-0.59-1.85,0.05
			c-0.35,0.4-0.65,0.79-1.25,0.7c-0.07-0.05-0.13-0.12-0.15-0.21c0.26-0.16,0.72-0.31,0.52-0.67c-0.27-0.48-0.83-0.17-1.27-0.22
			c0,0,0.01,0,0.01,0c0.08-0.82,0.12-1.61-1.1-1.43c-0.28-0.38-0.56-0.76-0.84-1.13c0.01-0.43-0.03-0.83-0.61-0.83
			c-0.13-0.17-0.25-0.35-0.38-0.52c0.51-0.14,1.42,0.21,1.38-0.66c-0.03-0.72-0.86-0.45-1.36-0.5c-0.27-0.02-0.55,0.02-0.82,0.03
			c-0.07-0.17-0.14-0.33-0.22-0.5c0.64-1.13,1-2.21-0.52-2.98c-0.13-0.07-0.2-0.31-0.24-0.49c-0.2-0.9-0.8-1.2-1.66-1.12
			c-0.17-0.39-0.34-0.79-0.5-1.18c0.08-0.18,0-0.3-0.15-0.4c0-0.13,0-0.26,0.01-0.38c0.42-0.07,0.98,0.19,1.12-0.5
			c0.2-1.02-0.8-2.21-1.94-2.31c-0.28-0.42-0.33-0.9-0.38-1.38c1.93-0.13,1.47-1.6,1.46-2.73c-0.01-0.45,0.69-1.95-0.98-1.11
			c-0.2,0.1-0.42-0.17-0.32-0.3c0.83-1.1,0.22-2.35,0.3-3.5c0.13-1.9,1.42-3.54,1.06-5.51c-0.34-1.82,0.88-3.29,1.24-4.96
			c0.09-0.42,0.56-0.39,0.94-0.45c0.45-0.08,0.87,0.33,1.2,0.15c-0.58-1.51-1.53-2.76-2.3-4.13c0.02-0.46,0.19-0.84,0.54-1.14
			c0.57,0.55,1.24,0.58,1.6-0.09c0.34-0.64,0.27-1.38-0.73-1.52c0.14-0.56,0.49-0.98,0.86-1.4c1.49,0.61,0.4,1.97,0.84,2.88
			c0.14,0.3-0.49,0.79,0.07,0.95c0.62,0.19,0.67-0.39,0.82-0.85c0.38-1.14,1.56-1.54,2.51-0.84c0.52,0.38,0.97,0.52,1.51,0.12
			c0.26-0.19,0.64-0.48,0.82-0.09c0.18,0.39-0.36,0.45-0.61,0.61c-0.69,0.42-1.04,0.62-0.19,1.45c0.62,0.61,1.27,1.31,1.92,1.83
			c0.59,0.47-0.12,1.25,0.79,1.55c1.12,0.36,1.85,1.34,2.31,2.45c0.15,0.37,0.58,0.72,0.25,1.15c-0.34,0.46-0.82,0.31-1.28,0.14
			c-0.7-0.25-1.36,0.11-0.98,0.72c0.59,0.95,0.25,2.15,1.04,2.97c0.33,0.34,0.4,0.76,0.14,1.16c-0.31,0.48-0.77,0.39-1.25,0.24
			c-1.03-0.33-1.54,0.06-1.3,1.11c0.16,0.71,0.15,1.35-0.02,2.05c-0.34,1.36,0.4,2.74-0.04,4.13c-0.08,0.25,0.15,0.58,0.48,0.56
			c0.38-0.03,0.3-0.4,0.32-0.66c0.07-0.7-0.15-1.45,0.2-2.2c0.53,0.39,0.43,0.96,0.86,1.33c1.5,1.31,1.67,4.33,0.54,6.04
			c-0.32,0.48-0.72,0.97,0.13,1.73c0.96,0.86,2.04,1.98,1.21,3.77c-0.35,0.77-0.04,2.68,0.4,2.83c1.58,0.53,2.18,1.31,1.83,2.89
			c2,1.25-0.17,1.23-0.55,1.74c-0.14,0.18-0.61,0.06-0.48,0.53c0.74,0.37,1.75-0.24,2.34,0.58c0.67,0.92,1.6,0.91,2.6,0.99
			c1.56,0.12,1.19-1.27,1.73-1.94c0.06,0.05,0.1,0.11,0.13,0.18c0.11,0.11,0.21,0.22,0.32,0.34c0.13,0.16,0.25,0.32,0.38,0.48
			c-0.64,0.38-0.09,0.68,0.05,1.02c0.48,1.15,1.15,2.35-0.03,3.45c-1.1,1.02,0.05,1.83,0.3,2.62c0.21,0.65,0.96,0.07,1.46-0.1
			c0.13-0.05,0.26-0.13,0.39-0.14c0.73-0.05,1.44,0.16,1.95,0.61c0.6,0.51-0.13,0.87-0.37,1.26c-0.34,0.54,0.14,0.63,0.45,0.79
			c0.38,0.2,1.17-0.04,0.85,0.87c-0.08,0.22,0.2,0.3,0.38,0.23c1.21-0.48,1.22,0.3,1.2,1.13c-0.01,0.37,0.12,0.66,0.55,0.65
			c0.49,0,0.93-0.19,1.22-0.57c0.27-0.37-0.03-0.61-0.33-0.77c-0.61-0.35-0.8-0.77-0.27-1.34c0.58-0.6,0.89-0.3,1.28,0.28
			c0.5,0.72,1.24,0.85,2.09,0.58c0.98-0.31,0.57-0.99,0.51-1.6c0.84,0.24,1.67,0.47,2.51,0.71c0.01,0.33-0.04,0.63-0.26,0.91
			c-0.45,0.56-0.09,0.76,0.4,1c2.5,1.23,4.68-0.48,7.02-0.72c0.06-0.01,0.1-0.24,0.15-0.37c0.66,0,1.31,0,1.97,0
			c0.03,0.29,0.15,0.68,0.41,0.67c1.74-0.07,3.18,0.96,4.81,1.22c1.1,0.18,2.21,0.12,3.12-0.8c0.32-0.33,0.91-0.42,1.4-0.55
			c0.43-0.11,1.1,0.06,1.07-0.59c-0.04-0.73-0.78-0.66-1.21-0.53c-1.14,0.36-1.29-0.17-1.17-1.08c0.46-0.13,0.91-0.25,1.37-0.38
			c0.86,0.35,1.77,0.79,1.72-0.81c0.26-0.11,0.53-0.22,0.79-0.32c0.79,0.46,1.71-0.03,2.5,0.35c0.32-1.04,1.46-1.67,1.46-2.87
			l-0.01,0.01c0.96,0.42,1.92,0.83,2.87,1.27c0.56,0.26,0.92-0.01,1.17-0.41c0.33-0.56-0.13-0.94-0.45-1.33
			c-0.17-0.21-0.46-0.44-0.67-0.1c-0.23,0.38-0.26,0.95-0.94,0.7c-0.64-0.23-0.54-0.78-0.56-1.28c0.55-0.62,0.19-1.64,0.82-2.17
			c1.3-1.09,2.22-2.5,3.37-3.71c2.18-0.28,2.42-0.7,1.41-2.53c0.2-0.46,0.41-0.93,0.61-1.39c0.7-0.28,1.31-0.35,1.76,0.48
			c0.17,0.31,0.51,0.8,1.01,0.45c0.45-0.31-0.02-0.63-0.07-0.96c-0.2-1.17-0.48-2.35-0.24-3.54c0.11-0.51-0.19-1.17,0.46-1.52
			c1.02-0.55,0.91-1.55,0.84-2.42c-0.05-0.66-0.12-1.26,0.06-1.92c0.28-0.98-0.31-1.91-0.25-2.89c0.02-0.33-0.29-0.55-0.71-0.47
			c-0.41,0.08-0.83,0.11-1.24,0.16c-0.3-1.4-0.6-2.79-0.65-4.23c1.53,0.33,1.79-0.55,1.96-1.83c0.21-1.65,0.2-1.77-1.39-1.56
			c-0.5,0.06-1.01,0.02-1.52,0.03c-0.05-0.08-0.08-0.16-0.09-0.26c0.17-0.08,0.34-0.15,0.5-0.25c0.55-0.34,1.28-0.65,0.75-1.48
			c-0.61-0.95-1.07-0.14-1.56,0.19c-0.11,0.07-0.26,0.08-0.4,0.11c-0.12-0.27-0.24-0.54-0.36-0.81c0.22-0.16,0.42-0.37,0.66-0.48
			c0.57-0.27,0.93-0.66,0.68-1.3c-0.24-0.6-0.8-0.52-1.31-0.44c-0.41,0.06-0.8,0.17-1.21,0.26c-0.6-0.67-1.03-1.45-1.44-2.24
			c0.62-0.77,1.22-1.04,1.94-0.08c0.28,0.38,0.74,0.47,1.02-0.07c0.59-1.15,1.55-0.75,2.43-0.57c0.33,0.07,0.59,0.53,0.97,0.12
			c0.27-0.29,0.13-0.59,0.06-0.91c-0.21-0.9-0.36-1.76,1.12-1.39c0.44,0.11,0.88-0.26,1.22-0.59c0.32-0.31,0.6-0.53,1.08-0.18
			c0.81,0.59,1.57,0.29,2.05-0.44c0.78-1.17,1.92-2.15,2.05-3.72c0.05-0.57,0.48-1.1,0.75-1.64c0.11-0.22,0.28-0.38,0.56-0.29
			c0.28,0.09,0.34,0.34,0.3,0.56c-0.28,1.33-0.48,2.62,0.83,3.59c0.11,0.08,0.04,0.45,0.02,0.68c-0.04,0.62,0.1,1.19,0.37,1.75
			c0.68,1.39,0.97,2.97,1.96,4.22c0.22,0.28,0.15,0.6,0.05,0.93c-0.57,1.84-1.26,3.66-1.6,5.55c-0.24,1.35-1.03,2.95,0.94,4.01
			c0.7,0.38,1.49,1.36,0.78,2.5c-0.21,0.33-0.17,0.69-0.03,1.07c0.11,0.3,0.14,0.73-0.29,0.81c-1.41,0.29-1.16,1.01-0.61,1.92
			c0.15,0.24,0.16,0.68,0.05,0.95c-0.59,1.47,0.28,1.94,1.45,2.25c0.01,0.22-0.01,0.43-0.22,0.58c-0.93-0.08-2-1.16-2.73,0.36
			c-0.01,0.02-0.28-0.01-0.35-0.09c-0.28-0.31-0.58-0.8-1-0.38c-0.4,0.4-0.15,0.96,0.08,1.44c0.28,0.6,0.63,1.32-0.01,1.79
			c-0.7,0.51-0.54-0.88-1.29-0.72c0,0.15-0.07,0.38,0.01,0.49c0.74,1.02,0.65,1.91-0.4,2.64c-1.2,0.84-0.81,2.49-1.78,3.48
			c-0.18,0.19,0.27,0.53,0.55,0.7c0.31,0.18,0.77,0.01,1,0.41c-0.03,0.22-0.08,0.43-0.3,0.53c-0.69-0.04-1.37,0-2.07-0.16
			c-1.2-0.27-2.33,0.98-1.85,2.06c0.37,0.82,0.01,1.13-0.64,1.34c-0.79,0.26-1.46,0.61-1.61,1.83c-0.55,0.34,0.53-0.38-0.28-0.29
			c-0.55,0.06-1.19,0.17-1.28,0.82c-0.06,0.44,0.36,0.76,0.8,0.79c0.62,0.04,0.74-0.43,0.76-1.33c0.92-0.83,1.83-1.11,2.7-0.2
			c-1.34,1.48-3.06,2.47-4.64,3.63c0.07-0.41,0.14-0.81,0.21-1.22c0.05-0.28,0.07-0.58-0.22-0.73c-0.15-0.07-0.37-0.08-0.53-0.02
			c-0.34,0.13-0.34,0.44-0.2,0.69c0.38,0.66-0.15,1.26-0.08,1.89c-0.43,0.42-0.82,0.87-1.44,1.03c0.02-0.6-0.1-1.21,0.15-1.8
			c0.11-0.26,0.15-0.69-0.2-0.67c-0.8,0.04-1.41,0.64-2,1.09c-0.44,0.33,0.16,0.71,0.46,0.96c0.23,0.19,0.47,0.36,0.22,0.67
			c-0.23,0.28-0.59,0.35-0.89,0.18c-0.31-0.18-0.53-0.54-0.85-0.68c-0.32-0.13-0.78-0.22-1.01,0.18c-0.23,0.41,0.16,0.59,0.44,0.72
			c0.45,0.21,0.61,0.55,0.57,1.01c-0.19,0.09-0.38,0.18-0.56,0.27c-0.43-0.44-0.51-0.1-0.57,0.26c-0.2,0.16-0.4,0.32-0.6,0.49
			c-0.82,0.32-1.63,0.63-2.45,0.95c-0.41-0.27-0.27-0.62-0.14-0.97c0.14-0.36,0.07-0.65-0.37-0.7c-0.39-0.04-0.93,0.13-0.8,0.5
			c0.27,0.75-0.46,1.17-0.41,1.8c-0.14,0-0.28,0-0.42,0c-0.9-0.34-1.9-0.98-2.11,0.72c-0.35,0.21-0.71,0.35-1.12,0.28
			c-0.08-0.13-0.16-0.37-0.26-0.37c-0.3-0.02-0.27,0.26-0.29,0.46c-0.23,0.27-0.55,0.23-0.85,0.25c-0.09-0.69-0.6-0.61-1.04-0.52
			c-0.75,0.15-0.63,0.78-0.65,1.32c-1.02,0.17-2.08,0.03-3.09,0.37c-1.26-0.51-2.43,0.24-3.65,0.28c-0.28-0.03-0.56-0.06-0.84-0.09
			c-0.22-1.11-1.08-0.86-1.75-0.71c-1.06,0.24-2.07,0.26-3.13,0.02c-0.85-0.19-1.64-0.02-2.16,0.78c-0.09-0.02-0.18-0.04-0.26-0.07
			c-0.61-0.77-1.28-0.78-2-0.17c-0.17-0.03-0.34-0.06-0.52-0.09c-0.13-0.62-0.4-0.74-0.86-0.25c-0.93,0.44-1.86-0.15-2.78,0.01
			c0.03-0.67-0.02-1.31-0.73-1.63c-0.62-0.28-1.02,0.13-1.45,0.49c-0.2,0.16-0.5,0.2-0.75,0.3c-0.35-0.06-0.7-0.12-1.06-0.18
			C30.48,168.39,29.15,167.99,27.81,169.06z M22.43,161.01c1.56,0.68,1.59-0.85,2.28-1.42c1.23-1.01,0.06-1.82-0.25-2.52
			c-0.34-0.76-1.29-0.49-1.97-0.15c-0.32,0.16-0.53,0.53-0.93,0.58c-1.06,0.14-0.78,0.99-0.63,1.51c0.25,0.88,0.76,0.2,1.17,0.03
			c0.4-0.16,0.88-0.28,1.16,0.1c0.32,0.44,0.02,0.88-0.25,1.27C22.85,160.64,22.41,160.52,22.43,161.01z M71.71,154.94
			c0.02,0.37-0.1,0.9,0.45,0.81c0.71-0.13,1.26-0.69,1.41-1.37c0.13-0.6-0.59-0.95-0.98-0.94C71.65,153.46,72.14,154.5,71.71,154.94
			z M71.19,158.97c0.56,0.24,0.71,0.02,0.78-0.46c0.11-0.76-0.36-1.28-0.92-1.36c-0.72-0.1-0.88,0.8-0.94,1.25
			C69.99,159.23,70.89,158.73,71.19,158.97z M66.52,162.93c-0.23-0.42-0.12-1.12-0.8-1.15c-0.65-0.02-0.63,0.64-0.65,1.02
			c-0.03,0.56,0.53,0.71,0.97,0.77C66.42,163.63,66.58,163.32,66.52,162.93z M66.82,165.92c-0.12-0.43-0.39-0.73-0.84-0.78
			c-0.44-0.05-0.71,0.23-0.71,0.66c0,0.43,0.3,0.65,0.72,0.67C66.39,166.49,66.72,166.39,66.82,165.92z M13.32,125.87
			c-0.48,0.23-0.3,0.69-0.29,1.07c0,0.3,0.18,0.57,0.52,0.42c0.44-0.19,0.27-0.63,0.28-0.97C13.82,126.1,13.73,125.84,13.32,125.87z
			 M61.47,164.82c-0.39,0.1-0.84,0.16-0.95,0.64c-0.06,0.26,0.13,0.47,0.41,0.34c0.39-0.18,1-0.06,1.07-0.68
			C62.03,164.81,61.7,164.85,61.47,164.82z M5.75,117.86c0.23-0.11,0.43-0.26,0.47-0.57c0.04-0.33,0.05-0.69-0.41-0.71
			c-0.3-0.02-0.55,0.16-0.57,0.48C5.22,117.39,5.36,117.68,5.75,117.86z M4.86,134.06c-0.29,0.07-0.28,0.32-0.26,0.54
			c0.02,0.25,0.16,0.43,0.45,0.39c0.3-0.05,0.35-0.28,0.29-0.52C5.29,134.24,5.15,134.06,4.86,134.06z M28.39,163.09
			c0.01-0.2-0.01-0.39-0.25-0.41c-0.28-0.02-0.42,0.19-0.48,0.41c-0.07,0.24-0.01,0.5,0.3,0.47
			C28.21,163.54,28.35,163.34,28.39,163.09z M38.11,168.12c0.19-0.02,0.36-0.08,0.38-0.31c0.02-0.2-0.05-0.36-0.27-0.41
			c-0.28-0.06-0.44,0.09-0.45,0.36C37.76,167.97,37.9,168.1,38.11,168.12z M13.78,123.06c-0.03-0.22-0.19-0.3-0.38-0.3
			c-0.23,0-0.35,0.16-0.27,0.35c0.06,0.14,0.24,0.29,0.38,0.32C13.75,123.47,13.78,123.25,13.78,123.06z M85.93,141.35
			c-0.03,0.08-0.07,0.16-0.1,0.23c0.08,0.03,0.17,0.11,0.23,0.09c0.06-0.02,0.07-0.14,0.11-0.22
			C86.08,141.41,86,141.38,85.93,141.35z M79.75,149.48c-0.03,0.08-0.11,0.17-0.09,0.23c0.02,0.06,0.14,0.07,0.22,0.11
			c0.03-0.08,0.11-0.17,0.09-0.23C79.95,149.53,79.83,149.51,79.75,149.48z"/>
		<path d="M168.84,103.67c-1.3-2.96-2.66-5.9-3.9-8.89c-1.48-3.55-2.81-4.19-6.53-4.3c-1.24-0.04-2.5-0.08-3.76-0.07
			c-0.58,0.01-1.06,0.03-0.87,0.81c0,0.12,0,0.24,0,0.36c-0.03,3.74-0.07,7.48-0.09,11.22c0,0.25,0.19,0.49,0.29,0.74
			c0.01,0.85,0.01,0.85,0.55,0.58c1.72,0.58,3.5,0.27,5.25,0.32c0.54,0.02,0.75,0.04,0.98,0.73c0.42,1.27-0.14,2.49,0.16,3.72
			c0.12,0.48-0.42,0.61-0.88,0.61c-6.5-0.01-13-0.01-19.51,0c-0.63,0-0.87-0.27-0.93-0.92c-0.37-4.43-0.38-4.42,4.03-4.41
			c1.12,0,2.45,0.34,2.66-1.4c0.01-0.37,0.01-0.75,0.02-1.12c0-0.56,0-1.12,0-1.68c0.03-5.73,0.07-11.46,0.07-17.19
			c0.01-4.56-0.03-9.13-0.05-13.69c0.14-2.39,0.02-2.53-2.26-2.53c-0.51,0-1.03,0-1.54,0c-3.02,0-3.48-0.61-2.93-3.69
			c0.1-0.58,0.41-0.51,0.77-0.51c6.79,0,13.57-0.14,20.35,0.06c3.49,0.1,7.03,0.44,10.31,1.91c3.55,1.59,6.32,3.92,7.45,7.82
			c0.49,1.66,0.64,3.37,0.15,5.02c-0.85,2.89-1.54,5.89-4.19,7.87c-0.37,0.28-0.92,0.13-1.13,0.62c-0.33,0.05-0.58,0.18-0.59,0.56
			c-2.36,1.53-4.96,2.47-7.76,3.15c1.15,0.87,2.52,0.99,3.69,1.59c2.59,1.34,4.03,3.66,5.31,6.14c0.82,1.59,1.75,3.13,2.46,4.76
			c0.88,2.04,2.62,2.43,4.5,2.59c1.07,0.09,2.15,0.02,3.23,0.02c0.23,0,0.62-0.07,0.68,0.03c0.61,1.12,0.15,2.34,0.29,3.51
			c0.05,0.42-0.23,0.48-0.54,0.72c-1.76,1.35-3.76,0.7-5.64,0.77c-2.52,0.09-5.05-0.01-7.57-0.02c0.04-0.74-0.28-1.12-1.04-1.07
			c-0.07-0.06-0.11-0.14-0.1-0.24c-0.07-0.11-0.15-0.21-0.22-0.32c0.23-1.45-0.85-2.57-0.96-3.94
			C169.12,103.69,169.03,103.63,168.84,103.67z M171.04,75.27c-0.05-0.57,0.36-1.19-0.2-1.7c-0.03-0.28-0.05-0.55-0.08-0.83
			c-0.38-1.5-1.16-2.69-2.35-3.72c-1.75-1.52-3.87-1.98-6.03-2.41c-2.56-0.29-5.14-0.02-7.7-0.13c-0.84-0.04-0.85,0.42-0.86,1.06
			c-0.04,5.83-0.08,11.66-0.16,17.49c-0.02,1.03,0.44,1.29,1.35,1.27c2.38-0.05,4.76-0.06,7.15-0.07c0.8,0,1.52-0.22,2.19-0.63
			c0.31,0.06,0.63,0.14,0.86-0.19c1.8-0.65,3.29-1.69,4.24-3.41c0.25-0.05,0.61,0.1,0.66-0.29c0.03-0.21-0.21-0.25-0.39-0.28
			c-0.03-0.09-0.07-0.19-0.1-0.28c0.01-0.09,0.02-0.18,0.03-0.27c0.07-0.06,0.09-0.14,0.06-0.23c0.55-0.66,0.75-1.46,0.84-2.29
			C171.11,77.39,171.17,76.35,171.04,75.27z"/>
		<path d="M305.04,109.22c-0.01-1.31,0.02-2.62-0.03-3.93c-0.04-0.86,0.31-1.16,1.15-1.13c1.31,0.05,2.62,0,3.93,0.02
			c0.79,0.01,1.35-0.24,1.42-1.12c0.76-2.03,0.44-4.12,0.3-6.19c0.13-0.28,0.11-0.55-0.01-0.83c0.03-4.05,0.13-8.1,0.08-12.15
			c-0.07-5.31,0.28-10.61-0.12-15.92c-0.05-0.61-0.08-1.13-0.84-1.17c-1.38-0.55-2.81-0.18-4.21-0.23
			c-1.91-0.07-2.46-0.72-1.89-2.48c0.01-0.04,0.1-0.07,0.09-0.1c-0.23-1.68,0.83-1.8,2.07-1.7c5.97,0.02,11.94,0.06,17.91,0.02
			c1.25-0.01,2.45,0.6,3.71,0.22c2.97,0.6,6.02,0.87,8.67,2.6c1.8,1.17,3.29,2.57,4.24,4.51c0.07,0.09,0.14,0.18,0.21,0.27
			c0,1.05,0.39,2.05,0.38,3.12c-0.02,2.64-0.98,4.89-2.54,6.95c-0.31,0.41-0.7,0.49-1.12,0.61c-1.84,0.21-0.33,1.05-0.3,1.61
			c-2.08,1.29-4.31,2.2-6.73,2.61c-0.27-0.35-0.83-0.45-0.9-0.13c-0.15,0.63,0.51,0.56,0.92,0.66c0.18,0.02,0.36,0.04,0.54,0.07
			c0.1,0.07,0.2,0.14,0.31,0.21c1.67-0.25,3.12,0.72,4.73,0.85c0.08,0,0.16,0.01,0.24,0.01c0.29,0.57,0.84,0.82,1.35,1.12
			c3.23,1.91,4.78,4.7,4.92,8.49c0.17,4.53-1.94,7.59-5.65,9.81c-0.71,0.36-1.61,0.44-1.93,1.35c-0.33,0.21-0.27,0.4,0.03,0.58
			c-0.12,0.18-0.24,0.36-0.36,0.54c-2.31,0.27-4.54,0.99-6.9,0.98c-0.42,0-0.91,0.14-1.36,0.14c-7.35,0.01-14.69,0-22.03-0.01
			C305.22,109.4,305.13,109.31,305.04,109.22z M319.25,67.66c-0.21,0.12-0.19,0.22,0.01,0.33c0,4.52-0.01,9.03,0,13.55
			c0,0.48-0.21,1.04,0.34,1.41c0.07,0.24,0.18,0.26,0.33,0.07c2.88-0.27,5.81,0.2,8.66-0.5c0.5,0.53,0.76,0.37,0.84-0.29
			c0.27-0.17,0.55-0.34,0.82-0.52c1.52,0.04,0.48-0.67,0.33-1.11c2-1.28,3.28-3.04,3.84-5.39c0.99-4.15-2.3-8.54-6.57-8.62
			c-2.47-0.05-4.94-0.01-7.41-0.09C319.51,66.46,319.14,66.76,319.25,67.66z M319.6,104.26c0.08,0.23,0.19,0.27,0.34,0.05
			c2.01-0.02,4.02-0.03,6.03-0.05c1.2-0.01,2.39-0.05,3.57-0.34c3.08-0.77,5.42-2.3,6.22-5.61c0.29-1.21,0.17-2.41,0.13-3.6
			c-0.14-3.86-3.23-6.77-6.64-7.39c-2.91-0.53-5.86-0.09-8.78-0.28c-1.12-0.07-1.31,0.36-1.29,1.36c0.07,4.91,0.07,9.82,0.1,14.73
			C319.28,103.52,319.14,103.98,319.6,104.26z M319.13,66.18c0.03-0.08,0.11-0.17,0.09-0.23c-0.02-0.06-0.14-0.07-0.22-0.11
			c-0.03,0.08-0.11,0.17-0.09,0.23C318.93,66.13,319.05,66.15,319.13,66.18z"/>
		<path d="M370.17,90.47c-2.09-0.02-4.19-0.02-6.28-0.05c-0.54-0.01-0.89,0.06-0.88,0.73c0.04,4.23,0.05,8.47,0.09,12.7
			c0,0.14,0.2,0.28,0.3,0.42c0.09,0.22,0.2,0.26,0.33,0.04c3.97-0.03,7.95-0.12,11.92-0.08c4.7,0.04,6.25-2.31,6.59-6.33
			c0.06-0.77,0.36-1.51,0.3-2.31c-0.04-0.54,0.41-0.66,0.87-0.66c0.89,0,1.78,0.03,2.67-0.01c0.61-0.03,0.63,0.29,0.67,0.77
			c0.31,4.32,0.2,8.65,0.02,12.97c-0.04,0.99-0.56,0.86-1.17,0.86c-6.64,0-13.28,0-19.93,0c-5.52,0-11.04-0.01-16.56-0.02
			c-0.09-0.09-0.18-0.18-0.27-0.27c-0.01-1.35,0.01-2.71-0.02-4.06c-0.02-0.72,0.28-1.01,1-0.99c1.35,0.03,2.71,0,4.06,0.01
			c0.78,0.01,1.37-0.19,1.42-1.1c0.81-1.94,0.44-3.94,0.33-5.93c0.14-0.37,0.11-0.74-0.01-1.11c0.03-4.05,0.13-8.1,0.08-12.15
			c-0.07-5.31,0.29-10.61-0.12-15.92c-0.05-0.6-0.07-1.13-0.84-1.17c-1.5-0.55-3.05-0.11-4.56-0.24c-0.53-0.04-1.14,0.15-1.39-0.57
			c0-0.28,0-0.56,0-0.84c0-0.28,0-0.56,0-0.84c0-0.56,0-1.12,0-1.68c0.59-0.58,1.36-0.1,2.01-0.33c10.95,0,21.9,0,32.85,0
			c1.05,0.36,1.4,1.17,1.4,2.2c0,3.4-0.04,6.81,0.03,10.21c0.02,0.94-0.26,1.23-1.16,1.12c-0.64-0.08-1.3-0.04-1.95-0.06
			c-0.45-0.73-0.91-1.47-1.36-2.2c-0.21-0.94-0.17-1.94-0.6-2.84c-0.47-2.91-2.02-4.09-5.12-4.23c-3.81-0.17-7.64,0.02-11.46,0.06
			c-0.1,0.09-0.19,0.18-0.29,0.27c-0.03,0.27-0.06,0.55-0.09,0.82c-0.21,0.12-0.19,0.22,0.01,0.33c-0.03,5.69-0.05,11.39-0.08,17.08
			c0,0.48,0.04,0.91,0.42,1.24c0.08,0.23,0.19,0.26,0.33,0.06c1.77-0.03,3.56-0.21,5.31-0.06c3.27,0.28,4.46-1.95,4.77-4.58
			c0.02-0.18,0.02-0.37,0.02-0.56c0-1.99,0.56-2.49,2.53-2.26c0.72,0.08,1.07,0.33,1.12,1.19c0.29,5.07,0.11,10.14,0.16,15.2
			c0.01,0.75,0.03,1.44-1.03,1.33c-0.23-0.05-0.47-0.13-0.57,0.2c-1.83,0.06-1.95-0.04-2.28-1.93c0.09-0.9-0.15-1.73-0.54-2.53
			c-0.34-1.29-1.27-1.71-2.49-1.7C370.63,90.39,370.4,90.42,370.17,90.47z"/>
		<path d="M274.42,62.31c1.51-0.24,1.8,0.46,1.72,1.86c-0.13,2.39-0.04,2.4-2.48,2.4c-1.08,0-2.15,0.06-3.22-0.02
			c-1.23-0.09-1.66,0.45-1.66,1.62c0,6.5-0.03,12.99-0.07,19.49c-0.01,2.42-0.09,4.84-0.14,7.26c-0.2,0.45,0.31,0.72,0.3,1.12
			c0.26,3.22,2.84,6.67,6.06,7.6c0.42,0.35,0.85,0.67,1.45,0.5c2.68,0.62,5.32,0.52,7.92-0.42c2.47-0.88,4.32-2.42,5.33-4.88
			c0.07-0.1,0.14-0.2,0.21-0.3c0,0-0.01,0.01-0.01,0.01c0.37-0.05,0.73-0.1,0.28-0.56c0.02-0.28,0.05-0.56,0.07-0.83
			c0.39-0.08,0.65-0.19,0.21-0.57c0.64-9.07,0.19-18.15,0.26-27.22c-0.09-0.82-0.17-1.64-0.26-2.46c-0.01-0.33,0.13-0.76-0.37-0.84
			c-0.34-0.05-0.42,0.24-0.45,0.52c-1.49-0.01-2.98-0.11-4.46,0.01c-1.15,0.09-1.55-0.43-1.51-1.39c0.04-0.87,0.14-1.76,0.4-2.58
			c0.2-0.61,0.92-0.1,1.36-0.32c4.77,0,9.55,0,14.32,0c0.47,0.01,0.93,0.02,1.4,0.03c0.1,0.1,0.2,0.2,0.31,0.3
			c0.57,1.09-0.47,2.28,0.21,3.37c-0.08,0.1-0.15,0.2-0.23,0.3c-1.33,0.55-2.73,0.22-4.09,0.24c-1.5,0.02-2.15,0.36-2.13,2.05
			c0.08,7.76,0.14,15.52-0.02,23.28c-0.05,2.52-0.1,5.1-1.03,7.57c-1.08,2.87-2.88,5.05-5.37,6.75c-0.32,0.41-1.53,0.25-0.83,1.31
			c-0.01,0.17-0.03,0.34-0.04,0.51c-0.02,0.05-0.01,0.1,0.04,0.13c-0.1,0-0.2,0-0.3,0c-0.37-0.16-0.58,0.14-0.84,0.29
			c-1.22,0.38-2.43,0.76-3.65,1.14c-0.62-0.25-1.1,0.33-1.69,0.29c-1.97-0.01-3.93-0.01-5.9-0.02c-0.65-0.11-1.31-0.23-1.96-0.34
			c-1.26-0.69-2.84-0.59-3.96-1.6c0.05-0.18,0.1-0.36,0.15-0.53c0.11-0.35,0.96-0.45,0.45-0.94c-0.32-0.31-0.87-0.79-1.44-0.23
			c-0.35-0.17-0.7-0.34-1.05-0.52c-0.24-0.26-0.53-0.39-0.88-0.41c-0.3-0.64-0.9-0.96-1.41-1.37c-0.74-0.94-1.47-1.88-2.21-2.82
			c-1.46-2.55-1.79-5.29-1.76-8.2c0.09-8.02,0.01-16.04-0.01-24.06c0.02-0.76,0.13-1.55-0.8-1.92c-1.65-0.63-3.37-0.24-5.05-0.29
			c-0.18-0.11-0.35-0.22-0.53-0.33c-0.01-0.96,0.06-1.92-0.05-2.87c-0.12-0.98,0.37-1.14,1.14-1.1
			C262.25,62.31,268.33,62.31,274.42,62.31z"/>
		<path d="M245.84,71.9c-0.09-1.23-0.32-2.42-0.99-3.5c-1.06-1.69-2.74-1.98-4.52-2.12c-1.55-0.13-3.14,0.31-4.67-0.26
			c-0.4-0.15-0.69,0.16-0.91,0.48c-0.2,0.13-0.22,0.26-0.02,0.41c-0.16,11.68-0.09,23.37-0.04,35.05c0.01,2.21,1.08,2.47,2.59,2.49
			c1.54,0.02,3.09,0.03,4.63-0.01c0.6-0.01,0.89,0.14,0.79,0.77c-0.01,0.05,0,0.09,0,0.14c-0.03,1.34,0.42,3.07-0.25,3.92
			c-0.62,0.79-2.45,0.22-3.74,0.22c-6.22,0.02-12.44-0.01-18.66,0.03c-0.95,0.01-1.35-0.17-1.24-1.2c0.1-0.92,0.09-1.87,0-2.8
			c-0.1-1.08,0.44-1.37,1.36-1.36c1.68,0.01,3.37,0.03,5.05,0.02c1.51-0.01,1.9-0.43,1.68-1.91c-0.14-0.91,0.58-1.69,0.31-2.59
			c0.03-3.82,0.08-7.63,0.07-11.45c-0.01-6.01-0.05-12.01-0.07-18.02c0-1.25,0.48-2.89-0.13-3.66c-0.64-0.82-2.35-0.21-3.59-0.26
			c-1.33-0.05-2.67-0.09-3.98,0.27c-0.86,0.24-1.54,0.72-2.08,1.48c-0.89,1.26-1.13,2.77-1.71,4.14c-0.51,1.19-0.23,2.36-0.25,3.54
			c-0.03,1.91-0.16,2.06-2.12,2.08c-0.33,0-0.65,0.03-0.98,0.05c-0.09-0.03-0.19-0.06-0.28-0.1c-0.12-0.51,0.36-1.33-0.69-1.35
			c-0.04-0.37-0.08-0.75-0.12-1.12c0.13-0.75,0.09-1.5-0.02-2.25c0-0.19-0.01-0.37-0.01-0.56c0.01-0.75,0.03-1.5,0.04-2.25
			c0.31-0.17,0.31-0.36,0.02-0.55c0.03-2.16,0.05-4.32,0.08-6.49c0.19-0.19,0.16-0.4,0.05-0.62c0.24-0.34,0.63-0.12,0.93-0.25
			c2.24,0.02,4.47,0.05,6.71,0.04c9.84-0.01,19.67-0.03,29.51-0.04c2.19,0.11,2.18,0.11,2.16,2.35c-0.02,2.38,0.02,4.76-0.01,7.14
			c-0.02,1.76-0.12,3.51-0.18,5.26c-0.01,0.14,0.05,0.36-0.02,0.41c-1.05,0.68-2.21,0.19-3.32,0.3c-0.65,0.07-0.88-0.39-0.87-1
			c0.01-0.79,0.01-1.59,0.01-2.38c-0.01-0.08-0.01-0.16,0-0.24c-0.2-0.56-0.7-1.03-0.54-1.7c0.18-0.02,0.4-0.03,0.42-0.26
			C246.24,71.96,246.02,71.93,245.84,71.9z"/>
		<path d="M97.19,97.44c0.2-3.19-0.44-6.35-0.28-9.54c0.01-6.74,0.03-13.47,0.04-20.21c-0.01-1.78-0.03-3.56-0.04-5.33
			c0-0.28,0-0.56,0-0.84c0.12-0.56,0.08-1.12-0.02-1.68c-0.08-0.37-0.16-0.75-0.24-1.12c-0.27-1.47-0.31-2.98-0.79-4.42
			c-0.18-0.54-0.07-0.96,0.72-0.93c1.54,0.06,3.09,0.04,4.63,0.01c0.67-0.01,1,0.21,1.12,0.91c0.89,5.25,1.38,10.53,1.29,15.87
			c-0.11,6.59-0.01,13.19-0.03,19.78c0,1.44-0.03,2.89-0.2,4.32c-0.28,2.3,0.31,4.53,0.68,6.72c0.35,2.06,2.09,3.37,4.15,4.05
			c2.25,0.75,4.15-0.25,6.09-1.12c0.11-0.07,0.22-0.14,0.33-0.2c1.03-0.79,2.05-1.57,3.08-2.36c0.26,0.52,1.14,0.43,1.15,1.19
			c-1.26,1.41-2.46,2.89-4.09,3.89c-0.77,0.47-0.01,0.97-0.18,1.42c-0.08,0.17-0.16,0.33-0.24,0.5c-1.83,0.76-3.64,1.56-5.55,2.11
			c-0.22,0.06-0.44,0.2-0.65,0.17c-2.76-0.39-5.65-0.36-7.84-2.51c0.05-0.26,0.01-0.59,0.15-0.78c0.73-0.99-0.02-0.89-0.63-0.91
			c-0.59-1.03-1.49-1.88-1.8-3.07c0.47-0.47,0.07-0.52-0.28-0.59c-0.1-0.84-0.2-1.68-0.29-2.52C97.38,99.31,97.28,98.38,97.19,97.44
			z"/>
		<path d="M133.78,106.14c-0.3,0.32-0.35,0.73-0.39,1.13c-0.07,0.19-0.14,0.38-0.21,0.57c-2,3.22-8.75,3.6-10.63,0.74
			c-0.92-1.4-1.18-3.1-1.66-4.67c-0.15-0.5-0.39-1.1-0.28-1.7c0.13-0.09,0.36-0.16,0.37-0.26c0.02-0.29-0.25-0.27-0.45-0.3
			l0.01,0.01c-0.07-0.16-0.17-0.45-0.21-0.45c-1.37,0.3-1.19-0.63-1.16-1.44c0.14-0.74,1.21-0.65,1.3-1.44
			c0.22-6.28,0.14-12.57,0.04-18.86c0.27-2.38,0.14-4.76,0.14-7.14c0-0.82,0.25-1.05,1.04-1.01c1.31,0.06,2.62,0.08,3.93-0.01
			c0.93-0.06,1.14,0.25,1.14,1.15c-0.03,9.68,0,19.35-0.05,29.03c-0.01,1.42,0.5,2.62,1.04,3.83c0.36,0.82,2.27,1.14,3.46,0.66
			c0.54-0.22,1.12-0.43,1.46-0.97c0.56-0.04,0.53-0.45,0.53-0.84c0.53-1.08,0.41-2.36,1.09-3.38c0.31,0,0.62,0,0.92,0
			c0.68,0.55,0.05,1.1-0.07,1.59c-0.29,1.17-0.73,2.31-1.1,3.46C133.84,105.87,133.73,105.94,133.78,106.14z"/>
		<path class="st0" d="M24.64,154.2c-0.54,0.67-0.17,2.06-1.73,1.94c-1.01-0.08-1.93-0.07-2.6-0.99c-0.6-0.82-1.61-0.21-2.34-0.58
			c-0.12-0.47,0.35-0.34,0.48-0.53c0.38-0.51,2.55-0.48,0.55-1.74c0.35-1.58-0.25-2.36-1.83-2.89c-0.43-0.15-0.75-2.06-0.4-2.83
			c0.83-1.79-0.25-2.91-1.21-3.77c-0.85-0.76-0.44-1.25-0.13-1.73c1.13-1.71,0.96-4.73-0.54-6.04c-0.43-0.37-0.33-0.94-0.86-1.33
			c-0.34,0.75-0.13,1.49-0.2,2.2c-0.03,0.26,0.06,0.63-0.32,0.66c-0.32,0.02-0.56-0.31-0.48-0.56c0.45-1.38-0.3-2.77,0.04-4.13
			c0.18-0.7,0.18-1.34,0.02-2.05c-0.24-1.05,0.28-1.44,1.3-1.11c0.48,0.15,0.94,0.25,1.25-0.24c0.26-0.4,0.18-0.82-0.14-1.16
			c-0.8-0.82-0.45-2.02-1.04-2.97c-0.38-0.61,0.28-0.96,0.98-0.72c0.46,0.16,0.94,0.31,1.28-0.14c0.32-0.43-0.1-0.78-0.25-1.15
			c-0.46-1.11-1.19-2.08-2.31-2.45c-0.91-0.29-0.21-1.08-0.79-1.55c-0.65-0.52-1.3-1.23-1.92-1.83c-0.84-0.83-0.5-1.04,0.19-1.45
			c0.25-0.15,0.79-0.22,0.61-0.61c-0.18-0.39-0.56-0.1-0.82,0.09c-0.54,0.4-0.99,0.26-1.51-0.12c-0.95-0.7-2.14-0.3-2.51,0.84
			c-0.15,0.46-0.2,1.04-0.82,0.85c-0.55-0.17,0.07-0.66-0.07-0.95c-0.44-0.92,0.65-2.28-0.84-2.88c0.67-1.09,1.34-2.19,2.01-3.28
			c0.51-0.44,1.01-0.89,1.52-1.33c2.38,3.53,5.26,6.58,8.68,9.12c0.44,0.33,0.86,0.68,1.29,1.02c-0.23,0.61-0.45,1.2-0.6,1.85
			c-1.12,4.98-0.81,10.03-0.8,15.06c0,3.68,0.87,7.2,2.06,10.65C20.95,148.59,22.66,151.47,24.64,154.2z"/>
		<path class="st0" d="M88.51,143.19c-1.17-0.31-2.04-0.78-1.45-2.25c0.11-0.27,0.09-0.7-0.05-0.95c-0.55-0.91-0.81-1.64,0.61-1.92
			c0.42-0.09,0.4-0.51,0.29-0.81c-0.14-0.38-0.17-0.74,0.03-1.07c0.71-1.14-0.08-2.12-0.78-2.5c-1.96-1.06-1.18-2.66-0.94-4.01
			c0.34-1.88,1.04-3.71,1.6-5.55c0.1-0.34,0.17-0.66-0.05-0.93c-1-1.25-1.29-2.82-1.96-4.22c-0.27-0.56-0.42-1.13-0.37-1.75
			c0.02-0.23,0.09-0.6-0.02-0.68c-1.32-0.97-1.11-2.26-0.83-3.59c0.05-0.22-0.02-0.48-0.3-0.56c-0.27-0.08-0.45,0.07-0.56,0.29
			c-0.27,0.54-0.7,1.08-0.75,1.64c-0.13,1.57-1.27,2.55-2.05,3.72c-0.49,0.73-1.24,1.03-2.05,0.44c-0.48-0.35-0.76-0.13-1.08,0.18
			c-0.34,0.33-0.78,0.7-1.22,0.59c-1.48-0.37-1.32,0.49-1.12,1.39c0.07,0.33,0.21,0.63-0.06,0.91c-0.38,0.41-0.65-0.05-0.97-0.12
			c-0.88-0.18-1.84-0.58-2.43,0.57c-0.28,0.53-0.73,0.45-1.02,0.07c-0.72-0.96-1.32-0.7-1.94,0.08c-0.38-0.27-0.46-0.89-1.04-0.94
			c5.63-3.1,10.6-6.98,14.4-12.24c0,0-0.01,0.01-0.01,0.01c0.28-0.19,0.51-0.42,0.57-0.78c0.18-0.3,0.65-0.54,0.2-0.96
			c0.02-0.38,0.04-0.76,0.35-1.04c0.06,0.01,0.11,0.03,0.17,0.05c0.5,0.75,0.25,1.85,1.17,2.4c2.27,4.1,4.05,8.39,5.12,12.96
			c0.25,1.09,0.39,2.2,0.57,3.3c0.01,0.37,0.02,0.75,0.03,1.12c-0.18,1.14-0.04,2.26,0.26,3.37c-0.01,1.03-0.02,2.06-0.02,3.09
			c-0.45,3.11-0.67,6.26-1.72,9.25C88.91,142.26,88.7,142.72,88.51,143.19z"/>
		<path d="M197.26,92.67c-2.61,0-5.23-0.02-7.84,0.02c-0.71,0.01-1.05-0.15-0.93-0.91c0.04-0.27-0.08-0.6,0.02-0.83
			c0.41-0.88-0.95-2.44,0.74-2.68c0.96-0.14,2.01-0.73,3.08-0.15c0.29,0.16,0.73,0.07,1.1,0.07c3.83,0,7.65,0.06,11.48-0.03
			c1.37-0.03,1.38,0.83,1.18,1.59c-0.15,0.56-0.24,1.11-0.15,1.61c0.19,1.1-0.1,1.41-1.26,1.36
			C202.21,92.59,199.73,92.67,197.26,92.67z"/>
		<path class="st0" d="M3.41,116.46c0.77,1.37,1.72,2.62,2.3,4.13c-0.33,0.19-0.75-0.23-1.2-0.15c-0.37,0.07-0.85,0.03-0.94,0.45
			c-0.36,1.67-1.58,3.14-1.24,4.96c0.36,1.97-0.93,3.61-1.06,5.51c-0.08,1.15,0.54,2.4-0.3,3.5c-0.09,0.12,0.13,0.4,0.32,0.3
			c1.67-0.84,0.97,0.66,0.98,1.11c0.02,1.12,0.47,2.6-1.46,2.73c-0.67-1.83-0.56-3.77-0.82-5.66c0-1.2-0.01-2.39-0.01-3.59
			c0.14-1.5,0.27-3,0.41-4.5c0.25-0.25,0.23-0.55,0.2-0.86C1.33,121.67,1.89,118.9,3.41,116.46z"/>
		<path class="st0" d="M82.37,153.89c-0.22-0.4-0.69-0.23-1-0.41c-0.28-0.17-0.73-0.51-0.55-0.7c0.97-0.98,0.58-2.64,1.78-3.48
			c1.05-0.73,1.14-1.62,0.4-2.64c-0.08-0.11-0.01-0.34-0.01-0.49c0.75-0.16,0.59,1.23,1.29,0.72c0.64-0.46,0.29-1.19,0.01-1.79
			c-0.23-0.48-0.48-1.03-0.08-1.44c0.42-0.43,0.72,0.07,1,0.38c0.07,0.08,0.34,0.11,0.35,0.09c0.73-1.52,1.8-0.44,2.73-0.36
			C86.95,147.51,85.03,150.92,82.37,153.89z"/>
		<path class="st0" d="M78.6,159.29c-0.87-0.9-1.78-0.63-2.7-0.1c0.16-0.91,0.83-1.26,1.61-1.53c0.64-0.21,1-0.52,0.64-1.34
			c-0.48-1.08,0.64-2.34,1.85-2.06c0.7,0.16,1.38,0.12,2.07,0.16c-0.41,0.8-0.98,1.48-1.64,2.07c-0.5,0.45-0.76,0.93-0.52,1.6
			c-0.06,0.07-0.1,0.16-0.12,0.24C79.39,158.66,78.99,158.98,78.6,159.29z"/>
		<path class="st0" d="M9.94,156.39c0.6,0.09,0.9-0.31,1.25-0.7c0.56-0.63,1.12-0.75,1.85-0.05c0.59,0.57,0.64,0.87-0.09,1.19
			c-0.88,0.39-0.83,0.85-0.39,1.64c0.36,0.64,0.97,1.3,0.67,2.19c-1.23-0.91-2.67-1.63-2.79-3.46
			C10.41,156.92,10.11,156.66,9.94,156.39z"/>
		<path class="st0" d="M68.6,166.23c0.04-0.46-0.12-0.81-0.57-1.01c-0.29-0.13-0.67-0.31-0.44-0.72c0.22-0.4,0.69-0.31,1.01-0.18
			c0.32,0.13,0.54,0.5,0.85,0.68c0.3,0.17,0.66,0.1,0.89-0.18c0.25-0.31,0.01-0.48-0.22-0.67c-0.3-0.25-0.9-0.64-0.46-0.96
			c0.59-0.44,1.2-1.05,2-1.09c0.34-0.02,0.31,0.41,0.2,0.67c-0.25,0.59-0.14,1.2-0.15,1.8C70.78,165.35,69.74,165.89,68.6,166.23z"
			/>
		<path class="st0" d="M20.26,165.73c0.2-0.39,0.39-0.75,0.94-0.43c1.46,0.85,2.99,1.54,4.68,1.8c1.14,0.18,0.84,1.12,0.88,1.87
			C24.45,168.17,22.34,166.98,20.26,165.73z"/>
		<path class="st0" d="M41.33,171.6c0.52-0.81,1.31-0.97,2.16-0.78c1.06,0.23,2.07,0.22,3.13-0.02c0.67-0.15,1.53-0.4,1.75,0.71
			C46.04,172.04,43.69,171.96,41.33,171.6z"/>
		<path class="st0" d="M15.78,162.92c0.14-1,1.03-0.6,1.56-0.76c0.54-0.16,0.38,0.48,0.44,0.8c0.11,0.58,0.51,0.66,1.01,0.75
			c0.98,0.17,1.53,0.65,0.89,1.7C18.24,164.79,16.93,163.98,15.78,162.92z"/>
		<path class="st0" d="M2.68,145.16c0.86-0.07,1.45,0.23,1.66,1.12c0.04,0.18,0.11,0.43,0.24,0.49c1.53,0.77,1.16,1.84,0.52,2.98
			C4.06,148.34,3.41,146.73,2.68,145.16z"/>
		<path class="st0" d="M1.21,140.39c1.14,0.1,2.14,1.29,1.94,2.31c-0.14,0.69-0.7,0.43-1.12,0.5C1.64,142.29,1.3,141.38,1.21,140.39
			z"/>
		<path class="st2" d="M119.16,99.78c-0.03,0.81-0.21,1.74,1.16,1.44c0.04-0.01,0.14,0.29,0.21,0.45c-0.42-0.03-0.71,0.16-0.89,0.52
			c-0.26,0.11-0.52,0.22-0.77,0.33c-0.01-0.76-0.89-0.67-1.15-1.19C118.42,101.02,118.06,99.73,119.16,99.78z"/>
		<path class="st0" d="M31.98,170.18c0.25-0.09,0.55-0.13,0.75-0.3c0.43-0.35,0.83-0.77,1.45-0.49c0.71,0.32,0.76,0.96,0.73,1.63
			C33.81,171.17,32.94,170.52,31.98,170.18z"/>
		<path class="st0" d="M27.81,169.06c1.34-1.07,2.67-0.67,3.11,0.94C29.83,169.87,28.74,169.75,27.81,169.06z"/>
		<path class="st0" d="M4.82,113.71c1.01,0.14,1.08,0.87,0.73,1.52c-0.36,0.67-1.03,0.65-1.6,0.09
			C4.05,114.68,4.42,114.19,4.82,113.71z"/>
		<path class="st0" d="M64.41,168.2c-0.29,0.18-0.58,0.36-0.87,0.55c-0.28,0.02-0.56,0.05-0.84,0.07c-0.05-0.63,0.68-1.04,0.41-1.8
			c-0.13-0.37,0.41-0.54,0.8-0.5c0.43,0.05,0.5,0.34,0.37,0.7C64.14,167.58,64,167.93,64.41,168.2z"/>
		<path class="st0" d="M5.31,150.25c0.27-0.01,0.55-0.05,0.82-0.03c0.51,0.04,1.33-0.22,1.36,0.5c0.04,0.87-0.87,0.52-1.38,0.66
			C5.75,151.07,5.43,150.73,5.31,150.25z"/>
		<path class="st0" d="M73.13,163.54c-0.07-0.63,0.46-1.23,0.08-1.89c-0.14-0.25-0.14-0.56,0.2-0.69c0.16-0.06,0.38-0.05,0.53,0.02
			c0.3,0.15,0.27,0.45,0.22,0.73c-0.07,0.41-0.14,0.81-0.21,1.22C73.77,163.25,73.46,163.41,73.13,163.54z"/>
		<path class="st2" d="M268.78,106.19c0.58-0.56,1.12-0.08,1.44,0.23c0.51,0.49-0.34,0.59-0.45,0.94c-0.05,0.18-0.1,0.36-0.15,0.53
			c-0.09-0.01-0.17,0-0.26,0.03c-0.27-0.14-0.33-0.38-0.27-0.66c0.16-0.03,0.31-0.06,0.21-0.28c0,0,0,0,0,0
			C269.12,106.72,268.95,106.46,268.78,106.19z"/>
		<path class="st2" d="M380.51,74.14c0.03-0.19,0.06-0.37,0.09-0.56c0.45,0.73,0.91,1.47,1.36,2.2
			C380.55,76.06,380.52,75.11,380.51,74.14z"/>
		<path class="st0" d="M60.17,169.53c0.21-1.7,1.21-1.06,2.11-0.72C61.68,169.35,61.01,169.68,60.17,169.53z"/>
		<path class="st0" d="M55.96,170.94c0.02-0.54-0.1-1.17,0.65-1.32c0.44-0.09,0.95-0.17,1.04,0.52
			C57.08,170.41,56.52,170.68,55.96,170.94z"/>
		<path class="st2" d="M338.15,82.22c-0.03-0.56-1.54-1.4,0.3-1.61C338.52,81.17,339.2,81.86,338.15,82.22z"/>
		<path class="st2" d="M211.39,76.39c1.06,0.03,0.58,0.84,0.69,1.35c-0.36,0.17-0.56-0.14-0.83-0.27c0.06-0.21-0.42-0.31-0.12-0.57
			C211.22,76.73,211.3,76.56,211.39,76.39z"/>
		<path class="st2" d="M99.85,106.42c0.61,0.02,1.36-0.08,0.63,0.91c-0.14,0.19-0.11,0.52-0.15,0.78
			C99.25,107.8,100.35,106.89,99.85,106.42z"/>
		<path class="st0" d="M7.94,153.86c1.22-0.18,1.18,0.61,1.1,1.43C8.51,154.95,8.2,154.42,7.94,153.86z"/>
		<path class="st0" d="M39.07,171.35c0.73-0.6,1.4-0.6,2,0.17C40.4,171.5,39.71,171.72,39.07,171.35z"/>
		<path class="st0" d="M13.22,160.65c1.01-0.23,1.3,0.24,1.14,1.16C13.86,161.55,13.38,161.26,13.22,160.65z"/>
		<path class="st0" d="M9.03,155.29c0.43,0.05,1-0.26,1.27,0.22c0.2,0.36-0.26,0.51-0.52,0.67C9.4,156,9.2,155.65,9.03,155.29z"/>
		<path class="st2" d="M170.32,108.39c0.76-0.04,1.08,0.34,1.04,1.07C170.35,109.75,170.55,108.86,170.32,108.39z"/>
		<path class="st2" d="M331.44,85.36c-0.41-0.1-1.08-0.03-0.92-0.66c0.08-0.31,0.63-0.22,0.9,0.13
			C331.43,85.01,331.44,85.18,331.44,85.36z"/>
		<path class="st2" d="M290.4,66.91c-0.27-0.03-0.54-0.06-0.81-0.1c-0.01-0.08-0.02-0.15-0.02-0.23c0.04-0.27,0.11-0.57,0.45-0.52
			C290.53,66.15,290.38,66.58,290.4,66.91z"/>
		<path class="st0" d="M37.69,171.01c0.46-0.49,0.73-0.37,0.86,0.25C38.23,171.28,37.9,171.36,37.69,171.01z"/>
		<path class="st3" d="M335.94,107.26c0.26,0.1,0.52,0.2,0.78,0.3c-0.08,0.11-0.16,0.21-0.25,0.32c-0.17-0.01-0.34-0.02-0.5-0.03
			C335.68,107.66,335.61,107.47,335.94,107.26z"/>
		<path class="st2" d="M154.54,104.12c-0.54,0.27-0.55,0.27-0.55-0.58C154.17,103.74,154.35,103.93,154.54,104.12z"/>
		<path class="st2" d="M133.18,104.18c0,0.39,0.03,0.8-0.53,0.84C132.55,104.57,132.83,104.35,133.18,104.18z"/>
		<path class="st2" d="M97.76,102.76c0.36,0.07,0.76,0.12,0.28,0.59C97.9,103.18,97.37,103.19,97.76,102.76z"/>
		<path class="st2" d="M245.84,71.9c0.18,0.03,0.4,0.06,0.38,0.3c-0.02,0.23-0.24,0.24-0.42,0.26
			C245.28,72.23,245.96,72.09,245.84,71.9z"/>
		<path class="st0" d="M6.5,151.9c0.58,0,0.61,0.4,0.61,0.83C6.76,152.55,6.57,152.27,6.5,151.9z"/>
		<path class="st2" d="M120.5,101.93c0.01-0.09,0.01-0.18,0.02-0.27c0.2,0.02,0.47,0.01,0.45,0.3c-0.01,0.09-0.24,0.17-0.37,0.26
			C120.57,102.12,120.54,102.03,120.5,101.93z"/>
		<path class="st0" d="M58.5,169.89c0.03-0.2,0-0.48,0.29-0.46c0.09,0.01,0.17,0.24,0.26,0.37
			C58.86,169.84,58.68,169.86,58.5,169.89z"/>
		<path class="st4" d="M211.3,69.66c0.29,0.2,0.29,0.38-0.02,0.55c-0.22-0.02-0.35-0.14-0.29-0.35
			C211.02,69.77,211.19,69.72,211.3,69.66z"/>
		<path class="st0" d="M67.47,166.76c0.06-0.36,0.14-0.7,0.57-0.26C67.9,166.71,67.7,166.77,67.47,166.76z"/>
		<path class="st2" d="M290.12,97.99c0.45,0.46,0.09,0.51-0.28,0.56C289.89,98.35,289.77,98.05,290.12,97.99z"/>
		<path class="st2" d="M290.4,96.59c0.45,0.38,0.18,0.5-0.21,0.57C290.14,96.93,290.07,96.69,290.4,96.59z"/>
		<path class="st4" d="M211.43,62.55c0.11,0.22,0.14,0.43-0.05,0.62c-0.18,0.01-0.36,0.03-0.38-0.23
			C210.99,62.65,211.21,62.6,211.43,62.55z"/>
		<path class="st2" d="M301.39,62.64c-0.1-0.1-0.2-0.2-0.31-0.3c0.09-0.25,0.28-0.36,0.47-0.17
			C301.75,62.36,301.63,62.55,301.39,62.64z"/>
		<path class="st2" d="M135.19,100.79c-0.31,0-0.62,0-0.92,0C134.57,100.42,134.88,100.37,135.19,100.79z"/>
		<path class="st2" d="M133.18,107.84c0.07-0.19,0.14-0.38,0.21-0.57C133.47,107.52,133.46,107.73,133.18,107.84z"/>
		<path class="st2" d="M114.36,108.33c0.08-0.17,0.16-0.33,0.24-0.5C114.6,108.04,114.78,108.32,114.36,108.33z"/>
		<path class="st5" d="M363.73,86.37c-0.15,0.2-0.26,0.17-0.33-0.06C363.51,86.33,363.62,86.35,363.73,86.37z"/>
		<path class="st2" d="M332.29,85.64c-0.1-0.07-0.2-0.14-0.31-0.21C332.18,85.36,332.24,85.49,332.29,85.64z"/>
		<path class="st2" d="M83.22,50.55c-0.09-0.14-0.17-0.28-0.26-0.41C83.04,50.28,83.13,50.42,83.22,50.55z"/>
		<path class="st6" d="M153.78,91.59c0-0.12,0-0.24,0-0.36C153.99,91.35,153.99,91.47,153.78,91.59z"/>
		<path class="st2" d="M114.64,103.7c-0.11,0.07-0.22,0.14-0.33,0.2C114.37,103.76,114.42,103.59,114.64,103.7z"/>
		<path class="st2" d="M4.29,60.65c-0.07,0.1-0.14,0.19-0.2,0.29C4,60.74,4.13,60.69,4.29,60.65z"/>
		<path class="st2" d="M246.34,74.16c0,0.08,0,0.16,0,0.24c-0.07-0.02-0.13-0.05-0.2-0.07C246.21,74.27,246.27,74.21,246.34,74.16z"
			/>
		<path class="st2" d="M289.85,98.54c-0.07,0.1-0.14,0.2-0.21,0.3C289.57,98.64,289.69,98.58,289.85,98.54z"/>
		<path class="st5" d="M363.74,104.3c-0.14,0.23-0.25,0.18-0.33-0.04C363.51,104.28,363.62,104.29,363.74,104.3z"/>
		<path class="st2" d="M301.38,66.3c0.08-0.1,0.15-0.2,0.23-0.3C301.66,66.21,301.54,66.27,301.38,66.3z"/>
		<path class="st2" d="M341.74,69.93c-0.07-0.09-0.14-0.18-0.21-0.27C341.7,69.67,341.82,69.72,341.74,69.93z"/>
		<path class="st2" d="M170.01,107.83c0.07,0.11,0.15,0.21,0.22,0.32C170.06,108.1,169.95,108.03,170.01,107.83z"/>
		<path class="st6" d="M234.72,66.91c-0.2-0.15-0.18-0.28,0.02-0.41C234.74,66.64,234.73,66.78,234.72,66.91z"/>
		<path class="st5" d="M363.14,66.84c0.1-0.09,0.19-0.18,0.29-0.27C363.43,66.76,363.34,66.86,363.14,66.84z"/>
		<path class="st5" d="M363.07,67.99c-0.2-0.1-0.22-0.21-0.01-0.33C363.06,67.77,363.06,67.88,363.07,67.99z"/>
		<path class="st2" d="M337.26,86.49c-0.08,0-0.16,0-0.24-0.01c0.07-0.07,0.14-0.14,0.2-0.21
			C337.23,86.35,337.25,86.42,337.26,86.49z"/>
		<path class="st1" d="M21.43,100.31c-0.68-1.16-1.11-2.41-1.52-3.68c1.22-0.07,2.14-0.79,3.05-1.46c1.99-1.46,2.07-1.88,0.94-3.38
			c0.3-0.38,0.62-0.72,1.1-0.85c0.73,0,0.44,1.5,1.33,1.02c1.09-0.59-0.32-1.24-0.13-1.9c0.01-0.04,0-0.09,0-0.14
			c1.27-1.02,2.39-2.24,3.91-2.92c0.04,0.46,0.32,0.74,0.74,0.55c0.71-0.3-0.06-0.79,0.07-1.19c-0.02-0.6-0.55-0.83-0.88-1.19
			c-1.37-1.51-3.76-2.14-3.99-4.66c-0.02-0.2-0.41-0.35-0.61-0.54c-1.82-1.65-3.63-3.3-5.44-4.96c-0.16-0.44,0.53-1.02-0.05-1.28
			c-0.36-0.16-0.46,0.42-0.53,0.77c-0.18-0.2-0.37-0.39-0.55-0.59c-0.1-0.11-0.21-0.22-0.31-0.34c-0.09-0.02-0.18-0.05-0.25-0.11
			c-0.08-0.06-0.15-0.12-0.23-0.18c-0.13-0.02-0.25-0.03-0.38-0.05c0-0.26,0.01-0.52,0.01-0.79c0.04-0.1,0.07-0.19,0.11-0.29
			c0.64,0.05,1.41-0.04,1.49-0.71c0.12-0.99-0.37-2.17,1.2-2.44c0.06-0.01,0.07-0.43,0.07-0.66c0.01-0.37-0.04-0.78,0.27-1.05
			c0.69-0.59,0.55-1.1,0.09-1.8c-0.56-0.86-0.71-1.73,0.64-2.17c0.57-0.19,0.91-0.78,0.58-1.37c-0.46-0.82-0.47-1.88-1.32-2.48
			c-0.03-0.09-0.01-0.17,0.07-0.22c0.17,0.06,0.37,0.08,0.52,0.18c0.64,0.41,1.53,0.87,2.02,0.44c0.76-0.66-0.52-0.96-0.65-1.54
			c-0.01-0.04-0.04-0.08-0.06-0.13c-0.17-0.35-0.35-0.76-0.01-1.03c0.26-0.22,0.69-0.38,1.02-0.33c0.5,0.07,0.42,0.48,0.31,0.88
			c-0.08,0.31,0.12,0.57,0.45,0.57c0.41,0,0.59-0.32,0.52-0.67c-0.06-0.31-0.23-0.61-0.39-0.89c-0.61-1.09-0.95-2.29-1.28-3.48
			c0.16-0.26,0.32-0.53,0.48-0.79c0.17,0.65,1.03,0.82,1.07,1.57c0.01,0.11,0.25,0.29,0.4,0.31c0.32,0.03,0.31-0.28,0.38-0.49
			c0.47-1.41-0.76-1.49-1.53-1.93c0.06-0.11,0.11-0.21,0.17-0.32c0.45,0.21,1.11-0.53,1.4,0.28c0.3,0.83,0.85,0.37,1.33,0.34
			c0.51,0.36,0.94,0.78,1.19,1.37c-0.38,1.2,0,1.77,1.35,2.01c0.02,0.08,0.02,0.16,0,0.24c-0.1,0.63-2.06,0.71-0.54,1.86
			c0.26,0.2-0.08,0.39-0.3,0.42c-0.47,0.07-0.63,0.34-0.55,0.78c0.11,0.6,0.7,0.7,1.09,1c0.4,0.31,0.51-0.17,0.73-0.37
			c0.57-0.52,0.93-1.31,1.82-1.41c0.27,0.2,0.53,0.41,0.8,0.61c0.15,0.82-0.95,1.57-0.44,2.23c0.78,1.02,0.99,2.38,2.18,3.17
			c0.89,0.6,1.25,0.53,1.35-0.49c0.08-0.79,0.34-0.69,0.87-0.35c0.75,0.48,1.59,0.78,2.5,0.74c0.1,0.09,0.19,0.18,0.29,0.27
			c-1.24,2.33,0,3.85,1.7,5.23c0.35,0.28,0.67,0.53,1.11,0.21c0.26-0.19,0.57-0.43,0.51-0.78c-0.12-0.67-0.58-0.14-0.88-0.2
			c-0.58-0.11-0.53-0.46-0.26-0.8c0.28-0.35,0.83-0.45,0.98-0.95c0.61,0.32,1.19,0.67,1.63,1.22c-0.57,0.8,0.46,1.3,0.39,1.94
			c-0.17,1.63,1.02,2.49,1.88,3.5c0.43,0.51,1.06,0.62,1.72,0.03c0.88-0.8,1.81-0.47,2.37,0.41c0.42,0.66,0.59,0.73,1.05,0.12
			c2.16-2.87,5.06-4.98,7.61-7.44c1.2-1.16,2.52-2.09,3.33-3.73c0.69-1.38,1.17-2.34-0.1-3.48c0.09-0.1,0.18-0.21,0.27-0.31
			c0.21,0.08,0.48,0.1,0.64,0.24c0.85,0.75,1.44,0.59,2.15-0.3c0.77-0.96,0.85-2.14,1.27-3.18c0.51-1.29,1.62-0.61,2.33-1.08
			c0.09-0.06,0.69,0.37,0.33,0.83c-0.5,0.63-0.6,1.35-0.54,2.11c0.03,0.43-0.58,0.94-0.02,1.26c0.57,0.32,0.74-0.34,1.03-0.67
			c0.1-0.11,0.31-0.13,0.48-0.19c0.04,0.17,0.17,0.43,0.12,0.48c-0.61,0.56-0.24,1.51-0.78,2.03c-0.8,0.77-0.4,1.64,0.1,2.08
			c0.7,0.61,1.2,1.37,1.86,1.99c-0.34,0.24-0.68,0.49-1.02,0.73c-0.56-1.39-1.32-1.69-2.53-0.94c-0.66,0.41-1.25,0.92-1.91,1.33
			c-0.28,0.17-0.65,0.24-0.59,0.65c0.06,0.37,0.24,0.75,0.69,0.75c0.64-0.01,0.96,0.24,0.91,0.9c-0.01,0.07-0.02,0.15-0.03,0.22
			c-0.46,0.29-0.93,0.58-1.39,0.87c-0.04-1.84-0.04-1.84-1.67-0.94c-0.11,0.06-0.27,0.05-0.4,0.09c-1.15,0.35-2.55,0.36-2.58,2.13
			c-0.01,0.37-0.45,0.29-0.8,0.23c-1.16-0.18-2,0.61-2.58,1.35c-0.38,0.48-0.57,0.81-1.2,0.8c-1.05-0.02-1.56,0.87-1.9,1.56
			c-0.4,0.79,0.76,0.51,1.05,0.92c0.13,0.18,0.18,0.41,0.26,0.62c-0.1,0.08-0.2,0.17-0.3,0.26c-0.29,0.06-0.67,0.06-0.35,0.53
			c0.03,0.1,0.06,0.2,0.1,0.29c-0.07,0.12-0.13,0.26-0.22,0.35c-0.52,0.52-1.05,1.2-0.38,1.78c0.49,0.43,1.34,1.25,2.06,0.03
			c0.09-0.16,0.51-0.12,0.78-0.17c0.19,0.18,0.38,0.36,0.56,0.54c0.06,0.88,0.18,1.71,1.35,1.71c0.02,0.18,0.05,0.37,0.07,0.55
			c-0.39,0.34-0.47,0.78-0.04,1.05c1.05,0.67,0.53,0.96-0.24,1.19c-0.33,0.1-0.85-0.06-0.79,0.51c0.05,0.55,0.5,0.89,0.96,1.1
			c0.48,0.21,0.79-0.09,0.92-0.56c0.22-0.8,0.58-0.72,1.21-0.34c0.73,0.44,1.37,1.34,2.43,0.74c-0.82,2.17-0.6,3.19,1.05,4.72
			c0.37,0.34,1.05,0.71,1.35,0.35c0.68-0.81,1.64-0.53,2.41-0.9c0.09,0.09,0.19,0.17,0.28,0.26c-0.44,1.71-0.25,1.93,1.51,1.71
			c0.14-0.02,0.28,0,0.42,0.01l0.03,0.02c0.3,0.7-0.67,1.54,0.2,2.14c0.42,0.29,0.68,0.59,0.66,1.1c-0.02,0.58,0.36,0.66,0.82,0.65
			c-0.27,0.77-0.55,1.55-0.82,2.32c-0.18-0.03-0.43-0.09-0.46,0.14c-0.03,0.23,0.21,0.25,0.4,0.26c-0.4,0.99-0.7,2.02-1.35,2.89
			c-0.57-0.43-1.26-0.49-1.52,0.17c-0.25,0.63,0.58,0.68,0.97,0.96c-0.31,0.97-0.87,1.79-1.54,2.55c-0.07,0.05-0.12,0.11-0.16,0.19
			c-0.14,0.22-0.28,0.45-0.43,0.67c-1.13-0.26-0.94-1.01-0.73-1.83c0.09-0.36,0.26-0.96-0.2-1.11c-0.52-0.17-0.73,0.41-0.95,0.81
			c-0.22,0.39-0.27,0.79-0.09,1.2c0.23,0.53,0.3,1.15,0.1,1.63c-0.4,0.96-0.01,1.7,0.39,2.48c-1.31,1.65-2.78,3.12-4.54,4.29
			c-0.63-0.35-0.52-1.69-1.72-1.26c-0.09-0.1-0.18-0.2-0.27-0.29c0.1-0.69-0.19-0.98-0.88-0.88c-1.34-1.45-3.39-2.36-3.61-4.69
			c-0.03-0.34-0.24-0.72-0.63-0.86c-1.07-0.36-1.73-1.23-2.46-2.01c-0.02-1.22-0.05-1.25-0.87-0.8c-0.98-0.49-1.65-1.37-2.47-2.05
			c-3.4-2.77-6.76-5.59-10.13-8.39c0.11-1.08-0.57-1.2-1.39-1.15c-0.57-0.36-1.03-0.19-1.65,0.07c-1.08,0.46-1.4,1.61-2.33,2.16
			c-0.44,0.01-0.82,0.08-0.76,0.66c-0.24,0.45-0.64,0.54-1.1,0.5c-0.4-0.06-0.84,0.07-1.17-0.3c-0.38-0.43-0.82-0.28-1.06,0.1
			c-0.99,1.58-2.77,2.45-3.63,4.13c-0.17,0.32-0.58,0.72-0.19,0.95c0.66,0.38,0.5,1.17,0.99,1.59c-0.45,0.66-0.9,1.32-1.34,1.98
			c-0.37,0.03-0.89-0.03-0.32,0.55c-0.02,0.09-0.05,0.17-0.11,0.25c-0.45,0-0.91,0-1.36,0c-0.09-0.1-0.19-0.2-0.28-0.3
			c-0.11-0.08-0.22-0.16-0.32-0.24c0,0,0.02,0.02,0.02,0.02c-0.07-0.11-0.13-0.21-0.2-0.32c-0.11-0.1-0.21-0.2-0.32-0.29
			c-0.13-0.38-0.25-0.76-0.38-1.14c0.06,0.01,0.12,0.02,0.17,0.04c0.02-0.03,0.08-0.07,0.07-0.1c-0.02-0.07-0.07-0.13-0.1-0.19
			c-0.14-0.19-0.28-0.38-0.42-0.58C21.69,100.33,21.61,100.28,21.43,100.31z M28.68,90.4c0.63-0.2,0.79-0.94,1.28-1.35
			c0.13-0.11-0.25-0.29-0.49-0.3c-0.93-0.05-0.81,0.87-1.18,1.32C28.16,90.22,28.43,90.36,28.68,90.4z M57.09,106.11
			c0.43,0,0.55-0.27,0.55-0.64c0-0.34-0.05-0.67-0.48-0.7c-0.51-0.04-0.62,0.28-0.62,0.7C56.54,105.85,56.66,106.11,57.09,106.11z
			 M22.74,98.78c0.23-0.02,0.31-0.19,0.31-0.38c0-0.21-0.15-0.35-0.35-0.34c-0.27,0.01-0.42,0.16-0.36,0.45
			C22.37,98.73,22.53,98.79,22.74,98.78z M67.98,92.18c-0.03-0.22-0.19-0.3-0.38-0.3c-0.23,0-0.35,0.16-0.27,0.35
			c0.06,0.14,0.23,0.29,0.38,0.31C67.94,92.59,67.97,92.37,67.98,92.18z M71.29,96.28c0.2-0.03,0.34-0.15,0.35-0.35
			c0.01-0.2-0.11-0.38-0.32-0.33c-0.15,0.04-0.32,0.21-0.36,0.36C70.91,96.15,71.08,96.26,71.29,96.28z M61.32,110.58
			c0.09-0.16,0.2-0.26,0.2-0.37c0.01-0.19-0.11-0.34-0.32-0.27c-0.08,0.03-0.14,0.22-0.13,0.33
			C61.09,110.37,61.21,110.45,61.32,110.58z M68.21,57.1c-0.03-0.08-0.04-0.2-0.1-0.23c-0.06-0.02-0.15,0.05-0.23,0.08
			c0.03,0.08,0.04,0.2,0.1,0.23C68.03,57.2,68.13,57.13,68.21,57.1z M68.48,100.45c-0.08-0.03-0.16-0.07-0.23-0.1
			c-0.03,0.08-0.11,0.17-0.09,0.23c0.02,0.06,0.14,0.07,0.22,0.11C68.41,100.61,68.44,100.53,68.48,100.45z"/>
		<path class="st0" d="M62.69,59.26c2.11-1.99,2.44-5.02,4.19-7.22c0.28-0.35,0.31-0.91,0.89-0.97c1.05,1.54,1.8,3.15,2.45,4.96
			c0.85,2.4,1.86,4.81,2.86,7.2c0.04,0.09,0.07,0.17,0.11,0.26c0.08,0.36-0.24,0.54-0.37,0.8c-0.4,0.18-0.66,0.63-1.16,0.6
			c-0.66-0.62-1.17-1.38-1.86-1.99c-0.5-0.44-0.91-1.31-0.1-2.08c0.55-0.53,0.18-1.47,0.78-2.03c0.06-0.05-0.07-0.32-0.12-0.48
			c-0.16,0.06-0.37,0.08-0.48,0.19c-0.29,0.33-0.46,0.99-1.03,0.67c-0.56-0.32,0.05-0.83,0.02-1.26c-0.05-0.76,0.04-1.48,0.54-2.11
			c0.36-0.45-0.24-0.89-0.33-0.83c-0.71,0.47-1.82-0.21-2.33,1.08c-0.42,1.05-0.5,2.23-1.27,3.18c-0.71,0.89-1.3,1.05-2.15,0.3
			C63.17,59.37,62.91,59.34,62.69,59.26z"/>
		<path class="st0" d="M20.83,59.49c0.85,0.6,0.87,1.66,1.32,2.48c0.33,0.58-0.01,1.18-0.58,1.37c-1.34,0.44-1.2,1.31-0.64,2.17
			c0.46,0.7,0.59,1.21-0.09,1.8c-0.31,0.27-0.26,0.68-0.27,1.05c-0.01,0.23-0.01,0.65-0.07,0.66c-1.57,0.28-1.07,1.45-1.2,2.44
			c-0.08,0.67-0.85,0.76-1.49,0.71c0.1-3.22,0.89-6.32,1.69-9.41c0.15-0.42,0.3-0.84,0.45-1.25C20.25,60.84,20.54,60.16,20.83,59.49
			z"/>
		<path class="st0" d="M23.35,53.28c0.33,1.2,0.67,2.39,1.28,3.48c0.16,0.28,0.33,0.58,0.39,0.89c0.06,0.35-0.11,0.67-0.52,0.67
			c-0.32,0-0.53-0.26-0.45-0.57c0.11-0.4,0.19-0.82-0.31-0.88c-0.33-0.04-0.76,0.12-1.02,0.33c-0.33,0.27-0.15,0.68,0.01,1.03
			c0.02,0.04,0.05,0.08,0.06,0.13c0.12,0.58,1.41,0.88,0.65,1.54c-0.49,0.43-1.39-0.04-2.02-0.44c-0.15-0.1-0.35-0.12-0.52-0.18
			c0.35-0.84,0.71-1.69,1.06-2.53c0.57-0.57,0.2-1.3,0.33-1.95c0.26-0.08,0.28-0.29,0.28-0.51c0.07-0.11,0.14-0.22,0.2-0.33
			C22.96,53.72,23.16,53.5,23.35,53.28z"/>
		<path class="st0" d="M19.42,95.22c1.31-0.56,2.26-1.57,3.24-2.56c0.35-0.36,0.7-0.75,1.23-0.87c1.14,1.5,1.05,1.91-0.94,3.38
			c-0.91,0.67-1.83,1.4-3.05,1.46C19.74,96.16,19.58,95.69,19.42,95.22z"/>
		<path class="st0" d="M66.4,109.07c-0.4-0.78-0.79-1.53-0.39-2.48c0.2-0.48,0.12-1.09-0.1-1.63c-0.18-0.41-0.12-0.81,0.09-1.2
			c0.22-0.39,0.43-0.97,0.95-0.81c0.46,0.15,0.29,0.75,0.2,1.11c-0.21,0.82-0.4,1.57,0.73,1.83c-0.06,0.38-0.56,0.61-0.35,1.08
			c0.16,0.53-0.12,0.96-0.3,1.41C66.94,108.62,66.67,108.85,66.4,109.07z"/>
		<path class="st0" d="M72.79,95.76c-0.45,0.01-0.84-0.07-0.82-0.65c0.02-0.52-0.24-0.81-0.66-1.1c-0.87-0.61,0.1-1.45-0.2-2.14
			c0.83,0.32,1.11,1.52,2.23,1.37c0.38,0.7-0.45,1.27-0.21,1.95C73.02,95.38,72.9,95.57,72.79,95.76z"/>
		<path class="st0" d="M24.15,51.94c0.77,0.44,1.99,0.52,1.53,1.93c-0.07,0.21-0.06,0.52-0.38,0.49c-0.15-0.01-0.39-0.19-0.4-0.31
			c-0.04-0.75-0.91-0.92-1.07-1.57C23.94,52.3,24.04,52.12,24.15,51.94z"/>
		<path class="st0" d="M25.34,50.23c0.57,0.67,1.15,1.34,1.72,2.01c-0.48,0.03-1.04,0.49-1.33-0.34c-0.29-0.81-0.96-0.07-1.4-0.28
			c0.16-0.33,0.33-0.67,0.49-1c0.09-0.11,0.18-0.23,0.26-0.34C25.16,50.26,25.25,50.25,25.34,50.23z"/>
		<path class="st0" d="M70,102.49c-0.38-0.28-1.22-0.33-0.97-0.96c0.27-0.66,0.95-0.61,1.52-0.17C70.49,101.8,70.3,102.18,70,102.49
			z"/>
		<path class="st2" d="M22.28,54.78c-0.13,0.65,0.25,1.38-0.33,1.95C20.89,55.92,20.97,55.41,22.28,54.78z"/>
		<path class="st0" d="M61.04,113.73c-0.1-0.66-0.69-1.03-0.91-1.62c1.2-0.43,1.09,0.91,1.72,1.26
			C61.64,113.62,61.38,113.76,61.04,113.73z"/>
		<path class="st0" d="M24.74,103.62c-0.19,0.57-0.38,1.13-0.58,1.7c-0.07,0.01-0.14,0-0.21-0.02c-0.03-0.48-0.4-0.77-0.66-1.13
			c0.03-0.18,0.05-0.37,0.08-0.55C23.84,103.62,24.29,103.62,24.74,103.62z"/>
		<path class="st2" d="M17.7,73.25c-0.4,0.32-0.1,0.79-0.24,1.17c-1.08-0.8-0.7-1.41,0.24-1.96C17.71,72.73,17.71,72.99,17.7,73.25z
			"/>
		<path class="st2" d="M73.34,93.23c0.05-0.21-0.06-0.5,0.28-0.57c0.59,0.99,0.1,1.76-0.48,2.53C72.9,94.5,73.72,93.93,73.34,93.23z
			"/>
		<path class="st2" d="M67.22,108.4c0.18-0.45,0.46-0.89,0.3-1.41c0.36,0.02,0.82-0.02,0.73,0.55
			C68.17,108.09,67.85,108.46,67.22,108.4z"/>
		<path class="st2" d="M73.38,64.6c-0.19-0.11-0.37-0.21-0.56-0.32c0.13-0.26,0.46-0.44,0.37-0.8
			C73.76,63.77,74.54,64.02,73.38,64.6z"/>
		<path class="st2" d="M18.41,41.32c0.36-0.41,0.8-0.71,1.3-0.93C19.87,41.53,19.01,41.25,18.41,41.32z"/>
		<path class="st2" d="M21.9,101.34c0.13,0.38,0.25,0.76,0.38,1.14C21.62,102.28,20.88,102.11,21.9,101.34z"/>
		<path class="st2" d="M19.96,61.51c-0.15,0.42-0.3,0.84-0.45,1.25C19.32,62.22,18.73,61.54,19.96,61.51z"/>
		<path class="st2" d="M83.16,107.28c0.44,0.43-0.02,0.67-0.2,0.96C82.93,107.9,82.83,107.54,83.16,107.28z"/>
		<path class="st2" d="M24.8,107.52c0.38,0.17,0.4,0.55,0.53,0.87C24.6,108.44,24.44,108.14,24.8,107.52z"/>
		<path class="st2" d="M23.38,103.62c-0.03,0.18-0.05,0.37-0.08,0.55c-0.32-0.18-0.49-0.45-0.48-0.83c0.09-0.01,0.19-0.02,0.28-0.02
			C23.2,103.42,23.29,103.52,23.38,103.62z"/>
		<path class="st2" d="M6.82,54.49c0.06-0.37,0.25-0.66,0.54-0.89C7.38,54.02,7.42,54.45,6.82,54.49z"/>
		<path class="st2" d="M23.96,105.29c0.07,0.02,0.14,0.03,0.21,0.02c0.03,0.18,0.06,0.36,0.09,0.54
			C23.89,105.8,23.52,105.76,23.96,105.29z"/>
		<path class="st2" d="M71.9,98.47c-0.19-0.01-0.43-0.03-0.4-0.26c0.03-0.22,0.28-0.17,0.46-0.14
			C71.94,98.21,71.92,98.34,71.9,98.47z"/>
		<path class="st2" d="M82.39,109.02c0,0,0.01-0.01,0.01-0.01C82.4,109.01,82.39,109.02,82.39,109.02z"/>
		<path class="st2" d="M25.07,50.29c-0.09,0.11-0.18,0.23-0.26,0.34C24.9,50.51,24.99,50.4,25.07,50.29z"/>
		<polygon class="st2" points="70.35,38.74 70.41,38.71 70.43,38.79 		"/>
		<path class="st2" d="M83.64,106.16c0,0,0.04,0.13,0.04,0.13c-0.05-0.02-0.11-0.04-0.17-0.05
			C83.55,106.2,83.59,106.17,83.64,106.16z"/>
		<path class="st0" d="M23.1,103.32c-0.09,0.01-0.19,0.02-0.28,0.02c-0.04-0.08-0.05-0.17-0.05-0.26
			C22.89,103.16,22.99,103.24,23.1,103.32z"/>
		<path class="st2" d="M21.43,100.31c0.18-0.04,0.26,0.02,0.19,0.21C21.55,100.45,21.49,100.38,21.43,100.31z"/>
		<path class="st2" d="M22.77,53.94c-0.07,0.11-0.14,0.22-0.2,0.33C22.63,54.16,22.7,54.05,22.77,53.94z"/>
		<path class="st0" d="M5.76,57.37c0.05-0.13,0.1-0.27,0.15-0.4C5.99,57.15,5.95,57.29,5.76,57.37z"/>
		<path class="st0" d="M22.03,101.1c0.04,0.06,0.08,0.12,0.1,0.19c0.01,0.02-0.04,0.06-0.07,0.1
			C22.06,101.29,22.04,101.19,22.03,101.1z"/>
		<path class="st0" d="M68.3,105.23c0.04-0.08,0.09-0.14,0.16-0.19C68.46,105.15,68.4,105.21,68.3,105.23z"/>
		<path class="st0" d="M22.6,102.78c0.07,0.11,0.13,0.21,0.2,0.32C22.73,103,22.66,102.89,22.6,102.78z"/>
		<path class="st0" d="M25.47,155.19c0.83,0.88,2.26,1.23,2.22,2.9c-0.01,0.68,0.92,1.11,1.49,1.57c2.4,1.96,5.17,3.27,7.98,4.5
			c0.06,0.6,0.47,1.28-0.51,1.6c-0.86,0.27-1.6,0.14-2.09-0.58c-0.39-0.57-0.71-0.88-1.28-0.28c-0.54,0.56-0.35,0.99,0.27,1.34
			c0.29,0.17,0.6,0.4,0.33,0.77c-0.29,0.39-0.73,0.57-1.22,0.57c-0.43,0-0.55-0.29-0.55-0.65c0.02-0.82,0.01-1.61-1.2-1.13
			c-0.18,0.07-0.46-0.01-0.38-0.23c0.32-0.91-0.47-0.67-0.85-0.87c-0.3-0.16-0.79-0.25-0.45-0.79c0.25-0.39,0.97-0.75,0.37-1.26
			c-0.52-0.45-1.23-0.66-1.95-0.61c-0.13,0.01-0.26,0.09-0.39,0.14c-0.5,0.18-1.25,0.75-1.46,0.1c-0.25-0.79-1.4-1.59-0.3-2.62
			c1.18-1.11,0.51-2.3,0.03-3.45C25.37,155.87,24.83,155.57,25.47,155.19z"/>
		<path class="st0" d="M72.83,149.09c0.27-0.75,0.55-1.5,0.82-2.25c0.31-0.03,0.71,0.08,0.78-0.37c0.06-0.37-0.25-0.44-0.54-0.48
			c0.72-3.15,0.68-6.34,0.55-9.53c0.41-0.05,0.83-0.08,1.24-0.16c0.42-0.08,0.73,0.14,0.71,0.47c-0.06,0.99,0.54,1.92,0.25,2.89
			c-0.19,0.65-0.12,1.26-0.06,1.92c0.07,0.87,0.18,1.87-0.84,2.42c-0.65,0.35-0.35,1.01-0.46,1.52c-0.25,1.19,0.04,2.37,0.24,3.54
			c0.06,0.33,0.52,0.65,0.07,0.96c-0.5,0.35-0.84-0.14-1.01-0.45C74.14,148.74,73.53,148.81,72.83,149.09z"/>
		<path class="st0" d="M48.94,165.7c2.82-0.47,5.69-0.72,8.43-1.65c-0.11,0.91,0.04,1.44,1.17,1.08c0.42-0.14,1.17-0.2,1.21,0.53
			c0.03,0.64-0.64,0.48-1.07,0.59c-0.49,0.13-1.08,0.22-1.4,0.55c-0.91,0.92-2.03,0.98-3.12,0.8c-1.63-0.26-3.07-1.29-4.81-1.22
			C49.09,166.37,48.97,165.99,48.94,165.7z"/>
		<path class="st0" d="M22.43,161.01c-0.02-0.49,0.42-0.37,0.57-0.59c0.27-0.4,0.56-0.84,0.25-1.27c-0.28-0.38-0.76-0.26-1.16-0.1
			c-0.41,0.16-0.92,0.85-1.17-0.03c-0.15-0.52-0.43-1.37,0.63-1.51c0.4-0.05,0.61-0.42,0.93-0.58c0.69-0.34,1.63-0.61,1.97,0.15
			c0.32,0.7,1.48,1.51,0.25,2.52C24.01,160.16,23.99,161.69,22.43,161.01z"/>
		<path class="st0" d="M39.67,164.87c2.43,0.33,4.84,0.77,7.3,0.82c-0.05,0.13-0.09,0.37-0.15,0.37c-2.34,0.24-4.52,1.94-7.02,0.72
			c-0.5-0.24-0.85-0.45-0.4-1C39.63,165.51,39.68,165.2,39.67,164.87z"/>
		<path class="st0" d="M73.79,132.23c-0.32-1.12-0.64-2.24-0.96-3.36c0.51-0.01,1.02,0.03,1.52-0.03c1.59-0.21,1.6-0.09,1.39,1.56
			C75.58,131.68,75.32,132.56,73.79,132.23z"/>
		<path class="st0" d="M65.2,160.02c0.34-0.54,0.86-0.85,1.41-1.14c0.02,0.5-0.08,1.05,0.56,1.28c0.68,0.25,0.71-0.32,0.94-0.7
			c0.21-0.34,0.5-0.11,0.67,0.1c0.31,0.38,0.77,0.77,0.45,1.33c-0.24,0.41-0.61,0.68-1.17,0.41
			C67.12,160.85,66.16,160.44,65.2,160.02z"/>
		<path class="st0" d="M61.25,162.54c1.32-0.84,2.64-1.68,3.96-2.52c0,1.2-1.14,1.83-1.46,2.87C62.95,162.51,62.03,163,61.25,162.54
			z"/>
		<path class="st0" d="M71.67,126.38c-0.49-0.59-0.94-1.22-1.18-1.96c0.4-0.09,0.8-0.2,1.21-0.26c0.51-0.08,1.07-0.16,1.31,0.44
			c0.26,0.64-0.1,1.03-0.68,1.3C72.08,126.01,71.88,126.22,71.67,126.38z"/>
		<path class="st0" d="M71.71,154.94c0.43-0.44-0.06-1.48,0.88-1.51c0.38-0.01,1.11,0.35,0.98,0.94c-0.15,0.68-0.7,1.24-1.41,1.37
			C71.61,155.85,71.72,155.31,71.71,154.94z"/>
		<path class="st0" d="M71.19,158.97c-0.3-0.24-1.2,0.26-1.08-0.57c0.06-0.45,0.22-1.34,0.94-1.25c0.56,0.07,1.03,0.59,0.92,1.36
			C71.9,158.99,71.75,159.21,71.19,158.97z"/>
		<path class="st0" d="M72.75,128.62c-0.24-0.48-0.48-0.95-0.72-1.43c0.13-0.04,0.29-0.04,0.4-0.11c0.5-0.33,0.96-1.14,1.56-0.19
			c0.53,0.84-0.2,1.14-0.75,1.48C73.09,128.47,72.91,128.54,72.75,128.62z"/>
		<path class="st0" d="M70.81,153.01c0.47-0.84,0.94-1.68,1.41-2.53C73.22,152.3,72.99,152.72,70.81,153.01z"/>
		<path class="st0" d="M66.52,162.93c0.06,0.38-0.1,0.69-0.48,0.64c-0.44-0.06-1-0.21-0.97-0.77c0.02-0.38,0-1.04,0.65-1.02
			C66.4,161.81,66.29,162.52,66.52,162.93z"/>
		<path class="st0" d="M75.9,159.8c-0.02,0.59-0.14,1.06-0.76,1.02c-0.44-0.03-0.87-0.35-0.8-0.79c0.09-0.65,0.74-0.76,1.28-0.82
			C76.43,159.11,75.35,159.84,75.9,159.8z"/>
		<path class="st0" d="M66.82,165.92c-0.1,0.47-0.43,0.57-0.83,0.55c-0.42-0.02-0.72-0.24-0.72-0.67c0-0.42,0.27-0.7,0.71-0.66
			C66.43,165.19,66.7,165.49,66.82,165.92z"/>
		<path class="st0" d="M13.32,125.87c0.42-0.03,0.51,0.23,0.51,0.52c0,0.34,0.16,0.78-0.28,0.97c-0.34,0.15-0.52-0.12-0.52-0.42
			C13.01,126.56,12.84,126.1,13.32,125.87z"/>
		<path class="st0" d="M61.47,164.82c0.23,0.03,0.56-0.01,0.53,0.3c-0.07,0.62-0.68,0.5-1.07,0.68c-0.28,0.13-0.47-0.08-0.41-0.34
			C60.63,164.98,61.08,164.92,61.47,164.82z"/>
		<path class="st0" d="M58.73,163.67c0.5-0.42,1.08-0.69,1.72-0.81C60.5,164.46,59.6,164.02,58.73,163.67z"/>
		<path class="st0" d="M5.75,117.86c-0.39-0.19-0.54-0.47-0.52-0.8c0.02-0.31,0.27-0.49,0.57-0.48c0.46,0.02,0.45,0.38,0.41,0.71
			C6.19,117.6,5.98,117.76,5.75,117.86z"/>
		<path class="st0" d="M4.86,134.06c0.29,0,0.43,0.19,0.49,0.41c0.06,0.24,0,0.47-0.29,0.52c-0.29,0.05-0.43-0.13-0.45-0.39
			C4.58,134.38,4.57,134.13,4.86,134.06z"/>
		<path class="st0" d="M28.39,163.08c-0.04,0.25-0.19,0.46-0.43,0.48c-0.31,0.03-0.37-0.23-0.3-0.47c0.06-0.23,0.2-0.43,0.48-0.41
			C28.38,162.7,28.41,162.89,28.39,163.08z"/>
		<path class="st0" d="M38.1,168.12c-0.21-0.03-0.35-0.16-0.34-0.36c0.01-0.27,0.17-0.42,0.45-0.36c0.22,0.04,0.28,0.21,0.27,0.41
			C38.47,168.04,38.3,168.1,38.1,168.12z"/>
		<path class="st0" d="M13.79,123.06c-0.01,0.19-0.03,0.41-0.27,0.36c-0.15-0.03-0.32-0.18-0.38-0.32
			c-0.08-0.19,0.04-0.35,0.27-0.35C13.6,122.76,13.75,122.84,13.79,123.06z"/>
		<path class="st0" d="M85.93,141.35c0.08,0.03,0.16,0.07,0.23,0.1c-0.03,0.08-0.05,0.2-0.11,0.22c-0.06,0.02-0.15-0.05-0.23-0.09
			C85.86,141.5,85.89,141.43,85.93,141.35z"/>
		<path class="st0" d="M79.75,149.48c0.08,0.03,0.2,0.05,0.22,0.11c0.02,0.06-0.06,0.15-0.09,0.23c-0.08-0.03-0.2-0.05-0.22-0.11
			C79.64,149.65,79.71,149.56,79.75,149.48z"/>
		<path class="st0" d="M24.77,154.37c0.11,0.11,0.21,0.22,0.32,0.34C24.98,154.6,24.88,154.49,24.77,154.37z"/>
		<path class="st2" d="M169.45,82c0.09-0.19,0.18-0.38,0.27-0.56c0.18,0.03,0.42,0.07,0.39,0.28
			C170.06,82.11,169.69,81.96,169.45,82z"/>
		<path class="st2" d="M330.24,81.7c-0.19-0.52-0.76-0.04-1.02-0.41c0.36-0.39,0.76-0.71,1.35-0.7
			C330.72,81.04,331.76,81.75,330.24,81.7z"/>
		<path class="st2" d="M328.59,82.51c0.21-0.3,0.56-0.19,0.84-0.29C329.35,82.89,329.09,83.04,328.59,82.51z"/>
		<path class="st2" d="M319.13,66.18c-0.08-0.03-0.2-0.05-0.22-0.11c-0.02-0.06,0.05-0.15,0.09-0.23c0.08,0.03,0.2,0.05,0.22,0.11
			C319.24,66.01,319.17,66.1,319.13,66.18z"/>
		<path class="st5" d="M319.59,82.95c0.11,0.02,0.22,0.05,0.33,0.07C319.77,83.2,319.66,83.18,319.59,82.95z"/>
		<path class="st5" d="M319.6,104.26c0.11,0.02,0.22,0.03,0.34,0.05C319.78,104.53,319.68,104.49,319.6,104.26z"/>
		<path class="st5" d="M319.25,67.66c0,0.11,0.01,0.22,0.01,0.33C319.07,67.89,319.05,67.78,319.25,67.66z"/>
		<path class="st2" d="M287.91,107.5c0.18,0.06,0.3,0.18,0.22,0.37c-0.03,0.07-0.17,0.09-0.27,0.14
			C287.88,107.84,287.9,107.67,287.91,107.5z"/>
		<path class="st1" d="M73.89,145.99c0.29,0.04,0.59,0.11,0.54,0.48c-0.07,0.45-0.47,0.34-0.78,0.37
			C73.65,146.54,73.62,146.22,73.89,145.99z"/>
		<path class="st0" d="M44.17,68.23c1.46,1.16,2.96,2.27,4.35,3.51c0.74,0.66,1.21,0.55,1.87-0.06c4.08-3.78,8.15-7.56,11.7-11.86
			c0.09-0.1,0.22-0.16,0.33-0.24c1.27,1.14,0.79,2.1,0.1,3.48c-0.81,1.63-2.13,2.57-3.33,3.73c-2.55,2.47-5.45,4.58-7.61,7.44
			c-0.46,0.62-0.63,0.55-1.05-0.12c-0.56-0.88-1.49-1.21-2.37-0.41c-0.66,0.59-1.29,0.48-1.72-0.03c-0.86-1.01-2.05-1.87-1.88-3.5
			C44.63,69.54,43.6,69.03,44.17,68.23z"/>
		<path class="st0" d="M57.27,75.79c-0.44,0.11-0.87,0.22-1.31,0.34c-0.08-0.21-0.13-0.44-0.26-0.62c-0.28-0.41-1.45-0.12-1.05-0.92
			c0.34-0.68,0.85-1.58,1.9-1.56c0.63,0.01,0.82-0.31,1.2-0.8c0.57-0.73,1.42-1.53,2.58-1.35c0.35,0.06,0.8,0.14,0.8-0.23
			c0.03-1.77,1.43-1.78,2.58-2.13c0.13-0.04,0.29-0.02,0.4-0.09c1.62-0.9,1.62-0.9,1.67,0.94c-0.66,0.57-1.31,1.15-1.97,1.72
			c-0.38,0.25-0.76,0.5-1.14,0.75c-1.73,0.9-3.05,2.42-4.87,3.18C57.49,75.16,57.31,75.44,57.27,75.79z"/>
		<path class="st0" d="M31.58,94.37c0.08,0.92-0.65,1.41-1.16,1.96c-1.35,1.46-2.67,2.94-3.9,4.5c-0.49-0.42-0.33-1.2-0.99-1.59
			c-0.4-0.23,0.02-0.63,0.19-0.95c0.86-1.68,2.65-2.55,3.63-4.13c0.24-0.38,0.67-0.53,1.06-0.1C30.74,94.45,31.18,94.32,31.58,94.37
			z"/>
		<path class="st0" d="M32.64,58.74c2.15,1.77,4.31,3.53,6.46,5.3c-0.92,0.04-1.75-0.26-2.5-0.74c-0.53-0.34-0.79-0.44-0.87,0.35
			c-0.1,1.02-0.46,1.09-1.35,0.49c-1.18-0.79-1.4-2.15-2.18-3.17C31.69,60.31,32.79,59.56,32.64,58.74z"/>
		<path class="st0" d="M66.92,87.87c0.16,0.34,0.44,0.54,0.79,0.66c0.39,0.44,0.78,0.88,1.18,1.32c-0.77,0.37-1.73,0.09-2.41,0.9
			c-0.3,0.36-0.98-0.01-1.35-0.35c-1.65-1.53-1.86-2.55-1.05-4.72c0,0,0.03-0.03,0.03-0.03c0.09,0.01,0.18,0.01,0.27,0.02
			c0,0,0-0.01,0-0.01c0.35,0.52,0.87,0.85,1.4,1.17c0.16,0.13,0.32,0.26,0.49,0.39C66.37,87.54,66.59,87.76,66.92,87.87z"/>
		<path class="st0" d="M39.4,64.31c1.13,0.81,2.23,1.66,3.15,2.71c-0.15,0.5-0.69,0.6-0.98,0.95c-0.28,0.34-0.32,0.7,0.26,0.8
			c0.3,0.06,0.76-0.47,0.88,0.2c0.06,0.35-0.24,0.59-0.51,0.78c-0.44,0.32-0.76,0.07-1.11-0.21C39.39,68.15,38.16,66.63,39.4,64.31z
			"/>
		<path class="st0" d="M70.63,65.6c-0.04,0.11-0.07,0.21-0.11,0.32c-0.09,0.11-0.17,0.22-0.26,0.33c-0.9,0.36-1.48,1.14-2.25,1.68
			c-0.27,0.12-0.54,0.23-0.82,0.35c0.05-0.66-0.27-0.9-0.91-0.9c-0.45,0-0.63-0.37-0.69-0.75c-0.06-0.4,0.31-0.48,0.59-0.65
			c0.66-0.41,1.26-0.92,1.91-1.33C69.32,63.91,70.08,64.21,70.63,65.6z"/>
		<path class="st0" d="M61.86,83.66c0.47,0.38,0.93,0.75,1.4,1.13c0.28,0.29,0.56,0.57,0.84,0.86c0,0-0.03,0.03-0.03,0.03
			c-1.06,0.59-1.71-0.31-2.43-0.74c-0.63-0.38-0.99-0.46-1.21,0.34c-0.13,0.47-0.44,0.77-0.92,0.56c-0.46-0.2-0.91-0.55-0.96-1.1
			c-0.05-0.56,0.47-0.41,0.79-0.51c0.78-0.24,1.29-0.52,0.24-1.19c-0.42-0.27-0.35-0.71,0.04-1.05c0.37,0.28,0.73,0.56,1.1,0.84
			C61.11,83.11,61.49,83.39,61.86,83.66z"/>
		<path class="st0" d="M29.59,55.86c0.32,1.19,1.59,1.43,2.26,2.27c-0.89,0.11-1.25,0.9-1.82,1.41c-0.22,0.2-0.33,0.68-0.73,0.37
			c-0.39-0.3-0.98-0.4-1.09-1c-0.08-0.44,0.08-0.71,0.55-0.78c0.23-0.03,0.56-0.23,0.3-0.42C27.53,56.57,29.49,56.49,29.59,55.86z"
			/>
		<path class="st0" d="M55.41,77.2c0.49,0.95,1.62,1.19,2.24,1.99c-0.27,0.05-0.69,0.02-0.78,0.17c-0.72,1.21-1.56,0.39-2.06-0.03
			c-0.66-0.57-0.13-1.25,0.38-1.78C55.29,77.46,55.34,77.32,55.41,77.2z"/>
		<path class="st0" d="M71.04,91.58c0.03,0.09,0.04,0.17,0.05,0.26c-0.14,0-0.28-0.02-0.42-0.01c-1.76,0.21-1.95,0-1.51-1.71
			c0.09,0.01,0.18,0.02,0.27,0.03c0,0,0,0,0,0c0.29,0.44,0.66,0.81,1.13,1.06C70.72,91.33,70.88,91.45,71.04,91.58z"/>
		<path class="st0" d="M25,90.94c0.4-0.34,0.8-0.68,1.2-1.02c0,0.05,0.01,0.1,0,0.14c-0.18,0.66,1.22,1.31,0.13,1.9
			C25.44,92.44,25.72,90.94,25,90.94z"/>
		<path class="st0" d="M28.25,53.61c0.54,0.61,1.48,0.95,1.35,2.01C28.24,55.37,27.87,54.81,28.25,53.61z"/>
		<path class="st0" d="M28.68,90.4c-0.25-0.04-0.52-0.18-0.39-0.33c0.38-0.45,0.26-1.37,1.18-1.32c0.23,0.01,0.62,0.19,0.49,0.3
			C29.47,89.46,29.31,90.2,28.68,90.4z"/>
		<path class="st0" d="M58.21,79.73c0.27,0.11,0.54,0.23,0.81,0.34c0.1,0.22,0.3,0.26,0.51,0.28c0.01,0.36,0.01,0.72,0.02,1.08
			C58.39,81.44,58.27,80.61,58.21,79.73z"/>
		<path class="st0" d="M57.08,106.11c-0.42,0-0.55-0.26-0.55-0.63c-0.01-0.42,0.11-0.74,0.62-0.7c0.44,0.03,0.48,0.36,0.48,0.7
			C57.63,105.84,57.51,106.11,57.08,106.11z"/>
		<path class="st0" d="M30.11,87c0.27-0.21,0.54-0.42,0.81-0.63c-0.13,0.39,0.64,0.88-0.07,1.19C30.43,87.74,30.15,87.46,30.11,87z"
			/>
		<path class="st0" d="M38.82,92.13c-0.5-0.34-1.04-0.63-1.39-1.15C38.25,90.93,38.93,91.06,38.82,92.13z"/>
		<path class="st0" d="M20,75.03c-0.19-0.17-0.38-0.34-0.58-0.5c0.07-0.35,0.16-0.94,0.53-0.77C20.53,74.01,19.84,74.59,20,75.03z"
			/>
		<path class="st0" d="M52.29,103.38c-0.29-0.27-0.58-0.54-0.87-0.8C52.24,102.13,52.27,102.16,52.29,103.38z"/>
		<path class="st0" d="M22.74,98.78c-0.2,0.01-0.36-0.06-0.4-0.27c-0.05-0.28,0.1-0.44,0.36-0.45c0.2,0,0.34,0.13,0.35,0.34
			C23.05,98.6,22.96,98.76,22.74,98.78z"/>
		<path class="st0" d="M67.98,92.18c-0.01,0.19-0.03,0.4-0.27,0.36c-0.15-0.03-0.32-0.18-0.38-0.31c-0.08-0.18,0.04-0.35,0.27-0.35
			C67.79,91.88,67.94,91.96,67.98,92.18z"/>
		<path class="st0" d="M71.29,96.28c-0.2-0.02-0.38-0.12-0.33-0.32c0.04-0.15,0.21-0.32,0.36-0.36c0.2-0.05,0.33,0.13,0.32,0.33
			C71.62,96.13,71.49,96.24,71.29,96.28z"/>
		<path class="st0" d="M59.87,111.82c-0.29-0.29-0.59-0.59-0.88-0.88C59.67,110.84,59.97,111.13,59.87,111.82z"/>
		<path class="st0" d="M61.32,110.58c-0.11-0.13-0.24-0.21-0.25-0.31c-0.01-0.11,0.05-0.3,0.13-0.33c0.21-0.08,0.33,0.07,0.32,0.27
			C61.52,110.32,61.42,110.42,61.32,110.58z"/>
		<path class="st0" d="M33.44,93.21c-0.13,0.36-0.42,0.53-0.76,0.66C32.62,93.29,33.01,93.22,33.44,93.21z"/>
		<path class="st0" d="M68.21,57.1c-0.08,0.03-0.18,0.1-0.23,0.08c-0.06-0.02-0.07-0.15-0.1-0.23c0.08-0.03,0.18-0.1,0.23-0.08
			C68.16,56.9,68.18,57.02,68.21,57.1z"/>
		<path class="st0" d="M25.18,102.81c-0.11,0.18-0.22,0.37-0.33,0.55C24.29,102.79,24.81,102.85,25.18,102.81z"/>
		<path class="st0" d="M68.48,100.45c-0.03,0.08-0.07,0.16-0.1,0.23c-0.08-0.03-0.2-0.05-0.22-0.11c-0.02-0.06,0.05-0.15,0.09-0.23
			C68.32,100.38,68.4,100.42,68.48,100.45z"/>
		<path class="st0" d="M55.66,76.38c-0.04,0.23-0.08,0.45-0.35,0.53C55,76.44,55.37,76.44,55.66,76.38z"/>
		<path class="st0" d="M18.87,73.93c-0.1-0.11-0.21-0.22-0.31-0.34C18.67,73.71,18.77,73.82,18.87,73.93z"/>
		<path class="st0" d="M18.31,73.49c-0.08-0.06-0.15-0.12-0.23-0.19C18.16,73.36,18.23,73.43,18.31,73.49z"/>
	</g>
</g>
</svg>
