<?xml version="1.0" encoding="utf-8"?>
<!-- Generator: Adobe Illustrator 27.5.0, SVG Export Plug-In . SVG Version: 6.00 Build 0)  -->
<svg version="1.1" xmlns="http://www.w3.org/2000/svg" xmlns:xlink="http://www.w3.org/1999/xlink" x="0px" y="0px"
	 viewBox="0 0 1920 220" style="enable-background:new 0 0 1920 220;" xml:space="preserve">
<style type="text/css">
	.st0{fill:none;stroke:#B3B3B3;stroke-width:2;stroke-miterlimit:10;}
	.st1{fill:none;stroke:#000000;stroke-width:2;stroke-miterlimit:10;}
</style>
<g id="Layer_1">
</g>
<g id="Layer_2">
	<path class="st0" d="M1874.5,20.8"/>
	<path class="st1" d="M0,89.7c84.3,0,168.7,0,253,0c167.1,0,334.2,0,501.2,0c0,0,57.2,1,73,15.9c15.8,14.9,21,24.9,21,24.9
		s7.2,11.6,6.3,12.2c-0.4,0.2-1.9-1.7-5.3-5.2c-2.4-2.4-3.4-3.4-4.6-4.6c-5.4-5.5-10.4-12.4-11.6-14.1c-3.1-4.3-6.6-9.7-10-16.2
		c-3.8-14.6-2.4-26.3-1.1-32.9c1.6-8,6.6-32.9,28.4-42.8c8.9-4.1,17.6-4.3,23.1-4c6.1,1,13.8,3,22.1,7c2.9,1.4,5.1,2.6,7.2,3.9
		c5.4,3.2,14.7,9.3,27.1,19.3"/>
	<path class="st1" d="M854.8,142.7c41.8,42.6,57.5,56.5,57.5,56.5s11.6,5.8,18.4,1c3.4-2.4,5.5-6.9,4.8-11c-0.5-2.6-2.1-4.4-5.3-8
		c-3-3.4-5.7-5.5-6.2-5.9c0,0-0.1,0-0.1-0.1c-0.1,0-26.6-25.8-26.3-25.9c0,0,0.1,0,0.4,0.4c-0.5-0.3-3.1-1.7-3-4c0-0.3,0-1.8,1-2
		c0.8-0.2,2.3,0.5,5.7,4.4"/>
	<path class="st1" d="M1011,138.5c0.5,0.9,2,3.8,1.1,7c-1,3.2-3.9,4.7-6.3,6c-1.7,0.9-7.2,3.9-12.6,2c-2.9-1-4.1-2.8-7.5-6.5
		c-6-6.8-4.7-4.2-11.8-12.1c-4.6-5.1-13.4-16.2-13.3-16.2c0.1,0,4.3,5.5,4.4,5.4c0.1,0-3.4-5.6-10-11.2c-0.6-0.6-6-5.1-7-4.6
		c-0.9,0.4,1.4,3.9,3,6c1.1,1.4,2.2,2.5,3,3.3c24.7,21.9,40.6,39.6,44.4,48c0.9,2,2.5,5.9,0.8,10.4c-2.3,6.2-9.2,9.5-9.2,9.5
		c-1.9,0.3-3.6,0.4-5.1,0.3c-11.3-0.8-18.2-10.9-19.6-13.1l-18.4-19c-0.7-1-1.4-2-2.1-3l-20-21.9c-0.8-0.2-2.2-0.3-2.9,0.1
		c-1.3,0.8,0.2,3,0.8,3.9c2.1,3.1,5.2,5,5.3,5c17.9,16.7,26.4,22.1,35.7,34.5c6.3,8.4,7.8,13,6.6,17c-0.1,0.4-1.5,5.7-6.6,8.2
		c-4.1,2-8,1-10.4,0.4c-4.8-1.2-7.9-4-9.2-5.4c-12.8-15-20.2-22.6-24.6-26.9c-0.7-0.7-5.2-4.9-11.4-10.9c-1.8-1.7-3.9-3.8-6.4-6.1"
		/>
	<path class="st1" d="M856.6,200.8"/>
	<path class="st1" d="M1011.9,139.2c0,0-7.2-8.7-11.4-13.7c-8.2-9.8-16.8-19.2-25.2-28.9l-17.9-18.9c0,0-3.6-9-13.3,0
		c-9.8,9-25.5,15.9-25.5,15.9s-14.7,9-24.2,3c-9.5-6,7.4-15.9,7.4-15.9s4.2-6,9.5,1s-17.9,9-17.9,9l-4.2-2L944.8,40
		c0,0,24.2-18.9,46.2-17.9c3,0.1,25.9,2.1,41,20.9c5.4,6.7,8,13.5,9.4,18c2.7,12.7,2.1,23.1,1.1,29.8c-0.6,4.1-6,25.2-16.8,38.8
		c-6.3,8-10.3,9-10.3,9s-5.5,0,11.3-18.9c7.3-8.2,14.8-13.5,19.6-16.4c14.5-8.9,27.4-11.5,48-15.5c12-2.4,25.1-4.1,39.5-4.9
		c16.4-0.9,28.6-0.1,31.7,0.1c19.9,1.1,80.2,1.7,228.4,0.7c175.3,0.5,350.7,1,526,1.5"/>
	<path class="st1" d="M949.2,220"/>
	<path class="st1" d="M848,169.7"/>
	<path class="st1" d="M783,167"/>
	<path class="st1" d="M927,137.3"/>
</g>
<g id="Layer_3">
</g>
</svg>
