<?xml version="1.0" encoding="utf-8"?>
<!-- Generator: Adobe Illustrator 27.5.0, SVG Export Plug-In . SVG Version: 6.00 Build 0)  -->
<svg version="1.1" id="Layer_1" xmlns="http://www.w3.org/2000/svg" xmlns:xlink="http://www.w3.org/1999/xlink" x="0px" y="0px"
	 viewBox="0 0 898.5 443" style="enable-background:new 0 0 898.5 443;" xml:space="preserve">
<style type="text/css">
	.st0{fill:#69DDED;}
	.st1{fill:#42C09E;}
	.st2{stroke:#000000;stroke-miterlimit:10;}
	.st3{fill:#FFFFFF;stroke:#000000;stroke-miterlimit:10;}
	.st4{fill:none;}
	.st5{font-family:'Garamond';}
	.st6{font-size:23px;}
	.st7{font-family:'Corbel';}
	.st8{font-size:20px;}
	.st9{font-family:'MicrosoftYaHeiUILight';}
	.st10{fill:none;stroke:#000000;stroke-miterlimit:10;}
</style>
<g>
	<path class="st0" d="M815,230.4c12.8,9.4,19.4,24.4,18.4,39.8c-0.3,3.3-0.8,6.8-1.5,10c-4.6,23.4-14.6,45.7-28.3,65.1
		C729.3,450.6,558.8,461,468,371.4c-22.1-22-39-49.7-46.8-80c-1-3-1.6-7-2.3-10.1c-2.3-11.4-0.5-23.8,5.1-34.1
		c3.9-6.8,8.2-12,15.1-16.8h1c4.6,2.8,8.9,6,13.2,9.2c6.3,4.8,13.5,11.2,17.7,16.6c2.1,2.7,4.1,5.7,5.8,8.6c1.1,1.5,2.7,4,3.8,5.5
		c12.4,16.7,28.7,30.2,46.6,40.7c54.4,32.2,118.8,37.9,177.6,13.9c26.8-10.8,52.2-27.2,69.9-50.4c2.8-3.6,5.4-7.5,7.7-11.4
		c0.3-0.5,0.6-1,0.9-1.5l0.8-1.5c1.1-2.1,2.5-4.1,3.9-6.1c4.4-5.9,10-11.3,15.9-16c2.8-2.4,6-4.9,10.2-7.6H815L815,230.4z"/>
</g>
<g>
	<path class="st1" d="M449,206.3c-12.8-9.4-19.4-24.4-18.4-39.8c0.3-3.3,0.8-6.8,1.5-10c4.6-23.4,14.6-45.7,28.3-65.1
		C538.7-19.9,724.7-24.9,810,80.7c14.2,17.6,25,37.9,31.6,59.5c2.1,8.2,4.8,16.8,4.6,25.5c-0.1,16.1-7.7,31.2-21.2,40.5h-1
		c-1.2-0.7-2.1-1.3-3.1-2c-2.6-1.7-5.3-3.7-7.8-5.5c-9.3-6.9-18.3-14.8-24-24c-1.6-2.7-3.8-5.8-5.6-8.4c-2-2.4-4.1-5.5-6.2-7.8
		c-23.1-26.4-54.9-43.6-88.2-53.7c-42.3-12.8-89-9.8-129.8,6.9c-26.8,10.8-52.2,27.2-69.9,50.4c-2.8,3.6-5.4,7.5-7.7,11.4
		c-0.3,0.5-0.6,1-0.9,1.5l-0.8,1.5c-1.1,2.1-2.5,4.1-3.9,6.1c-4.4,5.9-10,11.3-15.9,16c-2.8,2.4-6,4.9-10.2,7.6
		C450,206.3,449,206.3,449,206.3L449,206.3z"/>
</g>
<g>
	<path class="st0" d="M447.6,234.7c12.8,9.4,19.4,24.4,18.4,39.8c-0.3,3.3-0.8,6.8-1.5,10c-4.6,23.4-14.6,45.7-28.3,65.1
		c-78.3,111.2-264.3,116.3-349.6,10.6c-14.2-17.6-25-37.9-31.6-59.5c-2.1-8.2-4.8-16.8-4.6-25.5c0.1-16.1,7.7-31.2,21.2-40.5h1
		c1.2,0.7,2.1,1.3,3.1,2c2.6,1.7,5.3,3.7,7.8,5.5c9.3,6.9,18.3,14.8,24,24c1.6,2.7,3.8,5.8,5.6,8.4c2,2.4,4.1,5.5,6.2,7.8
		c23.1,26.4,54.9,43.6,88.2,53.7c42.3,12.8,89,9.8,129.8-6.9c26.8-10.8,52.2-27.2,69.9-50.4c2.8-3.6,5.4-7.5,7.7-11.4
		c0.3-0.5,0.6-1,0.9-1.5l0.8-1.5c1.1-2.1,2.5-4.1,3.9-6.1c4.4-5.9,10-11.3,15.9-16c2.8-2.4,6-4.9,10.2-7.6
		C446.6,234.7,447.6,234.7,447.6,234.7L447.6,234.7z"/>
</g>
<g>
	<path class="st1" d="M74,206.5c-12.8-9.4-19.4-24.4-18.4-39.8c0.3-3.3,0.8-6.8,1.5-10c4.6-23.4,14.6-45.7,28.3-65.1
		C163.7-19.6,349.7-24.7,435,81c14.2,17.6,25,37.9,31.6,59.5c2.1,8.2,4.8,16.8,4.6,25.5c-0.1,16.1-7.7,31.2-21.2,40.5h-1
		c-1.2-0.7-2.1-1.3-3.1-2c-2.6-1.7-5.3-3.7-7.8-5.5c-9.3-6.9-18.3-14.8-24-24c-1.6-2.7-3.8-5.8-5.6-8.4c-2-2.4-4.1-5.5-6.2-7.8
		c-23.1-26.4-54.9-43.6-88.2-53.7c-42.3-12.8-89-9.8-129.8,6.9c-26.8,10.8-52.2,27.2-69.9,50.4c-2.8,3.6-5.4,7.5-7.7,11.4
		c-0.3,0.5-0.6,1-0.9,1.5l-0.8,1.5c-1.1,2.1-2.5,4.1-3.9,6.1c-4.4,5.9-10,11.3-15.9,16c-2.8,2.4-6,4.9-10.2,7.6
		C75,206.5,74,206.5,74,206.5L74,206.5z"/>
</g>
<circle class="st2" cx="818" cy="225.5" r="77"/>
<circle class="st2" cx="80" cy="225.5" r="77"/>
<circle class="st2" cx="456" cy="224.5" r="77"/>
<circle class="st3" cx="79.5" cy="225" r="60.5"/>
<circle class="st3" cx="818.5" cy="225" r="60.5"/>
<circle class="st3" cx="455.5" cy="225" r="60.5"/>
<rect x="31.5" y="205.7" class="st4" width="95" height="66.3"/>
<text transform="matrix(1 0 0 1 46.7616 217.2795)" class="st5 st6">NICE </text>
<text transform="matrix(1 0 0 1 32.6616 239.2795)" class="st5 st6">PEOPLE</text>
<rect x="772.3" y="205.5" class="st4" width="95" height="66.3"/>
<text transform="matrix(1 0 0 1 779.4891 219.3998)" class="st5 st6">NICHE </text>
<text transform="matrix(1 0 0 1 776.9891 241.3998)" class="st5 st6">CAUSE</text>
<text transform="matrix(1 0 0 1 445.1343 436.8184)" class="st7 st8"> </text>
<rect x="395.5" y="205.5" class="st4" width="120" height="66.3"/>
<text transform="matrix(1 0 0 1 408.7292 219.3997)" class="st5 st8">CONTENT</text>
<text transform="matrix(1 0 0 1 404.5292 241.3997)" class="st5 st8">CREATORS</text>
<path class="st2" d="M96,106.5"/>
<rect x="193.5" y="24.8" class="st4" width="133" height="48.2"/>
<text transform="matrix(1 0 0 1 195.9913 46.05)" class="st9 st8">DONATIONS</text>
<text transform="matrix(1 0 0 1 195.9913 46.05)" class="st10 st9 st8">DONATIONS</text>
<text transform="matrix(1 0 0 1 197.0914 68.05)" class="st9 st8">via Our-Tube</text>
<text transform="matrix(1 0 0 1 197.0914 68.05)" class="st10 st9 st8">via Our-Tube</text>
<rect x="570.1" y="24.1" class="st4" width="133" height="65.9"/>
<text transform="matrix(1 0 0 1 589.9529 41.9717)" class="st9 st8">CREATIVE</text>
<text transform="matrix(1 0 0 1 589.9529 41.9717)" class="st10 st9 st8">CREATIVE</text>
<text transform="matrix(1 0 0 1 599.3528 63.9717)" class="st9 st8">UTILITY</text>
<text transform="matrix(1 0 0 1 599.3528 63.9717)" class="st10 st9 st8">UTILITY</text>
<polyline points="224.7,81.7 275.1,95.8 230.7,120.1 251.2,97.3 "/>
<polyline points="672.1,77.2 710.4,112.9 659.8,114 688.5,103.1 "/>
<rect x="570.1" y="376.8" class="st4" width="133" height="65.9"/>
<polyline points="644.6,366 600.3,338 649.8,327.5 623.6,343.6 "/>
<polyline points="213.8,367.9 182,326.3 232.1,333.6 201.9,339.5 "/>
<rect x="163.7" y="377" class="st4" width="172.8" height="92"/>
<text transform="matrix(1 0 0 1 163.3002 391.423)" class="st9 st8">VIEW on Our-Tube &amp; </text>
<text transform="matrix(1 0 0 1 163.3002 391.423)" class="st10 st9 st8">VIEW on Our-Tube &amp; </text>
<text transform="matrix(1 0 0 1 195.2002 413.423)" class="st9 st8">other socials!</text>
<text transform="matrix(1 0 0 1 195.2002 413.423)" class="st10 st9 st8">other socials!</text>
<polyline points="163.5,102 215.8,102.5 179.3,137.5 193.1,110.1 "/>
<polyline points="112.4,133.4 163.3,121.2 136.4,164 143.1,134.1 "/>
<text transform="matrix(1 0 0 1 527.4729 397.4431)" class="st10 st9 st8">Video documentation </text>
</svg>
