<?xml version="1.0" encoding="utf-8"?>
<!-- Generator: Adobe Illustrator 27.5.0, SVG Export Plug-In . SVG Version: 6.00 Build 0)  -->
<svg version="1.1" id="Layer_1" xmlns="http://www.w3.org/2000/svg" xmlns:xlink="http://www.w3.org/1999/xlink" x="0px" y="0px"
	 viewBox="0 0 136 130" style="enable-background:new 0 0 136 130;" xml:space="preserve">
<style type="text/css">
	.st0{fill:#00F2BB;}
	.st1{fill:#00F2BB;stroke:#00A99D;stroke-width:9;stroke-miterlimit:10;}
	.st2{fill:#00A99D;stroke:#00A99D;stroke-width:9;stroke-miterlimit:10;}
	.st3{fill:#00A99D;stroke:#00A99D;stroke-width:3;stroke-miterlimit:10;}
</style>
<g>
	<path class="st0" d="M134,64.5c0,35.6-29.3,64.5-65.5,64.5c-14.8,0-26.1-5.1-29.9-7.1C18.3,111.3,2.8,89.1,3,64.5
		C3.3,32.3,30.7,0,68.5,0C104.7,0,134,28.9,134,64.5z"/>
</g>
<path class="st1" d="M16.4,92.2c4,0.5,9.7,0.9,16.5,0c3.2-0.4,12.1-1.9,21.9-7.4c8.1-4.5,12.8-9.5,18.5-15.5
	c2.2-2.3,8.3-9,14.4-18.9c3.7-6.1,7-11.5,8.9-19.6c0.9-3.9,1.2-7.2,1.4-9.5L80.8,36.8"/>
<path class="st2" d="M98.5,19.3l6.2,22.1"/>
<path class="st3" d="M50.4,103c0,3,0,6,0,8.9c0,1.9,0,3.9,0,5.8c0,1.9,0,3.7,0,5.6"/>
<path class="st3" d="M62,93c0,4.5,0,9.1,0,13.6c0,2.9,0,5.9,0,8.8c0,2.8,0,5.7,0,8.5"/>
<path class="st3" d="M74,79c0,6.5,0,12.9,0,19.4c0,4.2,0,8.4,0,12.5c0,4,0,8.1,0,12.1"/>
</svg>
