<?xml version="1.0" encoding="utf-8"?>
<!-- Generator: Adobe Illustrator 27.5.0, SVG Export Plug-In . SVG Version: 6.00 Build 0)  -->
<svg version="1.1" id="Layer_1" xmlns="http://www.w3.org/2000/svg" xmlns:xlink="http://www.w3.org/1999/xlink" x="0px" y="0px"
	 viewBox="0 0 1920 1080" style="enable-background:new 0 0 1920 1080;" xml:space="preserve">
<style type="text/css">
	.st0{fill:#72CCE3;}
	.st1{fill:#020202;}
	.st2{fill:#666665;}
	.st3{fill:#343333;}
	.st4{fill:#585959;}
	.st5{fill:#949495;}
	.st6{fill:#71CCE4;}
</style>
<g>
	<g>
		<path d="M701.76,531.62c-0.37-1.27-1.3-2.23-1.86-3.4c-0.9-1.9-1.61-3.88-2.47-5.79c-0.66-1.47-0.63-3.05-1.21-4.49
			c0.05-0.28,0.19-0.58-0.19-0.76c-0.48-2.81-0.8-5.66-0.74-8.5c0.09-3.92,0.79-7.78,1.88-11.57c0.68-2.35,1.76-4.51,2.62-6.77
			c0.33-0.16,0.17-0.52,0.32-0.76c3.28-5.33,7.06-10.18,12.41-13.63c2.08-1.33,4.19-2.6,6.47-3.56c4.38-1.85,8.85-3.38,13.71-3.28
			c2.25,0.05,4.49,0.05,6.74-0.01c1.62-0.04,3.16,0.33,4.72,0.65c4.58,0.96,8.9,2.61,13,4.84c1.81,1.23,3.54,2.57,5.31,3.87
			c2.5,1.83,4.07,4.45,6.18,6.6c2.31,3.83,4.57,7.69,5.81,12.05c0.74,2.62,1.17,5.28,1.5,7.98c0.24,1.94,0.2,3.87,0.18,5.8
			c-0.05,5.42-1.4,10.56-3.58,15.52c-0.91,2.08-2.17,3.96-3.18,5.99c-0.24,0.07-0.21,0.29-0.25,0.47c-0.27,0.3-0.57,0.59-0.81,0.91
			c-3.52,4.77-7.95,8.49-13.17,11.29c-1.34,0.78-2.97,0.8-4.31,1.74c-0.74,0.51-1.83,0.75-2.78,1.04c-5.27,1.65-10.7,1.95-16.16,1.7
			c-0.88-0.04-1.74-0.31-2.69-0.31c-1.21-0.01-2.52-0.45-3.75-0.78c-4.95-1.31-9.57-3.38-13.73-6.41c-1.28-1.04-2.57-2.07-3.82-3.13
			c-2-1.69-3.48-3.85-5.15-5.84c-0.18-0.17-0.32-0.36-0.29-0.63c-0.07-0.09-0.14-0.18-0.21-0.28
			C702.1,531.97,701.93,531.79,701.76,531.62z M757.16,529.28c0.09-0.29,0.18-0.58,0.27-0.87c0.07-0.08,0.15-0.17,0.22-0.25
			c0.46-0.28,0.54-0.73,0.55-1.21c0.19-0.41,0.36-0.83,0.35-1.3c0.07-0.04,0.11-0.09,0.13-0.17c0.25-0.69,0.49-1.37,0.74-2.06
			c0.45-0.4,0.1-1.11,0.58-1.51c0.23-0.39,0.72-0.75,0.16-1.24c-0.05-0.44,0.45-0.77,0.23-1.24c0.07-0.66,0.43-1.28,0.29-1.98
			c0.4-0.36,0.25-0.82,0.21-1.26c0.45-1.81,0.27-3.65,0.24-5.48c0-1.91,0-3.82,0-5.73c0.23-1.27-0.18-2.52-0.31-3.76
			c-0.07-0.7,0.15-1.58-0.44-2.22c-0.15-0.91-0.09-1.89-0.95-2.53c0.63-0.75,0.04-1.35-0.24-1.99c-0.41-1.35-0.76-2.73-1.53-3.94
			c-0.66-1.73-1.65-3.29-2.73-4.78c-1.23-2.21-3.13-3.79-5.07-5.31c-4.14-3.25-9.03-4.2-14.15-4.37c-4.35-0.15-8.41,0.9-12.15,3.06
			c-2.54,1.47-4.58,3.55-6.37,5.87c-1.66,2.04-2.86,4.34-3.84,6.77c-0.18,0.31-0.39,0.62-0.37,1c-0.32,0.79-0.64,1.57-0.96,2.36
			c0,0.11-0.01,0.23-0.01,0.34c-0.87,2.6-1.36,5.27-1.5,8.01c-0.03,0.32-0.07,0.64-0.1,0.95c-0.4,0.61-0.13,1.29-0.15,1.93
			c-0.06,1.78,0.07,3.58-0.07,5.35c-0.12,1.64-0.32,3.37,0.12,4.86c0.62,2.11,0.72,4.34,1.63,6.36c0.14,0.42,0.29,0.83,0.43,1.25
			c0.56,1.72,1.25,3.38,2.14,4.95c0.35,1.1,1.09,1.98,1.65,2.97c1.11,1.81,2.62,3.27,4.18,4.68c3.92,3.52,8.55,5.34,13.8,5.55
			c2.75,0.11,5.51-0.05,8.17-0.78c2.4-0.65,4.79-1.44,6.67-3.2c0.3,0.05,0.51-0.12,0.7-0.32c1.79-1.19,3.2-2.75,4.55-4.39
			c0.33-0.27,0.56-0.62,0.69-1.02c0.35-0.5,0.7-1,1.05-1.5c0.08-0.14,0.16-0.27,0.24-0.41c0.04-0.11,0.09-0.22,0.13-0.33
			C756.93,530.25,757.03,529.75,757.16,529.28z"/>
		<path class="st0" d="M702.77,533.05c1.66,1.99,3.14,4.15,5.15,5.84c1.26,1.06,2.55,2.09,3.82,3.13c-0.16,0.43-0.38,0.84-0.48,1.28
			c-0.72,3.2-0.86,6.47-0.98,9.73c-0.12,3.18,0.41,6.33,1.16,9.44c1.71,7.14,5.65,12.68,11.88,16.5c4.86,2.98,10.21,3.85,15.89,3.31
			c3.66-0.35,7.13-1.19,10.33-2.96c7.15-3.93,11.08-9.9,11.41-18.12c0.22-5.57-1.48-10.53-4.75-15c-0.3-0.41-0.39-1.05-1.04-1.16
			c5.22-2.8,9.65-6.52,13.17-11.29c0.24-0.33,0.54-0.61,0.81-0.91c0.45,0.14,0.52,0.74,1.01,0.83c0.8,1.75,1.61,3.5,2.4,5.26
			c1.51,3.4,2.54,6.92,2.65,10.68c0.03,0.99,0.17,1.97,0.26,2.96c0,0.33,0,0.66,0,0.99c-0.33,4.19-1.02,8.28-2.87,12.12
			c-2.76,5.75-6.54,10.57-11.81,14.3c-3.61,2.55-7.47,4.51-11.63,5.81c-2.72,0.85-5.55,1.52-8.44,1.7c-0.7-0.19-1.33,0.21-2,0.25
			c-1.81,0.14-3.62,0.33-5.44,0.4c-1.08,0.04-2.15-0.2-3.22-0.43c-2.34-0.52-4.77-0.44-7.12-1.08c-2.89-0.78-5.67-1.83-8.43-2.98
			c-0.16-0.07-0.32-0.15-0.48-0.22c-0.73-0.46-1.43-0.97-2.26-1.24c-0.39-0.31-0.77-0.63-1.27-0.75
			c-4.56-2.97-8.03-7.02-11.09-11.41c-1.21-1.74-1.87-3.86-2.79-5.8c-0.04-0.06-0.08-0.13-0.12-0.2c-1.22-3.85-1.99-7.76-1.76-11.83
			c0.24-4.16,1.27-8.1,2.93-11.93c1.02-2.37,2.77-4.21,4.09-6.36C702.07,533.6,702.75,533.7,702.77,533.05z"/>
		<path class="st0" d="M712.52,475.94c-5.35,3.45-9.14,8.31-12.41,13.63c-0.15,0.24,0.01,0.6-0.32,0.76
			c-5.14-10.48-5.09-20.85,1.06-30.88c4.91-8.02,12.21-12.94,21.29-15.27c1.77-0.45,3.55-0.84,5.33-1.25c0.67-0.01,1.33-0.01,2-0.02
			c0.17,0,0.33,0,0.5,0c0.83-0.08,1.66-0.17,2.5-0.25c0.43,0,0.88,0.2,1.26-0.17c0.58-0.02,1.16-0.05,1.73-0.07
			c1.56,0.52,3.21,0.38,4.79,0.47c5.81,0.33,11.23,1.97,16.17,4.85c7.27,4.23,12.7,10.19,14.95,18.47
			c1.54,5.64,1.17,11.25-1.46,16.58c-0.38,0.77-0.56,1.66-1.26,2.26c-2.11-2.14-3.68-4.77-6.18-6.6c-1.77-1.29-3.5-2.63-5.31-3.87
			c0.45-0.55,0.5-1.2,0.5-1.87c0.03-2.82-0.13-5.64-0.77-8.39c-1.45-6.25-4.88-10.95-10.94-13.56c-5.33-2.29-10.88-2.53-16.49-1.76
			c-5.7,0.78-10.47,3.44-14.1,7.92c-3.56,4.4-4.61,9.55-4,15.07C711.52,473.33,711.42,474.84,712.52,475.94z"/>
		<path d="M991.16,513.95c0.84,0.59,1.85,0.38,2.76,0.6c2.03,0.48,3.84,1.42,5.51,2.65c0.31,0.73,0.99,0.4,1.51,0.52
			c2.41,2.96,2.93,6.28,1.71,9.84c-0.33,0.98-0.97,1.86-1.47,2.78c-0.47,0.59-1.44-0.29-1.8,0.62c-0.56,0.41-1.12,0.83-1.68,1.24
			c-0.33,0.16-0.67,0.32-1,0.48c-0.75,0.33-1.5,0.66-2.25,1c-0.48-0.21-0.82,0.21-1.25,0.26c-1.42,0.25-2.83,0.49-4.25,0.74
			c-0.17-0.01-0.33-0.01-0.5-0.02c-6.58,0.01-13.15,0.01-19.73,0.02c-0.36-0.03-0.65-0.17-0.79-0.54c0.01-0.79,0.05-1.58,0.03-2.36
			c-0.01-0.64,0.25-0.9,0.89-0.88c1.37,0.04,2.74,0.04,4.11,0.05c0.01,0.34,0.02,0.67,0.5,0.68c0.35,0.01,0.5-0.23,0.63-0.5
			c0.16-0.35,0.17-0.64-0.32-0.72c-0.23-0.39,0.38-0.62,0.2-1.01c0.11-0.24,0.16-0.48,0.05-0.73c0.16-0.42,0.16-0.84,0.04-1.26
			c0.14-0.92,0.15-1.84-0.04-2.75c0.12-0.41,0.1-0.82-0.01-1.23c0.03-3.51,0.11-7.02,0.07-10.53c-0.06-4.38,0.26-8.76-0.1-13.14
			c-0.04-0.54-0.07-1-0.75-1.04c-1.07-0.51-2.2-0.09-3.3-0.21c-0.48-0.05-0.97-0.03-1.46-0.05c-0.08-0.07-0.17-0.14-0.25-0.2l0,0
			c0-0.33,0.06-0.7-0.43-0.76c-0.52-0.76,0.21-1.41,0.23-2.14c0.03-1.31,1.19-0.24,1.71-0.64c3.99,0.01,7.99,0.05,11.98,0.03
			c2.35-0.01,4.7,0.04,7.04,0.2c4.13,0.48,8.06,1.42,10.9,4.81c0.02,0.15,0.04,0.3,0.07,0.44c0.36,1.31,0.81-0.19,1.21,0.04
			c1.51,2.9,1.28,5.81-0.01,8.71c-0.23,0.1-0.41,0.33-0.71,0.25c0,0,0,0,0,0c-0.24-0.31-0.48-0.48-0.72,0.01
			c-0.16,0.21-0.36,0.41-0.3,0.72c-0.25,0.26-0.5,0.51-0.75,0.77c-0.54,0.34-1.1,0.67-1.63,1.03c-1.69,1.14-3.56,1.8-5.59,1.99
			c-0.12-0.19-0.29-0.3-0.51-0.2c-0.07,0.03-0.08,0.18-0.12,0.28C990.78,513.85,990.97,513.9,991.16,513.95z M980.64,499.48
			c-0.18,0.1-0.17,0.2,0.01,0.3c0,3.67-0.01,7.35,0,11.02c0,0.43-0.19,0.92,0.3,1.25c0.06,0.21,0.16,0.23,0.3,0.06
			c1.91-0.04,3.82,0.02,5.72-0.14c2.41-0.21,4.63-1.03,6.04-3.14c1.39-2.07,1.7-4.38,0.7-6.7c-1.03-2.41-3.31-3.35-5.62-3.7
			c-2.17-0.32-4.43,0.03-6.65,0.01C980.57,498.43,980.65,498.94,980.64,499.48z M980.94,530.98c0.07,0.21,0.16,0.24,0.3,0.06
			c2.32-0.04,4.66,0.04,6.97-0.15c2.39-0.19,4.61-0.9,6.14-2.98c1.18-1.6,1.15-3.43,1.1-5.27c-0.11-3.55-2.9-6.18-5.98-6.72
			c-2.59-0.45-5.2-0.08-7.8-0.24c-0.9-0.06-1.11,0.27-1.1,1.12c0.05,4.43,0.05,8.87,0.06,13.3
			C980.63,530.43,980.58,530.77,980.94,530.98z"/>
		<path d="M843.6,518.4c3.4,0.84,5.38,3.22,6.8,6.22c0.26,0.54,0.62,1.03,0.94,1.55c0,0.08,0,0.17,0.01,0.25
			c0.31,0.61,0.71,1.19,0.92,1.83c0.75,2.31,2.57,2.82,4.68,2.9c0.37,0.01,0.75,0,1.12,0c2.32,0,2.28,0,2.29,2.36
			c0,0.9-0.43,1.13-1.17,1.13c-3.7,0-7.4-0.02-11.11,0.01c-1.16,0.01-0.61-1.19-1.22-1.54c-0.06-0.37,0.15-0.86-0.46-0.96
			c-0.77-1.82-1.54-3.64-2.3-5.46c0-0.32,0.07-0.69-0.4-0.76c-0.03-0.17-0.06-0.33-0.09-0.5c-0.07-0.08-0.14-0.17-0.21-0.25
			c-0.55-1.4-0.95-2.89-1.7-4.19c-1.07-1.86-3.05-2.13-4.98-2.28c-1.19-0.09-2.4,0-3.6-0.03c-0.55-0.01-0.77,0.18-0.65,0.72
			c0,0.11,0,0.21,0,0.32c-0.03,3.33-0.06,6.67-0.07,10c0,0.2,0.28,0.4,0.22,0.67c0.08,0.25-0.2,0.86,0.5,0.5
			c1.54,0.43,3.12,0.25,4.68,0.24c0.65,0,0.88,0.18,0.82,0.83c-0.06,0.7-0.04,1.41-0.01,2.12c0.03,0.65-0.51,0.83-0.86,0.76
			c-1.97-0.44-3.95-0.15-5.93-0.18c-3.62-0.06-7.24-0.04-10.86,0c-0.87,0.01-1.14-0.24-1.11-1.12c0.09-3.14-0.42-2.58,2.63-2.64
			c0.54-0.01,1.09-0.05,1.62,0.01c1.14,0.11,1.59-0.44,1.56-1.5c0.34-0.07,0.58-0.17,0.19-0.5c-0.33-0.59,0.68-1.15,0.04-1.75
			c-0.01-1.66-0.02-3.31-0.03-4.97c0-0.09,0-0.17,0-0.26c0-0.25,0-0.49,0-0.74c0-0.09,0-0.17,0-0.26c0-0.25,0-0.49,0-0.74
			c0-0.09,0-0.17,0-0.26c0-0.25,0-0.49,0-0.74c0-0.09,0-0.17,0-0.26c0-0.25,0-0.49,0-0.74c0-0.09,0-0.17,0-0.26
			c0-0.25,0-0.49,0-0.74c0-0.09,0-0.17,0-0.26c0-0.25,0-0.49,0-0.74c0-0.09,0-0.17,0-0.26c0-0.25,0-0.49,0-0.74
			c0-0.09,0-0.17,0-0.26c0-0.25,0-0.49,0-0.74c0-0.09,0-0.17,0-0.26c0-0.25,0-0.49,0-0.74c0-0.09,0-0.17,0-0.26
			c0-0.25,0-0.49,0-0.74c0-0.09,0-0.17,0-0.26c0-0.25,0-0.49,0-0.74c0-0.09,0-0.17,0-0.26c-0.01-2.49-0.01-4.98-0.02-7.47
			c0.01-0.42,0.02-0.83,0.03-1.25c0.39-0.5,0.38-1,0-1.49c0.06-2.21,0.03-2.24-2.16-2.24c-0.87,0-1.75,0-2.62,0
			c-1.28-0.01-1.59-0.45-1.22-1.76c0.01-0.04,0-0.08,0.01-0.12c0.09-0.6-0.31-1.46,0.19-1.74c0.55-0.3,1.37-0.11,2.07-0.11
			c5.24,0,10.49-0.11,15.73,0.04c3.36,0.09,6.77,0.29,9.91,1.72c2.66,1.21,4.96,2.78,6.17,5.63c1.57,3.72,0.93,7.06-1.54,10.12
			c-0.96,1.18-2.17,2.09-3.41,2.98c-0.43,0.31-0.76,0.24-1.16,0.24c-0.72-0.19-0.38,0.43-0.52,0.68c-0.74,0.27-1.49,0.54-2.23,0.81
			c-0.18-0.08-0.23,0.04-0.27,0.18l0.01-0.01c-0.32,0.14-0.75-0.2-1,0.24c-0.08,0.03-0.16,0.06-0.25,0.1
			c-0.38,0.08-0.76,0.16-1.32,0.28C842.84,518.05,843.22,518.22,843.6,518.4z M845.33,500.67c-0.64-0.79-1.53-1.14-2.47-1.39
			c-0.42-0.42-1.04-0.19-1.5-0.48c-0.99,0.03-1.9-0.42-2.91-0.38c-1.66,0.07-3.32,0.07-4.98,0.01c-0.77-0.03-0.98,0.19-0.98,0.96
			c-0.01,4.88-0.05,9.76-0.14,14.65c-0.02,0.82,0.32,0.99,1,0.98c2.16-0.02,4.33,0.08,6.48-0.08c5.44-0.41,9.41-5.66,7.58-11.22
			c-0.05-0.82-0.44-1.48-1.01-2.05c-0.08-0.06-0.17-0.12-0.25-0.19C846.08,501,845.75,500.79,845.33,500.67z"/>
		<path d="M1029.64,520.43c-0.27-0.94-1.05-1.32-1.88-1.48c-2.12-0.41-4.27-0.24-6.41-0.27c-0.46-0.01-0.81,0.01-0.81,0.62
			c0.03,3.77,0.04,7.54,0.07,11.3c0,0.12,0.18,0.25,0.28,0.37c0.07,0.2,0.17,0.23,0.3,0.05c3.61-0.03,7.22-0.14,10.83-0.08
			c3.91,0.06,5.34-2.23,5.62-5.49c0.07-0.76,0.47-1.5,0.22-2.29c1.27-0.93,2.63-0.52,3.97-0.25c-0.01,3.48-0.07,6.96,0,10.44
			c0.02,1.08-0.31,1.29-1.31,1.29c-10.35-0.03-20.69-0.04-31.04,0.01c-1.29,0.01-1.74-0.36-1.56-1.6c0.07-0.48,0.18-0.98,0.2-1.43
			c0.04-0.77,0.4-0.75,0.93-0.74c1,0.02,2-0.06,2.99,0.02c1.16,0.09,1.76-0.38,1.88-1.51c0.11-0.24,0.16-0.48,0.05-0.73
			c0.16-0.42,0.16-0.84,0.04-1.26c0.14-0.92,0.15-1.84-0.04-2.75c0.12-0.41,0.1-0.82-0.01-1.23c0.03-3.51,0.11-7.02,0.07-10.53
			c-0.06-4.38,0.26-8.76-0.1-13.14c-0.04-0.54-0.07-1-0.75-1.04c-1.71-0.63-3.49-0.44-5.25-0.47c0.01-1.16,0.01-2.32,0.02-3.47
			c0.57-0.02,1.15-0.03,1.72-0.05c9.66,0,19.31,0,28.97,0c1.32-0.2,1.58,0.39,1.53,1.63c-0.11,3.13-0.05,6.27-0.02,9.41
			c0.01,0.7-0.08,1.08-0.92,0.98c-0.86-0.1-1.73-0.09-2.59-0.12c0.01-0.33-0.03-0.62-0.46-0.64c-0.03-0.25-0.05-0.5-0.08-0.75
			c0.13-1.05-0.1-2.04-0.45-3.02c-0.42-2.44-1.86-3.66-4.62-3.77c-3.14-0.12-6.29,0.01-9.44,0c-0.76,0-1.05,0.32-1.01,1.03
			c-0.19,0.1-0.17,0.2,0.01,0.3c-0.03,4.72-0.05,9.43-0.08,14.15c0,0.42,0.04,0.81,0.37,1.11c0.07,0.2,0.17,0.23,0.3,0.05
			c1.83-0.03,3.66-0.15,5.48-0.05c1.84,0.1,3.41-1.74,3.48-3.57c0.06-1.83,0.66-2.35,2.43-1.98c0.48,0.1,0.81,0.29,0.85,0.95
			c0.18,2.88,0.13,5.76,0.15,8.64c0.01,1.33,0,2.65-0.01,3.98c-0.01,1.16-0.33,1.34-2.13,1.37c-0.88,0.01-1.31-0.37-1.28-1.25
			c0.01-0.16-0.02-0.33-0.04-0.49C1030.2,521.87,1029.99,521.14,1029.64,520.43z"/>
		<path d="M929.03,499.5c-0.03-1.23-1.1-0.87-1.69-0.95c-1.08-0.15-2.21-0.02-3.32-0.01c-0.16-0.1-0.32-0.2-0.47-0.3
			c-0.01-0.85,0.05-1.71-0.05-2.54c-0.1-0.87,0.33-1.01,1.02-0.98c5.41,0,10.82,0,16.23,0c1.34-0.21,1.6,0.41,1.53,1.65
			c-0.12,2.12-0.03,2.13-2.22,2.13c-0.92,0-1.84,0.07-2.75-0.02c-1.22-0.11-1.61,0.44-1.6,1.58c0.02,3.07-0.03,6.14-0.04,9.22
			c-0.02,4.14-0.11,8.29-0.12,12.43c-0.01,4.84,2.43,8.31,7.18,9.23c4.61,0.9,9.36,0,11.7-4.9c0.68-1.42,0.75-3,0.77-4.51
			c0.08-5.77,0.03-11.54,0.03-17.3c0-1.08-0.03-2.16-0.04-3.24c-0.08-0.73-0.15-1.46-0.23-2.19c-0.01-0.3,0.12-0.68-0.33-0.75
			c-0.3-0.05-0.37,0.22-0.4,0.46c-1.41-0.02-2.83-0.04-4.24-0.06c-0.1-0.58-0.43-0.91-1.03-0.94c-0.38-1.42,0.37-2.76,1.52-2.72
			c0.65,0.54,1.28-0.08,1.93-0.07c3.61,0.07,7.21,0.01,10.82,0c0.41,0.01,0.83,0.02,1.24,0.03c0.09,0.09,0.18,0.18,0.27,0.27
			c0.19,0.4,0.35,0.77,0.12,1.24c-0.28,0.57-0.19,1.17,0.07,1.74c-0.07,0.09-0.13,0.17-0.2,0.26c-1.19,0.48-2.43,0.19-3.64,0.21
			c-1.34,0.02-1.91,0.32-1.9,1.82c0.08,6.47,0.1,12.95-0.01,19.42c-0.04,2.14-0.04,4.33-0.72,6.41c-0.84,2.57-2.16,4.81-4.73,6.05
			c-0.69-0.15-0.47,0.45-0.61,0.74l-0.06-0.06l-0.06,0.06c-0.18-0.07-0.25,0.05-0.29,0.19c-2.35,1.25-4.82,1.93-7.51,1.77
			c-1.23-0.07-2.47,0.01-3.7,0.03c-0.5-0.09-0.95-0.4-1.49-0.3c-1.89-0.42-3.55-1.35-5.19-2.32c-2.09-1.23-3.38-3.17-4.56-5.2
			c-0.02-0.4,0.12-0.89-0.53-0.95c-0.45-1.36-0.47-2.77-0.47-4.18c-0.01-7.24-0.03-14.48-0.04-21.72
			C929.26,499.98,929.38,499.68,929.03,499.5z"/>
		<path d="M883.64,505.24c-0.01-0.17-0.01-0.34-0.02-0.51c0.3-0.58,0.3-1.16-0.03-1.73c0.03-2.5,0.07-5,0.1-7.5
			c0.2-0.2,0.13-0.45,0.15-0.69c0.33-0.03,0.65-0.05,0.98-0.08c2.49,0.01,4.98,0.04,7.46,0.04c8.5-0.01,17-0.03,25.5-0.04
			c1.95,0.1,1.94,0.1,1.92,2.09c-0.02,2.2,0.02,4.4-0.01,6.59c-0.02,1.48-0.1,2.95-0.17,4.43c-0.01,0.19-0.07,0.54-0.13,0.55
			c-1.07,0.12-2.17,0.26-3.2-0.03c-0.71-0.2-0.4-1.01-0.4-1.55c0.02-1.92-0.33-3.8-0.85-5.61c-0.43-1.47-1.41-2.56-3.26-2.75
			c-2.09-0.21-4.14-0.3-6.21,0c-0.18,0.11-0.19,0.23-0.02,0.36c-0.02,9.85-0.05,19.7-0.06,29.55c0,0.67-0.13,1.37,0.15,2.02
			c-0.17,0.34-0.36,0.7,0.14,0.93c0.35,0.15,0.55-0.01,0.6-0.37c1.75,0.4,3.53,0.17,5.29,0.18c0.73,0.01,0.98,0.13,0.98,0.94
			c-0.02,2.57,0.02,2.57-2.55,2.57c-5.89,0-11.79-0.01-17.68,0.02c-0.77,0-1.14-0.13-1.03-0.99c0.08-0.61,0.05-1.24,0.01-1.86
			c-0.05-0.81,0.36-0.91,1-0.73c0.03,0.23,0.01,0.52,0.35,0.54c0.42,0.02,0.39-0.31,0.41-0.59c1.28-0.03,2.55-0.05,3.83-0.08
			c0.48-0.01,0.98,0.03,1.41-0.29c0.38,0,0.92-0.01,0.88-0.42c-0.04-0.44,0.13-1.12-0.58-1.32c-0.05-0.36-0.15-0.73,0.11-1.07
			c0.22-1.9,0.12-3.8,0.12-5.7c-0.01-6.8-0.04-13.59-0.07-20.39c0.01-0.95,0.01-1.9,0.05-2.84c0.02-0.45-0.08-0.68-0.6-0.65
			c-2.08,0.12-4.18-0.24-6.24,0.26c-0.71,0.17-1.42,0.4-1.67,1.22c-0.24,0.26-0.49,0.53-0.73,0.79c-0.51-0.39-0.78-0.28-1.08,0.33
			c-0.9,1.79-0.99,3.72-1.16,5.63c-0.06,0.64,0.08,1.31-0.51,1.79c-0.27,0-0.58-0.2-0.76,0.18c-0.58,0.02-1.16,0.04-1.74,0.07
			c-0.24-0.11-0.49-0.22-0.73-0.33c0.01-0.07,0-0.13-0.04-0.18c0-0.1,0.01-0.2,0.01-0.3c0.07-0.07,0.08-0.15,0.03-0.23
			C883.99,506.74,883.91,505.99,883.64,505.24z"/>
		<path d="M781.93,500.27c-0.11-3.96,0.41-7.98-0.97-11.84c-0.17-0.49,0.03-0.66,0.53-0.65c1.46,0.02,2.91,0.02,4.37,0
			c0.6-0.01,0.71,0.35,0.84,0.84c0.75,2.94,1.11,5.93,1.11,8.96c0.02,7.18,0.05,14.35-0.01,21.53c-0.01,1.61-0.2,3.22-0.12,4.83
			c0.07,1.42,0.12,2.89,0.54,4.22c0.75,2.37,3.78,4.25,6.44,3.51c2.24-0.62,4.12-1.69,5.73-3.31c0.15,0.53,0.87,0.52,1.02,1.05
			c-1.47,1.61-2.9,3.29-4.82,4.36c-1.59,0.88-3.25,1.85-5.13,1.82c-3.19-0.06-6.05-0.95-7.8-3.93c-0.07-0.09-0.13-0.18-0.2-0.27
			c-0.03-0.07-0.05-0.14-0.05-0.22c-0.06-0.09-0.13-0.18-0.19-0.28c-0.03-0.07-0.05-0.15-0.05-0.23c-0.35-0.25,0.31-0.95-0.45-1.02
			c-0.11-0.75-0.22-1.49-0.33-2.24c-0.08-0.83-0.17-1.66-0.25-2.49c0.13-3.58-0.45-7.14-0.18-10.72c0.35-0.42,0.34-0.84-0.03-1.24
			c0-0.33,0-0.66,0-0.99c0-0.09,0-0.17,0-0.26c0-3.74,0.01-7.49,0.01-11.23C781.97,500.41,781.97,500.34,781.93,500.27z"/>
		<path d="M816.13,528.9c-0.25,0.68-0.61,1.33-0.72,2.03c-0.42,2.53-3.95,4.93-6.7,4.49c-1.56-0.25-2.97-0.38-4.07-1.58
			c-0.06-0.06-0.11-0.12-0.17-0.19c-0.03-0.08-0.06-0.16-0.08-0.24c0.05-0.5-0.11-0.82-0.69-0.75c-0.2-0.92-0.62-1.79-0.61-2.76
			c0.05-0.21,0.06-0.41-0.19-0.51c-0.02-0.09,0-0.16,0.05-0.24c0.4-0.07,0.49-0.29,0.21-0.58c-0.47-0.5-0.8-1.14-1.44-1.48
			c1.16-0.88,1.23-2.09,1.22-3.43c-0.02-6.59,0.04-13.18,0.03-19.77c0-0.91,0.17-1.27,1.15-1.16c1.39,0.15,3.26-0.58,4.05,0.27
			c0.69,0.74,0.21,2.59,0.21,3.95c0.01,7.34,0.01,14.68-0.01,22.02c0,0.89,0.23,1.69,0.61,2.45c0.41,0.8,0.95,1.06,2,1.06
			c1.46,0,2.38-0.51,3.14-1.59c0.3-0.18,0.24-0.48,0.25-0.77c0.02-0.16,0.03-0.32,0.05-0.48c0.07-0.09,0.13-0.17,0.2-0.26
			c0.05-0.51-0.12-1.06,0.33-1.48c0.32,0,0.63-0.01,0.95-0.01c0.39,0.16,0.17,0.5,0.23,0.76
			C816.13,528.74,816.13,528.82,816.13,528.9z"/>
		<path d="M878.86,517.19c0.39,1.1-0.39,2.21,0.05,3.33c0.07,0.19-0.31,0.14-0.47,0.14c-4.83,0.01-9.65,0.02-14.48,0.01
			c-0.57,0-1.17-1.39-0.84-2.26c0.22-0.58,0.14-1.13,0.22-1.69c4.87-0.01,9.74-0.02,14.61-0.02
			C878.33,516.7,878.84,516.52,878.86,517.19z"/>
		<path class="st1" d="M801.72,527.09c0.64,0.34,0.97,0.98,1.44,1.48c0.28,0.3,0.19,0.51-0.21,0.58c-0.69-0.86-1,0.37-1.54,0.28
			c-0.15-0.53-0.87-0.52-1.02-1.05C800.74,527.85,801.21,527.45,801.72,527.09z"/>
		<path class="st1" d="M973.78,530.41c0.48,0.07,0.48,0.36,0.32,0.72c-0.12,0.27-0.27,0.5-0.63,0.5c-0.48-0.01-0.49-0.34-0.5-0.68
			C973.24,530.76,973.51,530.59,973.78,530.41z"/>
		<path class="st2" d="M883.64,505.24c0.27,0.75,0.35,1.5-0.06,2.23C883.19,506.72,883.11,505.97,883.64,505.24z"/>
		<path class="st1" d="M898.6,528.9c0.71,0.2,0.54,0.88,0.58,1.32c0.03,0.42-0.51,0.42-0.88,0.42
			C898.73,530.12,898.45,529.47,898.6,528.9z"/>
		<path class="st2" d="M883.59,502.99c0.34,0.57,0.33,1.15,0.03,1.73C883.13,504.16,883.13,503.58,883.59,502.99z"/>
		<path class="st3" d="M825.88,500.75c0.39,0.5,0.39,0.99,0,1.49C825.48,501.74,825.48,501.25,825.88,500.75z"/>
		<path class="st1" d="M948.97,497.52c0.6,0.04,0.93,0.37,1.03,0.94C949.19,498.65,948.97,498.2,948.97,497.52z"/>
		<path class="st1" d="M906.29,530.94c-0.05,0.36-0.25,0.53-0.6,0.37c-0.5-0.22-0.32-0.58-0.14-0.93
			C905.79,530.57,906.04,530.76,906.29,530.94z"/>
		<path class="st1" d="M1000.45,499.72c0.16,0.1,0.32,0.19,0.48,0.29c0,0.08-0.01,0.16-0.01,0.24c-0.4-0.23-0.84,1.27-1.21-0.04
			c0.39,0.1,0.5-0.13,0.52-0.45C1000.31,499.78,1000.38,499.77,1000.45,499.72z"/>
		<path class="st3" d="M781.69,512.97c0.07-0.02,0.14-0.02,0.22-0.01c0.38,0.4,0.38,0.82,0.03,1.24
			C781.43,513.87,781.76,513.38,781.69,512.97z"/>
		<path class="st1" d="M893.06,531.01c-0.02,0.28,0.01,0.61-0.41,0.59c-0.33-0.02-0.32-0.3-0.35-0.54
			C892.54,530.93,892.8,530.94,893.06,531.01z"/>
		<path class="st1" d="M954.97,498.81c-0.24-0.03-0.48-0.06-0.72-0.09c-0.01-0.07-0.02-0.14-0.02-0.2c0.03-0.24,0.1-0.51,0.4-0.46
			C955.09,498.14,954.96,498.52,954.97,498.81z"/>
		<path class="st1" d="M803.7,532.65c0.58-0.08,0.74,0.24,0.69,0.75C804.25,533.06,803.47,533.32,803.7,532.65z"/>
		<path class="st1" d="M929.74,526.15c0.65,0.05,0.51,0.55,0.53,0.95C930.18,526.73,929.59,526.65,929.74,526.15z"/>
		<path class="st1" d="M846.4,532.14c0.62,0.1,0.41,0.6,0.46,0.96C846.39,532.93,846.36,532.55,846.4,532.14z"/>
		<path class="st1" d="M782.71,529.65c0.76,0.07,0.1,0.77,0.45,1.02C782.35,530.62,782.75,530.04,782.71,529.65z"/>
		<path class="st1" d="M843.7,525.91c0.47,0.08,0.4,0.44,0.4,0.76C843.59,526.62,843.23,526.48,843.7,525.91z"/>
		<path class="st1" d="M991.16,513.95c-0.19-0.05-0.38-0.1-0.57-0.15c0.04-0.1,0.05-0.25,0.12-0.28c0.22-0.1,0.39,0.01,0.51,0.2
			C991.21,513.8,991.19,513.88,991.16,513.95z"/>
		<path class="st2" d="M883.83,494.8c-0.01,0.24,0.06,0.49-0.15,0.69c-0.25,0.02-0.38-0.09-0.34-0.34
			C883.38,494.88,883.53,494.73,883.83,494.8z"/>
		<path class="st1" d="M1036.2,505.98c0.43,0.02,0.47,0.31,0.46,0.64C1036.28,506.57,1036.14,506.35,1036.2,505.98z"/>
		<path class="st1" d="M967.79,497.51c0.49,0.06,0.43,0.42,0.43,0.76C967.95,498.09,967.69,497.9,967.79,497.51z"/>
		<path class="st1" d="M833.12,530.88c-0.7,0.37-0.42-0.25-0.5-0.5C832.79,530.55,832.95,530.72,833.12,530.88z"/>
		<path class="st1" d="M964.75,495.02c-0.09-0.09-0.18-0.18-0.27-0.27c0.08-0.22,0.25-0.32,0.42-0.15
			C965.06,494.77,964.97,494.94,964.75,495.02z"/>
		<path class="st1" d="M825.86,528.9c0.39,0.33,0.16,0.44-0.19,0.5C825.63,529.2,825.56,528.98,825.86,528.9z"/>
		<path class="st1" d="M815.9,527.9c-0.32,0-0.63,0.01-0.95,0.01C815.27,527.59,815.58,527.47,815.9,527.9z"/>
		<path class="st1" d="M814.38,530.13c0,0.28,0.06,0.58-0.25,0.77C814.25,530.65,813.97,530.28,814.38,530.13z"/>
		<path class="st1" d="M851.35,526.42c0-0.08,0-0.17-0.01-0.25c0.06,0.03,0.12,0.05,0.18,0.08
			C851.47,526.3,851.41,526.36,851.35,526.42z"/>
		<path class="st1" d="M968.22,498.26c0.08,0.07,0.17,0.14,0.25,0.2C968.3,498.51,968.24,498.41,968.22,498.26z"/>
		<path class="st1" d="M814.63,529.38c-0.07,0.09-0.13,0.17-0.2,0.26C814.38,529.47,814.48,529.41,814.63,529.38z"/>
		<path class="st1" d="M783.21,530.9c0.06,0.09,0.13,0.18,0.19,0.28C783.27,531.13,783.15,531.08,783.21,530.9z"/>
		<path class="st1" d="M964.74,498.27c0.07-0.09,0.13-0.17,0.2-0.26C964.99,498.19,964.88,498.24,964.74,498.27z"/>
		<path class="st4" d="M1021.2,531.03c-0.13,0.18-0.23,0.15-0.3-0.05C1021,531,1021.1,531.01,1021.2,531.03z"/>
		<path class="st1" d="M783.46,531.39c0.07,0.09,0.13,0.18,0.2,0.27C783.52,531.63,783.4,531.57,783.46,531.39z"/>
		<path class="st2" d="M883.55,507.71c0,0.1-0.01,0.2-0.01,0.3c-0.06-0.07-0.13-0.14-0.19-0.2
			C883.41,507.77,883.48,507.74,883.55,507.71z"/>
		<path class="st4" d="M1021.2,515.09c-0.13,0.18-0.23,0.15-0.3-0.05C1021,515.05,1021.1,515.07,1021.2,515.09z"/>
		<path class="st5" d="M905.45,498.82c-0.17-0.13-0.16-0.25,0.02-0.36C905.47,498.57,905.46,498.7,905.45,498.82z"/>
		<path class="st5" d="M832.46,519.72c0-0.11,0-0.21,0-0.32C832.65,519.51,832.65,519.61,832.46,519.72z"/>
		<path class="st1" d="M804.47,533.64c0.06,0.06,0.11,0.12,0.17,0.19C804.48,533.86,804.4,533.82,804.47,533.64z"/>
		<path class="st3" d="M781.93,500.48l-0.11,0.02l-0.11-0.01c-0.01-0.16,0.07-0.23,0.22-0.21
			C781.97,500.34,781.97,500.41,781.93,500.48z"/>
		<path class="st1" d="M843.4,525.17c0.07,0.08,0.14,0.17,0.21,0.25C843.45,525.4,843.35,525.35,843.4,525.17z"/>
		<path class="st4" d="M1020.61,499.77c-0.17-0.09-0.2-0.19-0.01-0.3C1020.6,499.58,1020.6,499.68,1020.61,499.77z"/>
		<path class="st1" d="M816.13,528.9c0-0.08,0-0.16,0-0.24c0.06,0.05,0.12,0.11,0.17,0.16C816.25,528.84,816.19,528.87,816.13,528.9
			z"/>
		<path class="st6" d="M756.34,530.4c-0.04,0.11-0.09,0.22-0.13,0.33c-0.31,0-0.26,0.21-0.24,0.41c-0.35,0.5-0.7,1-1.05,1.5
			c-0.37,0.08-0.88-0.21-1.1,0.24c-0.15,0.3,0.12,0.6,0.41,0.79c-1.34,1.64-2.76,3.21-4.55,4.39c-0.06-0.49-0.43-0.43-0.77-0.42
			l0.01,0.01c0.07-0.62-0.23-0.83-0.81-0.74c-0.07-0.07-0.14-0.15-0.2-0.22c0.09-0.61-0.17-0.87-0.78-0.78
			c-0.07-0.07-0.14-0.14-0.22-0.22c0.09-0.78-0.25-1.12-1.03-1.03c-0.66-0.64-1.32-1.29-1.98-1.93c0.06-0.52-0.28-0.59-0.67-0.6
			c-0.78-0.55-1.44-1.22-2.06-1.94c-0.05-0.96-0.15-1.04-0.77-0.71c-0.67-0.54-1.36-1.07-2.02-1.62c-2.98-2.47-5.95-4.95-8.93-7.43
			c0.11-1.34-0.69-1.59-1.79-1.47c-0.52-0.09-0.93,0.1-1.3,0.47c-0.54,0.52-1.12,1-1.69,1.5c-0.56,0-0.98,0.16-0.93,0.83
			c-0.39,0.36-0.79,0.72-1.18,1.09c-0.31-0.51-0.74-0.98-0.57-1.6c1.4-0.73,2.51-1.78,3.5-2.98c0.11-0.13,0.22-0.29,0.05-0.42
			c-0.22-0.16-0.37,0.04-0.52,0.17c-0.77,0.67-1.53,1.37-2.33,2.02c-0.36,0.29-0.8,0.46-0.71,1.21c-1.74,0.56-2.71,2.07-3.92,3.29
			c-0.49,0.49-1.03,1.08-1.17,1.71c-0.19,0.83,1.05,0.89,1.27,1.62c0.01,0.03,0.07,0.05,0.1,0.07c-0.05,0.44-0.44,0.55-0.73,0.75
			c-0.4,0.04-1.32-0.74-0.92,0.6c0.1,0.35,0.03,0.92-0.46,0.98c-0.34,0.04-0.87-0.05-0.92-0.61c-0.04-0.45-0.35-0.5-0.71-0.5
			c-0.89-1.58-1.59-3.23-2.14-4.95c1.1-0.14,1.93,0.07,1.86,1.45c-0.02,0.35,0.13,0.71,0.55,0.67c0.46-0.05,0.77-0.36,0.67-0.86
			c-0.07-0.36-0.2-0.72-0.37-1.04c-0.27-0.52-0.41-0.88,0.23-1.34c0.64-0.45,1.27-1.1,1.58-1.8c0.24-0.54,0.24-0.79,0.94-0.65
			c0.68,0.14,1.2-0.49,1.44-0.99c0.31-0.67-0.56-0.32-0.79-0.6c-0.24-0.29-0.25-0.6-0.29-0.93c0.72-0.77,1.53-1.44,2.47-1.93
			c0.71,0.03,1.34,0.3,1.97,0.6c0.3,0.14,0.55,0.13,0.73-0.18c0.18-0.32,0.05-0.56-0.25-0.69c-0.56-0.25-0.83-0.75-1.14-1.22
			c-0.05-0.26,0.06-0.53-0.31-0.71c-1.69-0.8-2.86-2.24-4.19-3.48c-0.14-1.08-0.28-1.2-1.03-0.95c-1.42-1.07-2.74-2.25-3.97-3.53
			c-0.05-0.3,0.19-0.72-0.21-0.87c-0.26-0.1-0.24,0.24-0.3,0.42c-0.16-0.17-0.32-0.35-0.49-0.52c-0.09-0.1-0.18-0.2-0.28-0.3
			c-0.08-0.01-0.16-0.05-0.23-0.1c-0.07-0.05-0.13-0.11-0.2-0.16c-0.11-0.02-0.22-0.03-0.34-0.05c0.03-0.32,0.07-0.64,0.1-0.95
			c0.93-0.16,1.84-0.34,1.05-1.62c-0.18-0.29-0.05-0.68,0.24-0.73c1.02-0.17,0.9-1.01,1.25-1.65c0.59-1.08-0.13-1.89-0.07-2.81
			c0.04-0.74-0.33-1.05-0.97-1.2c0-0.11,0.01-0.23,0.01-0.34c0.16,0.04,0.32,0.08,0.47,0.13c0.65,0.22,1.31,0.42,1.65-0.44
			c0.25-0.63-0.47-1.84-1.16-2.06c-0.02-0.39,0.19-0.69,0.37-1c0.21,0.58,0.77,0.71,1.25,0.92c0.3,0.13,0.73,0.22,0.93-0.06
			c0.26-0.37-0.17-0.57-0.41-0.76c-0.65-0.55-0.54-1.16-0.1-1.73c0.33-0.43,0.6-0.87,0.75-1.4c0.17-0.63,0.37-1.18,1.27-0.82
			c0.4,0.16,0.79-0.05,0.42-0.59c-0.14-0.21-0.59-0.31-0.28-0.66c0.19-0.21,0.46,0.02,0.69,0.06c0.28,0.05,0.57,0.05,0.86,0.07
			c0.37,0.23,0.65,0.55,0.81,0.96c-0.45,0.34-0.44,0.79-0.17,1.17c0.36,0.5,0.88,0.19,1.34,0.11c0.33,0.17,0.57,0.43,0.74,0.75
			c-0.02,0.79,0.63,1.27,0.96,1.88c0.26,0.5,0.84,0.38,1.09-0.23c0.15,0.11,0.31,0.22,0.46,0.34c-0.92,1.36-0.59,2.6,1.03,4.18
			c0.69,0.68,1.21,0.79,1.43-0.3c0.14-0.68,0.39-0.66,0.78-0.24c0.61,0.66,1.38,0.86,2.24,0.86c0.09,0.08,0.17,0.16,0.26,0.24
			c0.03,0.46-0.05,0.9-0.24,1.31c-0.35,0.76-0.08,1.32,0.52,1.82c1.2,0.98,1.79-0.11,2.52-0.73c0.54,0.28,1.06,0.6,1.44,1.08
			c-0.13,0.55,0.38,0.88,0.46,1.35c0.27,1.43,0.26,1.43,1.78,0.95c0.15-0.05,0.32-0.03,0.49-0.04c0.18,0.15,0.36,0.29,0.54,0.44
			c-0.01,0.6-0.01,1.2-0.05,1.9c0.07-0.11,0.03-0.15-0.08-0.09c-0.09,0.05-0.22,0.1-0.26,0.18c-0.06,0.13,0.05,0.23,0.18,0.18
			c0.08-0.03,0.13-0.16,0.17-0.27c0.53-0.11,1.03-0.05,1.52-0.13c0.69-0.12,0.56-0.46,0.14-0.82c0.43-0.36,0.86-0.72,1.29-1.07
			c0.11,0.6,0.64,1.22-0.21,1.75c-0.34,0.21-0.34,0.74-0.05,0.99c0.4,0.35,0.63-0.06,0.86-0.37c1.78-2.4,4.29-4.08,6.34-6.23
			c1.2-1.27,2.6-2.26,3.41-3.96c0.57-1.19,0.46-1.61-0.62-2.03c0.04-0.07,0.09-0.15,0.13-0.22c0.07-0.07,0.14-0.14,0.21-0.21
			c0.08-0.09,0.16-0.18,0.24-0.27c1.28,0.74,2.21,0.45,2.87-0.89c0.16-0.33,0.65-0.49,0.93-0.79c0.44-0.46,0.86-0.12,1.26,0.01
			c0.43,0.14,0.49,0.51,0.32,0.92c-0.19,0.45-0.05,0.66,0.44,0.77c0.9,0.2,0.77,0.85,0.51,1.46c-0.13,0.3-0.39,0.55-0.3,0.91
			c0.1,0.42,0.35,0.71,0.79,0.48c0.42-0.22,0.47-2.74,0.06-3c-1.32-0.85-0.28-1.04,0.36-1.35c0.76,1.22,1.11,2.59,1.53,3.94
			c-0.22,0.18-0.42,0.39-0.66,0.54c-1.09,0.71-1.11,0.92-0.13,1.98c-0.34,0.31-0.68,0.63-1.01,0.94c-0.07,0.02-0.15,0.04-0.22,0.06
			c-0.21-0.03-0.5-0.1-0.44-0.33c0.29-1.01-0.34-0.95-0.99-0.91c-1.09,0.06-1.62,1.06-2.48,1.51c-0.22,0.11-0.1,0.64,0.36,0.71
			c0.6,0.09,0.98,0.4,1.06,1.02c-0.44,0.48-1.15,0.62-1.52,1.19c-0.08,0.01-0.17,0.03-0.25,0.04c-0.93-1.07-1.69-1.12-2.9-0.37
			c-0.52,0.32-1.18,0.4-0.9,1.28c0.08,0.26-0.32,0.38-0.56,0.32c-0.85-0.22-1.62,0.45-1.76,0.84c-0.41,1.15-1.22,1.1-2.13,1.28
			c-0.52,0.1-1.23,0.51-1.34,1.13c-0.1,0.55,0.6,0.4,0.92,0.6c0.24,0.15,0.18,0.44,0.21,0.68c-0.1,0.13-0.19,0.27-0.29,0.4
			c-0.56,0.15-0.37,0.46-0.17,0.78c-0.68,0.39-0.76,0.92-0.28,1.5c0.7,0.84,1.35,0.36,1.97-0.16c0.26,0.04,0.41,0.21,0.51,0.43
			c0.09,0.08,0.17,0.17,0.26,0.25l0,0c-0.25,0.4-0.93,0.44-0.89,1.08c1.12-0.05,1.53,0.2,1.2,0.54c-1.14,1.21-0.12,1.68,0.67,2.26
			c0.21,0.15,0.46,0.5,0.7,0.09c0.15-0.25,0.09-0.57-0.27-0.71c-0.2-0.08-0.4-0.17-0.27-0.44c0.12-0.25,0.36-0.36,0.62-0.27
			c0.27,0.09,0.62,0.19,0.75,0.4c0.58,0.97,1.54,0.95,2.48,1.04c0.09,0.08,0.18,0.16,0.27,0.24c0,0.49-0.01,0.97-0.19,1.45
			c-0.28,0.78,0.21,1.36,0.68,1.84c0.46,0.47,0.9-0.04,1.33-0.22c0.53-0.22,1.02-0.64,1.24,0.38c0.12,0.54,0.6,0.15,0.92,0.05
			c0.08,0,0.16,0.01,0.24,0.03c0.09,0.15,0.18,0.3,0.27,0.45c-0.01,1.5-0.01,1.5,1.71,1.52c0.09,0.08,0.19,0.17,0.28,0.25
			c-0.32,1.2,0.14,2.4,1.24,3.23c-0.25,0.69-0.49,1.37-0.74,2.06c-0.06,0.02-0.13,0.05-0.19,0.07c0.02,0.03,0.04,0.07,0.06,0.1
			c0.01,0.47-0.17,0.88-0.35,1.3c-0.38,0.31-0.83,0.6-0.55,1.21c-0.07,0.08-0.15,0.17-0.22,0.25c-0.98-0.1-1.15,0.31-0.69,1.11
			C756.59,529.8,756.05,529.92,756.34,530.4z M721.05,516.95c-0.87-0.16-1.04,0.46-1.23,1.07c-0.09,0.28-0.19,0.68,0.09,0.79
			c0.7,0.27,0.87-0.41,1.18-0.8c0.07-0.09,0.17-0.18,0.28-0.24c0.23-0.13,0.65-0.13,0.52-0.54
			C721.76,516.81,721.34,516.99,721.05,516.95z M735.7,503.27c-0.38,0.02-0.49,0.26-0.45,0.59c0.03,0.32,0.2,0.56,0.54,0.57
			c0.42,0.02,0.42-0.31,0.42-0.61C736.2,503.49,736.07,503.26,735.7,503.27z M724.1,514.39c0.09-0.26-0.05-0.38-0.28-0.41
			c-0.26-0.03-0.49,0.04-0.55,0.34c-0.04,0.19-0.07,0.44,0.18,0.5C723.79,514.9,723.92,514.6,724.1,514.39z M716.71,490.28
			c0-0.22-0.06-0.43-0.33-0.38c-0.12,0.03-0.27,0.19-0.31,0.32c-0.06,0.22,0.09,0.41,0.31,0.44
			C716.66,490.71,716.71,490.5,716.71,490.28z M753.9,530.52c-0.17,0.09-0.21,0.28-0.2,0.48c0.01,0.19-0.05,0.46,0.22,0.49
			c0.29,0.02,0.25-0.26,0.26-0.45C754.19,530.85,754.23,530.63,753.9,530.52z M732.17,501.04c-0.11-0.11-0.18-0.22-0.26-0.23
			c-0.1-0.02-0.26,0.03-0.3,0.1c-0.08,0.18,0.04,0.29,0.21,0.29C731.93,501.2,732.02,501.12,732.17,501.04z M752.76,500.16
			c0.03-0.07,0.1-0.15,0.08-0.2c-0.02-0.05-0.13-0.06-0.2-0.09c-0.03,0.07-0.1,0.15-0.08,0.2
			C752.58,500.11,752.69,500.13,752.76,500.16z"/>
		<path class="st0" d="M750.44,492.03c1.44-1.87,2.82-3.76,3.96-5.83c0.13-0.24,0.28-0.4,0.55-0.44c1.08,1.5,2.07,3.05,2.73,4.78
			c-0.63,0.31-1.67,0.5-0.36,1.35c0.41,0.26,0.35,2.78-0.06,3c-0.45,0.24-0.7-0.05-0.79-0.48c-0.08-0.36,0.18-0.61,0.3-0.91
			c0.26-0.61,0.39-1.26-0.51-1.46c-0.49-0.11-0.64-0.32-0.44-0.77c0.18-0.41,0.11-0.78-0.32-0.92c-0.39-0.13-0.81-0.47-1.26-0.01
			c-0.28,0.29-0.77,0.45-0.93,0.79C752.65,492.48,751.73,492.77,750.44,492.03z"/>
		<path class="st0" d="M711.95,522.95c2.02-1.17,3.49-3.01,5.43-4.28c0.27-0.18,0.54-0.37,0.81-0.56c0.04,0.32,0.04,0.64,0.29,0.93
			c0.24,0.28,1.11-0.07,0.79,0.6c-0.23,0.5-0.76,1.13-1.44,0.99c-0.7-0.14-0.7,0.1-0.94,0.65c-0.31,0.7-0.94,1.35-1.58,1.8
			c-0.65,0.46-0.5,0.82-0.23,1.34c0.17,0.32,0.3,0.68,0.37,1.04c0.1,0.5-0.2,0.81-0.67,0.86c-0.43,0.05-0.57-0.31-0.55-0.67
			c0.07-1.38-0.76-1.58-1.86-1.45C712.24,523.78,712.1,523.36,711.95,522.95z"/>
		<path class="st0" d="M712.03,495.48c0.64,0.15,1.01,0.46,0.97,1.2c-0.05,0.92,0.67,1.73,0.07,2.81c-0.36,0.65-0.24,1.48-1.25,1.65
			c-0.29,0.05-0.41,0.44-0.24,0.73c0.79,1.29-0.12,1.46-1.05,1.62C710.67,500.75,711.16,498.08,712.03,495.48z"/>
		<path class="st0" d="M717.21,485c0.51,0.6,1.02,1.19,1.53,1.79c-0.29-0.02-0.58-0.02-0.86-0.07c-0.23-0.04-0.5-0.27-0.69-0.06
			c-0.31,0.35,0.13,0.45,0.28,0.66c0.37,0.55-0.02,0.75-0.42,0.59c-0.9-0.35-1.1,0.19-1.27,0.82c-0.14,0.53-0.41,0.97-0.75,1.4
			c-0.44,0.57-0.55,1.18,0.1,1.73c0.23,0.2,0.67,0.4,0.41,0.76c-0.2,0.28-0.63,0.19-0.93,0.06c-0.48-0.21-1.04-0.33-1.25-0.92
			C714.36,489.35,715.56,487.05,717.21,485z"/>
		<path class="st0" d="M713,492.78c0.69,0.22,1.41,1.42,1.16,2.06c-0.33,0.85-1,0.65-1.65,0.44c-0.15-0.05-0.31-0.09-0.47-0.13
			C712.36,494.35,712.68,493.56,713,492.78z"/>
		<path class="st0" d="M759.42,523.42c-1.1-0.83-1.56-2.03-1.24-3.23c0.62,0.26,0.88,1.14,1.73,0.99c0.03,0.24,0.05,0.49,0.08,0.73
			C759.52,522.31,759.87,523.02,759.42,523.42z"/>
		<path class="st0" d="M717.54,528.68c-0.18,1.26-1.39,2.11-1.37,3.44c-0.55-0.99-1.3-1.87-1.65-2.97c0.36,0,0.67,0.05,0.71,0.5
			c0.05,0.57,0.58,0.66,0.92,0.61c0.49-0.06,0.56-0.64,0.46-0.98C716.23,527.93,717.14,528.72,717.54,528.68z"/>
		<path class="st0" d="M759.45,496.48c-0.35,0.16-0.58,0.56-1.04,0.53c-0.98-1.06-0.96-1.27,0.13-1.98
			c0.24-0.15,0.44-0.36,0.66-0.54C759.49,495.12,760.09,495.72,759.45,496.48z"/>
		<path class="st0" d="M754.24,533.66c-0.29-0.19-0.56-0.49-0.41-0.79c0.22-0.45,0.73-0.15,1.1-0.24
			C754.8,533.04,754.57,533.38,754.24,533.66z"/>
		<path class="st0" d="M756.73,529.51c-0.45-0.8-0.29-1.21,0.69-1.11c-0.09,0.29-0.18,0.58-0.27,0.87
			C757.02,529.36,756.87,529.43,756.73,529.51z"/>
		<path class="st1" d="M757.65,528.15c-0.28-0.61,0.17-0.9,0.55-1.21C758.18,527.42,758.1,527.87,757.65,528.15z"/>
		<path class="st1" d="M756.73,529.51c0.14-0.08,0.28-0.16,0.43-0.24c-0.13,0.48-0.23,0.97-0.81,1.12
			C756.05,529.92,756.59,529.8,756.73,529.51z"/>
		<path class="st1" d="M759.92,521.18c0.04-0.19-0.05-0.44,0.25-0.51c0.56,0.49,0.06,0.85-0.16,1.24
			C759.97,521.67,759.94,521.42,759.92,521.18z"/>
		<path class="st0" d="M749,538.37c-0.02-0.25-0.04-0.49-0.07-0.74c0.34-0.01,0.7-0.07,0.77,0.42
			C749.51,538.25,749.3,538.42,749,538.37z"/>
		<path class="st1" d="M755.98,531.14c-0.03-0.2-0.07-0.4,0.24-0.41C756.14,530.87,756.06,531,755.98,531.14z"/>
		<path class="st1" d="M702.48,532.42c-0.15-0.03-0.25-0.1-0.21-0.28C702.35,532.23,702.42,532.33,702.48,532.42z"/>
		<path class="st1" d="M758.55,525.65c-0.02-0.03-0.04-0.07-0.06-0.1c0.06-0.02,0.13-0.05,0.19-0.07
			C758.66,525.55,758.62,525.61,758.55,525.65z"/>
		<path class="st4" d="M980.94,530.98c0.1,0.02,0.2,0.04,0.3,0.06C981.1,531.21,981,531.18,980.94,530.98z"/>
		<path class="st4" d="M980.94,512.05c0.1,0.02,0.2,0.04,0.3,0.06C981.1,512.28,981,512.26,980.94,512.05z"/>
		<path class="st4" d="M980.64,499.48c0,0.1,0,0.2,0.01,0.3C980.48,499.68,980.46,499.58,980.64,499.48z"/>
		<path class="st3" d="M825.87,522.18c-0.06-0.03-0.13-0.06-0.19-0.09c0.06-0.06,0.13-0.11,0.19-0.17
			C825.87,522.01,825.87,522.09,825.87,522.18z"/>
		<path class="st3" d="M825.87,516.2c-0.06-0.03-0.13-0.06-0.19-0.08c0.06-0.06,0.13-0.11,0.19-0.17
			C825.87,516.03,825.87,516.11,825.87,516.2z"/>
		<path class="st3" d="M825.87,518.19c-0.06-0.06-0.13-0.11-0.19-0.17c0.06-0.03,0.13-0.06,0.19-0.09
			C825.87,518.02,825.87,518.11,825.87,518.19z"/>
		<path class="st3" d="M825.87,514.21c-0.06-0.03-0.13-0.06-0.19-0.09c0.06-0.06,0.13-0.11,0.19-0.17
			C825.87,514.03,825.87,514.12,825.87,514.21z"/>
		<path class="st3" d="M825.87,515.2c-0.06-0.03-0.13-0.06-0.19-0.09c0.06-0.06,0.13-0.11,0.19-0.17
			C825.87,515.03,825.87,515.12,825.87,515.2z"/>
		<path class="st3" d="M825.87,519.19c-0.06-0.03-0.13-0.06-0.19-0.09c0.06-0.06,0.13-0.11,0.19-0.17
			C825.87,519.02,825.87,519.1,825.87,519.19z"/>
		<path class="st3" d="M825.87,520.18c-0.06-0.06-0.13-0.11-0.19-0.17c0.06-0.03,0.13-0.06,0.19-0.09
			C825.87,520.01,825.87,520.1,825.87,520.18z"/>
		<path class="st3" d="M825.87,513.21c-0.06-0.06-0.13-0.11-0.19-0.17c0.06-0.03,0.13-0.06,0.19-0.09
			C825.87,513.04,825.87,513.12,825.87,513.21z"/>
		<path class="st3" d="M825.87,521.18c-0.06-0.06-0.13-0.11-0.19-0.17c0.06-0.03,0.13-0.06,0.19-0.09
			C825.87,521.01,825.87,521.1,825.87,521.18z"/>
		<path class="st3" d="M825.87,512.21c-0.06-0.06-0.13-0.11-0.19-0.17c0.06-0.03,0.13-0.06,0.19-0.09
			C825.87,512.04,825.87,512.13,825.87,512.21z"/>
		<path class="st3" d="M825.87,511.22c-0.06-0.06-0.13-0.11-0.19-0.17c0.06-0.03,0.13-0.06,0.19-0.09
			C825.87,511.04,825.87,511.13,825.87,511.22z"/>
		<path class="st3" d="M825.87,517.19c-0.06-0.03-0.13-0.06-0.19-0.08c0.06-0.06,0.13-0.11,0.19-0.17
			C825.87,517.02,825.87,517.11,825.87,517.19z"/>
		<path class="st3" d="M781.91,511.97c-0.06-0.06-0.13-0.12-0.19-0.17c0.06-0.03,0.13-0.06,0.19-0.09
			C781.91,511.79,781.91,511.88,781.91,511.97z"/>
		<path class="st0" d="M740.13,502.57c0.79-1.14,1.93-1.9,2.94-2.81c2.44-2.18,4.46-4.75,6.79-7.03c1.08,0.42,1.19,0.85,0.62,2.03
			c-0.82,1.69-2.21,2.69-3.41,3.96c-2.04,2.15-4.55,3.82-6.34,6.23c-0.23,0.31-0.46,0.71-0.86,0.37c-0.29-0.26-0.29-0.78,0.05-0.99
			C740.77,503.79,740.24,503.17,740.13,502.57z"/>
		<path class="st0" d="M751.45,502.53c-0.48,0.22-0.94,0.47-1.29,0.88c-1.49,1.02-2.98,2.05-4.47,3.07
			c-0.32,0.37-0.78,0.44-1.22,0.54c-0.03-0.24,0.03-0.53-0.21-0.68c-0.32-0.2-1.03-0.05-0.92-0.6c0.12-0.62,0.83-1.04,1.34-1.13
			c0.91-0.17,1.72-0.12,2.13-1.28c0.14-0.39,0.91-1.06,1.76-0.84c0.24,0.06,0.64-0.06,0.56-0.32c-0.28-0.89,0.37-0.96,0.9-1.28
			c1.21-0.75,1.97-0.7,2.9,0.37C752.43,501.67,751.94,502.1,751.45,502.53z"/>
		<path class="st0" d="M722.57,522.84c-1.43,1.7-2.86,3.39-4.3,5.09c-0.03-0.02-0.09-0.04-0.1-0.07c-0.22-0.72-1.46-0.79-1.27-1.62
			c0.14-0.63,0.69-1.22,1.17-1.71c1.21-1.22,2.18-2.72,3.9-3.35C721.83,521.85,722.26,522.32,722.57,522.84z"/>
		<path class="st0" d="M723.99,491.77c1.82,1.5,3.65,3,5.47,4.5c-0.86,0-1.63-0.2-2.24-0.86c-0.39-0.42-0.64-0.44-0.78,0.24
			c-0.22,1.1-0.73,0.98-1.43,0.3C723.4,494.37,723.07,493.13,723.99,491.77z"/>
		<path class="st0" d="M746.94,510.5c1.36,1.16,2.68,2.37,4.23,3.29c0.09,0.14,0.18,0.28,0.26,0.42c-0.93-0.09-1.89-0.07-2.48-1.04
			c-0.13-0.21-0.48-0.31-0.75-0.4c-0.26-0.09-0.5,0.02-0.62,0.27c-0.13,0.27,0.07,0.36,0.27,0.44c0.35,0.14,0.41,0.45,0.27,0.71
			c-0.24,0.41-0.49,0.06-0.7-0.09c-0.79-0.57-1.81-1.05-0.67-2.26c0.33-0.35-0.08-0.59-1.2-0.54c-0.04-0.64,0.64-0.68,0.89-1.08
			C746.62,510.3,746.78,510.4,746.94,510.5z"/>
		<path class="st0" d="M755.44,499.54c-0.25,0.16-0.5,0.31-0.75,0.47c-0.07-0.63-0.45-0.93-1.06-1.02c-0.46-0.07-0.58-0.6-0.36-0.71
			c0.86-0.45,1.38-1.45,2.48-1.51c0.65-0.04,1.28-0.1,0.99,0.91c-0.07,0.23,0.23,0.3,0.44,0.33c-0.08,0.43-0.55,0.43-0.77,0.71
			C756.09,498.99,755.77,499.27,755.44,499.54z"/>
		<path class="st0" d="M751.94,514.47c0.93,0.89,1.86,1.77,2.92,2.51c0.27,0.32,0.55,0.65,0.82,0.97c-0.32,0.11-0.8,0.49-0.92-0.05
			c-0.22-1.02-0.71-0.6-1.24-0.38c-0.43,0.18-0.87,0.69-1.33,0.22c-0.47-0.49-0.97-1.07-0.68-1.84c0.18-0.48,0.18-0.96,0.19-1.45
			C751.78,514.45,751.86,514.46,751.94,514.47z"/>
		<path class="st0" d="M729.72,496.5c1,0.72,1.98,1.47,2.8,2.4c-0.73,0.61-1.32,1.71-2.52,0.73c-0.6-0.49-0.88-1.05-0.52-1.82
			C729.68,497.4,729.76,496.96,729.72,496.5z"/>
		<path class="st0" d="M733.97,499.99c1.01,0.63,1.89,1.43,2.73,2.26c-0.16,0.01-0.34-0.01-0.49,0.04
			c-1.52,0.48-1.51,0.48-1.78-0.95C734.34,500.87,733.84,500.54,733.97,499.99z"/>
		<path class="st0" d="M722.02,521.3c-0.12-0.82,0.33-0.99,0.69-1.28c0.8-0.64,1.55-1.34,2.33-2.02c0.15-0.13,0.3-0.33,0.52-0.17
			c0.17,0.13,0.05,0.3-0.05,0.42C724.51,519.46,723.4,520.51,722.02,521.3z"/>
		<path class="st0" d="M744.21,508.2c0.33,0.51,0.85,0.78,1.34,1.07c0.05,0.09,0.09,0.18,0.14,0.26c-0.62,0.52-1.26,1-1.97,0.16
			c-0.48-0.57-0.4-1.11,0.28-1.5c0,0,0.1,0,0.1,0L744.21,508.2z"/>
		<path class="st0" d="M721.05,516.95c0.29,0.04,0.71-0.14,0.84,0.28c0.13,0.41-0.29,0.4-0.52,0.54c-0.1,0.06-0.2,0.14-0.28,0.24
			c-0.32,0.4-0.48,1.07-1.18,0.8c-0.28-0.11-0.18-0.5-0.09-0.79C720.01,517.41,720.18,516.79,721.05,516.95z"/>
		<path class="st0" d="M720.67,516.17c0.45-0.48,1.13-0.76,1.3-1.49c0.31,0.47,0.59,0.97,1.14,1.22c0.31,0.13,0.43,0.37,0.25,0.69
			c-0.17,0.31-0.42,0.32-0.73,0.18C722.01,516.48,721.38,516.21,720.67,516.17z"/>
		<path class="st0" d="M737.23,502.69c0.61,0.2,0.91,0.91,1.61,0.96c0.42,0.35,0.55,0.7-0.14,0.82c-0.48,0.08-0.99,0.02-1.49,0.02
			C737.22,503.89,737.22,503.29,737.23,502.69z"/>
		<path class="st0" d="M721.48,489.79c0.73,0.49,1.49,0.95,2.05,1.65c-0.26,0.62-0.83,0.73-1.09,0.23
			C722.11,491.05,721.46,490.58,721.48,489.79z"/>
		<path class="st0" d="M757.86,519.71c0.02,0.08,0.04,0.15,0.04,0.23c-1.71-0.02-1.71-0.02-1.71-1.52c0.08,0.01,0.16,0.02,0.23,0.02
			c0.26,0.39,0.59,0.72,1.01,0.94C757.58,519.49,757.72,519.6,757.86,519.71z"/>
		<path class="st0" d="M719.56,487.75c0.39,0.43,0.78,0.86,1.18,1.29c-0.46,0.07-0.98,0.39-1.34-0.11
			C719.11,488.54,719.11,488.09,719.56,487.75z"/>
		<path class="st0" d="M729.47,520.43c-0.64-0.44-1.28-0.87-1.79-1.47C728.78,518.83,729.58,519.08,729.47,520.43z"/>
		<path class="st0" d="M735.7,503.27c0.38-0.01,0.51,0.22,0.5,0.55c0,0.29,0,0.62-0.42,0.61c-0.34-0.01-0.51-0.26-0.54-0.57
			C735.21,503.53,735.31,503.28,735.7,503.27z"/>
		<path class="st0" d="M724.1,514.39c-0.17,0.21-0.31,0.52-0.65,0.43c-0.25-0.06-0.22-0.31-0.18-0.5c0.06-0.3,0.29-0.36,0.55-0.34
			C724.05,514.01,724.18,514.12,724.1,514.39z"/>
		<path class="st0" d="M717.47,510.5c-0.34-0.32-0.69-0.63-1.03-0.95C717.19,509.29,717.33,509.42,717.47,510.5z"/>
		<path class="st0" d="M716.72,490.28c0,0.22-0.06,0.43-0.33,0.39c-0.21-0.03-0.37-0.22-0.31-0.44c0.04-0.13,0.18-0.3,0.31-0.32
			C716.66,489.85,716.71,490.06,716.72,490.28z"/>
		<path class="st0" d="M753.9,530.52c0.32,0.1,0.28,0.33,0.28,0.52c0,0.18,0.03,0.47-0.26,0.45c-0.27-0.02-0.21-0.3-0.22-0.49
			C753.69,530.8,753.73,530.61,753.9,530.52z"/>
		<path class="st0" d="M746.93,535.68c-0.34-0.34-0.69-0.69-1.03-1.03C746.68,534.56,747.02,534.91,746.93,535.68z"/>
		<path class="st0" d="M724.68,520.92c-0.2,0.4-0.52,0.67-0.93,0.83C723.71,521.08,724.13,520.92,724.68,520.92z"/>
		<path class="st0" d="M741.19,530.19c-0.26-0.24-0.51-0.48-0.77-0.71C741.04,529.14,741.14,529.23,741.19,530.19z"/>
		<path class="st0" d="M748.94,537.64c-0.49-0.01-0.57-0.45-0.81-0.74C748.71,536.81,749.01,537.02,748.94,537.64z"/>
		<path class="st0" d="M712.47,506.02c-0.17-0.15-0.34-0.3-0.51-0.45c0.06-0.18,0.04-0.52,0.3-0.42
			C712.66,505.3,712.42,505.72,712.47,506.02z"/>
		<path class="st0" d="M732.17,501.04c-0.15,0.07-0.25,0.16-0.34,0.16c-0.18,0-0.3-0.12-0.21-0.29c0.03-0.07,0.2-0.11,0.3-0.1
			C732,500.82,732.06,500.94,732.17,501.04z"/>
		<path class="st0" d="M747.93,536.68c-0.26-0.26-0.52-0.52-0.78-0.78C747.76,535.81,748.02,536.07,747.93,536.68z"/>
		<path class="st0" d="M743.92,532.72c-0.3-0.12-0.56-0.27-0.67-0.6C743.64,532.13,743.98,532.2,743.92,532.72z"/>
		<path class="st0" d="M737.16,504.69c0,0.01-0.05,0.13-0.14,0.16c-0.13,0.05-0.23-0.05-0.18-0.18c0.04-0.08,0.16-0.13,0.26-0.18
			C737.21,504.44,737.25,504.48,737.16,504.69z"/>
		<path class="st0" d="M752.76,500.16c-0.07-0.03-0.18-0.05-0.2-0.09c-0.02-0.05,0.05-0.13,0.08-0.2c0.07,0.03,0.18,0.04,0.2,0.09
			C752.86,500.01,752.79,500.09,752.76,500.16z"/>
		<path class="st0" d="M711.47,505.04c-0.09-0.1-0.18-0.2-0.28-0.3C711.28,504.85,711.38,504.95,711.47,505.04z"/>
		<path class="st0" d="M710.96,504.65c-0.07-0.05-0.13-0.11-0.2-0.16C710.83,504.54,710.9,504.6,710.96,504.65z"/>
		<path class="st0" d="M749.99,492.52c0.07-0.07,0.14-0.14,0.21-0.21C750.13,492.37,750.06,492.44,749.99,492.52z"/>
		<path class="st0" d="M746.2,509.96c0.09,0.08,0.17,0.17,0.26,0.25C746.37,510.13,746.29,510.05,746.2,509.96z"/>
	</g>
</g>
</svg>
