<?xml version="1.0" encoding="utf-8"?>
<!-- Generator: Adobe Illustrator 27.5.0, SVG Export Plug-In . SVG Version: 6.00 Build 0)  -->
<svg version="1.1" id="Layer_1" xmlns="http://www.w3.org/2000/svg" xmlns:xlink="http://www.w3.org/1999/xlink" x="0px" y="0px"
	 viewBox="0 0 58 58" style="enable-background:new 0 0 58 58;" xml:space="preserve">
<style type="text/css">
	.st0{fill:#1BE8D5;}
	.st1{fill:#FFD5C9;}
	.st2{fill:#FFFFFF;stroke:#000000;stroke-miterlimit:10;}
</style>
<path class="st0" d="M51.5,45.5c-9.9,13.4-31.6,14.6-43,2c-1.8-1.9-3.2-4.1-4.2-6.4c-5.5-11.6-2.4-26.8,8.2-34.6
	c10.2-7.6,25.3-6.8,35,2C58.1,18.1,59.6,34.6,51.5,45.5z"/>
<path class="st1" d="M6.5,43.4c2-11.8,12.4-20.3,24-19.9c11.1,0.3,20.7,8.7,22.6,19.9"/>
<path class="st2" d="M76.5,68.5"/>
<path class="st2" d="M68.5,47.5"/>
<path class="st1" d="M37.3,20c-3.8,4.8-12.2,5.3-16.6,0.7C20,20,19.5,19.3,19,18.4c-2.1-4.2-0.9-9.7,3.2-12.6
	c4-2.8,9.8-2.5,13.5,0.7C39.9,10.1,40.4,16.1,37.3,20z"/>
<path class="st1" d="M52.8,42C51.1,50.4,41,56.8,29.5,56.9c-11,0.1-20.6-5.6-22.7-13.5"/>
</svg>
